<svg xmlns="http://www.w3.org/2000/svg" width="903.352" height="800" viewBox="0 0 903.352 800">
  <g id="body_Pointing_Up" data-name="body/Pointing Up" transform="translate(0 67)">
    <path id="_Skin" data-name="âœ‹ Skin" d="M784.259,98.118c-10.317-28.417-2.567-64.4-23.833-87.909-6.29-3.823-9.626-1.7-12.215,4.97-1.563,8.772-5.225,38.975,7.945,38.961a186.846,186.846,0,0,1-3.435,56.375c-9.719-1.559-16.805,3.436-23.9,7.151-5.287,2.77-10.576,4.828-16.961,2.927-26.359-4.646-33.871,23.034-34.191,45.628-.387,11.024-1.423,36.722-6.279,47.419-21.978-45.517-68.136-66.24-112.117-76.472-6.894-1.907-12.777-4.513-17.2-8.967-37.056-14.631-19.254-62.567-36.3-90.117-26.684-32.752-58.73-42.176-99.1-36.563-35.323,3.906-59.334,39.787-57.156,73.656.653,6.911-3.5,14.18-5.935,21.292-24.382,29.175-62.321,42.228-94.952,59.857C139.794,209.52,102.076,250.171,59.781,363.361,39.995,405.948,16.316,447.28,8.452,494.183-.789,549.453-.818,606.031,2.4,661.845c-6.006.721.53,43.627,5.8,58.49,1.805,5.094,6.13,8.767,11.519,8.682,10.84,5.269,36.291,26.5,47.629,25.8,36.633-2.256,72.241,1.232,107.535-.571,38.183-1.951,76-9.075,114.345-8.151,66.872,1.611,18.995,5.581,88.18,8.722,43.675,2.014,203.013-21.839,246.564-17.945,35.424,7.452,51.585-5.111,46.181-42.118-2-14.186-8.378-45.733,12.61-47.073,9.928,1.152,18.146,11.073,25.585,16.87,65.7,48.913,132.815,13.693,138.1-66.717,9.957-67.442,23.918-83.375-6.431-150.723C744,196.392,888.663,230.455,790.989,113.023,783.362,119.664,785.3,101.939,784.259,98.118Z" transform="translate(38.981 -67)" fill="#d08b5b"/>
    <path id="_Top" data-name="ðŸ‘• Top" d="M316.374,0Q410.243,47.876,464.84,47.876T657.165,70.171L702.5,169.81l100.045,19.546.444,2.6c4.874,27.961,14.188,61.8,30.168,103.525,30.349,67.348,16.388,83.281,6.431,150.723-5.289,80.41-72.406,115.63-138.1,66.717-7.439-5.8-15.657-15.718-25.585-16.87-20.568,1.313-14.852,31.637-12.735,46.2l.125.872c5.4,37.007-10.757,49.57-46.181,42.118-43.551-3.894-202.889,19.959-246.564,17.945-69.185-3.141-21.308-7.111-88.18-8.722-38.346-.924-76.161,6.2-114.345,8.151-33.437,1.709-67.157-1.332-101.763.262L12.859,577.4q-29.625-212.125,9-278.175Q60.294,233.5,124.789,83.152q.988-1.057,1.993-2.1Z" transform="translate(45.838 84.622)" fill="#78e185"/>
    <path id="_Ink" data-name="ðŸ– Ink" d="M623.829,759.584c-25.942,0-54.064-.663-88.5-2.087l-3.727-.156c-14.012-.593-28.722-1.263-42.947-1.911l-.243-.011c-32.7-1.491-66.52-3.032-98.251-3.956l.094-.766c.563-4.22,3.222-22.439,3.516-23.827l.011-.049a125.678,125.678,0,0,0,2.225-13.4c.522-4.519.991-10.533.261-13.523a14.789,14.789,0,0,0-2.352-5.274,11.609,11.609,0,0,0-3.683-3.26c-2.52-1.424-5.766-2.116-9.923-2.116a82.548,82.548,0,0,0-11.4,1.089c-.734.105-1.427.2-2.123.3l-2.269.3c-1.715.236-5.929.854-5.947.9-1.058-1.1,1.21-4.1,2.064-5.234l.015-.019c.065-.087.123-.162.17-.226l.537-.745c2.8-3.923,5.516-8.2,5.226-13.477-.236-4.326-2.533-7.486-6.828-9.391-3.259-1.445-7.686-2.179-13.16-2.179-2.408,0-4.985.139-7.877.424a.7.7,0,0,0-.6.656.5.5,0,0,0,.439.54l1.766.368a72.927,72.927,0,0,1,11.241,3.208c4.614,1.828,6.891,3.785,6.768,5.818-.132,2.176-2.022,3.865-3.689,5.355-.376.336-.73.653-1.053.965a33.476,33.476,0,0,0-5.231,6.129,15.839,15.839,0,0,0-2.353,7.362,13.113,13.113,0,0,0,1.705,7.5,10.31,10.31,0,0,0,4.926,4.4,15.932,15.932,0,0,0,6.378,1.13c.874,0,1.8-.043,2.82-.132l.312-.029c1.3-.121,2.561-.243,3.641-.348l7.28-.713c.458-.044,1.172-.175,2-.326a32.995,32.995,0,0,1,5.35-.684,3.868,3.868,0,0,1,1.938.365c.848.525,1.119,1.713.828,3.631a31.5,31.5,0,0,1-1.319,4.868c-.23.7-.429,1.3-.536,1.726l-.029.155c-.379,2.557-.633,24.734-.741,34.2v.069c-.024,2.108-.04,3.5-.049,3.9-15.015-.348-30.282-1.98-45.046-3.559-16.687-1.784-33.941-3.629-50.912-3.629-3.837,0-7.606.1-11.2.283-21.608,1.129-43.531,2.913-64.733,4.639l-.034,0c-6.6.538-13.43,1.094-20.231,1.628l-.716-6.081c-.851-7.174-1.736-14.45-2.673-22.154-3.761-30.917-8.024-65.959-10.624-100.047-2.987-39.165-3.3-70.843-.954-96.843a3.417,3.417,0,0,0-.8-2.692,3.822,3.822,0,0,0-2.841-1.141,4.594,4.594,0,0,0-2.842.96,4.02,4.02,0,0,0-1.512,2.873c-2.341,25.957-2.034,57.559.94,96.612,2.59,34.006,6.844,69.01,10.6,99.894,1.244,10.239,2.42,19.908,3.5,29.231-14.073,1.067-25.574,1.823-36.2,2.38l-3.079.158c-15.413.77-28.212,1.129-40.278,1.129-15.288,0-29.048-.589-42.067-1.8a302.675,302.675,0,0,1-41.376-6.577,1.818,1.818,0,0,1-1.169-.831,2.3,2.3,0,0,1-.23-1.728.828.828,0,0,1-.411.108.773.773,0,0,1-.759-.568c-3.337-11-5.5-34.1-7.243-52.656v-.005c-.716-7.631-1.334-14.222-1.944-19.115l-.143-1.112C3.644,656.153,2.268,640.3,1.2,620.582.288,603.892-.108,587.1.026,570.661c.135-16.694.82-33.479,2.035-49.89,4.115-55.707,14.418-108.505,30.621-156.929,4.271-12.764,9.011-25.37,14.087-37.467,5.2-12.391,10.89-24.578,16.915-36.222,6.17-11.926,12.856-23.6,19.871-34.708,7.183-11.37,14.906-22.447,22.955-32.924a287.1,287.1,0,0,1,25.549-29.258c4.689-4.65,9.512-9.042,14.337-13.054a194.541,194.541,0,0,1,15.554-11.689,232.8,232.8,0,0,1,33.456-18.57,369.428,369.428,0,0,1,35.654-13.98c16.118-5.468,32.5-10.141,48.35-14.661.614-.307,1.235-.612,1.843-.906l.927-.443c1.785-.846,3.592-1.732,5.34-2.589l.013-.006c3.889-1.907,7.91-3.879,11.978-5.555l1.3-.531a104.693,104.693,0,0,1,13.382-4.445,57.555,57.555,0,0,1,13.919-1.917c.156,0,.31,0,.465,0A73.6,73.6,0,0,0,339.2,98.488a46.211,46.211,0,0,0,8.644-8.165,31.7,31.7,0,0,0,7.1-22.662,5.112,5.112,0,0,1,1.274-3.946,5.775,5.775,0,0,1,4.239-1.69,6.552,6.552,0,0,1,4.128,1.409,5.683,5.683,0,0,1,2.08,4.226,40.835,40.835,0,0,1-7.154,25.756c-4.533,6.686-11.177,12.71-19.746,17.9l.075.076.075.084a76.7,76.7,0,0,0,7.9,7.76c16.379,13.942,37.613,26.113,59.791,34.27a151.625,151.625,0,0,0,22.889,6.524,119.354,119.354,0,0,0,23.029,2.315,109.133,109.133,0,0,0,15.074-1.046,110.849,110.849,0,0,0,15.238-3.252,138.864,138.864,0,0,0,38.209-17.742,122.239,122.239,0,0,0,10.36-7.66,69.492,69.492,0,0,1-7.73-13.78,68.3,68.3,0,0,1-4.9-16.574c-.963-6.553-.459-12.268,1.5-16.987A4.664,4.664,0,0,1,525.3,82.6a2.876,2.876,0,0,1,2.709,1.836,116.026,116.026,0,0,1,4.416,12,91.012,91.012,0,0,0,6.045,15.286,68.28,68.28,0,0,0,6.189,9.438c0,.157,17,3.067,17.72,3.191h.039a89.967,89.967,0,0,1,15.821,1.446,111.9,111.9,0,0,1,15.355,3.951,181.949,181.949,0,0,1,29.326,13.1c10.905,5.918,21.482,12.113,33.187,19.015l21.453,12.655c1.087.64,2.24,1.253,3.46,1.9.542.288,1.1.586,1.66.889a133.443,133.443,0,0,1-2.231-15.444,105.533,105.533,0,0,1-.169-15.527c.575-8.688,2.628-16.588,5.938-22.846,4.026-7.613,9.814-12.769,17.2-15.324a30.162,30.162,0,0,1,9.9-1.592,38,38,0,0,1,13.845,2.692,43.364,43.364,0,0,1,10.26,5.53,17.526,17.526,0,0,1,5.374-8.885,26.482,26.482,0,0,1,9.086-5.434,28.191,28.191,0,0,1,6.43-1.441c-.056-.974-.073-2.014-.055-3.371l.015-.869c.09-4.594.074-9.6-.05-15.29-.224-10.811-.745-19.937-1.64-28.72-.509-4.955-1.264-9.957-1.994-14.794v-.006c-.443-2.937-.9-5.973-1.3-8.968l-.437-3.41q-.072-.543-.148-1.1l-.007-.053a49.958,49.958,0,0,1-.672-10.16c.288-3.847,1.508-6.778,3.73-8.96A11.675,11.675,0,0,1,764.12,0a15.139,15.139,0,0,1,5.492,1.075,16.2,16.2,0,0,1,4.818,2.966c5.252,4.7,8.44,12.218,11,18.261a105.784,105.784,0,0,1,4.629,13.48c1.17,4.286,2.152,8.794,3,13.782,1.58,9.268,2.452,18.839,3.3,28.094,1.01,11.085,2.055,22.545,4.322,33.634a92.516,92.516,0,0,1,15.6,10.466,67.589,67.589,0,0,1,12.594,13.864,74.088,74.088,0,0,1,11.3,25.656,56.835,56.835,0,0,1-.824,27.874,149.911,149.911,0,0,1-6.278,16.806c-1.594,3.8-3.242,7.719-4.632,11.664a134.305,134.305,0,0,0-6.88,31.6,252.547,252.547,0,0,0-.88,31.838c.161,5.538.456,11.1.741,16.48.059,1.121.151,2.272.241,3.385.306,3.818.623,7.766-.286,11.491l-.146.555c.4-.062.832-.144,1.361-.26.872-.194,1.729-.416,2.558-.63l.017,0a27.038,27.038,0,0,1,6.857-1.158,14.1,14.1,0,0,1,1.858.12,4.422,4.422,0,0,1,3.438,2.111,4.25,4.25,0,0,1,0,3.879,10.738,10.738,0,0,1-2.28,3.289c4.5,33.282,10.974,66.816,17.235,99.246,5.009,25.944,10.187,52.769,14.325,79.3,2.317,14.878,3.886,28.2,4.8,40.718a324.517,324.517,0,0,1,.544,40.972l-.152,2.72a261.613,261.613,0,0,1-4.709,38.665,146.332,146.332,0,0,1-5.21,18.833,104.281,104.281,0,0,1-7.989,17.462,78.282,78.282,0,0,1-24.16,26.05,43.846,43.846,0,0,1-14.76,6.56,92.437,92.437,0,0,1-59.028,3.442,104.176,104.176,0,0,1-23.542-9.661,199.3,199.3,0,0,1-17.222-10.669,118.833,118.833,0,0,1-15.618-12.851,61.592,61.592,0,0,1-6.628-7.719,48.111,48.111,0,0,1-5.211-9.061c0,.47-.023.951-.048,1.417a11.357,11.357,0,0,0,.088,2.883l.578,2.786c.822,3.937,2.1,9.979,3.584,16.975,6.453,30.463,17.252,81.446,17.429,86.649a.746.746,0,0,1-.238.541c-1.037,1.088-5.467,1.887-13.167,2.375-6.263.4-13.02.486-16.651.535h-.008c-.987.013-1.766.023-2.149.036l-.088,0C660.045,759.239,642.639,759.584,623.829,759.584ZM53.413,671.506a18.1,18.1,0,0,0-7.873,1.746,14.7,14.7,0,0,0-6.072,5.363c-2.85,4.464-3.494,10.038-1.968,17.041l.09.4a33.5,33.5,0,0,0,2.152,6.219,13.159,13.159,0,0,0,2,3.173,3.5,3.5,0,0,0,2.519,1.366,2.519,2.519,0,0,0,.814-.139c4.082-1.394,4.554-6.921,4.836-10.223l.022-.338c.022-.433.027-.948.032-1.494a23.527,23.527,0,0,1,.359-4.659c.386-1.74,1.119-2.768,2.241-3.144a3.767,3.767,0,0,1,1.2-.18c2.766,0,6.623,2.358,9.722,4.253a38.035,38.035,0,0,0,3.424,1.957,20.528,20.528,0,0,0,8.436,2.117,11.355,11.355,0,0,0,8.7-3.875c3.55-3.9,4.405-9.246,5.233-14.419.168-1.051.342-2.137.535-3.174l.287-1.507a20.937,20.937,0,0,1,1.478-5.009c.889-1.832,2.063-2.76,3.49-2.76l.125,0c2,.074,4.135,1.6,6.023,2.943.713.508,1.385.987,2,1.356a51.911,51.911,0,0,0,7.807,3.795,42.35,42.35,0,0,0,15.273,2.795,44.968,44.968,0,0,0,4.826-.261,9.534,9.534,0,0,0,4.856-1.759,9.011,9.011,0,0,0,2.964-4.194,17.78,17.78,0,0,0,1.069-3.336A7.428,7.428,0,0,0,138.676,659a9.145,9.145,0,0,0-3.13-2.566,8.641,8.641,0,0,0-3.855-.95,6.605,6.605,0,0,0-5.84,3.352,29.829,29.829,0,0,1-14.446-4.316l-1.788-1.061c-4.882-2.881-9.717-5.467-15.191-5.467a17.263,17.263,0,0,0-3.791.425,17.7,17.7,0,0,0-8.625,4.849,25.126,25.126,0,0,0-5.446,8.344,37.3,37.3,0,0,0-2.27,8.979c-.1.677-.19,1.368-.276,2.036v.009c-.135,1.047-.274,2.129-.461,3.188l-.1.537c-.125.626-.329,1.556-.544,2.489a31.4,31.4,0,0,1-3.23-1.745c-.7-.416-1.368-.809-1.98-1.119l-1.217-.611a38.36,38.36,0,0,0-8.941-3.433,20.019,20.019,0,0,0-4.129-.433Zm713-53.49h0a22.152,22.152,0,0,0-17.8,9.02,20.039,20.039,0,0,0-3.878,11.511,21.562,21.562,0,0,0,1.271,7.11,17.987,17.987,0,0,0,3.92,6.662,8.373,8.373,0,0,0,6.064,2.757c.257,0,.52-.013.782-.038,1.749-.17,3.645-1.241,3.886-2.96a18.083,18.083,0,0,0-.405-5.435,20.3,20.3,0,0,1-.46-5,6.394,6.394,0,0,1,2.111-4.393,6.119,6.119,0,0,1,4.235-1.783c2.749,0,5.515,1.938,7.956,3.648l.295.206,2.754,1.932c4.31,2.994,9,5.946,14.74,6.29.353.021.709.032,1.057.032a18.279,18.279,0,0,0,9.41-2.655,20.137,20.137,0,0,0,6.915-7,34.959,34.959,0,0,0,3.466-9.747,44.1,44.1,0,0,1,2.389-7.661,7.719,7.719,0,0,1,.887-1.375c.494-.657.919-1.224.628-1.571a19.692,19.692,0,0,1,3.754,3.063l0,0a18.179,18.179,0,0,0,1.867,1.648,16.991,16.991,0,0,0,4.427,2.137,15.784,15.784,0,0,0,4.721.733,14.226,14.226,0,0,0,5.369-1.03,13.919,13.919,0,0,0,4.731-3.187,28.654,28.654,0,0,0,3.993-5.642l.006-.01c.316-.534.643-1.085.975-1.623.239-.387.5-.765.762-1.131l0-.007a16.515,16.515,0,0,0,1-1.545,16.351,16.351,0,0,0,.747-2.756l.388-1.806.04-.3A6.5,6.5,0,0,0,846.5,599.6a8.978,8.978,0,0,0-5.248-1.663,9.862,9.862,0,0,0-6.6,2.551l-.194.181a36.848,36.848,0,0,0-4.254,5.134l-.412-.32c-.067-.051-.131-.1-.193-.153l-.178-.148c-2.6-2.194-5.481-4.353-8.969-5.288a15.648,15.648,0,0,0-4.061-.543,17.041,17.041,0,0,0-10.065,3.491,23.835,23.835,0,0,0-7.044,8.416,44.813,44.813,0,0,0-3.384,10.509l-.033.141q-.091.391-.184.784l-.079.365c-.047.231-.1.5-.149.775l0,.015c-.366,1.959-.919,4.918-2.333,5.716a.8.8,0,0,1-.4.089,7.628,7.628,0,0,1-2.883-1.188c-1.691-.975-3.312-2.118-4.88-3.223-1.257-.886-2.558-1.8-3.888-2.628a27.792,27.792,0,0,0-14.659-4.591ZM540.8,611.966a23.881,23.881,0,0,0-10.593,2.259,18.116,18.116,0,0,0-7.784,7.329,25.249,25.249,0,0,0-3.147,10.334,44.053,44.053,0,0,0,.4,11.293,26.689,26.689,0,0,0,3.852,10.449.756.756,0,0,0,.629.357.819.819,0,0,0,.741-.537,44.448,44.448,0,0,0,2.4-10.935,53.945,53.945,0,0,1,1.791-9.3c1.561-4.9,4.69-7.379,9.3-7.379a18.011,18.011,0,0,1,4.86.752,86.527,86.527,0,0,1,8.567,3.1,62.681,62.681,0,0,0,11.91,3.881,30.149,30.149,0,0,0,5.43.507,25.35,25.35,0,0,0,8.307-1.356,23.544,23.544,0,0,0,7.453-4.234c4.326-3.626,7.66-9.046,10.191-16.569a61.776,61.776,0,0,0,1.582-6.122c1.042-4.661,2.119-9.479,5.06-12.889,1.081-1.253,2.968-2.774,4.727-2.936.146-.013.291-.02.43-.02,1.583,0,2.523.86,3.613,1.857a16.117,16.117,0,0,0,1.61,1.345,14.871,14.871,0,0,0,8.375,2.676,11.273,11.273,0,0,0,5.438-1.322,9.574,9.574,0,0,0,4-4.249,10.1,10.1,0,0,0,1.042-3.853,5.684,5.684,0,0,0-1.042-3.817c-1.851-2.455-3.544-3.457-5.841-3.457a16.131,16.131,0,0,0-3.327.454,3.511,3.511,0,0,1-.413-.416l-.118-.143a15.6,15.6,0,0,0-4.465-3.3,18.334,18.334,0,0,0-8.618-2.07,22.692,22.692,0,0,0-12.945,4.208,27.692,27.692,0,0,0-8.077,9.063,50.888,50.888,0,0,0-4.6,11.358c-.373,1.284-.7,2.652-1.042,4.1-1.184,4.984-2.526,10.633-6.306,13.907a8.747,8.747,0,0,1-5.991,2.04c-3.747,0-7.872-1.577-11.511-2.968-1.276-.488-2.479-.948-3.57-1.3A40.823,40.823,0,0,0,540.8,611.966ZM260.785,565.02h0a17.493,17.493,0,0,0-13.31,5.7,20.155,20.155,0,0,0-4.831,8.263,21.986,21.986,0,0,0-.651,9.1,30.977,30.977,0,0,0,14.092,21.536.659.659,0,0,0,.348.1.686.686,0,0,0,.53-.267.749.749,0,0,0,.154-.63,61.861,61.861,0,0,0-2.343-7.6c-1.8-5.071-3.671-10.314-2.573-15.856a9.918,9.918,0,0,1,3.012-5.718,8.355,8.355,0,0,1,5.689-1.973,13.183,13.183,0,0,1,2.082.173,60.8,60.8,0,0,1,11.244,3.375c4.805,1.785,9.772,3.63,14.747,3.63a18.562,18.562,0,0,0,9.344-2.477,20.3,20.3,0,0,0,7.225-7.087,30.91,30.91,0,0,0,3.781-9.477,63.279,63.279,0,0,0,1.043-6.853c.45-3.9.915-7.941,2.57-11.488,1.02-2.188,2.36-3.207,4.217-3.207a14.388,14.388,0,0,1,4.535,1.132,23.728,23.728,0,0,0,4.188,1.221,17.062,17.062,0,0,0,2.708.21c4.689,0,9.265-1.737,11.94-4.533a9.526,9.526,0,0,0,2.72-7.257,8.362,8.362,0,0,0-2.47-5.365,7.574,7.574,0,0,0-5.271-2.406,6.052,6.052,0,0,0-3.644,1.238c-.814.591-1.6,1.191-2.341,1.783l-.314.339a8.939,8.939,0,0,1-2.673-.532l-1.581-.508a30.134,30.134,0,0,0-9.055-1.783,16.24,16.24,0,0,0-3.52.377,17.7,17.7,0,0,0-9.4,5.627,28.664,28.664,0,0,0-5.545,9.609c-1.449,4.071-1.7,8.277-1.94,12.344a73.538,73.538,0,0,1-.7,7.474,10.885,10.885,0,0,1-2.443,5.853,6.426,6.426,0,0,1-4.964,1.948,13.887,13.887,0,0,1-2.977-.36l-.312-.072c-2.476-.593-5.08-1.421-7.6-2.223l-.009,0c-5.2-1.655-10.579-3.367-15.7-3.367ZM739.64,346.952a3.794,3.794,0,0,0-4.015,3.863,234.181,234.181,0,0,1-1.672,26.476c-.968,8.242-2.345,16.768-4.21,26.064-3.465,17.271-8.137,34.651-12.655,51.459-3.752,13.96-7.632,28.392-10.8,42.7a328.8,328.8,0,0,0-6.947,43.379,3.435,3.435,0,0,0,.819,2.695A3.841,3.841,0,0,0,703,544.732a4.568,4.568,0,0,0,2.837-.96,4,4,0,0,0,1.5-2.876,328.48,328.48,0,0,1,6.945-43.361c3.171-14.3,7.049-28.714,10.8-42.656l0-.01c4.52-16.806,9.193-34.181,12.659-51.457,1.866-9.3,3.244-17.831,4.212-26.082a234.68,234.68,0,0,0,1.672-26.514,3.72,3.72,0,0,0-1.039-2.713,4.157,4.157,0,0,0-2.945-1.15ZM103.576,496.8v0l-.206.99a19.076,19.076,0,0,1-1.1,3.923l-.316.725c-.3.672-.605,1.356-.9,2.017l-.018.04A49.954,49.954,0,0,0,97.3,514.649a18.117,18.117,0,0,0-.358,5.243,15.823,15.823,0,0,0,1.463,5.427,15.231,15.231,0,0,0,5.784,6.547,15.64,15.64,0,0,0,8.254,2.325,16.534,16.534,0,0,0,4.275-.567,13.549,13.549,0,0,0,8.739-7.483,10.408,10.408,0,0,0-.266-9.194,6.055,6.055,0,0,0-5.241-2.931,4.83,4.83,0,0,0-2.6.713l-.677.45-.05.032-.007,0a14.251,14.251,0,0,0-2.136,1.535c-.207.054-.4.1-.585.147.2-.584.366-1.312.528-2.016a13.408,13.408,0,0,1,.554-2l1.369-3.108a45.187,45.187,0,0,0,3.088-8.9,18.948,18.948,0,0,0-.278-9.432c-2.123-7.159-6.354-10.638-12.932-10.638a33.057,33.057,0,0,0-9.891,1.856c-3.441,1.1-6.938,2.546-10.32,3.942l-.007,0c-1.812.748-3.524,1.455-5.195,2.1.206-.8.405-1.581.574-2.342.532-2.4,1.116-4.837,1.682-7.189l.224-.93,1.331-5.579c1.185-5.083,2.137-10.859-1.594-15.086a9.056,9.056,0,0,0-7.075-3.14,19.858,19.858,0,0,0-8.319,2.24,165.508,165.508,0,0,0-21.638,12.288,1.783,1.783,0,0,0,.964,3.3,2.169,2.169,0,0,0,.407-.04,126.333,126.333,0,0,0,14.909-3.645c1.112-.357,2.262-.772,3.374-1.173l.009,0a45.031,45.031,0,0,1,8-2.344,23.147,23.147,0,0,1-.879,2.607c-.3.829-.628,1.663-.945,2.47l-.008.019c-.349.887-.71,1.8-1.036,2.723-1.314,3.7-2.476,7.425-3.439,10.578l-.539,1.773a42.86,42.86,0,0,0-1.792,8.4,13.253,13.253,0,0,0,1.321,7.886,9.345,9.345,0,0,0,6.422,4.254,10.1,10.1,0,0,0,2.167.229c2.746,0,5.442-1.013,8.05-1.992l.1-.038c.31-.116.628-.236.939-.35l.739-.267,13.078-4.635c.522-.185,1.193-.351,1.9-.527l.008,0a11.975,11.975,0,0,0,3.822-1.374Zm742.23,5.14c2.621,0,4.256.643,5,1.967a7.177,7.177,0,0,0,6.435,3.82,8.748,8.748,0,0,0,6.854-3.371,7.32,7.32,0,0,0,1.171-6.546,14.963,14.963,0,0,0-4.49-7.21,18.575,18.575,0,0,0-7.589-4.007,19.6,19.6,0,0,0-5.232-.644,37.58,37.58,0,0,0-4.158.259c-.585.064-1.179.143-1.754.218h-.01c-.59.078-1.259.166-1.91.236l-.906.083c-.009-.01-.391-.025-1.2-.053h-.034c-.829-.029-1.86-.066-2.444-.1l.239-.641c.037-.1.069-.174.1-.231a18.365,18.365,0,0,0,2.092-8.284,13.833,13.833,0,0,0-2.425-7.352,17.053,17.053,0,0,0-5.742-5.267,23.132,23.132,0,0,0-11.393-2.944,23.555,23.555,0,0,0-2.593.143,35.936,35.936,0,0,0-5.94,1.444,31.3,31.3,0,0,1-8.5,1.741,8.65,8.65,0,0,1-3.438-.633,8.087,8.087,0,0,1-4.073-4.8,19.177,19.177,0,0,1-1.2-6.39,40.113,40.113,0,0,1,1.178-8.831,44.813,44.813,0,0,0,1.174-7.908.574.574,0,0,0-.17-.416.649.649,0,0,0-.453-.2.517.517,0,0,0-.294.09,27.432,27.432,0,0,0-6.021,5.575,30.032,30.032,0,0,0-4.322,7.232,26.586,26.586,0,0,0-2.027,8.106,21.371,21.371,0,0,0,.864,8.2,21.762,21.762,0,0,0,3.752,7.1,19.139,19.139,0,0,0,6.169,5.106,18.661,18.661,0,0,0,8.773,1.974,50.594,50.594,0,0,0,10.236-1.377l2.688-.575a17.03,17.03,0,0,1,3.467-.447,8.267,8.267,0,0,1,2.227.289,5.466,5.466,0,0,1,.978.431,4.519,4.519,0,0,0,1.08.453,9.414,9.414,0,0,0-.484,1.048c-.073.176-.142.343-.192.445l-.458.922a17.889,17.889,0,0,0-1.192,2.89,13.688,13.688,0,0,0,.82,9.908,16.445,16.445,0,0,0,6.269,6.7,20.554,20.554,0,0,0,8.8,2.81c.178.016.377.024.591.024a32.476,32.476,0,0,0,4.109-.43l.4-.057A37.888,37.888,0,0,1,845.806,501.945Zm-364.57-57.888a8.59,8.59,0,0,1,4.193.859,3.569,3.569,0,0,1,1.86,3.226c.049,1.972-1.382,4.225-2.645,6.213A25.456,25.456,0,0,0,483,457.183a25.764,25.764,0,0,0-2.621,10.936,15.663,15.663,0,0,0,3.417,9.906,10.959,10.959,0,0,0,8.509,4.193,12.619,12.619,0,0,0,5.575-1.383,6.567,6.567,0,0,0,3.316-4.089,8.021,8.021,0,0,0-.609-6.236c-.535-.93-1-1.652-1.4-2.288-1.628-2.54-2.014-3.143-.5-7.1l.546-1.389a40.557,40.557,0,0,0,2.638-9.038,17.155,17.155,0,0,0-1.071-9.259,17.968,17.968,0,0,0-8.393-9.132,26.043,26.043,0,0,0-12.128-2.764,33.819,33.819,0,0,0-11.57,2.056l-.409.155c-.821.318-1.817.741-2.971,1.231-4.691,1.992-11.777,5-16.912,5a6.591,6.591,0,0,1-5.093-1.8c-1.207-1.326-1.685-3.415-1.422-6.209.165-1.757.442-3.519.709-5.222.645-4.111,1.312-8.358.407-12.672a18.161,18.161,0,0,0-10.383-12.731,20.914,20.914,0,0,0-8.594-1.911,21.456,21.456,0,0,0-7.675,1.478,31.242,31.242,0,0,0-7.019,3.877,61.059,61.059,0,0,0-11.719,11.6.733.733,0,0,0-.078.779.589.589,0,0,0,.526.362.662.662,0,0,0,.348-.108l1.115-.7.869-.546A79.535,79.535,0,0,1,409.515,409a23.9,23.9,0,0,1,9.965-2.447,17.815,17.815,0,0,1,3.02.257c3.37.581,5.775,1.914,7.146,3.961,1.488,2.222,1.8,5.337.922,9.26l-.449,1.93a47.91,47.91,0,0,0-1.542,10.66,18.934,18.934,0,0,0,2.719,10.289,17.784,17.784,0,0,0,7.957,6.8,26.524,26.524,0,0,0,10.33,2.277c.192,0,.392.007.593.007,5.985,0,11.483-2.172,16.8-4.273,1.635-.646,3.325-1.314,5.013-1.912l.583-.2A29.983,29.983,0,0,1,481.236,444.057ZM278.125,386.5a17.592,17.592,0,0,0-3.079.27,16.148,16.148,0,0,0-8.453,4.793,19.689,19.689,0,0,0-5.02,8.754,12.85,12.85,0,0,0-.048,6.6,10.762,10.762,0,0,0,3.821,5.659,3.316,3.316,0,0,0,2.055.7,2.877,2.877,0,0,0,2.067-.809,2.519,2.519,0,0,0,.679-1.879l-.01-.505a19.275,19.275,0,0,1,1.261-7.5,7.439,7.439,0,0,1,5.459-4.727,8.869,8.869,0,0,1,1.784-.176c3.349,0,6.853,1.706,10.241,3.356a38.23,38.23,0,0,0,5.968,2.524,21.4,21.4,0,0,0,5.8.855,15.827,15.827,0,0,0,7.113-1.627,17.381,17.381,0,0,0,5.489-4.387,30.583,30.583,0,0,0,6.208-14.083l.088-.483c.1-.576.2-1.236.3-1.875a42.879,42.879,0,0,1,1.6-7.406c.975-2.8,2.312-4.554,4.089-5.35a2.958,2.958,0,0,1,1.216-.258c1.463,0,2.963,1.021,4.286,1.922a18.533,18.533,0,0,0,1.635,1.036,25.975,25.975,0,0,0,10.231,3.046c.455.035.92.052,1.385.052a23.259,23.259,0,0,0,19.227-11.078,15.966,15.966,0,0,0,2.259-7.528,15.373,15.373,0,0,0-2.113-8.2,5.58,5.58,0,0,0-4.995-2.654,6.164,6.164,0,0,0-4.6,1.9A4.5,4.5,0,0,0,353,351.076l.233,1.818a14.308,14.308,0,0,1,.078,3.622,6.974,6.974,0,0,1-1.435,3.416,7.8,7.8,0,0,1-3.275,2.439,10.8,10.8,0,0,1-4.039.749,12.638,12.638,0,0,1-1.583-.1,22.057,22.057,0,0,1-7.695-2.983c-2.708-1.468-5.507-2.986-8.839-2.986a11.7,11.7,0,0,0-2.256.224c-7.228,1.422-11.131,7.935-12.814,11.691a43.17,43.17,0,0,0-2.721,10.274A57.833,57.833,0,0,1,306.9,387a9.089,9.089,0,0,1-2.7,4.418,5.907,5.907,0,0,1-3.881,1.28A17.319,17.319,0,0,1,294,391.145l-1.276-.525-.788-.329-.222-.093C287.372,388.38,282.88,386.5,278.125,386.5ZM645.71,350.338a19.979,19.979,0,0,0-6.43,1.032,18.93,18.93,0,0,0-5.446,2.917,24.013,24.013,0,0,0-7.52,10.419l-.317.828a63.765,63.765,0,0,0-3.744,15.089c-.655,6.493.445,11.2,3.269,13.983a3.675,3.675,0,0,0,2.469.974,2.484,2.484,0,0,0,1.507-.461c3.365-2.524,4.513-6.537,5.623-10.417.132-.462.282-.985.432-1.491l.112-.374c.261-.861.519-1.757.768-2.624l.006-.022c1.09-3.79,2.216-7.708,4.236-11.029a6.212,6.212,0,0,1,2.492-2.381,7.023,7.023,0,0,1,3.2-.7c3.783,0,8.444,2.262,12.189,4.08a48.007,48.007,0,0,0,4.679,2.09,27.807,27.807,0,0,0,9.089,1.566,24.908,24.908,0,0,0,9.4-1.819,25.9,25.9,0,0,0,8.285-5.44,30.967,30.967,0,0,0,5.635-7.477,46.861,46.861,0,0,0,3.583-8.613,18.857,18.857,0,0,0,3.78,1.516,18.526,18.526,0,0,0,4.84.646,14.248,14.248,0,0,0,10.193-3.857,12.456,12.456,0,0,0,3.457-6.359,11.346,11.346,0,0,0-.562-6.52,8.675,8.675,0,0,0-8.345-5.5,12.571,12.571,0,0,0-2.327.227A4.446,4.446,0,0,0,707.6,332.3a6.009,6.009,0,0,0-1.219,2.965l-.149.337a20.926,20.926,0,0,1-4.8-2.737,22.441,22.441,0,0,0-3.393-2.07,10.848,10.848,0,0,0-4.279-.869,8.832,8.832,0,0,0-4.923,1.367,6.607,6.607,0,0,0-2.843,4.4l-.653,3.616a47.021,47.021,0,0,1-3,10.792c-1.758,3.879-4.108,6.313-7.185,7.44a7.994,7.994,0,0,1-2.758.468c-2.981,0-6.076-1.41-8.807-2.654l-.025-.011c-.518-.236-1.006-.458-1.486-.668-4.084-1.785-8.886-3.731-14.2-4.234-.728-.069-1.458-.1-2.169-.1ZM222.526,300.784a1.983,1.983,0,0,1,1.632.645c.775.959-.973,4.984-1.547,6.307-.048.111-.089.2-.121.28-.707,1.652-1.509,3.287-2.284,4.868-1.013,2.066-2.061,4.2-2.907,6.4a27.835,27.835,0,0,0-1.95,10.636,21.786,21.786,0,0,0,2.794,10.4,19.145,19.145,0,0,0,5.28,5.96,12.268,12.268,0,0,0,7.121,2.538,9.948,9.948,0,0,0,5.811-1.922,6.241,6.241,0,0,0,0-10.6c-.377-.267-.757-.519-1.124-.762-1.647-1.092-3.2-2.124-3.9-4.143-1.1-3.147.247-6.469,1.717-9.6l1.67-3.541a51.086,51.086,0,0,0,4.44-12.475,17.014,17.014,0,0,0-2.213-12.608,14.753,14.753,0,0,0-6.233-5.494,18.5,18.5,0,0,0-7.933-1.654,26.5,26.5,0,0,0-10.227,2.148c-1.792.759-3.546,1.627-5.241,2.467a60.347,60.347,0,0,1-8.6,3.712,53.614,53.614,0,0,1-10.226,2.162,30.8,30.8,0,0,1,.034-8.307c.151-1.621.293-3.152.3-4.648.022-7.834-1.84-13.569-5.693-17.534a18.644,18.644,0,0,0-13.7-5.645,26.784,26.784,0,0,0-21.8,12.084,2.879,2.879,0,0,0-.053,3,3.291,3.291,0,0,0,2.81,1.723,2.972,2.972,0,0,0,.789-.108,42.034,42.034,0,0,0,5.655-2.243c3.436-1.544,7.33-3.295,10.884-3.295a8.671,8.671,0,0,1,4.9,1.4c1.734,1.133,2.665,3.011,2.845,5.741a33.458,33.458,0,0,1-.645,7.28c-.179,1.1-.348,2.138-.434,3.035l-.063.689a46.275,46.275,0,0,0,.059,10.4c.583,4.025,1.982,7.127,4.157,9.217,1.58,1.519,3.755,2.227,6.843,2.227a38.982,38.982,0,0,0,4.031-.268l1.183-.123a62.438,62.438,0,0,0,12.95-2.564,82.65,82.65,0,0,0,11.156-4.711l.907-.448c.175-.087.4-.2.65-.335l.017-.009C217.771,302.262,220.594,300.784,222.526,300.784ZM714.777,117.153a19.935,19.935,0,0,0-9.851,2.481,22.084,22.084,0,0,0-7.114,6.508c-3.614,5.028-5.937,11.946-6.542,19.479a99.95,99.95,0,0,0,.59,20.523,157.735,157.735,0,0,0,4.011,20.238c1.178,4.476,2.581,9.258,4.289,14.62a236.86,236.86,0,0,0,8.38,22.829c.915,2.071,1.953,4.418,3.11,6.65,3.951,3.24,7.287,7.612,10.1,11.455l1.96,2.689.527.725a122.569,122.569,0,0,1,12.94,21.971,132.369,132.369,0,0,1,7.831,23.168l.48,1.982c.123.5.248,1,.38,1.523l.013.05c1.45,5.768,3.094,12.3.646,17.508a100.752,100.752,0,0,0,16.051,3.869,116.417,116.417,0,0,0,16.213,1.01c2.283,0,4.66-.046,7.267-.14,7.106-.261,14.46-.8,22.482-1.658l5.385-.593c.624-.07,1.171-.136,1.673-.2a3.466,3.466,0,0,1-.52-.868c-1.579-3.785-1.691-8.074-1.8-12.221-.023-.874-.047-1.778-.085-2.662l-.025-.548c-.274-5.378-.449-10.922-.52-16.48a253.836,253.836,0,0,1,1.28-30.94,170.25,170.25,0,0,1,4.9-26.709,181.989,181.989,0,0,1,7.5-20.752c.621-1.521,1.324-3.244,1.99-4.908a96.065,96.065,0,0,0,4.288-12.81,47.039,47.039,0,0,0-2.1-30.21.564.564,0,0,1-.348.131h-.032c-5.725-.211-11.3-1.664-16.7-3.07l-.048-.012c-1.013-.264-2.06-.537-3.094-.8a168.072,168.072,0,0,0-21.271-4.08l-1.517-.177a65.6,65.6,0,0,0-7.221-.475,25.121,25.121,0,0,0-10.711,2.033,19.7,19.7,0,0,0-7.363,6.243,35.537,35.537,0,0,0-4.6,8.6l-.252.681a36.884,36.884,0,0,0-1.984,8.9,29.386,29.386,0,0,0,.482,9.046c1.418,6.425,5.16,11.1,10.823,13.516a18.823,18.823,0,0,0,6.963,1.33,11.452,11.452,0,0,0,4.656-.85,5.391,5.391,0,0,0,3-3.04c.69-1.843-.266-4.4-1.034-6.462-.226-.606-.44-1.179-.6-1.687a25.464,25.464,0,0,1-1.281-8.121,4.59,4.59,0,0,1,4.312-4.507l.219-.014a22.177,22.177,0,0,0,4.155-.839,23.839,23.839,0,0,1,5.648-1.026,4.539,4.539,0,0,1,2.883.817,4.3,4.3,0,0,1,1.474,3.059,4.042,4.042,0,0,1-2.029,3.551,23.974,23.974,0,0,1-7.141,2.8c.328,1.449.793,2.888,1.243,4.279l.049.151a2.561,2.561,0,0,1,.919-.26c.707-.058,1.441-.086,2.242-.086,1.512,0,3.046.1,4.53.2h.012c1.369.092,2.786.187,4.186.2l2.006.014a16.179,16.179,0,0,1,8.094,1.656,3.172,3.172,0,0,1,1.741,2.691,4.113,4.113,0,0,1-1.741,3.539,12.341,12.341,0,0,1-7.163,1.976,25.367,25.367,0,0,1-13.417-4.276,11.975,11.975,0,0,1-.71,6.09,14.15,14.15,0,0,1-6.52,7.072,21.719,21.719,0,0,1-9.429,2.578c-.335.014-.677.022-1.016.022a25.542,25.542,0,0,1-14.545-4.681c-.364,1.3-.822,2.6-1.266,3.86a41.058,41.058,0,0,0-1.774,6,35.421,35.421,0,0,0-.41,5.889,24.555,24.555,0,0,1-.989,8.04,7.768,7.768,0,0,1-2.727,3.52,7.131,7.131,0,0,1-4.126,1.436,5.4,5.4,0,0,1-4.227-2.037,13.219,13.219,0,0,1-2.636-5.116,16.944,16.944,0,0,1-.479-5.789,22.2,22.2,0,0,1,4.085-10.965,22.847,22.847,0,0,1,4.813-4.8,14.259,14.259,0,0,1,6.336-2.794,28.95,28.95,0,0,1-7.079-10.4.5.5,0,0,1-.211.045.615.615,0,0,1-.168-.024,29.411,29.411,0,0,1-16.544-11.658,33.368,33.368,0,0,1-4.4-8.964,37.082,37.082,0,0,1-1.724-10,28.736,28.736,0,0,1-3.31,2.05,5.126,5.126,0,0,1-2.422.612,4.8,4.8,0,0,1-4.708-3.5,5.139,5.139,0,0,1,.943-4.362,4.344,4.344,0,0,1,3.43-1.8c.1,0,.2,0,.307.012.835.069,1.6.1,2.328.1a18.943,18.943,0,0,0,3.131-.243c.235-.037.467-.084.671-.125l.07-.014c.159-1.05.372-2.107.63-3.14a32.933,32.933,0,0,1-3.718.2,60.469,60.469,0,0,1-12.642-1.633,3.747,3.747,0,0,1-2.88-4.29,3.913,3.913,0,0,1,3.8-3.723l.158,0,.731.032c.6.029,1.216.064,1.871.1l.037,0c1.812.1,3.865.22,5.911.22,5.607,0,9.446-.907,12.079-2.855a33.1,33.1,0,0,1,2.98-3.69,8.172,8.172,0,0,0,.37-.92,6.05,6.05,0,0,0-.565-5.344c-.862-1.421-2.811-3.523-7.2-5.471a34.188,34.188,0,0,0-8.385-2.485,25.629,25.629,0,0,0-3.7-.278ZM505.315,253.467c-.28,0-.564.006-.844.017a27.233,27.233,0,0,0-18.365,8.174,23.087,23.087,0,0,0-5.315,8.826,22.49,22.49,0,0,0-.87,10.241l.068.426a23,23,0,0,0,2.476,6.348c1.139,2,2.939,4.385,5.046,4.385a3.716,3.716,0,0,0,2.666-1.364c1.645-1.743,1.831-3.664,2.027-5.7.069-.717.141-1.458.277-2.226a18.344,18.344,0,0,1,3.323-7.928,12.051,12.051,0,0,1,4.232-3.535,11.568,11.568,0,0,1,5.205-1.217,12.549,12.549,0,0,1,3.557.523,62.785,62.785,0,0,1,6.557,2.484c3.938,1.663,8.006,3.38,12.526,3.44l.277,0a19.511,19.511,0,0,0,9.832-2.617,22.531,22.531,0,0,0,7.426-7.022,43.35,43.35,0,0,0,4.589-10.1c.648-1.831,1.318-3.724,2.113-5.539l.221-.5a14.9,14.9,0,0,1,1.965-3.48,3.12,3.12,0,0,1,2.482-1.21,7.881,7.881,0,0,1,3.186.9l1.538.737c4.207,2,8.707,3.849,13.11,3.849a13.762,13.762,0,0,0,7.709-2.266,14.077,14.077,0,0,0,6.441-9.616,10.67,10.67,0,0,0-2.736-8.729,6.968,6.968,0,0,0-5.263-2.138,7.993,7.993,0,0,0-3.775.914,5.823,5.823,0,0,0-2.611,2.725c-.319.7-.611,1.389-.951,2.215a8.342,8.342,0,0,1-1.688-.7c-1.288-.581-2.53-1.258-3.73-1.914a31.1,31.1,0,0,0-6.808-3.027,17.589,17.589,0,0,0-4.544-.6,19.263,19.263,0,0,0-14.147,6.407c-4.013,4.406-6.057,9.865-7.807,15.078l-1.041,3.127c-1.207,3.521-2.585,6.682-6.154,6.682a8.6,8.6,0,0,1-2.524-.431c-2.061-.641-4.064-1.434-6-2.2C514.5,255.142,510.268,253.467,505.315,253.467Zm-188.75-22.436c-5.265,0-9.2,1.163-12.386,3.661a17.948,17.948,0,0,0-5.667,7.978,21.41,21.41,0,0,0-1.171,9.776,26.076,26.076,0,0,0,3.262,9.8c1.465,2.484,4,5.555,7.763,6.079a2.6,2.6,0,0,0,.354.025,1.5,1.5,0,0,0,1.394-.736c1.634-3.178.886-6.624.163-9.956a23.408,23.408,0,0,1-.8-6.618c.2-2.544.99-4.31,2.429-5.4a8.668,8.668,0,0,1,5.4-1.384c.579,0,1.192.024,1.874.075,1.1.081,2.227.2,3.313.309l.025,0a60.652,60.652,0,0,0,6.179.426,20.491,20.491,0,0,0,5.985-.8,15.215,15.215,0,0,0,7.03-4.563,16.356,16.356,0,0,0,3.714-7.525c1.024-5.049-.34-9.9-1.659-14.588l0-.01c-.3-1.075-.615-2.186-.894-3.283a14,14,0,0,1-.4-5.933,2.186,2.186,0,0,1,.521-.926l.065-.078a2.411,2.411,0,0,1,.442-.037,8.59,8.59,0,0,1,1.6.22c.305.062.592.119.823.144l1.037.1c1.312.119,2.459.176,3.507.176a18.168,18.168,0,0,0,6.227-.953,12.573,12.573,0,0,0,5.356-3.712,11.2,11.2,0,0,0,2.62-8.378l-.1-1.243c-.116-1.256-.329-2.781-.942-3.431l-.008-.032c.223-.3.415-.582.588-.866l.176-.3a6.386,6.386,0,0,0,.6-4.958,6.062,6.062,0,0,0-2.884-3.76A8.811,8.811,0,0,0,357.9,179.2a8.179,8.179,0,0,0-6.238,3.1,12.054,12.054,0,0,0-2.6,9.536l.06.327c.038.191.141.675.282,1.277a9.378,9.378,0,0,1-1.183-.218L346.409,193a33.3,33.3,0,0,0-3.8-.265,14.982,14.982,0,0,0-4.639.676,13.7,13.7,0,0,0-7.545,5.983,18.747,18.747,0,0,0-2.632,9.383c-.1,3.956,1.1,7.527,2.264,10.981a46.194,46.194,0,0,1,2.036,7.424,4.29,4.29,0,0,1-.619,3.586c-.689.808-1.889,1.2-3.667,1.2a30.491,30.491,0,0,1-4.05-.383c-.622-.086-1.208-.168-1.766-.228l-.173-.018a51.726,51.726,0,0,0-5.253-.3Zm449.176-101.5a32.184,32.184,0,0,0-9.28,1.4,30.286,30.286,0,0,0-7.588,3.482,27.943,27.943,0,0,0-6.253,5.438,26.155,26.155,0,0,0-3.13,4.622,27.265,27.265,0,0,0-2.94,10.367,37.912,37.912,0,0,0,.759,11.191,44.876,44.876,0,0,0,9.781,19.871,38.154,38.154,0,0,1-.463-18.911,46.943,46.943,0,0,1,2.994-9.173,45.407,45.407,0,0,1,4.689-8.185,29.82,29.82,0,0,1,5.485-5.817,27.091,27.091,0,0,1,6.291-3.761,36.032,36.032,0,0,1,14.378-2.627,68.22,68.22,0,0,1,9.285.691l.453.063a126.845,126.845,0,0,1,21.065,4.49,59.7,59.7,0,0,1,10.044,4.223,37.9,37.9,0,0,1,8.509,6.177,56.566,56.566,0,0,0-3.411-6.54c-8.456-13.921-22.574-23.416-32.929-28.93-2.065-1.113-4.265-2.207-6.54-3.25-10.265-4.717-18.847-7.01-26.239-7.01a28.541,28.541,0,0,0-11.174,2.126,26.178,26.178,0,0,0-9.757,7.294,17.554,17.554,0,0,1,4.681,7.01,42.916,42.916,0,0,1,9.02-3.67,45.618,45.618,0,0,1,12.1-1.649,36.235,36.235,0,0,1,9.85,1.279,23.4,23.4,0,0,1,8.5,4.27,4.085,4.085,0,0,1,1.374,4.742,5.918,5.918,0,0,1-2.023,2.695,5.424,5.424,0,0,1-3.216,1.133,4.6,4.6,0,0,1-1.045-.12c-1.424-.332-2.8-.77-4.129-1.193a29.084,29.084,0,0,0-7.631-1.687C766.75,129.547,766.242,129.534,765.74,129.534Zm-.8-116.673L764.91,13l-.006.025-.014.054a38.045,38.045,0,0,0,.728,9.883c.164,1.025.318,1.994.447,2.954l.075.582c.3,2.443.638,4.928.961,7.331l0,.019c.913,6.788,1.858,13.807,2.227,20.75a158.889,158.889,0,0,1-.788,27.446l-.162,1.284c-.134,1.031-.253,2.066-.38,3.162a63.652,63.652,0,0,1-2.3,12.549c6.761.647,13.47,2.927,18.559,4.841,2.119.8,4.208,1.644,6.21,2.5-1.182-6.28-2.127-12.706-3.042-18.921-1.082-7.357-2.2-14.961-3.718-22.369l-.552-2.721q-.17-.843-.339-1.687c-1.439-7.166-2.926-14.573-4.971-21.669A89.847,89.847,0,0,0,769.39,18.5a40.324,40.324,0,0,0-3.46-4.92A1.928,1.928,0,0,0,764.941,12.861Z" transform="translate(31 -61.999)"/>
  </g>
</svg>
