<svg xmlns="http://www.w3.org/2000/svg" width="819.583" height="765" viewBox="0 0 819.583 765">
  <g id="body_Sporty_Tee" data-name="body/Sporty Tee" transform="translate(0 32)">
    <path id="_Skin" data-name="âœ‹ Skin" d="M90.141,744.167q17.957,1.11,35.911,1.77c156.531,5.832,312.934-12.012,469.368-15.916,54.477-1.434,108.675-.718,163.012,3.656,5.324.428,11.412-5.3,10.758-10.758-10.039-86.654-22.6-173.078-29.107-260.088a39.216,39.216,0,0,1,2.171-13.533c.3-.34,1.844-4.152,3.219-4.388-.449.332,1.586-.252.29-.152,7.856-1.286,15.561-9.766,9.86-17.881C696.891,336.86,616.716,254.7,590.922,147.782c-6.094-28.906-28.106-30.693-51.556-42.618-7.316-4.351-25.207-16.4-28.119-24.785-6.955-30.2,5.293-59.792-30.49-72.013-23.622-6.549-65.374-12.09-89.275-5.183-29.155,9.7-26.973,42.557-43.884,65.16-8.746,13.074-23.656,30.974-37.424,32.977-6.673.971-11.588-12.527-18.251-11.6C188.07,114.945,46.576,287.011,1.94,382.261c-10.059,29.977,22.382,20.933,20.389,51.063C19.871,490.485,14.5,563.661,17.685,620.89c2.985,33.216.776,68.019,11.1,99.986-2.779,3.374,1.214,6.783,4.472,8.249C37.363,736.106,77.755,743.2,90.141,744.167Z" transform="translate(24.165 -32)" fill="#d08b5b"/>
    <path id="_Top" data-name="ðŸ‘• Top" d="M291.924.03c6.214-.866,6.618,17.4,12.635,18.194,27.926,39.206,71.2,52.22,121.254,52.22q79.7,0,129.245-47.935l3.027,1.276c15.634,6.645,28.42,13.348,32.838,34.305,25.794,106.918,105.968,189.078,164.7,279.1,5.7,8.115-2,16.6-9.86,17.881,1.3-.1-.739.484-.29.152-1.375.236-2.921,4.048-3.219,4.388a34.524,34.524,0,0,0-1.647,6.448s-65.8,13.939-83.484,14.322c-177.617,3.843-502.431-1.645-502.431-1.645L18.645,327.272c-7.781-11.683-24.274-12.146-16.706-34.7C46.576,197.319,188.07,25.253,291.924.03Z" transform="translate(24.165 57.692)" fill="#e86bbb"/>
    <path id="_Ink" data-name="ðŸ– Ink" d="M177.857,728.2c-7.251,0-13.807-.222-20.044-.678a1.088,1.088,0,0,1-.74-.33,13.024,13.024,0,0,1-7.74-3.924,10.109,10.109,0,0,1-3.06-7.966l.01-.1c2.273-23.823,4.848-50.825,7.35-76.948,4.6-48.222,8.936-93.133,13.241-137.3l.644-6.607c1.448-14.9,2.923-30.75,3.655-46.354-3.657-.259-7.345-.592-10.959-.99-9.628-1.054-19.507-2.608-29.362-4.619-9.4-1.918-19.079-4.313-28.76-7.117-9.174-2.657-18.652-5.77-28.17-9.252-8.939-3.27-18.222-6.978-27.592-11.022l-1.475-.64c-2.191-.956-4.489-1.9-6.921-2.9l-.024-.01c-1.171-.48-2.383-.977-3.6-1.484.036,4.152-.032,8.368-.1,12.445-.045,2.774-.091,5.643-.1,8.464-.035,8.023,0,16.174.032,24.057v.031c.014,3.4.029,6.915.038,10.372.061,20.52.724,42.4,2.15,70.951,3.255,65.61,6.082,101.266,8.18,125,.438,4.93.958,9.939,1.46,14.782v.01c.564,5.438,1.148,11.06,1.618,16.6a18.571,18.571,0,0,1-.877,8.374,12,12,0,0,1-5.512,6.177,6.376,6.376,0,0,1-3.225.937,10.6,10.6,0,0,1-4.465-1.3,11.06,11.06,0,0,1-5.851-6.655,37.222,37.222,0,0,1-1.585-9.057c-.047-.508-.089-.965-.134-1.418-.534-5.344-1.018-10.668-1.381-14.71-.961-10.713-1.771-21.288-2.41-31.432-1.336-21.354-2.156-42.384-2.438-62.506-.3-21.252-.005-42.294.868-62.543.845-19.726,2.071-39.43,3.643-58.565l.377-4.5c.282-3.334.549-6.771.806-10.094l0-.034c.957-12.363,1.947-25.147,4.091-37.451a84.578,84.578,0,0,1-15.721-8.665A34.86,34.86,0,0,1,2.513,386.487a21.692,21.692,0,0,1-.85-18.441,29.483,29.483,0,0,1,4.81-7.747,44.761,44.761,0,0,1,6.961-6.562,12.908,12.908,0,0,1,.28-3.849c2.956-12.794,7.889-25.389,12.659-37.57,4.869-12.39,10.239-24.529,15.961-36.081a450.954,450.954,0,0,1,41.291-67.451,459.313,459.313,0,0,1,52.339-59.3,401.322,401.322,0,0,1,61.86-48.749,356.334,356.334,0,0,1,33.9-19.03l1.724-.839c7.872-3.821,17.041-8.084,26.247-10.321.9-.669,1.857-1.339,2.849-1.99a6.6,6.6,0,0,1,3.671-1.095,7.933,7.933,0,0,1,3.872,1.048,8.149,8.149,0,0,1,2.926,2.766,18.607,18.607,0,0,1,3.55-2.119l1.335-.609c5.646-2.542,13.064-5.46,20.371-5.46a23.763,23.763,0,0,1,6.244.8A17.432,17.432,0,0,1,316.2,74.518a124.97,124.97,0,0,0,13.029-7.7,108.142,108.142,0,0,0,18.579-16.731A102.816,102.816,0,0,0,362.072,29.98a89.965,89.965,0,0,0,8.611-23.064,8.574,8.574,0,0,1,3.274-5.27A9.018,9.018,0,0,1,379.322,0a11.514,11.514,0,0,1,4.831,1.084,10.349,10.349,0,0,1,3.863,3.047,8.769,8.769,0,0,1,1.387,7.946A101.1,101.1,0,0,1,377.717,38.84a90.586,90.586,0,0,1-19.1,22.037A99.676,99.676,0,0,1,338.6,73.732a69.924,69.924,0,0,1-23.076,6.855c.775.754,1.548,1.551,2.295,2.321l.005.006c.67.691,1.362,1.4,2.061,2.093a137.633,137.633,0,0,0,10.55,9.36,152.914,152.914,0,0,0,23.88,16.13,157.947,157.947,0,0,0,20.068,9.011,167.936,167.936,0,0,0,20.838,6.144,195.939,195.939,0,0,0,43.164,4.631,241,241,0,0,0,26.67-1.527,270,270,0,0,0,27.12-4.308,172.043,172.043,0,0,0,26.31-7.752,93.223,93.223,0,0,0,22.3-12.159l1.769-1.328c4.012-3.029,8.4-6.659,10.52-10.612a8.8,8.8,0,0,1-1.926.207c-2.788,0-6.1-1.215-9.838-3.613a67.468,67.468,0,0,1-8.237-6.463,59.66,59.66,0,0,1-12.64-16.611,61.071,61.071,0,0,1-6.468-19.732,44.983,44.983,0,0,1-.266-10.392,35.177,35.177,0,0,1,2.415-9.986.851.851,0,0,1,.777-.564.809.809,0,0,1,.792.776,85.572,85.572,0,0,0,4.7,21.416,56.574,56.574,0,0,0,4.728,9.714,51.309,51.309,0,0,0,6.839,8.8A56.148,56.148,0,0,0,550.6,77.987l.874.4c2.709,1.253,5.446,2.693,6.547,5.278a3.243,3.243,0,0,1,.369-.021,3.46,3.46,0,0,1,.9.122c.337.09.668.2,1.039.33a10.481,10.481,0,0,1-1.059-5.181,6.213,6.213,0,0,1,2-4.59,6.282,6.282,0,0,1,4.184-1.521,6.691,6.691,0,0,1,3.935,1.258,6.155,6.155,0,0,1,2.38,3.754c-.075-.254-.168-.406-.253-.406-.039,0-.07.036-.082.1a.546.546,0,0,0,.385.559h0a3.9,3.9,0,0,1,.064.39l.014.175-.009-.146c-.008-.094-.02-.189-.037-.292l-.023-.126a.939.939,0,0,0,.4.08l.066.026c.1.042.283.127.5.225l.005,0c.343.156.731.333.891.4a23.019,23.019,0,0,0,3.11.821c.833.179,1.695.364,2.508.618,4.457,1.371,7.692,3.556,9.891,6.68a18.463,18.463,0,0,1,3.109,8.24,198.386,198.386,0,0,1,25.43,14.583,166.708,166.708,0,0,1,22.7,18.438,254.141,254.141,0,0,1,21.639,24.072,309.057,309.057,0,0,1,18.628,26.342c10.4,16.412,20.313,35.1,30.292,57.136,8.616,19.027,16.231,38.105,25.015,60.9l1.245,3.234c6.643,17.284,9.568,26.9,11.373,33.341a178.9,178.9,0,0,1,6.408,34.58,8.52,8.52,0,0,1-1.741,5.76,19.723,19.723,0,0,1,.59,5.3c-.011.3-.033.589-.05.811h.172c3.059,0,5.7,1.466,8.088,4.482a5.683,5.683,0,0,1,1.722-.273,5.331,5.331,0,0,1,1.648.261c6.534,2.087,7.921,8.992,9.146,15.083q.117.585.234,1.159a101.346,101.346,0,0,1,1.95,20.089,8.244,8.244,0,0,1-.983,3.758,6.007,6.007,0,0,1-2.738,2.722c-2.579,1.137-5.325,2.061-7.981,2.955-1.882.633-3.824,1.286-5.709,2.015-3.522,1.36-6.991,2.618-10.31,3.74a30.918,30.918,0,0,1,2.713,8.135l0,.008c.285,1.206.554,2.344.864,3.4,1.554,5.252,2.875,10.708,4.041,16.681,4.165,21.414,7.674,43.315,11.068,64.5,2.684,16.753,5.459,34.073,8.541,51.044,3.594,19.825,7.746,39.271,11.69,57.49,2.108,9.713,4.308,19.173,6.54,28.119,1.246,5,2.545,10.016,3.86,14.91.367,1.376.751,2.793,1.173,4.33l.7,2.521a9.085,9.085,0,0,1,3.721,3.849,13.164,13.164,0,0,1,1.145,9.6,11.924,11.924,0,0,1-2.163,4.223,13.327,13.327,0,0,1-3.892,3.29,12.043,12.043,0,0,1-6.021,1.6,15.449,15.449,0,0,1-12.809-7.713c-2.03-3.409-3.007-7.621-3.953-11.7l0-.013c-.3-1.274-.575-2.477-.885-3.652-1.387-5.231-2.778-10.726-4.25-16.8-4.435-18.294-8.282-37.137-11.761-57.6-3.088-18.171-5.813-37.213-8.329-58.215l-.33-2.781c-2.287-19.341-4.645-39.926-6.14-60.259-.784-10.63-1.331-20.342-1.67-29.691-.181-5.134.115-10.312.4-15.321.044-.751.1-1.538.143-2.232v-.005c.1-1.464.2-2.977.246-4.462l.022-.318,0-.03c.018-.213.042-.5.063-.8l.022-.378c-6.582,2.061-13.637,3.9-20.969,5.479a177.5,177.5,0,0,1-37.687,4.38c-2.722,0-5.445-.08-8.094-.239,2.35,27.921,5.238,52.771,8.83,75.969,3.739,24.13,8.113,48.533,13,72.531,2.344,11.561,4.924,23.393,7.89,36.17.554,2.37,1.146,4.774,1.718,7.1l0,.011c.977,3.97,1.988,8.074,2.84,12.139.823,3.959,1.017,7.12-.562,10.64,1.325,3.607,2.539,7.229,3.713,10.732l0,.008.01.031c.385,1.148.782,2.334,1.17,3.477l.464,1.362c.509,1.485,1.111,3,1.693,4.463a42.865,42.865,0,0,1,3.045,9.846,14.527,14.527,0,0,1-.123,4.893,13.006,13.006,0,0,1-2.105,4.839,15.213,15.213,0,0,1-12,6.52l-.088.055-.005,0c-.054.034-.11.07-.167.1a11.214,11.214,0,0,1-5.36,1.3,13.192,13.192,0,0,1-2.7-.284c-4.821.945-8.768,1.676-12.42,2.3-9.8,1.692-19.9,3.151-30.87,4.46-17.838,2.123-37.2,3.54-59.2,4.33-15.277.551-31.566.818-49.8.818-23.142,0-46.674-.435-69.432-.855h-.123c-22.761-.421-46.3-.856-69.446-.856-10.107,0-19.413.08-28.451.245-33.62.61-69.8,2.092-110.611,4.531-4.281.256-8.8.531-12.423.752-14.005.852-28.488,1.734-42.737,2.438l-5.692.276C198.341,727.746,188.085,728.2,177.857,728.2ZM674.663,414.737c.638,9.691,1.338,19.2,2.08,28.26l10.625-2.436c10.228-2.347,21.1-4.9,31.725-7.974,7.206-2.086,14.828-4.648,23.3-7.83,4.294-1.613,8.2-3.193,11.95-4.829a60.409,60.409,0,0,0,5.616-2.906l1.554-.884a88.859,88.859,0,0,0-1.979-12.5c-.289-1.273-.7-2.592-1.106-3.868-.294-.935-.6-1.9-.855-2.853a6.044,6.044,0,0,1-1.681.243,5.885,5.885,0,0,1-.7-.042c.257.031.393.087.4.164.027.217-.9.579-1.722.9-.408.159-.793.308-1.018.425l-.062.033c-1.569.9-3.054,1.712-4.541,2.49-3.268,1.719-6.843,3.407-10.93,5.16a132.344,132.344,0,0,1-22.61,7.249,118.844,118.844,0,0,1-23.3,2.869c-.684.013-1.356.02-2,.02A54.255,54.255,0,0,1,674.663,414.737ZM17.623,361.558h0l-.278.562c-2.227,4.572-3.159,8.478-2.849,11.94a12.764,12.764,0,0,0,1.835,5.583,16.854,16.854,0,0,0,4.923,4.985,92.667,92.667,0,0,0,12.96,7.319c6.485,3.086,13.327,5.7,19.944,8.221,1.637.625,3.33,1.271,4.973,1.907l1.623.633C76.587,408.92,91.12,413.921,105.183,418c7.841,2.266,15.607,4.254,23.083,5.91,7.938,1.758,15.82,3.2,23.428,4.29,6.365.9,13.094,1.587,20,2.031.1-8.039.068-16.217.039-24.127v-.023q-.005-1.431-.01-2.86c-.822-.1-1.653-.212-2.457-.316-1.506-.2-3.064-.4-4.561-.575-7.345-.856-14.13-1.847-20.741-3.029a315.474,315.474,0,0,1-42.46-10.66,268.172,268.172,0,0,1-37.18-15.358,263.561,263.561,0,0,1-34.33-20.773,19.207,19.207,0,0,1-2.806,6,8.693,8.693,0,0,1-5.334,3.459,7.913,7.913,0,0,1-1.617.176,5.877,5.877,0,0,1-2.613-.586ZM301.081,72.894A35.8,35.8,0,0,0,287.7,75.878c-2.1.9-4.262,1.82-6.321,2.939l-.4.221c-2.385,1.373-2.353,2.208-1.2,4.908A81.6,81.6,0,0,0,285.25,94.1l.142.237a143.619,143.619,0,0,0,32.7,37.239,175.792,175.792,0,0,0,27.733,18.473,194.83,194.83,0,0,0,30.841,13.271,209.111,209.111,0,0,0,32.8,8.007,213.1,213.1,0,0,0,33.622,2.684h.009a201.947,201.947,0,0,0,43.051-4.574A170.978,170.978,0,0,0,525.8,155.71a133.427,133.427,0,0,0,34.234-24.08l1.834-1.824a102.864,102.864,0,0,0,12.58-14.5,39.327,39.327,0,0,0,4.488-8.506,21.984,21.984,0,0,0,1.416-8.926,5.9,5.9,0,0,0-2.724-5.047,17.732,17.732,0,0,0-5.663-1.853c-.506-.109-1.027-.22-1.543-.34a21.08,21.08,0,0,1-5.51-2.03,8.836,8.836,0,0,1-.392,4.667A22.745,22.745,0,0,1,562.1,98.26a47,47,0,0,1-6.527,8.048,90.609,90.609,0,0,1-26.458,17.62,158.137,158.137,0,0,1-28.662,9.523,277.525,277.525,0,0,1-29.809,5.166A240.913,240.913,0,0,1,441,140.485a212.671,212.671,0,0,1-38.661-3.467,172.1,172.1,0,0,1-28.874-7.949,144.6,144.6,0,0,1-26.826-13.252,123.119,123.119,0,0,1-21.77-17L323.5,97.435c-2.218-2.248-4.781-4.886-7.121-7.742a40.207,40.207,0,0,1-5.72-8.845l-.389,0c-.918,0-1.85-.031-2.771-.093a.868.868,0,0,1-.774-.682.7.7,0,0,1,.374-.8c.785-.417,1.631-.863,2.489-1.309-.154-.512-.268-.948-.36-1.37a.5.5,0,0,1,.105-.42.462.462,0,0,1,.355-.178.436.436,0,0,1,.23.067c.469.28.943.593,1.45.959.128-.058.258-.127.39-.2C309.3,74.218,305.7,72.894,301.081,72.894Z" transform="translate(14 -6.574)"/>
  </g>
</svg>
