<svg xmlns="http://www.w3.org/2000/svg" width="818" height="782" viewBox="0 0 818 782">
  <g id="body_Explaining" data-name="body/Explaining" transform="translate(0 49)">
    <path id="_Skin" data-name="âœ‹ Skin" d="M700.283,450.342c-6.686-20.545,1.277-44.275-3.928-66.423-1.784-8.76-5.174-41.307-8.579-60.339-1.9-10.646,9.489-13.951,11.239-18.2,12.322-38.17-77.565-127.967-83.052-131.276-8.222-4.752-15.5-8.842-23.531-13.7-23.436-8.232-51.539-31.134-72.786-16.424C482.835,89.186,497.4,21.671,477.423,13.647S398.46-10.6,364.736,10.114c-20.214,14.956-18.724,40.7-27.947,61.935-5.414,10-8.073,24.474-14.376,30.993C301,125.192,274.3,129.011,244.445,132.771c-2.274.286-4.666-5.9-6.875-5.134-50.356,17.4-108.95,22.483-165.978,119.937-8.054,13.937-29.781,36.3-22.516,52.4C1.208,411.288-45.892,661.824,85.453,724.3c4.2,2.685,32.681-11.715,37.321-11.581,7.736.222-7.087,19.006,0,15.659,52.029,3.948,338.316-6.237,448.054,3.948,75.463-.565,123.26,12.666,140.685-.565-6.966-16.834-6.643-34.865-4.441-52.662,16.037-11.933-3.788-96.036-2.11-120.663C719.974,540.443,708.021,472.95,700.283,450.342Z" transform="translate(49.42 -49)" fill="#d08b5b"/>
    <path id="_Top" data-name="ðŸ‘• Top" d="M176.713,3.289l-.483.311c-.08.052-.159.106-.234.163a.733.733,0,0,0,.173,1.318,16.46,16.46,0,0,0,2.525.741c2.648,3.841,4.717,8.589,6.162,10.995,4.151,6.914,39.784,50.385,45.11,55.971,8.653,9.076,51.266,43.2,51.844,42.522a175.281,175.281,0,0,0,21.333,10.9c43.656,18.551,99.651,20.234,137.168-10.582,2.8.765,29.32-37.426,33.421-51.106,2,.555,4.476-14.107,3.093-13.883,1.206-8.289-13.321-38.062-14.7-39.486q.311-.1.623-.187a.626.626,0,0,0,.722.375,30.762,30.762,0,0,1,8.385-1.047c2.134.043,17.369,6.984,17.961,7.269l1.095.526c121.88,58.589,140.666,153.805,144.88,153.59-1.774,2.248-49.932,70.337-52.521,76.355-.538-13.012,8.361,333.867,8.983,341.111.255,2.987.274,10.038.7,12.877-3.059.168-110.239-7.149-309.54-5.95-63.642.383-220.943,7.306-220.943,7.306l-.052-.433c-.451-4.248-.059-12.485-.121-16.718,6.041-3.489,11.97-7.2,17.83-10.842,13.342-8.3,95.669-83.708,156.175-151.178,35.869-40,80.616-66.916,83.037-69.533a1.157,1.157,0,0,0,.1-.167.641.641,0,0,0,.482.153c27.87-3.983,69.453,4.588,100.067-11.26,13.667-7.074,60.042-55.238,73.71-68.548a4.445,4.445,0,0,0,.912-1.252c9.114-5.553,44.63-33.7,47.143-37.182l.748-1.047c2.777-3.931,6.951-8.074,2.112-11.85-5.1-3.978-14.87.8-20.249,3.091l-.749.314C521,228,518.43,229.174,515.9,230.417c-3.191-8.94-10.972-9.125-19.357-7.891-5.978.881-11.781,2.926-17.607,4.483q-11.1,2.964-22.28,5.582c-13.425,3.142-28.942,8.889-42.523,11.269a2.878,2.878,0,0,0-1.522-.912c-4.65-1.162-9.781-.272-14.551-.184q-6.13.114-12.261.026l-2.452-.043c-8.761-.179-20.513-4.252-29.272-4.4l-.524-.322-.517-.328c-2.261-1.459-4.711-3.41-5.379-5.867-.083-.307,8.872-20.918,9-37.6.072-9.273-3.111-17.949-3.87-22.549-1.853-11.23-6-4-12,7s-14,21-20,29c-7.734,10.312-15.319,13.427-19.261,19.4q-1,1.52-1.966,3.13c-1.542-1.538-14.543,29.089-12.27,34.988-1.583-.525-65.5,81.478-204.5,140.478.886-5.517,25-151,19-175s-85.349-112.7-93.6-114.671c.826-1.346-31.4,20.671,26.6-36.33S131.44,13.03,160.314,2.439q2.424-.754,4.825-1.524a.776.776,0,0,0,1.217.923C170.348-1.462,173.813.087,176.713,3.289Z" transform="translate(114.209 80.318)" fill="#9ddadb"/>
    <path id="_Ink" data-name="ðŸ– Ink" d="M715.695,697.832h0a4.559,4.559,0,0,1-2.607-.818,5.11,5.11,0,0,1-1.85-2.44c-2.166-5.778-1.915-12.269-1.672-18.546.066-1.712.134-3.479.149-5.175.066-8.114-.021-16.357-.106-24.328v-.14q-.058-5.467-.115-10.935c-.122-11.818-.249-24.038-.416-36.06-.867-62.654-2.467-117.668-4.892-168.186-1.134-23.629-2.948-48.524-5.544-76.108-2.069-21.982-4.675-46.089-8.2-75.866-4.579,6.257-9.128,12.845-13.905,20.141-5.363,8.192-10.406,16.372-15.058,23.992-1.551,2.542-3.084,5.125-4.567,7.622l-.025.042c-.871,1.467-1.772,2.984-2.664,4.473-.737,1.227-1.509,2.456-2.236,3.609.619,12.324,1.131,25.08,1.521,37.914,1.606,52.858,3.8,105.177,6.519,155.506,1.569,29.037,2.941,53.439,4.537,78.151.79,12.231,1.644,24.838,2.611,38.543.456,6.482.955,13.129,1.483,19.756.058.723.127,1.461.189,2.111a29.807,29.807,0,0,1,.09,7.681,7.578,7.578,0,0,1,.633,3.754,8.088,8.088,0,0,1-1.227,3.727,6.971,6.971,0,0,1-6.1,3.218,9.978,9.978,0,0,1-1.341-.094c-16.241-2.214-32.864-2.714-48.941-3.2-3.543-.107-7.207-.217-10.863-.346l-38.333-1.352-20.376-.719c-17.583-.62-35.479-1.407-52.786-2.169-38.94-1.713-79.2-3.484-118.791-3.484-13.383,0-25.817.194-38.012.593-21.092.691-42.512,1.909-63.228,3.087h-.009c-13.143.747-26.733,1.52-40.119,2.151-20.152.949-36.718,1.431-52.134,1.517-1.937.011-4.237.022-6.606.022-12.98,0-26.837-.324-40.228-2.678a5.365,5.365,0,0,1-2.255,2.907,6.427,6.427,0,0,1-3.418.976,5.456,5.456,0,0,1-3.979-1.581,5.007,5.007,0,0,1-1.262-3.829,50.965,50.965,0,0,1,1.424-10c-1.874.962-3.431,1.731-4.9,2.422-6.417,3.02-14.79,6.486-22.645,6.486a21.671,21.671,0,0,1-6.524-.944,17.507,17.507,0,0,1-5.888-3.19,2.357,2.357,0,0,1-.182-.174l-.067-.068A43.815,43.815,0,0,1,63.5,670.184a60.212,60.212,0,0,1-14.119-11.438A97.235,97.235,0,0,1,38.145,643.8a152.938,152.938,0,0,1-8.627-16.143,284.7,284.7,0,0,1-13.94-36.593A330.275,330.275,0,0,1,6.44,552.974c-2.093-11.678-3.7-23.827-4.762-36.112C.654,505.087.094,492.848.011,480.486c-.079-11.8.275-24.055,1.052-36.427.738-11.746,1.88-23.947,3.393-36.264a707.142,707.142,0,0,1,12.3-70.545,656.1,656.1,0,0,1,19.647-68.861C40.548,256.447,45,245.054,49.65,234.528a341.546,341.546,0,0,1,16.375-32.471,271.051,271.051,0,0,1,20.1-30.166,226.117,226.117,0,0,1,24.411-26.947c4.4-4.113,9.022-8.153,13.743-12.006a3.459,3.459,0,0,1,1.392-2.231,23.8,23.8,0,0,1,4.577-2.5,278.324,278.324,0,0,1,50.871-31.167A260.984,260.984,0,0,1,237.364,77.8a7.133,7.133,0,0,1,1.934-.407c.276-.057.551-.115.826-.173l.012,0c.358-.076.728-.155,1.093-.227a.509.509,0,0,1,.1-.01.393.393,0,0,1,.351.2.424.424,0,0,1,0,.419,15.783,15.783,0,0,1,6.456,3.735,63.333,63.333,0,0,1,9.347-3.085c1.145-.313,2.225-.609,3.277-.922l1.692-.5.008,0c5.541-1.646,11.271-3.348,16.851-5.169l2.4-.781c10.248-3.329,20.844-6.771,30.18-12.362,10.821-6.481,16.34-10.8,20.2-22.4,1.042-3.137,2-5.825,2.932-8.425,2.614-7.315,4.678-13.091,6.177-22.434a5.845,5.845,0,0,1,2.439-3.981A7.716,7.716,0,0,1,348.015,0a9.358,9.358,0,0,1,3.457.662,7.455,7.455,0,0,1,2.8,1.916,5.759,5.759,0,0,1,1.406,4.634,111.55,111.55,0,0,1-3.551,18.121,73.169,73.169,0,0,1-6.542,15.754,65.537,65.537,0,0,1-10.3,13.679,82.75,82.75,0,0,1-14.817,11.9,97.349,97.349,0,0,1-17.706,8.729,170.256,170.256,0,0,1-18.889,5.866,168.584,168.584,0,0,1-20.209,3.937l-1.155.15a81.935,81.935,0,0,1-9.719.867c2.232,2.686,4.279,5.59,5.923,7.924,1.081,1.534,2.015,2.859,2.773,3.806,8.476,10.584,17.875,20.744,26.965,30.57,2.6,2.806,5.278,5.7,7.917,8.592a325.944,325.944,0,0,0,32.655,31.565A215.221,215.221,0,0,0,347.209,182.2a176.011,176.011,0,0,0,19.712,11.336c21.651,10.6,45.041,16.2,67.641,16.2,4.179,0,8.373-.194,12.465-.577a108.579,108.579,0,0,0,19.545-3.65,101.669,101.669,0,0,0,18.394-7.208,93.2,93.2,0,0,0,16.5-10.739,86.758,86.758,0,0,0,13.874-14.242,92.02,92.02,0,0,0,10.073-16.387,90.86,90.86,0,0,0,6.432-18.125c2.027-8.5,2.509-17.65,1.517-28.81-6.274-2.65-11.7-8.913-16.185-14.69a92.473,92.473,0,0,1-13.747-25.448,139.3,139.3,0,0,1-7.012-29.524c-.673-5.015-.944-9.974-1.136-14.585-.032-.754-.073-1.506-.116-2.3l0-.046c-.208-3.805-.423-7.738.409-11.3a.886.886,0,0,1,1.6-.21,36.9,36.9,0,0,1,3.027,8.841l.008.033c.211.84.43,1.709.657,2.541.521,1.9,1.062,3.824,1.586,5.684l0,.012c.678,2.407,1.379,4.9,2.038,7.349,2.163,8.056,4.613,17.183,8.078,25.8a110.934,110.934,0,0,0,5.773,12.2A90.8,90.8,0,0,0,525.7,85.67a55.6,55.6,0,0,0,8.948,9.353c.216.175.442.341.661.5l.006,0,.154.113a5.926,5.926,0,0,1,2.929-.8,4.765,4.765,0,0,1,2.919.96,5.72,5.72,0,0,1,1.968,3.087c.542,1.907,1,3.867,1.4,5.992v.009a78.175,78.175,0,0,1,.31,25.61,89.974,89.974,0,0,1,11.089-.853c1.534-.054,3.12-.111,4.661-.2,5.157-.3,10.4-.406,15.475-.509,2.084-.042,4.24-.086,6.384-.143,10.161-.269,20.065-.657,29.438-1.154a306.874,306.874,0,0,0-29.485-18.175c-3.413-1.853-7.021-3.484-10.511-5.06A128.644,128.644,0,0,1,559.08,97.95c-1.1-.655-2.174-1.353-3.214-2.028-3.03-1.967-5.889-3.823-9.431-4.823a25.6,25.6,0,0,0-6.961-.949A31.166,31.166,0,0,0,531.64,91.2a.6.6,0,0,1-.151.02.674.674,0,0,1-.621-.538.516.516,0,0,1,.3-.612,27.95,27.95,0,0,1,11.908-2.8,27.6,27.6,0,0,1,11.043,2.407c2.15.937,4.279,1.995,6.337,3.018l.009,0c2.487,1.237,5.058,2.515,7.694,3.593.791.323,1.6.649,2.375.965l.1.041c3.638,1.473,7.4,3,11.008,4.727a262.817,262.817,0,0,1,43.5,26.31,244.562,244.562,0,0,1,37.379,34.438,225.393,225.393,0,0,1,15.344,19.569,9.4,9.4,0,0,1,4.718,7.065c2.6,4.069,5,8.088,7.117,11.947a205.489,205.489,0,0,1,9.888,20.794c.8,1.954,8.474,21.63,7.937,21.939a4.077,4.077,0,0,1,2.049-.583,4.341,4.341,0,0,1,3.978,3.329,3.72,3.72,0,0,1-1.863,4.378c-.181.1-.37.2-.614.321a4.039,4.039,0,0,1-.694,2.417c-2.931,4.012-6.155,7.912-9.272,11.684-2.8,3.392-5.7,6.9-8.383,10.48l-.1.139-.011.015c-.042.057-.084.115-.126.171,5.157,24.227,9.489,50.66,13.245,80.807,3.381,27.134,6.233,55.305,8.477,83.731,2.143,27.15,3.8,55.416,4.926,84.013,1.136,28.866,1.453,57.485,1.759,85.161v.007c.149,13.495.249,27.659.3,42.1.024,7.329.105,14.573.241,21.531.026,1.342.083,2.712.138,4.037v.018c.232,5.584.471,11.358-1.481,16.73A4.669,4.669,0,0,1,715.695,697.832ZM217.537,602.78c-3.186,2.923-6.012,5.446-8.641,7.713-9.6,8.283-19.5,16.208-29.434,23.556-10.178,7.531-20.665,14.663-31.172,21.2l-1.226.762-.009.005c-5.4,3.358-10.979,6.83-16.6,10.074.022,1.485-.012,2.994-.046,4.453a58.2,58.2,0,0,0,.277,9.175c11.5-.822,23.254-.839,34.625-.856,6.841-.01,13.91-.02,20.844-.206,21.072-.566,42.088-1.825,58.043-2.859,8.447-.548,17.035-1.139,25.339-1.71h.005c25.879-1.78,52.639-3.621,79.013-4.444,10.088-.314,20.546-.467,31.971-.467,23.218,0,46.82.652,69.645,1.282h.017l2.636.073c30.367.838,63.568,1.835,104.486,3.139l16.46.524,9.069.289,27.209.866,9.236.294,1.763.056,15.869.505c1.673.053,3.413.08,5.174.08,3.926,0,8.063-.127,13.019-.4-.267-1.8-.375-3.723-.478-5.583-.06-1.08-.123-2.2-.216-3.3q-.273-3.18-.548-6.36l-.056-.646-.018-.209c-.41-4.758-.834-9.678-1.244-14.516-.813-9.634-1.6-19.79-2.552-32.93l-2.407.309-.143.018h-.006c-5.38.694-10.944,1.412-16.4,1.707-5.906.318-11.93.431-17.757.54h-.008c-1.828.034-3.9.073-5.9.118-4.47.1-9.125.151-14.231.151-9.625,0-19.409-.181-28.872-.356h-.007l-4.123-.076c-39.893-.719-87.013-1.454-134.034-1.454-11.615,0-23.047.045-33.978.133-27.723.225-55.827.574-83.529,1.037-14.2.239-28.588.512-42.755.813-7.141.151-14.5.315-21.874.488-1.239.029-2.488.077-3.7.124-1.92.074-3.9.151-5.84.151a36.84,36.84,0,0,1-11.634-1.544,8.559,8.559,0,0,1-5.388-4.651A8.649,8.649,0,0,1,217.537,602.78ZM77.855,200.028c-3.889,6.588-7.67,13.625-11.24,20.917-3.362,6.867-6.639,14.173-9.742,21.714-5.61,13.638-10.759,28.228-15.741,44.605A712.723,712.723,0,0,0,13.956,420.917c-1.225,11.831-2.1,23.5-2.608,34.684-.537,11.885-.673,23.61-.4,34.85.285,11.859,1.031,23.551,2.217,34.75,1.244,11.751,3.01,23.319,5.249,34.386a310.1,310.1,0,0,0,8.447,32.734,253.314,253.314,0,0,0,12.35,31.457,127.287,127.287,0,0,0,7.711,14,97.642,97.642,0,0,0,9.529,12.6A78.1,78.1,0,0,0,68.027,660.96a68.858,68.858,0,0,0,13.861,7.961,3.648,3.648,0,0,1,1.143-.456,60.284,60.284,0,0,1,8.8-.965,47.57,47.57,0,0,0,11.267-1.6c7.029-2.149,13.694-5.882,19.574-9.175,10.5-5.88,21.366-12.743,34.2-21.6,10.428-7.193,20.462-14.579,29.825-21.952,9.9-7.793,19.4-15.851,28.24-23.952,17.521-16.05,33.868-33.773,49.678-50.912l.3-.323,2.883-3.125c9.051-9.806,18.336-19.346,27.6-28.353,9.523-9.263,19.33-18.264,29.148-26.754,8.817-7.624,19.12-16.456,29.832-24.8a302.28,302.28,0,0,1,31.88-22.035,1.006,1.006,0,0,1,.516-.15.979.979,0,0,1,.75.376.81.81,0,0,1,.351-.242,84.972,84.972,0,0,1,12.018-3.071,90.731,90.731,0,0,1,12.355-1.3c2.711-.109,5.648-.163,8.979-.163,3.3,0,6.656.052,9.9.1h.022c1.818.028,3.7.057,5.564.077,1.114.012,2.2.018,3.239.018A137.87,137.87,0,0,0,462.7,427a68.227,68.227,0,0,0,21.563-7.094c11.694-6.317,21.422-15.842,30.83-25.053l.009-.009c2.468-2.416,5.019-4.914,7.55-7.3,6.357-5.986,13.051-12.285,18.429-17.346l2.535-2.385c-4.467,2.07-9.086,4.108-14.118,6.233-6.774,2.859-13.689,5.664-20.377,8.377l-.111.045c-2.438.99-4.92,2.052-7.321,3.079l-.019.008c-5.55,2.374-11.284,4.828-17.055,6.651a5.623,5.623,0,0,1-1.693.27,5.338,5.338,0,0,1-3.7-1.532,7.042,7.042,0,0,1-2-3.523,5.826,5.826,0,0,1,.212-3.483A5.056,5.056,0,0,1,480,381.271c9.587-4.631,19.854-8.407,29.783-12.058l.029-.011c5.966-2.194,12.135-4.463,18.072-6.888,13.5-5.517,27.859-11.7,41.359-19.536a162.076,162.076,0,0,0,18.662-12.58,132.245,132.245,0,0,0,16.483-15.311c.2-.216.474-.507.8-.845l0,0a43.209,43.209,0,0,0,3.63-4.162c1.3-1.791,1.643-3.013,1.032-3.632a1.625,1.625,0,0,0-1.11-.267c-2.17,0-6.671,1.31-9.36,2.092-.792.231-1.417.412-1.766.5-3.914.952-7.911,2.143-11.881,3.539a4.074,4.074,0,0,1-1.463,1.441c-22.466,12.471-41.394,21.974-59.565,29.908-10.586,4.622-21.024,8.734-31.026,12.222-10.805,3.769-21.548,6.966-31.929,9.5a4.692,4.692,0,0,1-1.11.139,3.97,3.97,0,0,1-3.873-3.526,3.9,3.9,0,0,1,2.817-4.468c23.549-7.359,42.461-14,59.52-20.913a410.171,410.171,0,0,0,56.6-27.724,9.827,9.827,0,0,0-3.938-.679,27.9,27.9,0,0,0-5.74.705c-4.114.876-8.251,2.085-12.251,3.254-2.552.746-5.191,1.517-7.8,2.193-14.181,3.681-28.622,6.971-42.921,9.778-11.219,2.2-24.452,4.675-37.535,6.307a117.824,117.824,0,0,1-14.747,1.03,65.346,65.346,0,0,1-15.595-1.723,46.334,46.334,0,0,1-14.019-5.888,26.983,26.983,0,0,1-5.831-5.011,17.31,17.31,0,0,1-3.563-6.47c-1.56-5.478.851-10.406,3.184-15.172l.047-.1q.22-.451.439-.9a54.31,54.31,0,0,0,5.184-17.33c.831-7.03.529-12.985-.9-17.7a13,13,0,0,0-1.685-3.721,2.9,2.9,0,0,0-2.251-1.473c-1.121,0-2.275.992-3.43,2.949-1.075,1.821-2.038,3.711-2.969,5.54l0,.005a65.979,65.979,0,0,1-4.792,8.364,122.173,122.173,0,0,1-10.011,12.177c-2.511,2.72-5.15,5.409-7.7,8.009l-.008.008c-5.6,5.7-11.387,11.6-16.176,18.193a61.679,61.679,0,0,0-8.558,16.105,60.3,60.3,0,0,0-3.264,17.934,1.528,1.528,0,0,1-1.068,1.512,5.362,5.362,0,0,1,1.48,3.331,4.839,4.839,0,0,1-1.493,3.694c-9.626,9.818-19.64,19.357-29.765,28.353-10.27,9.125-20.93,17.935-31.684,26.187-9.71,7.451-19.543,14.528-29.224,21.035-10.124,6.8-20.409,13.2-30.568,19.023-20.236,11.59-41.427,21.725-61.4,31.113l-1,.47c-19.916,9.36-40.51,19.039-59.94,30.046-10.469,5.932-19.735,11.744-28.327,17.769a247.559,247.559,0,0,0-26.154,20.971.527.527,0,0,1-.356.153.509.509,0,0,1-.447-.3.545.545,0,0,1,.074-.586,166.825,166.825,0,0,1,12.413-13.954c4.22-4.248,8.842-8.465,13.739-12.534a269.354,269.354,0,0,1,30.382-21.616c8.671-5.381,18.337-10.869,29.55-16.78a6.967,6.967,0,0,1-1.448-5.774c5.453-31.009,9.856-59.3,13.459-86.5,1.176-8.877,2.324-17.891,3.435-26.609l.026-.207c.714-5.6,1.452-11.392,2.189-17.086.816-6.3,1.883-13.006,3.263-20.507.212-1.152.377-2.452.551-3.828a44.589,44.589,0,0,1,1.658-8.57c-6.577-11.572-13.561-22.942-20.758-33.793-7.359-11.1-15.133-21.941-23.107-32.232-6.562-8.47-13.618-17.439-21.376-25.813a142.957,142.957,0,0,0-25.125-22.015ZM399.4,594.674c33.976,0,61.915.392,87.926,1.233,19.74.636,39.8,2.094,59.2,3.5h.007c7.681.558,15.624,1.135,23.46,1.655,16.914,1.122,29.967,2.088,42.324,3.133,12.836,1.083,25.514,2.63,37.4,4.121-.071-1-.149-2.05-.211-2.894l0-.062c-.087-1.173-.176-2.387-.259-3.58-1.183-16.987-2.24-34.584-3.144-52.3a9.746,9.746,0,0,1-4.79,1.281c-.153,0-.309,0-.462-.012-26.729-1.346-53.47-2.582-79.48-3.674-20.168-.847-40.671-1.805-60.5-2.732l-.135-.006-.052,0c-25.718-1.2-52.311-2.444-78.475-3.46-22.444-.875-45.863-2.058-69.607-3.518-3.827-.235-7.749-.43-11.541-.619-17.981-.894-36.572-1.818-53.817-7.327-5.7,6.175-11.436,12.507-16.979,18.63-15.2,16.794-30.918,34.158-47.649,50.012.035-.013.068-.03.1-.044a1.023,1.023,0,0,1,.106-.048c5.022-1.851,10.6-2.106,15.874-2.106,1.077,0,2.158.011,3.2.021h.164c1.021.01,2.077.02,3.116.02.643,0,1.23,0,1.8-.012,7.642-.111,15.671-.218,23.862-.318,16.019-.194,32.077-.348,47.728-.459l13.779-.1C354.311,594.844,377.036,594.674,399.4,594.674ZM380.411,518.69h.024c35.516,0,71.628,1.2,106.551,2.36q7.543.251,14.746.487c49.384,1.608,98.033,4.3,139.109,6.712a12.9,12.9,0,0,1,4.3,1c-.969-22.37-1.643-44.4-2-65.482a9.127,9.127,0,0,1-5.647,2.443c-8.878.792-18.368,1.146-30.77,1.146-5.449,0-10.988-.067-16.344-.131-4.848-.059-9.86-.119-14.805-.13-3.066-.006-6.186-.01-9.537-.01-8.469,0-17.331.021-25.15.039h-.189c-8.265.019-16.811.04-25.222.04-19.618,0-34.656-.112-48.757-.363-4.82-.086-9.7-.152-14.411-.217H452.3c-15.064-.206-30.641-.42-45.907-1.265a367.389,367.389,0,0,1-45.6-5.078c-5.021,4.444-10.183,8.887-15.176,13.183-8.562,7.369-17.415,14.988-25.764,22.791-8.108,7.578-16.44,15.947-26.221,26.34,15.7-3.47,32.451-3.76,46.919-3.76,2.454,0,4.929.01,7.323.019h.317c2.222.009,4.74.018,7.145.018,2.71,0,5.068-.012,7.209-.038C368.322,518.725,374.334,518.69,380.411,518.69ZM162.58,444.335c-1.487,10.7-3.1,21.493-4.805,32.087,6.115-3.1,12.361-6.2,18.4-9.2,13.186-6.55,26.822-13.322,39.963-20.5l-1.846-.027-.133,0-2.663-.038-17.953-.263-2.132-.031-1.738-.025c-7.385-.108-14.537-.776-21.823-1.511-.526-.053-1.113-.1-1.734-.146l-.02,0h-.01C165.012,444.59,163.792,444.5,162.58,444.335Zm225.028-9.966c-.011.016-.02.033-.029.05l0,.007a.53.53,0,0,1-.072.109c-5.8,6.265-12.448,12.8-20.335,19.988a369.378,369.378,0,0,1,52.609-4.675c34.372-.655,69.979-1.036,108.856-1.166l21.677-.072,5.365-.018,26.886-.089c4.041-.014,8.109-.059,12.043-.1h.029c4.727-.053,9.614-.107,14.419-.107,11.486,0,20.256.321,28.437,1.042a9.194,9.194,0,0,1,5.482,2.272c-.01-.877-.024-1.771-.036-2.635l0-.14c-.015-1-.034-2.252-.046-3.442v-.021c-.11-11.759-.234-25.088-.249-38.145a7.093,7.093,0,0,1-2.419.806,75.178,75.178,0,0,1-10.736.68c-3.816,0-7.709-.193-11.474-.38H618c-2.622-.13-5.333-.265-7.97-.33-2.8-.07-5.644-.125-8.394-.177-7.009-.135-14.254-.274-21.358-.676-6.579-.372-13.267-.781-19.734-1.177l-.026,0H560.5c-3.271-.2-6.653-.407-9.979-.607-5.119-.307-9.357-.721-13.336-1.3-.945-.138-1.93-.25-2.883-.359H534.3a30.615,30.615,0,0,1-8.828-1.893,2.762,2.762,0,0,1-1.325-2.309c0-.052-.008-.105-.012-.158l-.007-.08-.559.547c-10.8,10.57-21.977,21.5-35.413,28.455a74.922,74.922,0,0,1-21.045,7.067,120.74,120.74,0,0,1-22.178,1.822c-8.976,0-18.076-.678-26.876-1.334l-.178-.013c-8.7-.649-17.706-1.32-26.284-1.32-1.2,0-2.376.013-3.5.038h-.016A.762.762,0,0,1,387.608,434.369ZM221.82,429.544h0a22.085,22.085,0,0,1,5.028.5,10.758,10.758,0,0,1,4.212,1.9,9.952,9.952,0,0,1,3.191,4.379c.144-.087.288-.173.433-.259l.053-.031c.194-.115.4-.234.592-.354,12.615-7.711,25.01-15.842,36.841-24.167,12.059-8.486,23.866-17.41,35.1-26.525-4.845.191-9.888.4-14.337.582h-.016c-17.605.725-35.81,1.475-53.716,1.772-4.206.07-8.492.188-12.637.3h-.008c-6.6.182-13.431.37-20.144.37-1.749,0-3.458-.013-5.08-.038-4.191-.066-8.461-.316-12.59-.558h-.011c-2.077-.122-4.224-.248-6.332-.348a48.8,48.8,0,0,1-12.711-1.992c-.241,2.462-.543,5.528-.865,8.534-1.435,13.409-3.07,27.059-4.86,40.572,7.986-1.7,18.563-2.355,22.74-2.557l20.226-.99,1.429-.07,1.162-.057c1.417-.069,2.986-.238,4.648-.416A72.531,72.531,0,0,1,221.82,429.544ZM596.563,334.5a169.685,169.685,0,0,1-25.784,18.959,4.447,4.447,0,0,1-.912,1.252c-4.486,4.369-9.047,8.819-13.458,13.123l-.465.453c-8.862,8.647-18.026,17.589-27.081,26.358a38.387,38.387,0,0,1,6.767-.925c1.232-.1,2.395-.185,3.469-.332,4.14-.565,8.357-.783,12.435-.994l.975-.051c3.271-.169,6.583-.346,9.786-.517,6.217-.332,12.646-.675,18.975-.974,6.718-.317,13.567-.386,20.191-.453h.007c2.8-.028,5.705-.057,8.563-.105,2.637-.044,5.369-.159,8.01-.271,3.475-.146,7.064-.3,10.583-.3a75.9,75.9,0,0,1,11.593.763,7.069,7.069,0,0,1,2.469.86c.067-9.334.2-17.587.4-25.228.245-9.311.575-18.431.981-27.107a8.508,8.508,0,0,1-1.646.158c-8.432,0-16.921-.689-25.13-1.355h-.008l-.621-.05c-.758-.061-1.539-.121-2.228-.174-6.039-.462-12.281-.94-17.868-3.094ZM172.827,318.309h0c.2,4.069.3,7.629.317,10.886.042,7.955-.156,14.987-.6,21.5-.617,8.9-1.332,17.857-2.127,26.622a59.386,59.386,0,0,1,12.978-2.75c1.9-.248,3.838-.519,5.71-.782l.044-.006c4.315-.606,8.777-1.232,13.18-1.618,8.167-.716,16.489-1.2,24.538-1.676l.032,0c4.035-.237,8.207-.481,12.3-.752,17.936-1.182,36.208-1.938,53.877-2.668l.071,0c7.143-.3,14.53-.6,21.79-.931.171-.008.342-.012.509-.012a7.925,7.925,0,0,1,7.841,5.422c9.4-8.18,18.554-16.665,27.215-25.222a4.865,4.865,0,0,1,3.442-1.507,4.813,4.813,0,0,1,1.52.251c-2.091-5.427-2.36-11.568-.8-18.249-11.176-.3-22.5-.57-33.448-.831-19.127-.457-38.905-.93-58.367-1.564-5.135-.167-10.35-.273-15.395-.375h-.006c-10.282-.209-20.915-.424-31.313-1.166-3.632-.259-7.358-.534-10.644-.775-3.673-.27-7.47-.55-11.224-.817-5.912-.423-12.613-.9-18.516-3.211a13.321,13.321,0,0,1-1.805.306,2.72,2.72,0,0,1-.333.02,3.905,3.905,0,0,1-.781-.087Zm475.339-30.4h0a1.122,1.122,0,0,1,1.1.919c1.169,9.9,1.514,20.119,1.848,30,.1,2.967.2,6.031.329,9.06,2.465-5.729,5.341-11.684,8.547-17.7a339.83,339.83,0,0,1,19.793-32.461q.815-1.185,1.634-2.382l.036-.053c2.352-3.431,4.784-6.978,7.272-10.453l0-.04c-.017-.137-.033-.273-.048-.411a.444.444,0,0,1,.1-.36.6.6,0,0,1,.45-.183.688.688,0,0,1,.2.028c1.783-2.469,3.479-4.719,5.183-6.877-21.029,1.075-42.015,1.3-65.3,1.471-19,.139-38.285.21-57.309.21-19.337,0-38.957-.073-58.315-.217-18.229-.135-36.744-.739-54.649-1.323l-3.16-.1c-9.353-.305-18.747-.973-28.718-2.04a26.243,26.243,0,0,1,2.268,7.016,62.454,62.454,0,0,1,.233,18.975,64.514,64.514,0,0,1-5.377,18.2c-.319.689-.72,1.42-1.144,2.194l0,0h0c-1.427,2.6-3.045,5.557-2.3,8.291.758,2.786,3.829,4.946,6.421,6.516,3.706.064,7.474.115,11.118.165l.111,0c4.922.066,10.012.135,15.042.238,2.613.054,5.245.081,7.824.081,2.292,0,4.61-.021,6.889-.064,1.327-.025,2.709-.113,4.046-.2,1.619-.1,3.293-.211,4.931-.211a22.651,22.651,0,0,1,5.574.592,2.881,2.881,0,0,1,1.522.913c13.716-2.4,27.35-5.186,40.523-8.269,7.444-1.744,14.94-3.622,22.28-5.582,1.686-.451,3.4-.951,5.057-1.434a94.592,94.592,0,0,1,12.55-3.049,36.791,36.791,0,0,1,5.329-.408c5.8,0,13.284,1.613,16.028,9.3,2.626-1.292,5.221-2.464,7.711-3.486.624-.256,1.335-.565,2.087-.891l.021-.009c3.918-1.7,9.285-4.034,13.789-4.034a8.089,8.089,0,0,1,5.1,1.53,6.379,6.379,0,0,1,2.3,6.867,19.893,19.893,0,0,1-3.412,6.984,117.743,117.743,0,0,1-8.84,11.046c3.208-.5,6.495-.754,9.673-1h.005l.1-.007c.676-.052,1.375-.106,2.054-.161l.659-.053c8.2-.665,16.678-1.352,25.1-1.352a8.308,8.308,0,0,1,2.429.353c.13-2.42.247-4.89.361-7.278v-.021c.441-9.291.9-18.9,2.23-28.176A.7.7,0,0,1,648.166,287.913ZM236.4,305.419c4.493,0,9.055.046,13.466.09,4.26.043,8.664.087,12.982.089,32.064.022,64.516.952,92.417,1.822a9.364,9.364,0,0,1,6.471,2.651c.636-1.064,1.3-2.118,1.966-3.13,4.873-7.387,11.043-13.914,17.009-20.227l.011-.012c3.615-3.825,7.354-7.781,10.763-11.885a82.233,82.233,0,0,0,10.8-16.625l.176-.362.022-.046.013-.026.18-.37c-.49.013-.97.018-1.468.018-1.2,0-2.407-.033-3.639-.069-4.891-.148-10.112-.3-15.962-.465-10.418-.291-20.823-.56-30.928-.8-14.3-.338-28.833-.592-42.892-.837H307.7c-22.868-.4-46.515-.81-69.779-1.6-8.551-.29-17.275-.479-25.712-.662h-.037c-24.321-.528-49.47-1.074-73.931-4.075a573.74,573.74,0,0,1,39.832,60.408c5.026-1.49,10.3-1.886,16.187-2.219l4.554-.26.058,0c5.981-.342,12.166-.7,18.251-1C222.765,305.549,228.889,305.419,236.4,305.419ZM82.875,191.856c-.841,1.313-1.687,2.663-2.516,4.013,9,2.149,17.742,7.293,26.71,15.725,7.825,7.357,14.815,16.267,20.982,24.129l.035.044c.828,1.056,1.61,2.053,2.4,3.056.882,1.117,1.765,2.265,2.618,3.374q.552.718,1.106,1.435c19.611-3.058,39.218-4.06,55.812-4.637,27.451-.957,63.662-2.056,100.321-2.056,4.179,0,8.364.014,12.439.042,18.879.129,38.014.336,56.872.616,9.751.145,19.485.309,28.933.488.8.015,1.664.021,2.8.021l1.491,0h.016l1.478,0c6.87,0,13.5.271,19.091,3.539.659-.092,1.256-.177,1.866-.275,4.13-.673,8.391-.945,12.513-1.209,1.346-.086,2.738-.175,4.111-.277,9.713-.722,19.574-.788,29.109-.851h.019l2.764-.019c22.1-.157,44.565-.17,66.293-.182h.14c16.122-.009,32.793-.019,49.19-.088,13.406-.056,27.042-.23,40.228-.4,16.1-.205,32.737-.417,49.106-.417,9.466,0,18.063.069,26.283.211a11.38,11.38,0,0,1,1.728.172,183.059,183.059,0,0,0-9.352-23.846c-2.458-5.158-5.234-10.368-8.252-15.484a9.128,9.128,0,0,1-5.893,1.959H673.2c-9.416-.084-18.991-.159-28.25-.233h-.137c-19.508-.154-39.681-.313-59.561-.558-9.987-.123-20.14-.489-29.958-.843h-.014c-4.426-.159-9-.324-13.5-.464-7.575-.238-15.1-.95-22.155-1.66l-.823-.081-.09-.009a62.968,62.968,0,0,1-10.231-1.6c-19.079,15.671-44.3,23.955-72.922,23.955a159.652,159.652,0,0,1-32.949-3.527,170.3,170.3,0,0,1-31.3-9.848,176.111,176.111,0,0,1-21.334-10.9,6.09,6.09,0,0,1-2.157,1.648c-.8.357-1.6.74-2.38,1.11l0,0a52.872,52.872,0,0,1-5.208,2.253,19.826,19.826,0,0,1-6.846.948c-.5,0-1.008-.007-1.48-.014-3.155-.048-6.364-.1-9.466-.16H322.4l-.245,0q-2.979-.053-5.959-.1c-9.493-.158-19.29-.315-29.118-.465-32.359-.491-69.035-1.048-104.895-1.929-18.477-.454-35.712-1.12-52.691-2.037-3.093-.167-6.3-.3-9.408-.419h-.026c-12.439-.495-25.3-1.006-37.183-4.14h0ZM541.9,144.382h0a110.451,110.451,0,0,1-19.516,37.075c-.631.784-1.337,1.624-2.22,2.643l.124-.011c.1-.009.207-.018.307-.028,6.737-.64,13.967-1.258,21.183-1.443,4.443-.115,8.963-.252,13.333-.385l.053,0c9.865-.3,20.063-.612,30.089-.679,19.4-.13,39.11-.178,58.167-.224,7.467-.018,15.93-.039,24.054-.064a233.52,233.52,0,0,0-39.63-41.636c-.074-.061-.15-.121-.225-.181l0,0-.153-.122a10.061,10.061,0,0,1-2.976,5.278,9.455,9.455,0,0,1-6.219,2.378c-9,.248-18.257.369-28.292.369-2.681,0-5.457-.009-8.25-.027-7.668-.05-15.187-.142-22.862-.724-.712-.054-1.438-.106-2.078-.152-5.17-.371-10.052-.721-14.885-2.063Zm-411.458-6.669A252.363,252.363,0,0,0,104.96,162.5a225.988,225.988,0,0,0-16.6,21.12c1.1-.176,2.116-.312,3.1-.418,1.637-.174,3.3-.356,4.912-.531l.06-.007.018,0c3.506-.382,7.132-.777,10.7-1.126,6.893-.674,13.951-.974,20.777-1.264,2.725-.116,5.543-.235,8.317-.378,27.019-1.385,55.976-2,93.891-2,3.555,0,7.147.005,10.982.015,17.5.047,35.241.119,52.718.216,7.79.042,16.138.093,26.271.16.468,0,.952,0,1.479,0,1.161,0,2.345-.008,3.489-.016l.756-.005a286.86,286.86,0,0,1-27.7-25.627C292,146.208,287,140.783,282.4,135.572a8.022,8.022,0,0,1-2.868,2.49,9.134,9.134,0,0,1-4.221.96h-.1c-13.394-.117-27.019-.173-41.653-.173-10.982,0-22.2.032-34.306.1-6.823.037-13.749.175-20.448.307h-.04c-5.456.108-11.1.22-16.647.277-.675.007-1.383.011-2.1.011-3.3,0-6.647-.074-9.886-.145h-.007c-2.394-.053-4.87-.107-7.3-.131a44.264,44.264,0,0,1-12.378-1.553ZM233.559,80.472h0c-32.65,11.484-61.8,26.413-86.649,44.373l.311-.039c4.88-.611,9.926-1.243,14.9-1.618,10.767-.809,21.755-1.217,32.381-1.612l.22-.008,4.534-.17c17.638-.667,36.531-.964,61.261-.964,2.948,0,5.977,0,9.259.012-.958-1.223-1.976-2.528-2.97-3.842a231.169,231.169,0,0,1-13.78-19.931c-.516-.859-1.1-2-1.785-3.326a70.631,70.631,0,0,0-4.377-7.668,16.393,16.393,0,0,1-2.525-.742.751.751,0,0,1-.505-.593.778.778,0,0,1,.332-.724c.139-.105.29-.2.437-.293l.006,0c.091-.057.185-.117.274-.177-2-2.213-3.941-3.289-5.922-3.289a7.012,7.012,0,0,0-4.435,1.839.831.831,0,0,1-.53.2.806.806,0,0,1-.725-.473.744.744,0,0,1,.16-.823c.022-.024.044-.045.064-.064s.043-.041.064-.065Z" transform="translate(46 0.417)"/>
  </g>
</svg>
