<svg xmlns="http://www.w3.org/2000/svg" width="818" height="774" viewBox="0 0 818 774">
  <g id="body_jacket" data-name="body/jacket" transform="translate(0 41)">
    <path id="_Skin" data-name="âœ‹ Skin" d="M117.56,760.862c-13.819,0-26.259-.536-38.03-1.638a279.707,279.707,0,0,1-37.73-6.01,12.042,12.042,0,0,1-4.394,3.713,12.614,12.614,0,0,1-5.611,1.333,11.771,11.771,0,0,1-5.477-1.343,12.522,12.522,0,0,1-4.615-4.278,17.719,17.719,0,0,1-2.313-3.843c-1.2-2.439-2.34-4.743-4.939-5.476-.294-.23-.411-.463-.339-.673.116-.337.66-.519,1.113-.519a1.3,1.3,0,0,1,.6.128A253.522,253.522,0,0,1,5.391,699.671,426.324,426.324,0,0,1,.572,650.782C-.864,618.7.41,582.22,4.358,542.341c3.442-34.77,8.824-71.415,16-108.916,6.2-32.4,13.594-64.528,21.386-92.9,5.028-21.576,12.975-42.862,20.66-63.448,5.875-15.736,11.949-32.006,16.667-48.273,2.54-8.757,4.5-16.816,5.982-24.637a192.032,192.032,0,0,0,3.165-25.248c.1-8.206-1.673-17.1-3.39-25.7-1.938-9.707-3.943-19.743-3.335-29.033A38.052,38.052,0,0,1,84.666,110.8a33.529,33.529,0,0,1,3.65-6.2,38.082,38.082,0,0,1,5.35-5.78A26.683,26.683,0,0,1,94.2,86.79a30.138,30.138,0,0,1,5.336-10.431,39.518,39.518,0,0,1,27.717-14.684,65.108,65.108,0,0,1,6.436-15.732,38.188,38.188,0,0,1,8.771-10.378,32.308,32.308,0,0,1,10.788-5.719,42.278,42.278,0,0,1,12.488-1.752,73.729,73.729,0,0,1,16.783,2.154,148.9,148.9,0,0,1,18.231,5.662c12.516,4.678,25.789,10.969,38.624,17.052,12.064,5.718,24.538,11.63,36.015,16a142.947,142.947,0,0,0,16.589,5.319A67.849,67.849,0,0,0,307,76.448c2.668-4.436,6.426-13.257,10.778-23.471l0-.006c3.863-9.066,8.242-19.342,12.426-27.762,4.8-9.666,8.606-15.389,11.627-17.5C345.73,5,351.455,2.972,358.848,1.7A143.618,143.618,0,0,1,382.689,0c24.4,0,53.21,3.894,72.272,6.471l.006,0h0c3.373.456,6.559.887,9.32,1.241,7.341.943,13.573,6.025,19.054,15.536C488.1,31.5,492.406,43.214,496.9,60.11c13.326-3.267,24.314-5.562,34.578-7.224a229.871,229.871,0,0,1,36.867-3.244,156.876,156.876,0,0,1,17.515.945,124.145,124.145,0,0,1,17.061,3.107,102.565,102.565,0,0,1,16.295,5.675,91.445,91.445,0,0,1,15.216,8.649,30.846,30.846,0,0,1,7.748,10.229,25.317,25.317,0,0,1,2.394,11.7,21.352,21.352,0,0,1-2.585,9.3,23.8,23.8,0,0,1-7.145,7.917,52.749,52.749,0,0,1-7.047,3.638c-3.635,1.665-7.066,3.236-7.9,4.829a205.487,205.487,0,0,0-8.052,24.238c-2.452,9.617-3.465,18.006-3.011,24.933,2.76,24.675,5.987,49.875,9.867,77.038,3.456,24.194,7.353,49.4,11.916,77.059,8.474,51.372,18,103.544,27.218,154l0,.026c10.664,58.385,21.69,118.758,31.074,177.886l.678,6.1c1.444,13.2,2.87,28.5,1.508,42.9-1.536,16.244-6.349,28.9-14.712,38.7a33.343,33.343,0,0,1-7.285,4.681,45.14,45.14,0,0,1-8.049,2.893,122.848,122.848,0,0,1-17.277,2.8c-4.34.493-8.825,1-13.033,1.844-25.044,3.355-50.959,5.707-79.227,7.189-24.258,1.272-50.238,1.89-79.427,1.89-35.165,0-70.955-.9-105.566-1.773h-.042c-34.609-.873-70.4-1.775-105.6-1.775-23.594,0-44.853.4-64.992,1.218-4.924.277-9.9.574-14.715.86-19.521,1.162-39.7,2.363-59.537,2.511l-.009-.229.008.229C120.23,760.857,118.855,760.862,117.56,760.862Zm-27.754-306.3h0a3.987,3.987,0,0,0-3.618,3.017,4.138,4.138,0,0,0-.008,2.438,3.972,3.972,0,0,0,1.658,2.119c1.987,1.3,4.04,2.572,6.025,3.8,5.583,3.45,11.354,7.015,16.206,11.705a4.3,4.3,0,0,0,.827.621c.107,58.927,3.12,118.8,6.035,176.7v.01l0,.033c1.09,21.655,2.217,44.048,3.176,66.066.532,12.212,1.006,24.295,1.409,35.915l.12,3.573c2.6-.019,5.295-.056,8.007-.112-1.182-34.824-2.937-70.2-4.633-104.418v-.011c-2.229-44.96-4.535-91.45-5.569-137.223-.627-27.72-.706-52.658-.241-76.236a3.665,3.665,0,0,0-1-2.712,4.092,4.092,0,0,0-2.926-1.149,4.282,4.282,0,0,0-2.769.966,3.759,3.759,0,0,0-1.307,2.9c-.148,7.436-.235,15.473-.276,25.294a147.719,147.719,0,0,0-13-8.777l-.024-.015c-1.983-1.239-4.033-2.52-6.025-3.825a3.753,3.753,0,0,0-2.068-.667Zm557.61,92.416h0a4.2,4.2,0,0,0-2.747.965,3.683,3.683,0,0,0-1.246,2.9c.026,26.185,1.148,56.429,3.244,87.462,2,29.565,4.859,59.691,8.276,87.122a4.142,4.142,0,0,0,1.612,2.851,4.771,4.771,0,0,0,2.881.954,3.7,3.7,0,0,0,2.8-1.133,3.3,3.3,0,0,0,.709-2.672c-3.416-27.427-6.278-57.553-8.276-87.122-2.1-31.031-3.219-61.275-3.244-87.462a3.688,3.688,0,0,0-1.254-2.9,4.212,4.212,0,0,0-2.752-.967ZM274.087,613.7h0a4.071,4.071,0,0,0-1.93.511c-16.025,8.582-31.888,18.124-48.5,29.17-14.8,9.842-29.835,20.649-45.966,33.039a4.3,4.3,0,0,0-1.419,4.918,3.767,3.767,0,0,0,3.339,2.786,3.463,3.463,0,0,0,2.117-.795c16.13-12.389,31.166-23.2,45.966-33.039,16.608-11.046,32.471-20.587,48.5-29.169a3.492,3.492,0,0,0,1.869-4.106,4.6,4.6,0,0,0-1.423-2.316,3.847,3.847,0,0,0-2.552-1Zm288.163-4.332h0a4.546,4.546,0,0,0-4.022,2.3,3.129,3.129,0,0,0,.493,3.407,79.135,79.135,0,0,0,26.779,22.17,4.125,4.125,0,0,0,1.891.479,3.934,3.934,0,0,0,2.583-.994,4.613,4.613,0,0,0,1.451-2.306,3.4,3.4,0,0,0-1.728-4l-.16-.087a70.513,70.513,0,0,1-23.415-18.67l-.6-.77a4.185,4.185,0,0,0-3.267-1.532ZM160.923,371.81a3.432,3.432,0,0,0-3.5,2.87,53.84,53.84,0,0,0-.9,16.186,108.938,108.938,0,0,0,2.7,16.113l.165.7.334,1.387A4.081,4.081,0,0,0,163.584,412c2.723.2,5.538.3,8.369.3,21.809,0,43.546-5.981,64.566-11.765,4.539-1.249,9.23-2.54,13.811-3.738l2.089-.542,2.084-.53a3.668,3.668,0,0,0,2.319-1.625,3.939,3.939,0,0,0,.494-2.522,4.024,4.024,0,0,0-3.865-3.706,4.422,4.422,0,0,0-1.075.138l-2.227.567c-5.171,1.332-10.472,2.8-15.6,4.212l-.024.007c-20.45,5.648-41.6,11.489-62.82,11.489-1.653,0-3.308-.036-4.919-.106l-.3-1.3a92.126,92.126,0,0,1-2.071-12.714A45.007,45.007,0,0,1,165,377.458l.139-.652a3.865,3.865,0,0,0-.722-3.349,4.561,4.561,0,0,0-3.492-1.646Zm410.058,6.676a2.945,2.945,0,0,0-2.132.9,4.221,4.221,0,0,0-1.086,2.144,4.327,4.327,0,0,0,2.566,4.979l1.177.476a85.982,85.982,0,0,0,10.2,3.456,42.569,42.569,0,0,0,10.816,1.55,26.472,26.472,0,0,0,6.363-.737,21.172,21.172,0,0,0,5.956-2.472,20.31,20.31,0,0,0,5.985-5.637,27.555,27.555,0,0,0,3.6-7.339,57.586,57.586,0,0,0,2.4-16.5l.016-.819.015-1.183a3.711,3.711,0,0,0-1.032-2.714,4.143,4.143,0,0,0-2.941-1.15,3.808,3.808,0,0,0-4.028,3.864l-.009,1.01a56.265,56.265,0,0,1-1.412,13.4,21.069,21.069,0,0,1-2.6,6.128,12.993,12.993,0,0,1-4.7,4.415,16.571,16.571,0,0,1-7.964,1.841c-5.526,0-11.453-2.038-16-3.814l-1.522-.6-2.2-.894a3.9,3.9,0,0,0-1.473-.312Z" transform="translate(64 -41)" fill="#d08b5b"/>
    <path id="_Jacket" data-name="ðŸ§¥ Jacket" d="M414.873,694.054l-7.3-20.545c-.506-1.422-1.008-2.9-1.58-4.654l-.711-2.2-.343-1.1c-.3-.989-.59-2.014-.969-3.427l-1.291-4.888-.321-1.175c-.329-1.187-.609-2.125-.937-3.138l-.387-1.161-.284-.811c-.485-1.359-1.073-2.857-2.1-5.343l-1.485-3.605-.3-.733v-.586l.049-1.939c.1-4.487.08-9.383-.059-14.968l-.124-4.284-.13-3.673q-.022-.567-.046-1.17l-.687-16.515-1.325-36.672-.206-6.194c-.149-4.639-.272-8.839-.373-12.841l-.089-3.714-.029-1.263c-.4-18.008-.53-36.655-.387-55.421.141-18.556.553-37.845,1.225-57.33l.133-3.772.136-3.715c1.143-30.659,2.71-58.824,5.08-91.324,2.248-30.825,5.336-67.3,10.327-121.972l1.538-16.769,2.3-24.817.53-5.824c1.11-12.308,1.855-21.331,2.489-30.17l.283-4.037c1.066-15.677,1.743-32.324,2.069-50.892l.053-3.282-1.443,5.014-1.248-16.68a102.28,102.28,0,0,0-1.957-14.068l-.206-.927-.406-1.773-.317-1.175c-.529-1.961,2.793-11.032,2.827-11.123l1.9-.456,2.3-.543c26.107-6.094,46.737-8.933,64.925-8.933a149.056,149.056,0,0,1,26.63,2.277l.82.15L536.094,24.1l-22.96,1.732c-1.068.081-2.145.181-3.2.3-2.195.24-4.381.547-6.5.913l-1.379.248.591-.03c1.519-.071,3.059-.106,4.576-.106A99.846,99.846,0,0,1,527.7,29.29,92.667,92.667,0,0,1,549.586,36.5l.774.384,1,.513.481.23.383.176c1.827.843,2.513,1.264,3.247,2.259a3.85,3.85,0,0,1,.745,3.119,5.5,5.5,0,0,1-1.809,2.9,10.454,10.454,0,0,1-5.728,2.307c-.353.053-.721.1-1.125.147l-2.154.211a9.007,9.007,0,0,0-4.886,1.874,6.176,6.176,0,0,0-2.176,4.088c-.393,3.3,1.545,6.652,4.319,7.474l.2.055.259.06a8.006,8.006,0,0,1,.986.281l.23.088.5.205.023,0,.016.012.478.2.125.242.075.059a2,2,0,0,1,.589.748l.163.315.131.457.037.148.022.121,0,.037.13.835.036.284.011.184,0,12.829-3.289-6.58-.113.094a23.742,23.742,0,0,1-6.237,3.361l-.527.205-1.371.506-2.706.968-.625.231-.555.214c-.443.174-.821.334-1.156.49a7.5,7.5,0,0,0-1.369.8l-.23.182-1.3,1.076-3.209-1.119c-.39-.137-.732-.26-1.047-.375l-3.114-1.158-2.665-.981c-3.512-1.283-6.65-2.391-9.594-3.385l-3.673-1.223-2.678-.873c-.916-.3-1.9-.61-2.994-.96l-15.134-4.782L480.17,65.1c-1.579-.51-3.051-.993-4.631-1.519l-2.827-.95-2.74-.942c-8.483-2.948-16.411-6-32.627-12.546l3.293,1.877,2.447,1.382c2.782,1.566,5.967,3.342,9.738,5.429l16.34,9.028,3.272,1.829,7.321,4.115,3.866,2.157c7.14,3.963,11.929,6.486,17.079,9,4.036,1.972,8.141,3.845,12.549,5.726l1.634.692,2.5,1.043,1.975.858,1.337.586.882.376c3.483,1.458,5.752,2.052,7.83,2.052a10.761,10.761,0,0,0,2.752-.364l.217-.062.211-.074,6-2.3-2.089,6.077c-.259.756-.49,1.443-.707,2.1l-.421,1.289-.342.676c-1.992,3.956-3.952,8.021-5.994,12.425l-1.071,2.327-.618.459a2.141,2.141,0,0,0-.607.747c-.8,1.561-1.576,3.124-2.31,4.646l-.782,1.642-.808,1.739c-3.4,7.324-6.561,14.943-10.9,26.3l-5.478,14.517-.819,2.165c-6.71,17.7-13.109,35.654-19.02,53.366-11.707,35-22.2,70.993-31.185,106.975-9.013,36.117-16.622,72.974-22.618,109.548-6,36.609-10.537,73.863-13.482,110.725-1.114,13.919-1.926,27.956-2.416,41.723l-.121,3.6-.383,3.182c-.31,2.616-.586,5.013-.842,7.33l-.157,1.424c-2,18.3-2.845,32.123-2.752,44.812.049,6.716.253,12.819.624,18.655l.09,1.362,1.486,21.754ZM248.093,383.866h0l-5.975-.006c-.779-8.824-1.74-17.884-2.939-27.7a785.492,785.492,0,0,0-15.96-88.228l-.656-2.694-.284-1.16.59-1.039a3.032,3.032,0,0,0,.4-1.94c-.7-4.35-1.949-8.391-4.606-14.909l-2.593-6.268-.581-1.438-.043-.149c-2.741-9.615-5.7-19.241-8.795-28.611L205.6,206.59l-.045-.147a357.848,357.848,0,0,0-14.178-41.99,293.039,293.039,0,0,0-13.91-28.677l-.977-1.75-.089-.171A433.681,433.681,0,0,0,155.459,95.25l-1.188-1.926-.11-.314a5.467,5.467,0,0,0-1.139-1.929l-.2-.2-.248-.244-.544-.853L147.7,88.7a87.9,87.9,0,0,0-21.6-2.579,117.594,117.594,0,0,0-17.481,1.374l-.948.144-.951.152c-10.082,1.637-18.731,3.808-35.6,8.932l-15.979,4.892-2.273.679-2.148.633c-8.048,2.344-14.8,4.018-21.232,5.268l-.9.173-2.451.459-1.212.22a65.613,65.613,0,0,1-11.493,1.247,30.254,30.254,0,0,1-5.745-.519l-.438-.087-.537-.12-.48-.121C3.44,108.7,1.488,107.3.586,105.386a6.536,6.536,0,0,1-.569-3.263,11.505,11.505,0,0,1,1.087-3.961A16.5,16.5,0,0,1,6.168,92a38.378,38.378,0,0,1,8.587-4.824l.993-.416.246-.1.26-.056a15.111,15.111,0,0,0,4.676-1.874,7.162,7.162,0,0,0,3.077-3.856,6.715,6.715,0,0,0-.186-4.82,7.538,7.538,0,0,0-6.36-4.48,4.084,4.084,0,0,0-1.534.284l-2.012.8-2.2.867-1.356-1.938c-.082-.117-.153-.229-.217-.342l-.1-.192-.066-.138-.166-.144L9.641,70.6a3.035,3.035,0,0,1-.746-1.436,3.328,3.328,0,0,1-.075-.532l-.006-.171a12.818,12.818,0,0,1,.131-1.634,12.541,12.541,0,0,1,2.448-6.023,31.718,31.718,0,0,1,5.755-5.79l.789-.637.236-.187c7.684-6.089,16.85-9.581,25.148-9.581A27.369,27.369,0,0,1,49.5,45.3c.506.115.987.24,1.471.382l.5.152.589.2a6.293,6.293,0,0,0,2.051.371c2.089,0,3.725-1.267,4.606-3.568a7.446,7.446,0,0,0,.312-4.465A6.2,6.2,0,0,0,56.679,34.8l-.217-.152-.735-.491-.859-.588-.949-.671-.436-.315-.629-.468A22.325,22.325,0,0,1,47.4,26.714a7.514,7.514,0,0,1-1.252-5.692l.054-.258.069-.3.13-.283.407-.87.423-.867.119-.238.158-.213c1.557-2.1,4.159-3.821,8.438-5.589l.465-.19c1.123-.452,3.631-1.352,5.29-1.947l.024-.009c.825-.3,1.477-.53,1.7-.617l.052-.021A130.488,130.488,0,0,1,84.913,3.028,134.147,134.147,0,0,1,107.305.139C109.419.047,111.563,0,113.678,0a142.645,142.645,0,0,1,37.259,4.892l1.106.3.7.2a142.737,142.737,0,0,1,18.448,6.946l1.968.883c.436.2,1.98.82,3.472,1.423l.038.015c1.616.653,3.447,1.393,4.467,1.828l.346.148c8.12,3.567,11.972,7.089,12.88,11.775l.06.344a56.1,56.1,0,0,0,7.566,6.013l.725.479.686.442c3.064,1.95,6.009,3.7,8.754,5.19l.745.4.514.272,4.95,1.7,6.119,2.121,1.227.419c6.473,2.2,10.169,3.32,14.647,4.419l2.526.618c9.888,2.4,18.234,4.165,26.265,5.558,8.218,1.419,16.877,2.7,25.736,3.805l2.988.365c2.83.334,5.63.594,10.332.962l7.276.563,4.919.4-2.618,4.183a141.559,141.559,0,0,0-9.387,17.853c-2.822,6.359-5.581,13.536-8.683,22.585l-.661,1.94c-5.108,15.091-8.765,28.551-15.653,57.61-4.9,20.722-9.431,41.826-13.465,62.727s-7.681,42.167-10.838,63.2c-4.361,29.062-7.934,58.383-10.618,87.149l-.381,4.135Z" transform="translate(146.009 -11.952)" fill="#fff"/>
    <path id="_Top" data-name="ðŸ‘• Top" d="M160.766,0l-.179,1.359-.171,1.36c-4.9,39-9.03,88.079-12.63,127.21-7.18,78.01-11.58,156.34-10.97,234.7.159,20.264.892,40.465,1.827,60.7l.2,4.336c1.05,22.05,2.66,45.35,8.8,66.62a5.731,5.731,0,0,0,3.93,4.19c.072,2.48.214,4.966.381,7.428l.129,1.842c.71,9.95,2.74,30.62,7.08,39.639A39.881,39.881,0,0,0,179.436,569a40.377,40.377,0,0,0,7.68,2.381c-54.589,1.118-126.288-.646-180.979-1.965,5.685-.893,8.907-5.389,9.659-11.118a48.992,48.992,0,0,0-7.7-33.059,13.1,13.1,0,0,0-2.31-2.65l.152-6.362c.107-4.773.158-9.548-.112-14.318-.58-10.52-1.45-21.04-2.21-31.55-1.54-21.05-2.73-42.14-3.2-63.24q-1.44-63.3,2.13-126.58c4.79-84.19,15.94-177.84,34.19-260.19,1.33-6,2.67-12,4.06-17.99,14.19,7.37,39.45,10.019,54.96,10.12C115.2,12.6,143.206,8.128,160.766,0Z" transform="translate(394.4 147.048)" fill="#e86bbb"/>
    <path id="_Ink" data-name="ðŸ– Ink" d="M71.681,755.593a114.821,114.821,0,0,1-22.327-1.85,44.553,44.553,0,0,1-15.58-6.2,40.722,40.722,0,0,1-11.92-11.715,33.792,33.792,0,0,1-5.59-15.09,5.643,5.643,0,0,1-1.341.159,5.965,5.965,0,0,1-3.137-.891,5.17,5.17,0,0,1-2.143-2.658c-.567-1.576-1.149-3.155-1.711-4.681l-.009-.024C4.431,703.166,1.131,694.21.325,683.9a120.257,120.257,0,0,1-.005-17.62c.344-5.123.943-10.527,1.945-17.521,2.814-19.533,8.317-38.8,13.639-57.428.918-3.214,1.868-6.539,2.792-9.822,1.517-5.4,3.1-10.888,4.639-16.192l0-.005h0c4.069-14.061,8.277-28.6,11.609-43.112a297.665,297.665,0,0,0,5.429-31.428c1.215-10.281,1.939-20.991,2.151-31.833.186-9.66.135-19.481.086-28.979-.064-12.438-.131-25.3.334-37.942a555.523,555.523,0,0,1,5.35-58.42c5.819-40.547,16.734-78.1,32.44-111.63,9.023-19.282,18.165-35.581,27.951-49.83a212.381,212.381,0,0,1,17.6-22.24c2.676-2.952,5.579-6.1,8.67-9.12a31.223,31.223,0,0,1-8.288-3.993,24.854,24.854,0,0,1-6.28-6.13,22.06,22.06,0,0,1-3.553-8.091,25.781,25.781,0,0,1-.109-9.876,30.871,30.871,0,0,1,11.2-18.42c.224-.186.466-.372.741-.569a20.774,20.774,0,0,1-2.806-7.636,23.376,23.376,0,0,1,.158-7.867,30.265,30.265,0,0,1,2.532-7.608,36.74,36.74,0,0,1,4.315-6.86,54.042,54.042,0,0,1,6.8-7.118,56.582,56.582,0,0,1,8-5.828,55.984,55.984,0,0,1,8.884-4.335A52.532,52.532,0,0,1,166,43.812c-.04-.115-.08-.233-.119-.35l-.03-.09-.019-.055c-.044-.129-.087-.258-.131-.385a20.672,20.672,0,0,1,0-12.948,22.626,22.626,0,0,1,7.5-10.593c9.674-7.7,23.422-13.2,42.03-16.81A143.345,143.345,0,0,1,242.424,0a153.019,153.019,0,0,1,20.66,1.421,127.971,127.971,0,0,1,21.81,5.011l.513.165c7.253,2.332,14.753,4.744,21.368,8.555,4.578,2.631,11.5,6.606,16.346,11.619a22.923,22.923,0,0,1,5.309,8.1,15.956,15.956,0,0,1,.275,9.843,1.4,1.4,0,0,1-1.366,1.114,1.715,1.715,0,0,1-1.674-1.524c-.674-6.149-9.463-9.62-15.88-12.155-1.367-.54-2.657-1.049-3.709-1.524a145.056,145.056,0,0,0-20.69-7.872,139.428,139.428,0,0,0-37.561-5.085c-2.072,0-4.171.046-6.239.136a131.177,131.177,0,0,0-21.812,2.808,127.478,127.478,0,0,0-21.018,6.452c-.7.285-1.614.6-2.668.973-4.5,1.576-11.307,3.958-12.672,7.589-.6,1.584-.016,3.414,1.731,5.44a28.442,28.442,0,0,0,5.309,4.519c.655.466,1.262.871,1.82,1.24a9.08,9.08,0,0,1,3.7,5.067,10.621,10.621,0,0,1-.069,5.988,9.359,9.359,0,0,1-2.766,4.388,7.333,7.333,0,0,1-4.859,1.812,9.349,9.349,0,0,1-3.053-.544,20.4,20.4,0,0,0-2.24-.641,24.433,24.433,0,0,0-5.515-.614,33.254,33.254,0,0,0-12.415,2.592,44.668,44.668,0,0,0-10.869,6.342c-3.535,2.794-7.651,6.526-8.11,10.62-.118,1.06-.141,1.336-.079,1.4.02.023.051.023.089.023h.013c.111,0,.342,0,.647.833a1.807,1.807,0,0,0,.221.44l.095-.037.038-.015c.606-.239,1.232-.486,1.857-.738a7.175,7.175,0,0,1,2.693-.518,9.463,9.463,0,0,1,5.429,1.895,11.047,11.047,0,0,1,3.639,4.393A9.707,9.707,0,0,1,161,96.484a10.179,10.179,0,0,1-4.369,5.479,18.108,18.108,0,0,1-5.6,2.241,40.857,40.857,0,0,0-7.624,3.952,15.077,15.077,0,0,0-5.426,5.917c-.929,2.038-1.091,3.6-.493,4.78.629,1.24,2.076,2.057,4.553,2.569a27.058,27.058,0,0,0,5.549.522,78.482,78.482,0,0,0,14.139-1.776l.453-.085a239.277,239.277,0,0,0,23.98-6c3.926-1.164,7.934-2.4,11.811-3.6,10.076-3.107,20.495-6.321,30.873-8.71,5.592-1.287,10.7-2.232,15.627-2.891a117.833,117.833,0,0,1,15.744-1.1,90.972,90.972,0,0,1,22.356,2.666c-.37-.895-.737-1.817-1.06-2.631a1.357,1.357,0,0,1,.093-1.314,1.855,1.855,0,0,1,1.52-.725,1.721,1.721,0,0,1,1.467.739c1.493,2.23,3,4.545,4.48,6.881a8.422,8.422,0,0,1,2.07,3.289,434.751,434.751,0,0,1,22.11,40.53,296.267,296.267,0,0,1,15.04,30.74,360.889,360.889,0,0,1,14.3,42.34c3.493,10.412,6.817,21.138,9.879,31.881.594,1.481,1.211,2.964,1.808,4.4,2.581,6.2,5.019,12.048,6.092,18.712a5.989,5.989,0,0,1-.75,3.9c3.646,14.845,6.906,30.116,9.69,45.387,2.742,15.044,5.094,30.481,6.99,45.883,1.2,9.846,2.168,18.939,2.95,27.8,2.736-30.2,6.444-60.973,11.02-91.46,3.164-21.08,6.819-42.39,10.863-63.34s8.579-42.075,13.488-62.83c4.934-20.817,9.523-39.542,15.73-57.882,3.027-8.949,5.578-15.751,8.27-22.055a150.806,150.806,0,0,1,10.76-20.953c-1.525-.124-3.073-.242-4.571-.356-4.576-.349-9.308-.709-13.928-1.274-9.711-1.178-19.165-2.558-28.1-4.1-8.734-1.516-17.949-3.492-29-6.22-6.962-1.71-13.846-4.109-20.5-6.428l-.017-.006c-2.259-.787-4.6-1.6-6.9-2.376a1.074,1.074,0,0,1-.787-1.213,1.152,1.152,0,0,1,1.158-.976,1.446,1.446,0,0,1,.23.019c18.408,3.06,36.457,4.984,58.14,7.18l1.5.151.646.065C420.835,65.58,434.884,67,448.7,67c2.94,0,5.812-.066,8.535-.2,1.764-.08,3.544-.191,5.29-.33.192-.015.386-.023.575-.023a6.145,6.145,0,0,1,5.361,3.072,8.54,8.54,0,0,1,.423,8.032c-1.277,2.538-2.6,5.109-3.879,7.6l-.02.038c-3.7,7.181-7.519,14.607-10.7,22.166a290.307,290.307,0,0,0-10.78,31.021c-3.4,11.566-6.723,24.192-10.16,38.6l1.4.282.312.063c5.211,1.053,10.6,2.141,15.968,2.754a159.506,159.506,0,0,0,18.329,1.077c2.935,0,5.907-.086,8.831-.256a131.142,131.142,0,0,0,26.789-4.369,121.56,121.56,0,0,0,25.221-9.971,8.631,8.631,0,0,1,4.094-1.082,7.756,7.756,0,0,1,2.306.352c1.743-12.377,3.668-24.661,5.72-36.51v-.259c.3-7.493,1.013-15.081,1.7-22.419v-.007c.618-6.575,1.256-13.374,1.6-20.085.222-4.35.317-8.816.408-13.135V73.4c.149-7.015.3-14.27,1-21.315a.928.928,0,0,1,.06-.57c.214-2.1.456-4.012.74-5.85a.44.44,0,0,1,.461-.4.677.677,0,0,1,.62.4,65.8,65.8,0,0,1,2.19,6.74c6.048,2.362,12.169,4.841,18.089,7.239l.011,0c13.173,5.335,26.795,10.852,40.51,15.447,5.309,1.78,10.741,3.488,15.995,5.14l.022.007c5.127,1.612,10.429,3.28,15.614,5.012,4.693,1.562,9.68,3.342,16.17,5.771.933.352,1.865.675,2.765.988l.464.161a10.283,10.283,0,0,1,2.261-1.4c1.168-.54,2.549-1.029,4.012-1.546,4.144-1.467,8.837-3.127,10.758-6.674a2.44,2.44,0,0,0,.047-.622,1.063,1.063,0,0,1,.023-.35s.014,0,.04.112c-.036-.191-.068-.357-.091-.478-.031-.162-.061-.315-.079-.422a3.394,3.394,0,0,0,.12.51c0-.056-.052-.416-.159-1.07,0,0,0,0,0,0a.017.017,0,0,0-.008,0,.245.245,0,0,1-.025.165.039.039,0,0,1-.029.013c-.07,0-.181-.154-.255-.3a4.685,4.685,0,0,0-.74-.221,8.7,8.7,0,0,1-5.594-4.1,10.776,10.776,0,0,1-1.506-6.773,9.057,9.057,0,0,1,3.264-6.061,12.093,12.093,0,0,1,6.466-2.529c.252-.026.516-.051.8-.077h.013c2.1-.195,4.979-.462,6.5-1.832.649-.586.931-1.093.861-1.55-.118-.778-1.223-1.287-2.393-1.826l-.006,0c-.349-.161-.711-.328-1.042-.5a87.432,87.432,0,0,0-22.73-7.75,96.846,96.846,0,0,0-19.865-2.074c-1.473,0-2.965.035-4.435.1a75.669,75.669,0,0,0-10.908,1.6,65.707,65.707,0,0,1-12.272,1.628.683.683,0,0,1-.62-.464.57.57,0,0,1,.16-.656c3.681-3.149,8.543-4.528,13.245-5.861l.486-.138a101.475,101.475,0,0,1,16.73-3.22,97.7,97.7,0,0,1,33.539,2.119l.669.16c9.642,2.313,22.847,5.481,23.942,17.07a16.709,16.709,0,0,1-1.225,8.315,18.837,18.837,0,0,1-4.615,6.3,25.889,25.889,0,0,1,1.97,6.769,23.748,23.748,0,0,1,.05,6.881,22.471,22.471,0,0,1-2.356,7.215,27.529,27.529,0,0,1-4.453,6.158,39.016,39.016,0,0,1-12.831,8.738c-.021.174-.053.355-.081.514l-.007.04c-.011.062-.022.124-.032.186-1.711,9.16-4.6,18.414-7.151,26.58-1.531,4.932-3.136,9.952-4.77,14.92a238,238,0,0,1,29.207,40.638,298.708,298.708,0,0,1,21.084,45.454,342.074,342.074,0,0,1,11.109,36.5c2.865,11.584,5.328,23.751,7.531,37.2,4.094,24.979,6.64,50.695,9.1,75.564,2.769,27.967,5.632,56.884,10.708,84.915,4.38,24.18,11.118,48.169,17.634,71.368,4.181,14.886,8.5,30.278,12.166,45.582,2.627,10.978,4.7,20.726,6.349,29.8,1.943,10.717,3.311,20.588,4.182,30.177a234.735,234.735,0,0,1,.889,28.971q-.026.739-.049,1.492c-.165,5.126-.335,10.426-1.89,15.137a1.913,1.913,0,0,1-.08.22,15.394,15.394,0,0,1,1.849,4.081,21.282,21.282,0,0,1,.406,7.5,48.642,48.642,0,0,1-1.8,9.195c-2.018,6.846-5.01,11.978-8,13.729-5.617,3.285-12.154,3.787-18.476,4.273l-.484.037c-4.891.382-9.869.762-14.684,1.129l-.062,0-7.144.546c-17.024,1.306-34.333,2.694-51.071,4.036l-.046,0h-.013c-34.775,2.788-70.733,5.672-106.119,7.98-1.076.07-2.2.147-3.19.216-4.179.289-8.5.587-12.732.587-7.994,0-14.32-1.11-19.909-3.492a38.981,38.981,0,0,1-11.92-7.951A41.013,41.013,0,0,1,532.595,723c-1.9-3.94-3.545-10.49-4.9-19.471-1.219-8.072-1.888-16.1-2.179-20.169-.21-2.93-.418-6.082-.51-9.269a5.75,5.75,0,0,1-3.929-4.19,202.677,202.677,0,0,1-6.309-33.017c-1.33-11.488-1.983-22.939-2.491-33.6-1.614-33.959-1.933-52.592-2.03-65.031-.557-71.674,3.031-148.445,10.97-234.7,3.859-41.94,7.99-80.28,12.631-117.21.1-.84.216-1.709.317-2.476l.032-.243a137.173,137.173,0,0,1-26.933,9.249,127.08,127.08,0,0,1-28.316,3.233l-.761,0a127.667,127.667,0,0,1-23.975-2.335,86.479,86.479,0,0,1-22.985-7.786c-1.417,6.108-2.789,12.256-4.06,17.99-4.518,20.388-8.679,41.246-12.368,61.994-3.651,20.536-6.939,41.534-9.775,62.41-2.806,20.661-5.246,41.775-7.251,62.756-1.985,20.766-3.6,41.972-4.8,63.03-1.187,20.94-1.968,42.226-2.321,63.267-.352,20.975-.287,42.277.191,63.312.42,18.868,1.467,39.554,3.2,63.24.21,2.907.438,5.93.638,8.6v.008c.565,7.52,1.149,15.3,1.572,22.945.327,5.775.181,11.65.039,17.332-.027,1.093-.055,2.223-.08,3.347a13.1,13.1,0,0,1,2.31,2.651,48.9,48.9,0,0,1,6.805,15.843,48.046,48.046,0,0,1,.9,17.216,14.084,14.084,0,0,1-3.434,7.89,10.333,10.333,0,0,1-3.368,2.4,12.02,12.02,0,0,1-4.468.983l-95.67,3.479c-37.531,1.37-75.668,3-112.548,4.576l-5.059.216c-1.183-36.549-3.024-73.684-4.805-109.6v-.01c-2.229-44.96-4.535-91.45-5.569-137.223-.628-27.74-.707-52.677-.241-76.236a3.664,3.664,0,0,0-1-2.712,4.092,4.092,0,0,0-2.926-1.149,4.283,4.283,0,0,0-2.769.965,3.76,3.76,0,0,0-1.308,2.9c-.147,7.447-.235,15.484-.275,25.294a147.8,147.8,0,0,0-12.992-8.772l-.017-.011c-1.988-1.242-4.044-2.526-6.041-3.836a3.752,3.752,0,0,0-2.069-.668,3.988,3.988,0,0,0-3.619,3.018,4.138,4.138,0,0,0-.008,2.438,3.972,3.972,0,0,0,1.658,2.118c1.986,1.3,4.037,2.57,6.021,3.8,5.584,3.45,11.357,7.017,16.21,11.708a4.31,4.31,0,0,0,.826.621c.107,58.929,3.121,118.8,6.036,176.7v.03c1.09,21.66,2.217,44.057,3.176,66.079.671,15.437,1.247,30.542,1.71,44.895-13.159.562-28.48,1.214-43.814,1.847-10.051.418-20.256.773-30.125,1.117-3.829.133-7.789.271-11.735.413l-1.391.05-.08,0C81.671,755.411,76.641,755.593,71.681,755.593Zm627.6-222.77a4.2,4.2,0,0,0-2.747.966,3.683,3.683,0,0,0-1.247,2.9c.026,26.185,1.148,56.429,3.244,87.462,2,29.567,4.859,59.693,8.276,87.122a4.141,4.141,0,0,0,1.612,2.85,4.771,4.771,0,0,0,2.88.954,3.7,3.7,0,0,0,2.8-1.133,3.3,3.3,0,0,0,.709-2.672c-3.417-27.43-6.278-57.556-8.276-87.122-2.1-31.035-3.218-61.279-3.244-87.462a3.688,3.688,0,0,0-1.254-2.9A4.212,4.212,0,0,0,699.277,532.823ZM555.381,69.948a1.628,1.628,0,0,1,1.136.457,1.331,1.331,0,0,1,.388.968c-.194,25.078-.912,45.985-2.26,65.8-1.206,17.646-2.876,35.553-4.491,52.87l0,.021c-.4,4.3-.762,8.165-1.117,12.029-3.314,36.006-7.071,76.816-10.166,116.685-3.382,43.564-5.64,81.811-6.9,116.926-.715,19.777-1.163,39.347-1.333,58.166-.178,19.73-.056,39.306.363,58.183.307,13.83.826,27.878,1.327,41.463l.006.169c.2,5.407.406,11,.6,16.5.13,3.735.294,7.55.452,11.24l0,.06c.478,11.112.972,22.6.635,33.86v.01c.346.851.711,1.735,1.034,2.514,1.15,2.779,2.34,5.651,3.3,8.576.775,2.368,1.419,4.829,2.042,7.208v.005c.583,2.227,1.186,4.53,1.9,6.756.638,1.994,1.405,4.356,2.26,6.759-.431-6.3-.666-12.909-.72-20.2a396.27,396.27,0,0,1,2.77-45.159c.41-3.76.858-7.633,1.37-11.841.476-14.966,1.331-30.217,2.541-45.33,1.479-18.512,3.37-37.26,5.619-55.721,2.245-18.419,4.909-37.06,7.918-55.4,6.005-36.6,13.623-73.491,22.643-109.634,9-36.05,19.516-72.117,31.25-107.2,5.922-17.747,12.335-35.74,19.06-53.479.9-2.364,1.795-4.756,2.664-7.069l0-.012c4.5-11.977,9.156-24.363,14.611-36.1-.353-.417-.7-.817-1-1.159a.882.882,0,0,1-.154-.973.919.919,0,0,1,.809-.546.882.882,0,0,1,.605.259l.6.569c.979-2.074,2.019-4.187,3.091-6.279a5.157,5.157,0,0,1,1.49-1.79c2.3-5.02,4.524-9.648,6.789-14.149.613-1.225,1.261-2.457,1.889-3.649l0-.007.208-.4a6.978,6.978,0,0,1-1.54.6,13.744,13.744,0,0,1-3.468.444c-3.892,0-7.6-1.631-11.186-3.208-.884-.389-1.8-.791-2.707-1.165-5.742-2.368-11.031-4.739-16.17-7.25-8.509-4.149-16.9-8.869-25.013-13.434l-3.408-1.916c-4.555-2.555-9.2-5.116-13.7-7.594-13.138-7.239-26.722-14.724-39.569-22.916A103.574,103.574,0,0,1,554.074,70.9,1.308,1.308,0,0,1,555.381,69.948ZM325.948,599.538a4.071,4.071,0,0,0-1.931.51c-16.025,8.582-31.888,18.124-48.5,29.17-14.8,9.843-29.835,20.65-45.967,33.039a4.3,4.3,0,0,0-1.418,4.917,3.768,3.768,0,0,0,3.339,2.786,3.462,3.462,0,0,0,2.117-.795c16.132-12.39,31.168-23.2,45.966-33.039,16.609-11.046,32.472-20.587,48.5-29.169a3.492,3.492,0,0,0,1.869-4.107,4.6,4.6,0,0,0-1.424-2.316A3.845,3.845,0,0,0,325.948,599.538Zm288.163-4.332a4.546,4.546,0,0,0-4.023,2.3,3.129,3.129,0,0,0,.493,3.407,79.126,79.126,0,0,0,26.779,22.17,4.126,4.126,0,0,0,1.891.479,3.937,3.937,0,0,0,2.614-1.021,4.6,4.6,0,0,0,1.44-2.356,3.413,3.413,0,0,0-1.907-4.009,70.169,70.169,0,0,1-23.909-19.3A4.189,4.189,0,0,0,614.111,595.205ZM212.784,357.651a3.432,3.432,0,0,0-3.5,2.87c-2.561,11.5-.273,23.835,2.3,34.384a4.081,4.081,0,0,0,3.857,2.936c2.722.2,5.538.3,8.37.3,21.812,0,43.546-5.981,64.564-11.765,5.916-1.628,12.03-3.31,17.985-4.81a3.669,3.669,0,0,0,2.319-1.624,3.94,3.94,0,0,0,.494-2.522,4.024,4.024,0,0,0-3.864-3.706,4.412,4.412,0,0,0-1.075.139c-5.913,1.489-11.981,3.165-17.85,4.786-20.451,5.648-41.6,11.488-62.819,11.489-1.652,0-3.307-.036-4.92-.107-1.955-8.427-3.679-18.269-1.651-27.377a3.867,3.867,0,0,0-.723-3.35A4.56,4.56,0,0,0,212.784,357.651Zm410.058,6.676a2.947,2.947,0,0,0-2.133.9,4.223,4.223,0,0,0-1.086,2.145,4.326,4.326,0,0,0,2.566,4.978c6.238,2.552,14.4,5.482,22.2,5.483a26.462,26.462,0,0,0,6.362-.737,21.166,21.166,0,0,0,5.956-2.471,20.412,20.412,0,0,0,6.277-6.059,28.764,28.764,0,0,0,3.622-7.924c1.829-6.161,2.086-12.933,2.121-17.491a3.712,3.712,0,0,0-1.032-2.714,4.143,4.143,0,0,0-2.94-1.15,3.808,3.808,0,0,0-4.028,3.864A61.363,61.363,0,0,1,659.446,357a21.923,21.923,0,0,1-2.6,6.461A13.069,13.069,0,0,1,652,368.109a16.564,16.564,0,0,1-7.964,1.841c-6.739,0-14.181-3.046-19.615-5.27l-.1-.042A3.894,3.894,0,0,0,622.842,364.326Z" transform="translate(12 -26.552)"/>
  </g>
</svg>
