<svg xmlns="http://www.w3.org/2000/svg" width="818" height="775" viewBox="0 0 818 775">
  <g id="body_Shirt_and_Coat" data-name="body/Shirt and Coat" transform="translate(0 42)">
    <path id="_Top" data-name="ðŸ‘• Top" d="M343.475,0,331.241,30.246l6.741,95.87L343,126.9q79.462,12.317,107.992,12.444h.589q28.731,0,68.854-12.835l1.219-.392,3.087-71.785h-7.282L504.284,23.448l.012-.01q.218.371.453.72c5.492,8.123,8.675,1.563,21.577,4.436,15.448,3.44,22.306,19.053,35.906,30.721,6.315,5.418,19.568,7.971,25.911,11.7l6.662,3.915c20.875,12.313,44.869,27.27,57.467,46.754,14.768,22.842,24.948,44.519,34.348,69.929C706.883,246.377,720.947,302.266,731,359.742,741.182,418,747.3,476.971,751.978,535.9q3.248,40.964,5.526,81.992l.375,6.838c.8,14.882.105,29.444-13.426,38.608-9.695,6.565-22.561,7.564-33.935,8.239l-.619.036q-126.14,7.4-252.284,14.734l-126.141,7.374q-31.483,1.846-62.966,3.664l-51.233,2.959c-24.146,1.374-48.322,2.563-72.5,2.423a712.189,712.189,0,0,1-90.851-6.479l-2.659-.362C32.3,693.309,4.808,686.685,1.4,663.944a4.169,4.169,0,0,1,4.8-4.836c-.794-3.7-1.287-7.409-1.758-10.628a413.907,413.907,0,0,1-3.917-41.5,575.376,575.376,0,0,1,2.581-83.4c4.6-45.788,11.042-91.5,17.7-137.046l1.483-10.119C29.373,328.156,37.806,279.979,51,232.972c12.19-43.424,31.207-88.6,57.374-116.056S171.85,65.6,210.185,50.989c3.32-1.266,69.28-15.707,73.724-13.6l.8-.626c13.151-10.382,31.91-28.619,51.225-22.876l.044-.072c.455-.838,2.24-6.441,4.7-13.81Z" transform="translate(43.001 23.65)" fill="#8fa7df"/>
    <path id="_Skin" data-name="âœ‹ Skin" d="M26.184,25.394C42.16,5.14,59-1.3,83.885.21a80.145,80.145,0,0,1,47.994,13.453c13.092,6.841,24.7,16.258,32.989,28.38,7.087,10.364,1.7,35.974,8.176,47.055q-.095,1.809-.1,3.3,0,14.383,20.02,32.1l.53.467v69.68q-33.657,10.349-83.342,10.349-48.943,0-101.813-16.435l-1.6-.5L0,112.327,6.741,91.37V73.818l2.6-7.851C13.957,52.164,21.017,31.945,26.184,25.394Z" transform="translate(374.241 -42)" fill="#d08b5b"/>
    <path id="_Top-2" data-name="ðŸ‘• Top" d="M0,0S59.245,17.252,99.69,17.252,183.67,0,183.67,0l-7.063,567.912L62.933,569.3Z" transform="translate(380.982 146.056)" fill="#9fd8e5"/>
    <path id="_Ink" data-name="ðŸ– Ink" d="M153.622,731.133a8.022,8.022,0,0,1-7.726-5.674l-.067-.228-.194.15c-1.426-4.744-.96-10.123-.51-15.325.144-1.662.28-3.232.356-4.781l2.9-58.713c.762-15.456,1.5-31.139,2.222-46.306,1.213-25.628,2.467-52.128,3.848-78.187l.748-13.83c.965-17.481,1.766-35.735,2.448-55.8l.206-6.206c.281-8.746.374-18.1-.841-27.283a74.828,74.828,0,0,0-8.055-25.922.769.769,0,0,1,0-.782.836.836,0,0,1,.7-.4.823.823,0,0,1,.547.214,62.951,62.951,0,0,1,10.132,11.453,78.23,78.23,0,0,1,7.486,13.59,96.956,96.956,0,0,1,7.393,29.924c1.315,15.614.273,31.8-.735,47.46-.355,5.51-.721,11.2-.974,16.739-.257,5.644-.512,11.374-.759,16.915v.02c-.783,17.61-1.593,35.82-2.59,53.719-.445,7.982-.909,16.1-1.357,23.943v.024l0,.046c-.893,15.611-1.816,31.754-2.633,47.635L163.4,707.266c-.073,1.421-.088,2.9-.1,4.46v.008c-.049,4.735-.1,9.631-1.751,13.647C160.065,728.983,157.1,731.133,153.622,731.133Zm400.483-16.775a8.72,8.72,0,0,1-3.715-.9,10.163,10.163,0,0,1-3.187-2.381,7.17,7.17,0,0,1-1.958-5.584c3.922-33.757,9.545-67.873,14.982-100.866l.281-1.7c4.7-28.523,10.19-58.03,16.311-87.7,5.813-28.177,12.395-57.459,19.562-87.032l2.448-10.069c3.545-14.683,6.259-27.049,7.981-39.671,2.029-14.873,2.318-28.051.881-40.288a105.7,105.7,0,0,0-9.105-32.589,78.729,78.729,0,0,0-8.816-14.483,63.343,63.343,0,0,0-11.952-11.873l-.552-.409a9.809,9.809,0,0,1-4.1-7.012,7.62,7.62,0,0,1,2.4-6.12c2.513-2.465,5.194-5.089,7.969-7.8L599.5,242.3l3.218-3.146c2.569-2.509,5.335-5.183,8.153-7.745.387-.351.917-.769,1.531-1.252l.007-.006c2.015-1.586,4.773-3.759,5.029-5.688.173-1.3-1.032-3.413-1.912-4.952-.224-.393-.436-.763-.6-1.072l-3.6-7.269c-1.655-3.354-3.295-6.784-4.881-10.1l-1.142-2.387c-1.169-2.439-2.362-4.916-3.515-7.312l-.008-.016c-2.928-6.08-5.955-12.367-8.861-18.6L568.6,120.644c-1.583-3.391-3.153-6.887-4.672-10.269l0-.007c-5.1-11.35-10.369-23.084-17.268-33.539l-1.768-2.649a30.292,30.292,0,0,1-3.713-7.107,28.887,28.887,0,0,0-3.681-7.746A21.36,21.36,0,0,0,529.6,53.1a36.545,36.545,0,0,0-9.636-3.111.6.6,0,0,1-.54-.646.873.873,0,0,1,.74-.828c.982-.093,1.97-.14,2.937-.14,6.536,0,11.889,2.078,18.088,4.485q.837.325,1.693.655c3.443,1.323,6.732,2.873,9.805,4.348,4.083,1.958,6.66,5.379,9.154,9.011l1.335,1.957c7.983,11.7,14.029,24.928,19.876,37.723l.006.013c1.75,3.83,3.56,7.791,5.386,11.628,2.22,4.665,4.483,9.407,6.671,13.992l.008.017c6.9,14.463,14.039,29.418,20.894,44.209l4.456,9.6c2.1,4.532,4.363,9.415,6.636,14.419l3.781,8.383c1.753,3.926,3.68,8.495,4.348,13.034a18.958,18.958,0,0,1-2.559,13.236c-3.859,6.255-9.953,11.381-15.846,16.338-1.813,1.525-3.526,2.966-5.175,4.438-5.863,5.235-11.814,10.545-17.687,15.783a93.9,93.9,0,0,1,15.359,20.425,112.917,112.917,0,0,1,9.823,23.632c5.081-2.116,10.936-2.953,16.6-3.762,1.97-.281,3.828-.547,5.644-.863a9,9,0,0,1,1.539-.138,6.266,6.266,0,0,1,4.821,2.064,7.231,7.231,0,0,1,1.771,4.54,6.607,6.607,0,0,1-1.7,4.848,6.049,6.049,0,0,1-4.494,1.756l-.168,0c-.63-.012-1.3-.018-2.05-.018-1.278,0-2.559.017-3.915.036h-.061c-1.327.018-2.7.037-4.1.037a60.269,60.269,0,0,1-11.931-.937,138.654,138.654,0,0,1,2.687,16.427c1.343,13.062.855,27.229-1.493,43.31-2.128,14.573-5.515,29.039-8.8,42.606l-.557,2.3c-8.214,33.788-14.942,63.591-20.569,91.111-6.224,30.434-11.9,61.417-16.871,92.088-4.312,26.607-7.61,53.792-10.8,80.082l-.027.223c-.561,4.623-1.141,9.4-1.717,14.1a11.251,11.251,0,0,1-2.672,6.219A8.155,8.155,0,0,1,554.106,714.358Zm-209.124-1.389a7.185,7.185,0,0,1-3.983-1.15,6.839,6.839,0,0,1-2.723-3.677c-8.71-26.341-17.007-53.3-25.032-79.365-2.822-9.168-5.739-18.643-8.642-27.99-17.4-56.017-33.005-117.611-49.118-193.841-6.8-32.17-13.1-64.893-18.729-97.262-1.075-6.184-2.135-12.4-3.15-18.486l-1.5-9.069c-1.027-6.463-1.61-13.2,3.411-18.314a22.678,22.678,0,0,1,7.052-4.611,81.984,81.984,0,0,1,8.311-3.012c1.554-.5,3.021-.973,4.423-1.482l.469-.172c2.347-.876,4.717-1.739,7.009-2.573,1.664-.606,3.55-1.292,5.359-1.96-3.115-2.452-6.261-4.973-9.3-7.411l-.032-.025-.008-.006c-2.874-2.3-5.846-4.685-8.783-7-1.606-1.267-3.247-2.546-4.834-3.783-3.243-2.528-6.6-5.142-9.831-7.789A24.506,24.506,0,0,1,230.2,218.4a15.3,15.3,0,0,1-2.477-7.12c-.369-4.711,1.357-9.16,3.025-13.462.23-.593.491-1.265.736-1.915l.18-.48c1.665-4.494,3.6-9.716,5.558-14.825l11.67-30.519c2.335-6.106,4.667-12.3,6.923-18.3l.006-.017c4.936-13.115,10.041-26.677,15.39-39.873a203.912,203.912,0,0,1,10.423-22.308c2.035-3.688,4.065-7.006,6.2-10.144a21.242,21.242,0,0,1,3.81-4.363,25.17,25.17,0,0,1,4.84-3.129,57.78,57.78,0,0,0,8.74-6.053,60.086,60.086,0,0,1,8.549-5.963,40.966,40.966,0,0,1,19.332-5.106.439.439,0,0,1,.45.392.468.468,0,0,1-.325.529,59.452,59.452,0,0,0-10.871,4.447,48.819,48.819,0,0,0-9.632,6.694,31.771,31.771,0,0,0-7.337,8.745,14.678,14.678,0,0,0-1.294,4.079l-.086.474a14.38,14.38,0,0,1-2.383,6.036l-.223.347a137.657,137.657,0,0,0-9.7,18c-3.063,6.738-5.722,13.674-7.7,18.964l-10.363,27.812L263.3,159.158q-3.337,8.962-6.676,17.924l-3.338,8.962c-1.789,4.8-3.66,9.668-5.469,14.372l-.022.057-.144.374c-.259.674-.527,1.353-.786,2.01-.567,1.439-1.152,2.924-1.666,4.4-.034.1-.092.355-.166.681a10.3,10.3,0,0,1-.511,1.825l.084.148c1.461,2.458,4.658,4.655,7.479,6.593,1.229.844,2.389,1.642,3.339,2.41l10.874,8.791c2.265,1.831,4.586,3.678,6.83,5.465l.047.037c5.428,4.319,11.04,8.786,16.349,13.409a6.75,6.75,0,0,1,2.08,3.148,7.209,7.209,0,0,1,.137,3.527,8.859,8.859,0,0,1-1.979,3.989,8.352,8.352,0,0,1-3.721,2.529c-6.66,2.169-13.325,4.7-19.77,7.151-1.99.756-4.244,1.613-6.4,2.42-1.316.492-2.671.967-3.982,1.427-2.205.773-4.485,1.572-6.66,2.48l-2.113.913c-.568.256-.557.336-.485.854a8.136,8.136,0,0,1,.089,1.037,19.94,19.94,0,0,0,.477,3.4v.007c.094.47.19.957.268,1.424,2.906,17.568,6.039,35.412,9.311,53.039,5.7,30.713,12.111,62.094,19.042,93.272,6.772,30.464,14.239,61.61,22.194,92.573,4.7,18.293,9.684,36.839,14.5,54.775l0,.01,0,.017c3.358,12.494,6.829,25.414,10.176,38.14,7.053,26.813,16.157,53.647,24.962,79.6l.071.21c1.32,3.891,2.685,7.915,4.018,11.865a6.061,6.061,0,0,1-.661,5.626A7.543,7.543,0,0,1,344.981,712.969ZM519.8,701.582a7.3,7.3,0,0,1-4.451-1.448,9.486,9.486,0,0,1-3.074-4.212,7.479,7.479,0,0,1-.233-4.059c-.026-.864-.1-1.8-.17-2.7v-.006c-.1-1.254-.2-2.552-.175-3.664l.167-7.988c.016-.752.041-1.516.066-2.255v-.012c.015-.444.031-.947.045-1.428l-.146.015c-7.818.379-16.2.549-27.167.549-4.572,0-9.22-.029-13.714-.056h-.073c-4.275-.026-8.7-.054-13.065-.056l-8,.012h-1.163c-5.641,0-12.294-.034-18.862-.286l-2.5-.106c-1.528-.072-3.115-.13-4.65-.185l-.065,0c-3.5-.128-7.127-.259-10.693-.567.718,5.786,1.314,11,1.824,15.94a7.714,7.714,0,0,1-2.134,5.95,10.086,10.086,0,0,1-7.195,3.378A8.543,8.543,0,0,1,397.9,695.6a12.06,12.06,0,0,1-2.844-6.537c-1.619-12.239-2.76-24.742-3.863-36.833-1.02-11.184-2.075-22.745-3.505-34.069-2.4-18.989-4.544-38.331-6.62-57.036l-.127-1.141q-.291-2.624-.583-5.248l-.785-7.05c-9.214-82.467-17.371-158.036-24.937-231.024l-3.719-36.015-.389-3.758c-3.566-34.462-7.254-70.1-10.33-105.2-1.726-19.684-3.388-40.087-5.081-62.376-1.07-14.113-1.843-29.074-2.361-45.737a7.788,7.788,0,0,1-1.978-7.631c.425-1.484.946-3.09,1.641-5.055l-.025-1.1c-.027-1.192-.058-2.544-.083-3.855a1.959,1.959,0,0,1,.565-1.441,2.532,2.532,0,0,1,1.781-.716,2.426,2.426,0,0,1,.484.048c.873-2.115,1.794-4.255,2.685-6.325l.009-.022c1.457-3.388,2.964-6.89,4.283-10.33.873-2.278,1.721-4.639,2.54-6.922,2.438-6.79,4.958-13.809,8.582-20A.441.441,0,0,1,353.626,0a.475.475,0,0,1,.484.463c.121,7.178-1.131,14.544-2.342,21.668l0,.005h0c-.411,2.416-.835,4.914-1.194,7.344-.537,3.632-.943,7.409-1.336,11.062v.007A174.384,174.384,0,0,1,346.657,58.6a7.411,7.411,0,0,1-.248,1.3l-.1.324a8.6,8.6,0,0,1-5.868,5.6c1.017,5.631,1.77,10.224,2.372,14.454,1.12,7.894,2.136,15.693,3.316,24.975l1.268,10c1.042,8.2,2.157,17.183,3.512,28.275a80.274,80.274,0,0,0,8.973,3.109c7.058,2.02,14.212,2.831,21.532,3.549,12.352,1.212,24.978,1.891,37.189,2.548l.065,0c2.4.129,4.887.263,7.328.4l3.183.179c8.39.48,15.948.714,23.1.714a262.551,262.551,0,0,0,27.056-1.3,174.524,174.524,0,0,0,24.516-4.3c2.011-.5,4.025-1.141,5.973-1.757,2.021-.639,4.107-1.3,6.186-1.808a13.563,13.563,0,0,0,3.655-1.758l.269-.163a4.3,4.3,0,0,1,2.552-1.562l.3-.051.3-.043.1-.046-.008.032a9.383,9.383,0,0,1,1.247-.085,8.449,8.449,0,0,1,1.132.075c.248-6.094.589-14.108,1.026-22.048.229-4.156.549-8.43.858-12.564v-.009c1.173-15.67,2.385-31.873-.776-47.314a.515.515,0,0,1,.095-.447.524.524,0,0,1,.9.173c6.854,18.057,7.062,37.723,7.263,56.741.029,2.764.06,5.622.11,8.415.321,17.66.213,35.622.109,52.992-.021,3.583-.044,7.288-.062,10.979a10.644,10.644,0,0,1,3.968,2.768,7.663,7.663,0,0,1,1.839,5.387,5.338,5.338,0,0,1-1.839,3.76,12.4,12.4,0,0,1-4.036,2.3c-.076,18.465-.209,37.162-.394,55.571a7.7,7.7,0,0,1,2.745,6.306,6.82,6.82,0,0,1-2.878,5.561c-.462,41.812-1.143,84.323-1.8,125.435v.044c-.286,17.836-.581,36.279-.856,54.478L529.934,575.63c-.1,6.42-.219,12.931-.338,19.228-.192,10.181-.39,20.709-.482,31.067l.119.048.419.193c.745.351,1.76.879,1.974,1.416a.715.715,0,0,1,.065.317,6.005,6.005,0,0,1,3.292,1.648,5.178,5.178,0,0,1,1.648,4.081,7.029,7.029,0,0,1-1.648,4.113l-.521.633a5.77,5.77,0,0,1-4.4,1.821,6.4,6.4,0,0,1-1-.077c.006,3.392.017,6.841.029,10.177v.034c.023,6.935.047,14.107.024,21.18-.011,3.309-.062,6.563-.114,9.588l-.131,7.663a25.631,25.631,0,0,1-.83,6.85,7.46,7.46,0,0,1-4.124,5.044A10.242,10.242,0,0,1,519.8,701.582Zm-112.889-65.31,1.7,12.285c.946,6.848,1.731,12.6,2.488,18.438,3.859-.529,7.8-.839,11.606-1.14h.007c1.5-.119,3.06-.241,4.577-.376,9.379-.831,19.015-1.229,27.516-1.58h.01c5.376-.222,10.827-.493,16.1-.755,12.795-.636,26.025-1.294,39.018-1.294.651,0,1.289,0,1.9,0,.205,0,.4.016.562.03l.942-24.24L500,637.623c-11.318-.018-22.8-.116-33.9-.211-2.822-.025-5.756-.044-8.344-.061H457.7c-7.258-.048-14.763-.1-22.141-.253l-4.361-.1c-2.443-.066-4.914-.068-7.53-.07h-.012a145.8,145.8,0,0,1-16.737-.653Zm-4.353-34.626c1.057,9.284,1.98,16.879,2.905,23.9a105.736,105.736,0,0,1,13.847-.744c1.9,0,3.75.022,5.544.043h.015c1.779.021,3.618.044,5.434.044.641,0,1.221,0,1.775-.008l1.106-.014c4.126-.07,8.521-.1,13.832-.1,3.793,0,7.649.017,11.379.033h.028c3.155.014,6.418.028,9.662.032,13.767.015,25.174.063,35.9.15l9.831.081.019-.495c.253-6.855.45-14.315.62-23.477-.661.078-1.181.121-1.687.143-1.294.054-2.569.061-3.535.061-.566,0-1.129,0-1.658-.005h-.255q-.683,0-1.366,0c-.427,0-.8,0-1.136,0-4.91.042-10.711.086-16.511.086h-.6c-11.081,0-22.371.068-33.558.2-2.87.035-5.788.074-8.611.112l-.172,0h-.079c-8.488.114-17.265.232-25.9.248h-.577C413.156,601.941,407.282,601.777,402.562,601.645Zm-4.324-38.722c.839,7.247,1.652,14.626,2.438,21.763l.006.05.015.134q.349,3.167.7,6.333c.712-.11,1.422-.2,2.11-.274,6.253-.654,11.775-1.125,16.88-1.442,11.558-.717,23.061-1.081,33.77-1.367,11.542-.31,23.24-.55,34.77-.713,2.91-.041,5.963-.061,9.334-.061,2.28,0,4.753.009,7.557.029l.849,0,1.27,0h.1q.664,0,1.328,0c1.318,0,2.87.014,4.4.116.3.021.58.05.913.088l.2-14.158c.033-2.308.07-4.689.108-7.077-5.3.326-10.527.37-14.944.37-1.863,0-3.752-.009-5.58-.018h-.03l-.5,0c-1.629-.008-3.314-.016-4.984-.016h-.217l-2,0c-1.4.007-2.84.01-4.291.01-8.381,0-17.436-.107-28.5-.337-13.254-.276-23.986-.7-33.776-1.325-4.6-.294-9.187-.692-13.62-1.18l-2.267-.259c-.944-.112-1.92-.215-2.863-.314C400.374,563.164,399.3,563.051,398.237,562.923Zm-4.264-36.946q.475,4.12.95,8.239c.741,6.427,1.58,13.712,2.392,20.712,1.514-.07,3.041-.1,4.518-.132h.035c1.119-.023,2.277-.047,3.4-.087,5.606-.2,11.177-.24,15.888-.25,1.329,0,2.658,0,4.061,0,4.242,0,8.671.015,12.578.027,4.781.016,8.763.028,12.861.028l3.282,0c11.58-.025,23.038-.224,33.781-.426,3.838-.072,7.744-.237,11.522-.4,5.082-.215,10.338-.437,15.492-.437h.5l.652-30.278c-19.126,1.517-39.092,2.332-62.833,2.565l-3.154.028c-6.155.047-12.425.164-18.489.277-7.9.148-16.069.3-24.12.3C402.479,526.14,398.125,526.087,393.973,525.977Zm-4.836-42.134c1.414,12.381,2.895,25.287,4.4,38.357,8.859-1.087,17.894-1.993,26.631-2.868,9.544-.956,19.413-1.946,29.076-3.174l16.734-2.137c16.047-2.048,33.143-4.2,50.224-5.994l.565-26.232a28.725,28.725,0,0,1-7.564.964l-.11,0-.767.034-8.115.4c-3.113.153-7.21.347-11.287.495-12.57.46-25.229.893-37.625,1.287-9.675.307-17.484.45-24.577.45-4.979,0-9.574-.069-14.047-.21-6.718-.212-12.873-.557-18.819-1.054-.99-.083-2-.148-2.977-.211l-.065,0C390.265,483.919,389.7,483.882,389.138,483.843Zm-4.814-42.3c1.109,9.805,2.272,20.008,3.3,29.01l.833,7.3c.961-.153,1.937-.291,2.88-.424h.01l.029,0c1.144-.162,2.327-.33,3.455-.52,4.721-.8,9.762-1.509,15.865-2.241,10.091-1.209,21.1-2.229,34.662-3.211,6.587-.477,13.287-.921,19.767-1.35l.08-.005.131-.009c5.136-.34,10.448-.692,15.668-1.058l8.414-.593c3.294-.228,5.968-.4,8.415-.555,1.513-.093,3.07-.123,4.719-.154a54.59,54.59,0,0,0,10.4-.851,6.752,6.752,0,0,1,2.612-.517,7.37,7.37,0,0,1,1.535.164l.565-26.356a44.142,44.142,0,0,1-8.563.928c-.868.038-1.688.073-2.486.124l-.634.044c-5.638.428-11.648.7-19.487.9-11.422.282-23.927.461-38.232.549l-7.664.048c-3.457.02-7.554.041-11.732.041-7.246,0-13.256-.061-18.914-.194-6.313-.146-12.632-.449-19.645-.8-.956-.048-1.942-.089-2.9-.129l-.086,0C386.341,441.63,385.328,441.588,384.323,441.538ZM379.733,400.3c1.351,12.307,2.585,23.413,3.771,33.955,1.234-.134,2.47-.252,3.666-.365.978-.093,2.087-.2,3.134-.309,7.259-.768,13.315-1.394,19.645-1.894,11.644-.918,23.5-1.5,34.962-2.068h.015l2.352-.116c6.995-.347,14.083-.633,20.939-.91l.051,0c5.654-.229,11.5-.465,17.248-.733,7.475-.349,13.186-.725,18.518-1.216,1.42-.131,2.9-.374,4.472-.63l.014,0a46.507,46.507,0,0,1,7.371-.812,17.68,17.68,0,0,1,2.094.118c.187-8.593.388-17.519.565-25.394l.048-2.132q.071-3.174.143-6.349a7.65,7.65,0,0,1-5.271,2.671c-8.331,1.081-16.94,1.507-25.265,1.919-3.1.153-6.3.312-9.443.5l-2.033.128c-10.838.715-21.853,1.3-32.5,1.862l-3.244.172c-11.89.632-24.252,1.172-36.743,1.607-3.3.115-6.71.171-10.434.171-1.664,0-3.416-.012-5.208-.035l-2.232-.034c-.74-.012-1.505-.02-2.289-.028C382.654,400.361,381.19,400.347,379.733,400.3Zm-4.68-43c1.364,12.627,2.732,25.21,4.067,37.4,1.88-.355,3.766-.645,5.591-.926q.863-.133,1.708-.265l.3-.047c5.732-.9,11.656-1.833,17.513-2.507,12.682-1.461,24.376-2.707,35.75-3.811l3.121-.3.939-.091.043,0c8.687-.844,17.669-1.716,26.511-2.5l6.128-.53c3.806-.32,7.695-.712,11.456-1.091l.016,0c8.294-.836,16.871-1.7,25.27-1.872h.111a6.726,6.726,0,0,1,5.335,2.786c.272-12.017.548-23.767.831-35.749a5.018,5.018,0,0,1-.7.867c-4.336,4.283-9.593,4.6-15.16,4.932-.9.054-1.825.109-2.758.182l-.409.033c-7.257.611-13.679,1.116-19.633,1.545-13.873,1-27.657,1.672-39.312,2.2-12.769.574-22.531.83-31.651.83-2.97,0-5.895-.029-8.693-.086-1.694-.035-3.436-.062-5.121-.088C389.32,358.089,382.1,357.976,375.053,357.3Zm-4.667-43.2,3.8,35.187c6.4-.924,13-1.429,19.391-1.918h.006c2.3-.176,4.673-.357,6.981-.554l1.849-.163c10.222-.931,20.648-1.621,30.732-2.289l.26-.017c2.421-.16,4.925-.326,7.384-.492,13.5-.913,26.823-2.017,39.314-3.069l.325-.027c6.324-.531,12.864-1.081,19.31-1.674l.808-.079c.831-.087,1.664-.188,2.47-.285a52.3,52.3,0,0,1,6.264-.512,15.052,15.052,0,0,1,8.73,2.422,5.688,5.688,0,0,1,1.857,2.041q.087-3.644.173-7.289l.007-.3c.175-7.405.356-15.063.544-22.636a43.421,43.421,0,0,1-5.157.235l-1.084,0h-.008l-1,0c-.585,0-1.351,0-2.09.028-7.908.258-15.793.494-21.778.671l-43.562,1.286c-10.4.307-22.7.62-35.054.62-3.254,0-6.449-.022-9.5-.065-1.292-.018-2.648-.034-3.737-.047h-.019c-5.2-.061-10.576-.124-15.85-.411l-2.173-.131c-1-.066-2.066-.111-3.2-.159C374.432,314.392,372.413,314.307,370.386,314.1Zm-4.647-42.627c1.318,11.979,2.651,24.192,3.961,36.3,2.207-.41,4.441-.661,6.6-.9h.006c.883-.1,1.8-.2,2.646-.31l.63-.084c6-.826,12.138-1.359,18.076-1.876l.186-.016,2.528-.221c14.4-1.268,28.6-2.029,40.591-2.605,9.219-.444,18.573-.848,27.618-1.239l.546-.024c4.4-.19,8.947-.387,13.416-.586l13.861-.62c2.566-.114,4.833-.212,6.929-.3q2.794-.117,5.587-.231l.338-.014,3.977-.164c.53-.022,1.076-.061,1.605-.1l.027,0c.838-.06,1.705-.122,2.551-.122.27,0,.52.006.766.019l.464-.062c.181-.024.358-.045.576-.068a6.551,6.551,0,0,1,1.427-.83l.307-.119.644-25.909c-29.246,1.178-55.287,1.908-79.61,2.234-4.608.062-9.416.093-14.29.093-9.39,0-19.373-.113-30.521-.346-6.574-.138-13.13-.455-19.487-.941l-2.425-.2c-1.237-.1-2.528-.2-3.776-.29h-.006C369.611,271.8,367.668,271.66,365.739,271.474Zm-4.35-39c1.241,10.974,2.47,21.969,3.651,32.68,2.486-.284,5-.484,7.424-.679l.039,0c1.244-.1,2.531-.2,3.763-.314,8.637-.775,15.6-1.271,21.91-1.561l14.6-.678c9.356-.432,19.37-.882,29.211-1.241,29.309-1.069,55.467-2.2,79.969-3.449.178-7,.368-14.253.581-22.167a7.345,7.345,0,0,1-5.53,2.264h-.025c-7.633-.02-15.4-.023-22.906-.026h-.258c-19.923-.007-40.525-.014-60.776-.347-22.076-.365-34.027-.88-41.971-1.288-6.431-.33-13.141-.987-20.515-2.008-1.17-.162-2.358-.3-3.616-.451l-.016,0C365.114,232.988,363.237,232.766,361.39,232.471Zm-4.478-38.809c1.282,10.881,2.586,22.145,3.875,33.478,2.312-.413,4.671-.7,6.952-.971h.008c1.163-.14,2.262-.272,3.344-.419,7.721-1.05,14.585-1.736,20.984-2.1,14.531-.821,28.866-1.194,40.972-1.451,20.311-.431,40.963-.549,60.935-.663h.084c7.514-.043,15.283-.087,22.922-.148h.077a7.219,7.219,0,0,1,5.783,2.572c.183-6.54.383-13.378.61-20.9-1.006-.106-2.02-.23-3-.35-1.7-.208-3.3-.4-4.859-.513-7.671-.536-15.364-1.025-22.866-1.454-14.846-.852-30.469-1.633-47.762-2.385-15.241-.663-31.579-1.359-47.791-1.96l-6.968-.255A327.421,327.421,0,0,1,356.912,193.662ZM351.9,151.646c1.374,11.341,2.705,22.508,4.062,33.9l.409,3.5c13.283-2.582,27.441-3.352,40.805-3.92,15.317-.652,30.406-.983,44.847-.983.949,0,1.94,0,2.944,0,15.425.046,31.495.411,47.762,1.083,7.935.328,15.962.711,23.859,1.14,1.406.076,2.958.077,4.6.078h.046c.891,0,1.813,0,2.74.015q.032-1.015.063-2.029l0-.081c.032-1.055.065-2.145.1-3.217q.1-3.026.2-6.052l0-.1c.16-4.793.341-10.225.52-15.429-4.492,2.307-10.068,3.455-14.988,4.469-.927.191-1.885.388-2.784.584l-.616.136a206.3,206.3,0,0,1-27.142,4.1c-7.013.612-14.477.922-22.183.922-9.708,0-20.059-.476-31.645-1.456l-3.129-.268c-14.559-1.262-31.412-2.945-47.172-6.968a84.448,84.448,0,0,1-21.229-8.188C353.235,152.453,352.555,152.048,351.9,151.646ZM9.759,697.382a7.2,7.2,0,0,1-7.347-6.921C.3,662-.415,631.841.224,598.251c.514-27.045,1.9-56.335,4.361-92.177,1.941-28.269,4.606-55.936,7.92-82.233,3.527-27.987,7.916-55.431,13.046-81.57l.924-4.684c4.462-22.5,10.049-49.018,17.653-75.026,8.007-27.387,17.229-50.77,28.195-71.486a236.781,236.781,0,0,1,38.326-52.787A272.241,272.241,0,0,1,216.465,70.557c20.565-6.982,40.762-10.522,60.029-10.522,2.117,0,4.251.043,6.345.129a.929.929,0,0,1,.871.873.787.787,0,0,1-.634.877c-12.869,2.873-24.068,5.718-34.236,8.7a316.428,316.428,0,0,0-33.324,11.654,255.718,255.718,0,0,0-60.676,35.951,260.546,260.546,0,0,0-44.99,46.256,274.161,274.161,0,0,0-32.582,55.721,357.748,357.748,0,0,0-13.227,35.69c-3.389,10.726-6.653,22.378-10.271,36.668-3.211,12.681-6.25,25.862-9.033,39.178-2.669,12.772-5.186,26.064-7.479,39.507-4.288,25.132-7.9,51.6-10.73,78.672-2.632,25.161-4.691,51.8-6.119,79.172-1.562,29.932-1.9,60.375-2.231,89.814v.014c-.262,23.453-.533,47.705-1.421,71.552a7.085,7.085,0,0,1-2.273,5.2A7.086,7.086,0,0,1,9.759,697.382Zm684.107-6.867a10.106,10.106,0,0,1-5.76-1.832,7.951,7.951,0,0,1-3.337-4.915c-4.516-22.952-8.533-47.242-12.643-76.442-3.17-22.531-5.963-45.345-8.3-67.807-2.356-22.628-4.315-45.528-5.825-68.065-1.513-22.6-2.47-45.658-2.843-68.521-.162-9.964.056-20.384.668-31.856l.136-2.446c.1-1.723.182-3.491.263-5.2l0-.047c.43-9.135.874-18.58,3.9-27.257a.566.566,0,0,1,.539-.4.574.574,0,0,1,.545.4c3.283,9.188,4.031,19.363,4.755,29.2.177,2.4.359,4.878.575,7.274l.086.928c1.079,11.4,1.868,22.644,2.56,33.1l.272,4.142c3.438,52.808,7.291,95.662,12.124,134.862,6.039,48.969,14.393,96.92,21,133.223a10.883,10.883,0,0,1-.951,7,8.8,8.8,0,0,1-7.766,4.663Zm-480.093-3.547a8.027,8.027,0,0,1-4.711-1.648,9.022,9.022,0,0,1-3.06-3.98,6.715,6.715,0,0,1-.323-3.832,6.861,6.861,0,0,1,2.273-3.671c6.592-5.814,13.485-11.538,20.151-17.074l.007-.006.018-.015c3.84-3.189,7.81-6.486,11.677-9.762l4.629-3.924c8.443-7.131,17.526-14.549,27.571-19.989a.551.551,0,0,1,.266-.068.606.606,0,0,1,.52.307.513.513,0,0,1-.016.531c-6.645,10.8-15.591,20.241-24.242,29.371l-1.216,1.284c-3.483,3.679-6.993,7.462-10.388,11.12l0,.005c-5.869,6.325-11.938,12.865-18.085,19.1A7.045,7.045,0,0,1,213.773,686.967Zm453.185-.618a10.39,10.39,0,0,1-7.047-2.878c-3.671-3.287-7.25-6.869-10.711-10.332l-.006-.006-.013-.012c-1.294-1.295-2.631-2.633-3.952-3.935l-1.458-1.427c-5.788-5.627-10.726-10.785-15.1-15.767l-4.343-4.939c-8.093-9.229-16.457-19.121-21.988-29.646a.909.909,0,0,1-.005-.919.967.967,0,0,1,.828-.454,1.024,1.024,0,0,1,.65.238c3.31,2.691,6.465,5.735,9.517,8.679l.006.006c2.12,2.045,4.312,4.159,6.533,6.133,4.841,4.3,10.13,8.61,16.646,13.555,5.953,4.516,11.885,8.721,17.631,12.5a159.182,159.182,0,0,0,14.307,8.077l.173.09.9.468a9.652,9.652,0,0,1,6.463,3.756,10.972,10.972,0,0,1,2.075,7.861,8.085,8.085,0,0,1-2.871,5.526l-.707.554A12.3,12.3,0,0,1,666.958,686.348Zm93.984-9.395a8.829,8.829,0,0,1-6.345-2.522,6.593,6.593,0,0,1-1.779-5.016,50.516,50.516,0,0,1-.337-9.045c-.073-.42-.146-.814-.224-1.2a4.88,4.88,0,0,1,.425-3.187c.067-1.328.141-2.87.165-4.349.1-6.279.078-11.981-.073-17.432-.326-11.779-.771-23.15-1.32-36.792-1.072-26.675-2.492-50.7-4.341-73.451-1.744-21.475-3.984-42.95-6.658-63.828-2.749-21.465-6.028-42.869-9.748-63.616-3.823-21.322-8.212-42.522-13.047-63.011-4.966-21.046-10.537-41.91-16.557-62.012-2.923-9.759-6.08-19.285-9.385-28.315-3.5-9.575-7.284-18.894-11.235-27.7-4.163-9.278-8.645-18.271-13.321-26.732-4.9-8.868-10.163-17.418-15.64-25.41-4.938-7.207-10.3-14.29-15.939-21.053-5.56-6.669-11.555-13.228-17.818-19.493-7.057-7.059-13.529-13.107-19.784-18.489A214.227,214.227,0,0,0,576.5,87.872a1.094,1.094,0,0,1-.413-1.239.924.924,0,0,1,.867-.707,1.05,1.05,0,0,1,.341.061l2.112.731c8.177,2.841,17.6,6.283,25.929,11.192A171.7,171.7,0,0,1,629.5,115.518a193.377,193.377,0,0,1,21.873,22.152,265.136,265.136,0,0,1,18.606,24.988,283.063,283.063,0,0,1,15.573,26.759c4.485,8.743,8.815,18.222,12.87,28.172A575.558,575.558,0,0,1,718.3,276.3c11.2,38.9,20.73,80.93,29.136,128.5,3.9,22.091,7.359,44.344,10.274,66.143,2.975,22.252,5.467,44.634,7.405,66.524,1.935,21.853,3.245,43.973,3.893,65.747.354,11.885.316,23.8.231,33.89-.02,2.517-.011,5.205.029,8.717l.111,8.716c.014,1.277.06,2.6.106,3.869v.008c.152,4.265.309,8.675-.7,12.809a7.135,7.135,0,0,1-2.986,4.332A8.808,8.808,0,0,1,760.942,676.954ZM520.338,81.965a6.958,6.958,0,0,1-6.621-4.817,166.738,166.738,0,0,1-8.931-30.567,120.858,120.858,0,0,1-2.038-15.449c-.041-.784-.093-1.561-.148-2.384-.255-3.835-.519-7.8.389-11.379a.755.755,0,0,1,.745-.541.691.691,0,0,1,.626.361,42.424,42.424,0,0,1,3,8.522c.421,1.534.857,3.119,1.366,4.612.44,1.288.879,2.6,1.3,3.87l.011.033,0,.005c1.095,3.274,2.226,6.659,3.479,9.941a188.142,188.142,0,0,0,13.05,27.556,6.433,6.433,0,0,1,.29,6.633,7.05,7.05,0,0,1-2.75,2.628A7.89,7.89,0,0,1,520.338,81.965Z" transform="translate(37 0.999)"/>
  </g>
</svg>
