<svg xmlns="http://www.w3.org/2000/svg" width="970.13" height="772" viewBox="0 0 970.13 772">
  <g id="body_jacket-polka-dots" data-name="body/jacket-polka-dots" transform="translate(0 39)">
    <path id="_Skin" data-name="âœ‹ Skin" d="M401.4.183c29.132,1.438,74.492,13.927,76.76,21.909,3.541,12.464-4.068,59.191,8.659,84.36,5.426,10.729,26.028,9.767,34.01,13.262C547.541,131.4,626.612,153.578,642.916,181.5c6.532,11.185,46.671,149.975,68,220.781a205.312,205.312,0,0,0,8.073,22.2l1.085-5.313q13.044-64.193,13.044-77.722c0-14.093-11.242-73.552,0-88.673,11.129-14.97,37.95-27.209,50.017-27.453l.361,0a30.831,30.831,0,0,0,20.625-7.43l8.543-4.3q65.188-32.711,76.172-35.886c11.684-3.378,31.57,3.819,21.627,14.623q-9.943,10.8-49.97,38.225l-10.062,7.994,1.216.635q19.506,10.268,22.938,17.286,3.538,7.233-3.4,17.112l.7.684q8.768,8.6,8.768,11.543v9.571q8.723,12.774,4.361,21.307t-13.83,14.787q-6.977,18.354-16.618,26.126t-33.324,12.939L806.958,404.7l-11.577,47.994-5.834,53.553,1.694,1.226c7.851,5.718,12.88,9.957,12.88,14.337,0,6.824-31.677,167.3-80.96,174.485-10.659,1.553-65.935-6.066-84.085-20.83l.268,1.595q6.406,38.689-2.71,40.183Q524.6,735.611.282,728.594-2.837,450.312,28.494,357.93c53.42-157.513,112.318-211.312,132.923-215.92,18.049-4.036,80.638-28.947,98.134-35.558,11.421-4.316,13.868-17.255,26.882-17.255l1.052.005c12.586.126,23.748,2.377,30.018-4.1,16.456-16.987,11.856-40.5,18.683-63.014C339.948,9.687,365.653-1.581,401.4.183Z" transform="translate(55.504 -39)" fill="#d08b5b"/>
    <path id="_Jacket" data-name="ðŸ§¥ Jacket" d="M286.433,0l1.052.005C290.6.037,293.62.2,296.5.325l-6.077,20.707-.131,2.175q-5.919,107.09,104.882,102.53T505.4,55.644l-.023-1.33V27.127l1.162.223c5.607,1.049,11.01,1.733,14.287,3.167C547.541,42.208,626.612,64.381,642.916,92.3c6.532,11.185,46.671,149.975,68,220.781q1.169,3.881,2.434,7.575v13.994l-.232.849q-11.213,41.938,29.859,68.577,29.112,18.882,59.8,24.514a7.4,7.4,0,0,1,1.348,4.024c0,6.824-31.677,167.3-80.96,174.485-10.659,1.553-65.935-6.066-84.085-20.83l.268,1.595.25,1.533q5.973,37.186-2.96,38.651Q524.6,646.414.282,639.4-2.837,361.115,28.494,268.734C81.914,111.22,140.812,57.422,161.417,52.814c18.049-4.036,80.638-28.947,98.134-35.558C270.972,12.94,273.419,0,286.433,0Z" transform="translate(55.504 50.197)" fill="#ba98de"/>
    <path id="_Ink" data-name="ðŸ– Ink" d="M375.345,696.619a59.649,59.649,0,0,1-11.92-1.023,28.108,28.108,0,0,1-10.342-4.148,8.3,8.3,0,0,1-3.837-2.62,22.069,22.069,0,0,1-3.25-5.158,76.682,76.682,0,0,1-5.013-15.944c-2.773-12.471-4.56-28.02-6-40.515-1.168-10.16-2.177-18.935-3.367-23.233L330,593.079c-5.874-39.656-12.683-86.61-18.646-134.184-6.2-49.492-10.741-93.663-13.874-135.038-1.755-23.18-3.095-45.949-3.982-67.676-.942-23.076-1.41-45.852-1.39-67.693.021-22.989.582-45.748,1.669-67.645,1.136-22.9,2.883-45.618,5.194-67.531a31.356,31.356,0,0,0-8.947,1.6,26.588,26.588,0,0,0-7.189,3.761,33.743,33.743,0,0,0-9.919,12.358,67.26,67.26,0,0,0-5.339,16.055,141.2,141.2,0,0,0-2.394,16.452,163.526,163.526,0,0,1-6.817,31.268c-3.172,10.186-7.082,20.357-10.862,30.193l0,0c-4.29,11.16-8.726,22.7-12.09,34.285a169.126,169.126,0,0,0-4.174,17.584A123.921,123.921,0,0,0,229.3,235a78.574,78.574,0,0,0,6.489,32.42c1.884,4,3.944,8.01,6.124,12.258,5.746,11.2,11.687,22.774,14.63,34.634a55.567,55.567,0,0,1,1.713,17.888,44.2,44.2,0,0,1-1.637,8.966,45.311,45.311,0,0,1-3.716,8.935,101.2,101.2,0,0,0-10.131,13.947,31.633,31.633,0,0,0-4.157,11.409c-1.08,7.527.911,15.613,4.209,29.01l.129.522c4.04,19.288,8.724,38.821,14.317,59.716,4.982,18.613,10.578,37.887,17.107,58.926,12.128,39.079,25.711,78.426,38.846,116.477,3.094,8.963,6.294,18.232,9.438,27.394-.73,3.805-1.918,5.734-3.531,5.735-1.167,0-2.584-1.01-4.21-3a52.442,52.442,0,0,1-5.136-8.15A268.541,268.541,0,0,1,298.005,635.5c-8.1-20.577-15.984-44.126-20.693-58.2l-.011-.033c-1.756-5.246-3.025-9.036-3.549-10.388a13.982,13.982,0,0,1-6.273,1.618,10.62,10.62,0,0,1-4.622-1.039,11.46,11.46,0,0,1-3.6-2.736,13.69,13.69,0,0,1-3.391-8.274,10.8,10.8,0,0,1,2.36-7.536,10.548,10.548,0,0,1,3.476-2.692,15.313,15.313,0,0,1,5.194-1.412c-14.1-47.2-25.221-89.127-34-128.191l-.256-1.216c-.58-2.7-1.22-5.395-1.9-8.251-2.137-9-4.347-18.3-4.5-27.333a44.4,44.4,0,0,1,1.594-13.21,34.625,34.625,0,0,1,6.322-12.172c21.125-21.362,9.9-44.142-1.983-68.26-8.765-17.79-17.829-36.184-14.569-55.249a9.708,9.708,0,0,1-5.824,1.915,10.911,10.911,0,0,1-4.24-.88,11.235,11.235,0,0,1-3.583-2.436,9.852,9.852,0,0,1-2.882-7.119,9.431,9.431,0,0,1,2.721-7.009,11.372,11.372,0,0,1,8.025-3.377,9.617,9.617,0,0,1,7.465,3.415,168.778,168.778,0,0,1,7.136-26.905c3.031-8.771,6.61-17.538,10.072-26.017,3.387-8.3,6.89-16.875,9.876-25.451a172.275,172.275,0,0,0,7.123-26.279l.293-1.707c.486-2.828.9-5.739,1.3-8.555v-.01C256.522,90.492,258,80.129,262.923,71a173.776,173.776,0,0,1-27.15,14.07,13.967,13.967,0,0,1,4.357,5.638,7.062,7.062,0,0,1,.077,4.98,9.029,9.029,0,0,1-3.84,4.465,11.36,11.36,0,0,1-5.869,1.7,7.586,7.586,0,0,1-5.812-2.429,8.285,8.285,0,0,1-1.8-3.645,15.862,15.862,0,0,1-.173-5.544c-11.664,3.374-21.941,6.834-31.418,10.578a216.249,216.249,0,0,0-25.712,12.007,154.769,154.769,0,0,0-21,13.879,137.533,137.533,0,0,0-17.27,16.193c-9.93,11.041-18.61,24.1-27.318,41.1-8.652,16.888-16.785,36.731-24.285,55.658a7.46,7.46,0,0,1,5.277-2.189,9.3,9.3,0,0,1,7.65,4.366,8.69,8.69,0,0,1-2.605,11.319,8.361,8.361,0,0,1-4.459,1.229,9.37,9.37,0,0,1-5.954-2.112,7.5,7.5,0,0,1-2.73-5.924l-1.544,3.682c-12.142,29.034-21.2,52.772-28.5,74.706a550.345,550.345,0,0,0-20.138,77.292,16.024,16.024,0,0,1,2.229-.163,9.478,9.478,0,0,1,7.039,2.693,8.92,8.92,0,0,1,2.022,3.4,11.252,11.252,0,0,1,.549,4,11.8,11.8,0,0,1-2.533,6.941,8.346,8.346,0,0,1-6.621,3.156,12.764,12.764,0,0,1-5.646-1.48,640.467,640.467,0,0,0-5.815,70.5c-.8,24.91-.539,49.762-.174,70.786a11.657,11.657,0,0,1,5.321-1.518,6.005,6.005,0,0,1,4.865,2.282,8.186,8.186,0,0,1,1.669,5.019,7.779,7.779,0,0,1-2.048,5.557,6.025,6.025,0,0,1-4.394,1.744,12.009,12.009,0,0,1-5.262-1.433c.326,21.706.744,43.774,1.149,65.116.315,16.6.64,33.77.921,50.745a5.874,5.874,0,0,1-1.606,4.332,6.5,6.5,0,0,1-4.634,1.818,6.827,6.827,0,0,1-4.411-1.539,6.022,6.022,0,0,1-2.1-4.61c-.347-13.894-.766-28.01-1.172-41.66C.73,602.963-.647,556.694.337,511.22c-.149-12.677.174-25.614.96-38.454.768-12.547,2-25.354,3.659-38.066,1.62-12.407,3.7-25.071,6.166-37.64,2.409-12.252,5.263-24.76,8.483-37.175a730.61,730.61,0,0,1,23.15-72.8C51.4,264.041,61.534,240.328,72.878,216.6c9.151-24.9,19.251-45.013,30.876-61.472a161.687,161.687,0,0,1,18.114-21.564,152.249,152.249,0,0,1,20.31-16.979c13.186-9.237,28.58-17.117,48.445-24.8,18.091-7,37.943-13.132,60.93-20.237l.007,0q6.552-2.025,13.532-4.193a52.79,52.79,0,0,1,14.553-14.292c6.367-4.171,12.954-6.375,19.047-6.375a23.277,23.277,0,0,1,11.1,2.748c5.942-9.591,9.985-20.485,13.894-31.02,1.953-5.262,3.972-10.7,6.185-15.848A4.9,4.9,0,0,1,334.54,0a10.4,10.4,0,0,1,4.575,1.159c3.064,2.24,4.259,5.391,3.655,9.634-.528,3.707-2.367,7.789-3.989,11.39a59.048,59.048,0,0,0-2.568,6.286,92.219,92.219,0,0,1-5.67,11.474,80.919,80.919,0,0,1-7.39,10.631,58.187,58.187,0,0,1-19.76,15.9c.208,2.534.432,5.2.611,7.335,1.073,12.78,2.182,25.99,2.628,39.035,8.822,10.943,21.033,19.629,37.33,26.555,14.686,6.241,30.737,10.211,44.629,13.443a89.987,89.987,0,0,0,23.984,3.225,95.822,95.822,0,0,0,28.567-4.4,98.459,98.459,0,0,0,25.964-12.509,93.66,93.66,0,0,0,21.1-19.583,86.685,86.685,0,0,0,13.977-25.622,34.3,34.3,0,0,1-11.041-10.212A47.517,47.517,0,0,1,484.5,69.7a58.014,58.014,0,0,1-2.336-15.6,52.087,52.087,0,0,1,1.881-14.886,2.011,2.011,0,0,1,1.829-1.267,1.438,1.438,0,0,1,1.341.847c2.29,4.709,3.372,10,4.419,15.122,1.172,5.73,2.383,11.653,5.288,16.845a334.711,334.711,0,0,1,41.766,6.711A299,299,0,0,1,581.624,90.5a213.745,213.745,0,0,1,39.519,20.1,137.711,137.711,0,0,1,31.51,27.913c12.668,17.654,18.991,39.579,25.106,60.782l0,.005c1.26,4.368,2.562,8.884,3.882,13.213,8.449,26.77,16.124,54.274,23.546,80.872l0,.011c6.745,24.173,13.72,49.168,21.252,73.528l1.866-9.68c2.45-12.786,4.96-26.425,6.362-40.235a177.618,177.618,0,0,0-.059-40.575l-.062-1.3c-.181-3.466-.51-7.442-.858-11.651-1.829-22.1-4.333-52.366,9.713-64.593a92.4,92.4,0,0,1,20.83-12.011,62.776,62.776,0,0,1,23.619-5.062,42.972,42.972,0,0,1,11.61,1.543C813,177.344,826,169.544,838.58,162c9.414-5.646,19.145-11.482,29.019-16.525,5.315-2.715,10.247-4.99,15.078-6.956a138.867,138.867,0,0,1,15.766-5.392,35.433,35.433,0,0,1,7.026-.711,27.557,27.557,0,0,1,8.513,1.249,14.167,14.167,0,0,1,6.56,4.168c2.294,2.729,3.069,6.344,2.3,10.746a42.018,42.018,0,0,1-6.518,13.516,58.029,58.029,0,0,1-10.253,10.778c-7.769,6.457-17.1,11.642-26.122,16.656-5.522,3.069-10.738,5.967-15.538,9.1a34.557,34.557,0,0,1,12.8,6.923,33.115,33.115,0,0,1,5.226,5.484,23.732,23.732,0,0,1,3.452,6.341,15.757,15.757,0,0,1-2.327,15.182,4.511,4.511,0,0,1-.25.59,13.557,13.557,0,0,1,5.031,3.757,14.292,14.292,0,0,1,2.685,5.223,20.274,20.274,0,0,1,.714,6.033,27.512,27.512,0,0,1-.881,6.187c-.087.888-.234,1.085-.289,1.159-.029.039-.029.039.026.093a5.356,5.356,0,0,1,.743.978,14.557,14.557,0,0,1,3.275,4.768,21.809,21.809,0,0,1,1.625,6.048,28.363,28.363,0,0,1-1.441,13.034,19.551,19.551,0,0,1-4.783,7.608,12.085,12.085,0,0,1-7.707,3.4,29.327,29.327,0,0,1-4.194,16.947,38.707,38.707,0,0,1-5.381,7.178,39.9,39.9,0,0,1-6.755,5.726c-4.359,2.921-9.621,4.7-14.709,6.421a91.813,91.813,0,0,0-10.484,4.026,28.12,28.12,0,0,0-8.857,6.363,188.506,188.506,0,0,0-12.812,27.823,238.008,238.008,0,0,0-8.64,29.514c-4.1,18.1-6.7,38.123-7.943,61.217a33.51,33.51,0,0,1,11.334,7.149,22.144,22.144,0,0,1,6.472,10.7,14.49,14.49,0,0,1-.182,7.35,17.985,17.985,0,0,1-4.447,7.361h-.01c-.232.027-.471.055-.71.075-5.674,15.141-8.574,31.326-11.379,46.979-.664,3.706-1.35,7.533-2.061,11.281a190.741,190.741,0,0,1-5.924,24.521,217.092,217.092,0,0,1-8.89,23.485c-3.3,7.41-7.126,14.96-11.383,22.441-4.009,7.045-8.518,14.241-13.4,21.386a49.519,49.519,0,0,1-9.982,11.964,53.258,53.258,0,0,1-12.737,8.175,65.406,65.406,0,0,1-14.686,4.686,81.9,81.9,0,0,1-15.828,1.5,99.943,99.943,0,0,1-31.174-5.148A86.607,86.607,0,0,1,651.1,646.6c.028,1.448.105,2.913.18,4.329.247,4.667.5,9.494-1.03,14.119a6.875,6.875,0,0,1-2.176,2.818,4.569,4.569,0,0,1-2.676.88,5.465,5.465,0,0,1-3.878-1.758,7.885,7.885,0,0,1-2.111-4.649,11.6,11.6,0,0,1-5.618,1.68,7.126,7.126,0,0,1-5.727-2.8,10.69,10.69,0,0,1-2.175-6.157,9.163,9.163,0,0,1,2.292-6.719,7.71,7.71,0,0,1,5.724-2.237,13.978,13.978,0,0,1,3.554.5c-1.431-22.467-2.2-44.672-2.758-63.429a15.912,15.912,0,0,1-4.87.834,9.723,9.723,0,0,1-7.64-3.373,11.89,11.89,0,0,1-2.717-7.421,11.127,11.127,0,0,1,2.894-8.071,9.346,9.346,0,0,1,6.887-2.722,16.473,16.473,0,0,1,5.044.874l-.023-9.085c-.071-33.24.05-68.911,1.4-104.543,1.464-38.53,4.215-72.592,8.41-104.132.424-2.575,1-5.149,1.563-7.638.564-2.506,1.146-5.092,1.567-7.672a.389.389,0,0,1,.407-.332.5.5,0,0,1,.516.462c.533,36.261-.031,73.163-.576,108.85-.455,29.777-.926,60.566-.757,90.852.189,33.963,1.18,63.67,3.031,90.818,3.5,1.067,5.7,4.066,7.822,6.966a30.559,30.559,0,0,0,3.929,4.683,49.142,49.142,0,0,0,15.551,9.5,71.919,71.919,0,0,0,17.8,4.309,102.634,102.634,0,0,0,14.282,1.1c11.848,0,20.955-2.758,28.66-8.681,7.188-5.525,13.436-13.928,20.259-27.246a7.579,7.579,0,0,1-4.274,1.318,8.418,8.418,0,0,1-4.333-1.244,9.016,9.016,0,0,1-3.156-3.19,7.623,7.623,0,0,1-1.043-3.59,7.345,7.345,0,0,1,1.028-3.908l.129-.217a7.325,7.325,0,0,1,6.557-3.854,8.869,8.869,0,0,1,3.676.817,8.621,8.621,0,0,1,3,2.273,7.391,7.391,0,0,1,1.471,2.78,7.668,7.668,0,0,1,.133,3.435A185.561,185.561,0,0,0,779.2,567.944a335.711,335.711,0,0,0,10.928-40.8l.788-3.3c1.328-5.5,2.98-11.969,5.166-18.3a81.171,81.171,0,0,1,8.144-17.467,135.116,135.116,0,0,1-57.4-30.88c-17.342-16.007-28.115-35.4-31.154-56.1-9.175,28.826-21.347,57.469-33.119,85.169l-.007.017c-1.732,4.076-3.523,8.29-5.273,12.43-1.521,4.052-2.739,8.278-3.917,12.364-2.071,7.185-4.213,14.614-8.053,21.237a2.969,2.969,0,0,1-2.62,1.509,3.24,3.24,0,0,1-3.122-2.26c-4.082-18.25,4.211-35.769,12.232-52.711,2.665-5.63,5.182-10.947,7.278-16.309,1.846-3.269,4.653-9.733,7.9-17.218,4.515-10.4,10.134-23.341,15.708-33.571a80.494,80.494,0,0,1,8.23-12.767c2.818-3.382,5.327-5.108,7.46-5.132-5.347-23.435-11.892-49-20.012-78.164-7.233-25.978-15-52.288-22.518-77.731-2.5-8.459-5.081-17.2-7.6-25.794-4.247-20.21-9.634-36.516-16.47-49.85a110.855,110.855,0,0,0-11.35-17.91A100.43,100.43,0,0,0,626.663,130c-9.4-8.1-20.753-15.049-35.734-21.88-13.3-6.062-28.357-11.58-48.348-18.518a214.979,214.979,0,0,0,10.07,34.06c4.252,11.315,9.263,22.8,14.108,33.906l0,.009c4.785,10.966,9.732,22.306,13.964,33.511a221.887,221.887,0,0,1,10.145,33.792,122.741,122.741,0,0,1,2.476,34.278,102.522,102.522,0,0,1-2.841,17.387,105.317,105.317,0,0,1-6.2,17.587l-.787,1.844a63.264,63.264,0,0,0-3.977,11.886,26.762,26.762,0,0,0,.233,12.459c1.679,6.258,5.005,11.969,8.222,17.492,1.069,1.834,2.173,3.731,3.2,5.619A93.9,93.9,0,0,1,597.3,357.44a101.108,101.108,0,0,1,3.749,14.417,130.883,130.883,0,0,1,1.793,29.671c-.879,20.026-5.291,40.362-9.558,60.028-1.29,5.945-2.624,12.092-3.805,18.012-2.332,10.844-4.7,21.874-6.984,32.542l-.083.388c-8.61,40.155-17.513,81.677-26.593,122.46-.664,3.017-1.269,6.114-1.855,9.108-1.42,7.261-2.888,14.766-5.314,21.842a5.029,5.029,0,0,1-2.135,2.661,6.083,6.083,0,0,1-3.172.885,4.978,4.978,0,0,1-3.711-1.489,4.308,4.308,0,0,1-1.013-3.407c.779-8.36,2.712-16.7,4.581-24.769.741-3.2,1.507-6.505,2.191-9.772,5.987-31.01,12.972-62.383,19.727-92.723l0-.009c9.42-42.31,19.161-86.061,26.345-129.5a115.043,115.043,0,0,0,1.2-21.195,81.657,81.657,0,0,0-2.4-16.693c-2.512-9.924-6.544-17.691-10.442-25.2-5.655-10.9-11-21.185-10.5-36.278a146.1,146.1,0,0,1,6.663-19.792A172.308,172.308,0,0,0,581.846,272a58.221,58.221,0,0,0,2.326-17.549,125.068,125.068,0,0,0-1.329-23.857,167.908,167.908,0,0,0-5.181-22.985c-4.453-15.1-10.722-30.058-16.785-44.526-5.035-12.016-10.24-24.437-14.384-36.883-2.231-6.7-3.985-12.874-5.362-18.87a145.834,145.834,0,0,1-3.164-19.38l-9.45-3.371c-5.7-2.041-10.064-3.627-14.144-5.14,11.371,79.527,16.72,165.126,16.355,261.685-.155,40.922-1.316,83.9-3.55,131.4-1.826,38.818-4.349,80.422-7.942,130.929-.8,2.531-1.1,12.28-1.482,24.623-.385,12.416-.865,27.864-2.044,39.873a93.79,93.79,0,0,1-2.379,14.929,16.559,16.559,0,0,1-1.736,4.353,2.759,2.759,0,0,1-2.179,1.57h0a2.119,2.119,0,0,1-.9-.217,9.346,9.346,0,0,1-1.746,4.272,4.963,4.963,0,0,1-4.046,1.928h-.028c-20.807.19-41.922.472-62.342.745l-.236,0c-11.814.158-24.031.321-36.042.464-1.756-.162-3.669-.24-5.848-.24-3.56,0-7.225.206-11.1.424h-.014l-.154.009h-.015C383.146,696.4,379.225,696.619,375.345,696.619ZM786.511,189.864h0a42.405,42.405,0,0,0-16.148,3.734l-2.326.872a85.043,85.043,0,0,0-11.889,5.343,28.569,28.569,0,0,0-9.614,8.226c-2.392,3.437-2.428,9.179-2.46,14.245-.011,1.795-.022,3.486-.141,4.925a179.713,179.713,0,0,0-.973,26.558c.255,7.927.96,16.6,2.155,26.5a242.926,242.926,0,0,1-4.109,62.314,261.378,261.378,0,0,1-19.154,59.486,235.093,235.093,0,0,0,14.135,20.476,175.14,175.14,0,0,0,16.575,18.589,133.678,133.678,0,0,0,19.258,15.524A109.663,109.663,0,0,0,794,467.938a397.759,397.759,0,0,1,5.121-47.423c2.417-14.832,5.386-29.454,9.1-46.845l.261-1.356c.379-2,.736-4.04,1.082-6.013a146.353,146.353,0,0,1,3.889-17.81,56.6,56.6,0,0,1,3.3-8.416,43.608,43.608,0,0,1,4.928-7.847c7.733-8.4,16.691-11.374,25.354-14.254,6.3-2.094,12.245-4.071,17.665-7.972a34.191,34.191,0,0,0,7.586-7.505,47.785,47.785,0,0,0,6.236-11.777,2.536,2.536,0,0,1-1.26-2.948,2.575,2.575,0,0,1,2.45-2.09,2.9,2.9,0,0,1,.771.109,8.149,8.149,0,0,0,1.417.129,6.571,6.571,0,0,0,4.759-1.986,11.454,11.454,0,0,0,2.743-4.9,19.447,19.447,0,0,0,.349-9.228c-.671-3.211-2.127-5.689-4.1-6.976a7.576,7.576,0,0,1-2.465-2.284,6.45,6.45,0,0,1-.99-2.67,19.219,19.219,0,0,1,.485-6.028c.546-2.969,1.111-6.039-.262-8.658a8.848,8.848,0,0,0-3.562-2.672,8.823,8.823,0,0,1-4.009-3.227c-1.707-4.119.284-7.725,2.21-11.211a27.853,27.853,0,0,0,2.259-4.765,7.767,7.767,0,0,0,.109-4.917,11.549,11.549,0,0,0-3.866-5.1,44.078,44.078,0,0,0-9.638-5.7,23.413,23.413,0,0,0-7.977-1.161c-1.662,0-3.322.093-4.928.183l-.091.005c-1.568.088-3.187.179-4.726.179h-.151c-4.818.45-9.117,2.593-13.274,4.667a47.413,47.413,0,0,1-9.706,3.981,28.356,28.356,0,0,1,1.678,6.541,26.039,26.039,0,0,1,.064,6.261,23.736,23.736,0,0,1-3.936,10.758,20.054,20.054,0,0,1-6.54,6.1,17.039,17.039,0,0,1-8.518,2.275,18.821,18.821,0,0,1-7.32-1.536,26.744,26.744,0,0,1-7.528-4.938,51.583,51.583,0,0,0-9.031,11.637c-2.594,4.635-3.536,8.414-2.65,10.641.629,1.581,2.152,2.382,4.526,2.382,2.534,0,6.041-.919,10.426-2.73,3.823-2.552,7.54-5.375,11.134-8.106,4.053-3.079,8.244-6.264,12.585-9.053a67.22,67.22,0,0,1,13.911-7.012l.305-.1c.92-.3,2.343-.875,4.144-1.6,5.6-2.258,14.071-5.669,19.223-5.669a4.738,4.738,0,0,1,3.654,1.178,3.447,3.447,0,0,1,.663,2.8,28.273,28.273,0,0,1-8.416,5.41,93.55,93.55,0,0,1-9.766,3.442c-5.293,1.65-10.767,3.356-15.308,6.428-5.289,2.446-9.923,6.243-14.4,9.916a82.374,82.374,0,0,1-11.572,8.418,30.951,30.951,0,0,1-6.454,2.761,25.558,25.558,0,0,1-7.284,1.046h-.02l-.327,0c-.82,4.974-.317,8.579,1.495,10.714,1.333,1.57,3.392,2.366,6.121,2.366,3.467,0,7.983-1.258,13.422-3.738a94.451,94.451,0,0,0,11.922-6.6l2.773-1.5c14.313-7.733,28.515-14.681,44.877-14.775h.029a3.286,3.286,0,0,1,3.369,3.448,3.733,3.733,0,0,1-.842,2.442,3.288,3.288,0,0,1-2.556,1.141,54.473,54.473,0,0,0-12.527,1.564,73.041,73.041,0,0,0-11.774,3.981c-7.648,3.277-15.034,7.672-22.177,11.922-3.4,2.021-6.907,4.11-10.372,6.032-.342,2.676.132,4.771,1.412,6.224,1.51,1.716,4.183,2.586,7.943,2.586,5.33,0,11.583-1.683,15.72-2.8l1.065-.286a48.3,48.3,0,0,0,9.5-2.967c4.635-1.771,9.427-3.6,13.512-3.6a8.9,8.9,0,0,1,5.013,1.331,3.991,3.991,0,0,1,.019,3.476c-1.206,2.233-5.1,3.059-8.541,3.789a23.01,23.01,0,0,0-5.069,1.436c7.174,3.445,9.333,6.418,8.962,8.05-.194.85-1.069,1.358-2.343,1.358a8.286,8.286,0,0,1-4.892-1.969,14.7,14.7,0,0,1-4.507-6.579l-1.513.516c-10.91,3.667-19.874,5.526-26.643,5.526-5.7,0-9.724-1.35-11.973-4.014-1.978-2.343-2.6-5.744-1.86-10.108a29.2,29.2,0,0,1-11.5,2.624,19.425,19.425,0,0,1-4.205-.444,31.512,31.512,0,0,1-8.988,8.988,15.34,15.34,0,0,1-7.564,2.708c-1.454,0-2.391-.5-2.571-1.364-.242-1.165.855-2.817,3.09-4.652a55.207,55.207,0,0,1,12.433-7,10.325,10.325,0,0,1-4.418-4.186,14.765,14.765,0,0,1-1.958-6.16,12.46,12.46,0,0,1,.664-5.4,8.648,8.648,0,0,1,3.172-4.177c-6.342-.387-10.186-2.477-11.424-6.21-1.546-4.66,1.278-10.8,3.919-15.135a59.87,59.87,0,0,1,5.522-7.563,51.254,51.254,0,0,1,5.7-5.768c-1.006-1.017-1.878-1.955-2.665-2.864a52.8,52.8,0,0,1-8.737,3.255,53.532,53.532,0,0,1-9.263,1.665c-.155.014-.31.021-.462.021a4.381,4.381,0,0,1-3.453-1.637,6.374,6.374,0,0,1-1.393-3.624c-.17-2.412.961-5.029,3.868-5.439a49.174,49.174,0,0,0,18.07-5.872,6.357,6.357,0,0,1,2.515-.56c3.316,0,5.743,3.064,8.312,6.308,2.654,3.351,5.4,6.816,9.333,7.074a6.84,6.84,0,0,0,1.32.133,6.591,6.591,0,0,0,4.92-2.326,11.472,11.472,0,0,0,2.578-5.116,84.053,84.053,0,0,0-2.668-13.382,47.665,47.665,0,0,0-5.148-11.9c-4.91-7.824-11.761-11.792-20.363-11.793Zm120.628-48.731a18.794,18.794,0,0,0-3.665.4c-13.341,1.8-25.959,8.747-38.161,15.461-3.4,1.869-6.606,3.635-9.838,5.3-10.126,5.349-20.634,10.2-30.795,14.9l-.008,0c-6.262,2.894-12.733,5.884-19.079,8.971a37.732,37.732,0,0,1,9.07,7.947,56.837,56.837,0,0,1,6.84,10.44,43.113,43.113,0,0,1,13.035-6.65,54.441,54.441,0,0,1,14.486-2.481,69.531,69.531,0,0,1,12.8-9.441c4.63-2.744,9.625-5.231,14.456-7.636a173.088,173.088,0,0,0,18.9-10.41,65.285,65.285,0,0,0,8.372-6.544,48.468,48.468,0,0,0,7.054-8.138,15.15,15.15,0,0,0,2.96-5.17,5.545,5.545,0,0,0-.121-4c-.9-1.9-3.137-2.946-6.3-2.946ZM139.768,677.991a5.573,5.573,0,0,1-5-2.8c-1.376-2.488-.14-6.034,1.83-7.66a1.763,1.763,0,0,0-.088-.192c-.022-.043-.042-.084-.062-.126-.142-.411-.319-.818-.491-1.211a13.7,13.7,0,0,1-.569-1.45,23.894,23.894,0,0,1-.661-7.3c.007-.543.013-1.1.011-1.645,0-4.344.123-8.759.242-13.029v-.006q.039-1.4.077-2.795c.336-12.159.7-23.163,1.109-33.639,1.634-41.336,4.862-81.947,7.491-112.71l1.088-12.657c1.473-17.107,2.969-33.835,5.072-50.423.1-.772.2-1.6.31-2.4a11.1,11.1,0,0,1-3.041-2.239c-3.1-3.257-5.1-8.053-6.869-12.284q-.232-.555-.46-1.1l-.44-1.038a73.327,73.327,0,0,1-4.99-15l-.094-.48-.044-.218c-.458-2.236-1.223-5.979,1.059-7.022a2.417,2.417,0,0,1,.981-.249c.664,0,1.144.443,1.429,1.318a.584.584,0,0,1-.08.481,21.2,21.2,0,0,0,1.864,2.324,22.541,22.541,0,0,1,1.587,1.936l3.285,4.7,1.624,2.361c1.821,2.679,3.9,5.472,6.53,8.791a286.949,286.949,0,0,1,7.39-37.3,1.092,1.092,0,0,1,1.076-.835,1.2,1.2,0,0,1,1.223,1.145c.882,17.69-.036,35.3-1.049,50.19-.387,5.722-.83,11.53-1.259,17.146l0,.041c-.335,4.395-.682,8.939-1,13.394-1.9,26.639-3.455,53.7-4.621,80.42a10.5,10.5,0,0,1,1.27-.44,11.323,11.323,0,0,1,6.061,0,11.3,11.3,0,0,1,4.732,2.652l.287.278a12.829,12.829,0,0,1,3.346,7.69l-.007.36a11.2,11.2,0,0,1-1.559,5.75,11.558,11.558,0,0,1-4.08,4.09,11.434,11.434,0,0,1-5.75,1.55c-.21.02-.435.04-.66.05-.124,0-.247.007-.363.007a8.376,8.376,0,0,1-3.918-.957l-.2-.06c-.512,13.92-.92,27.665-1.211,40.85-.116,5.1-.25,10.249-.379,15.232-.173,6.677-.353,13.582-.49,20.377l-.112,5.938-.218,13.122q-.005.418-.01.833c-.062,5.139-.12,9.993-1.861,14.821l-.22.587c-.236.608-.458,1.244-.693,1.917-1.071,3.07-2.285,6.549-5.189,8.1a6.876,6.876,0,0,1-3.234.812Zm159.454-14.633a7.522,7.522,0,0,1-4.628-1.6l-.2-.15-.2-.159a5.2,5.2,0,0,1-1.722-3.953,5.422,5.422,0,0,1,1.553-4.226l.169-.141c.116-.1.243-.2.4-.31a7.518,7.518,0,0,1,4.617-1.593,6.415,6.415,0,0,1,4.293,1.545,6.357,6.357,0,0,1,0,9.044A6.4,6.4,0,0,1,299.221,663.358Zm-182.966-1.511h0l-.353-.007a10.19,10.19,0,0,1-5.21-1.411c-.445-.335-.893-.683-1.327-1.019l-.026-.02-.094-.072-.643-.5a10.342,10.342,0,0,1-2.649-4.551q-.041-.308-.082-.617l0-.024c-.091-.689-.186-1.4-.287-2.1a7.918,7.918,0,0,1,.89-3.97,7.814,7.814,0,0,1,2.13-3.318,7.611,7.611,0,0,1,3.32-2.131,7.7,7.7,0,0,1,3.627-.9l.353.007a10.175,10.175,0,0,1,5.2,1.411c.52.393,1.05.8,1.518,1.168l.571.442a10.27,10.27,0,0,1,2.65,4.55l.371,2.739a11.516,11.516,0,0,1-3.021,7.292,7.7,7.7,0,0,1-3.319,2.128A7.668,7.668,0,0,1,116.256,661.847Zm465.986-18.082a4.975,4.975,0,0,1-1.259-.166,7.053,7.053,0,0,1-3.5-1.12c-.535-.411-1.067-.824-1.657-1.283l-.254-.2a25.287,25.287,0,0,1-1.57-2.02c-.344-.805-.669-1.577-.969-2.291a10.251,10.251,0,0,1,.013-5.24l.007-.038a4.643,4.643,0,0,1,.24-.891l.216-.581a10.432,10.432,0,0,1,1.9-3.358l.389-.52a6.8,6.8,0,0,1,.622-.74,11.074,11.074,0,0,1,1.487-1.2c.276-.2.536-.385.782-.579a9.936,9.936,0,0,1,4.97-1.341l2.621.351a9.814,9.814,0,0,1,5.88,4.531,7.352,7.352,0,0,1,1.17,3.659,7.5,7.5,0,0,1-.18,3.92,7.409,7.409,0,0,1-1.76,3.35,6.835,6.835,0,0,1-1.049,1.28,11.26,11.26,0,0,1-3.341,3.19,7.061,7.061,0,0,1-3.51,1.12A4.88,4.88,0,0,1,582.242,643.765Zm-337.458-11.8-.3-.006a8.024,8.024,0,0,1-4.081-1.1l-1.64-1.258a8.21,8.21,0,0,1-2.08-3.571c-.079-.628-.167-1.262-.252-1.875l0-.021-.035-.252a9.027,9.027,0,0,1,2.37-5.71,9.254,9.254,0,0,1,5.386-2.374l.334,0a8.125,8.125,0,0,1,4.07,1.1l1.64,1.271a8.074,8.074,0,0,1,2.08,3.56c.082.652.174,1.314.263,1.953v.008l.026.188a6.143,6.143,0,0,1-.7,3.12,6,6,0,0,1-1.67,2.6,6.18,6.18,0,0,1-2.6,1.67A6.057,6.057,0,0,1,244.784,631.966Zm-65.4-.735a8.421,8.421,0,0,1-2.85-.472,14.414,14.414,0,0,1-2.68-1.19,12,12,0,0,1-3.462-3.53l-.008-.011a9.009,9.009,0,0,1,0-9.089,9.091,9.091,0,0,1,7.77-4.45h.1a10.135,10.135,0,0,1,5.818,1.78,9.938,9.938,0,0,1,3.73,4.36l.051.12c.207.488.4.949.579,1.43a7.938,7.938,0,0,1-.169,6.83c-1.138,2.147-3.6,3.109-5.852,3.768A10.574,10.574,0,0,1,179.383,631.231ZM71.24,631.2a16.056,16.056,0,0,1-2.726-.255,9.852,9.852,0,0,1-4.431-2.419,6.034,6.034,0,0,1-1.75-5.369,6.115,6.115,0,0,1,2.38-4.131l.009-.029-.48.37c.161-.143.324-.3.48-.443l.06-.057a3.234,3.234,0,0,0,.151-.3l.008-.018a8.362,8.362,0,0,1,2.99-2.99,8.385,8.385,0,0,1,12.26,9.42,8.362,8.362,0,0,1-5.829,5.829A12.78,12.78,0,0,1,71.24,631.2Zm618.8-30.917a11.722,11.722,0,0,1-4.395-1.127,9.711,9.711,0,0,1-2.93-2.92,6.027,6.027,0,0,1-.971-3.041,4.2,4.2,0,0,1,0-2.159,6.1,6.1,0,0,1,.971-3.039l1.279-1.652.13-.109a8.163,8.163,0,0,1,3.62-2.109,8.256,8.256,0,0,1,4.36,0,6.109,6.109,0,0,1,2.791,1.469,6.173,6.173,0,0,1,1.95,2.019l.158.283a8.525,8.525,0,0,1,.831,6.319,7.663,7.663,0,0,1-2.1,3.63,7.832,7.832,0,0,1-3.635,2.1l-.089.017-.09.024A6.272,6.272,0,0,1,690.038,600.286ZM587.063,551.549a9.374,9.374,0,0,1-7.369-3.176,11.18,11.18,0,0,1,0-13.984,10.132,10.132,0,0,1,14.737,0,11.179,11.179,0,0,1,0,13.984A9.371,9.371,0,0,1,587.063,551.549Zm-478.951-2.4a7.985,7.985,0,0,1-2.4-.376l-.917-.387c-.478-.2-1.02-.431-1.553-.652l-2.1-1.62-1.62-2.1-.517-1.232-.523-1.238-.37-2.749a7.79,7.79,0,0,1,.889-3.99,10.234,10.234,0,0,1,3.19-4.14,5.2,5.2,0,0,1,2.281-1.329,5.127,5.127,0,0,1,2.608-.7,7.906,7.906,0,0,1,1.735-.2,8,8,0,0,1,2.4.375l.684.289c.588.249,1.193.5,1.787.75l2.1,1.623a3.78,3.78,0,0,1,.658.771c.087.123.176.249.282.387l.45.589a6.859,6.859,0,0,1,1.111,2.207c.078.2.166.437.268.7a10.142,10.142,0,0,1,0,5.342,9.5,9.5,0,0,1-1.03,2.418,9.961,9.961,0,0,1-1.458,1.933l-.283.287a7.852,7.852,0,0,1-3.33,2.14,5.128,5.128,0,0,1-2.61.7A7.931,7.931,0,0,1,108.112,549.154ZM755.443,530.32a7.561,7.561,0,0,1-3.882-1.059,8.626,8.626,0,0,1-2.878-2.822,4.114,4.114,0,0,1-.337-.735c-.045-.119-.092-.241-.142-.355s-.095-.221-.145-.332a6.563,6.563,0,0,1-.307-.767,8.161,8.161,0,0,1,0-4.26,6.047,6.047,0,0,1,1.431-2.721,6.117,6.117,0,0,1,2.25-2.059,7.993,7.993,0,0,1,3.709-1.092l.36-.009c.08,0,.161,0,.239,0a5.927,5.927,0,0,1,2.812.694,6.82,6.82,0,0,1,.96.411,8.025,8.025,0,0,1,2.88,2.87,6.059,6.059,0,0,1,.95,2.979,5.973,5.973,0,0,1-.064,2.9l-.086.29a7.825,7.825,0,0,1-.988,2.189,1.194,1.194,0,0,1-.151.229,7.832,7.832,0,0,1-2.661,2.581,7.97,7.97,0,0,1-3.95,1.07Zm-552.094-9.158a4.014,4.014,0,0,1-1.055-.143,7.723,7.723,0,0,1-3.771-1.57,5.906,5.906,0,0,1-2.049-2.229l-.811-1.911-.279-2.12.279-2.109.441-1.04a8.432,8.432,0,0,1,5.879-5.88,8.541,8.541,0,0,1,2.246-.307,8.35,8.35,0,0,1,1.892.22l.344.087a6.434,6.434,0,0,1,2.869,1.5,6.518,6.518,0,0,1,2.17,2.369,8.412,8.412,0,0,1-3.029,11.521l-1.1.53a5.933,5.933,0,0,1-2.961.939A4.106,4.106,0,0,1,203.349,521.161Zm497.1-12.432a8.462,8.462,0,0,1-2.544-.4c-.613-.257-1.244-.525-1.853-.784l-.053-.023-.694-.294c-.541-.409-1.087-.832-1.616-1.241l-.019-.015-.575-.445-.37-.479c-.437-.567-.889-1.152-1.34-1.729a8.059,8.059,0,0,1-1.291-4.061,5.441,5.441,0,0,1,0-2.9,5.38,5.38,0,0,1,.74-2.75,8.188,8.188,0,0,1,2.261-3.519l.452-.35c.573-.444,1.166-.9,1.757-1.351.725-.308,1.675-.711,2.6-1.1a8.284,8.284,0,0,1,4.361-.2,10.865,10.865,0,0,1,5.16,2.15,8.313,8.313,0,0,1,2.81,3.058l1.1,2.611a11.084,11.084,0,0,1,.022,5.881,8.11,8.11,0,0,1-1.921,3.658,5.436,5.436,0,0,1-1.93,1.931,8.136,8.136,0,0,1-3.2,1.8l-.334.091-.121.03a.126.126,0,0,1-.059.01.061.061,0,0,1-.041.011,7.242,7.242,0,0,1-1.479.21A8.464,8.464,0,0,1,700.448,508.73ZM61.988,469.8a9.8,9.8,0,0,1-2.195-.25,7.189,7.189,0,0,1-2.221-.959,7.833,7.833,0,0,1-2.627-2.666,7.052,7.052,0,0,1-.992-3.6,6,6,0,0,1,.06-.839,6.475,6.475,0,0,1-.17-1.782l.3-2.259.02-.06a8.459,8.459,0,0,1,5.564-5.792l.327-.1h.05a8.489,8.489,0,0,1,4.53,0l2.029.85a6.369,6.369,0,0,1,2.391,2.2,6.323,6.323,0,0,1,1.529,2.9,9.594,9.594,0,0,1,.051,5.48,10.525,10.525,0,0,1-2.62,4.479,8.261,8.261,0,0,1-6.026,2.4Zm552.725-21.4a8.039,8.039,0,0,1-5.441-2.25,7.76,7.76,0,0,1-2.25-5.441,5.842,5.842,0,0,1,.66-2.959,5.727,5.727,0,0,1,1.372-2.259l.219-.211a7.7,7.7,0,0,1,10.88,0,7.709,7.709,0,0,1,2.25,5.43,8.526,8.526,0,0,1-2.25,5.441A8.007,8.007,0,0,1,614.714,448.4Zm63.359-42.952a9.55,9.55,0,0,1-4.829-1.31,9.683,9.683,0,0,1-3.431-3.429,6.659,6.659,0,0,1-1.12-2.781,9.741,9.741,0,0,1,2.246-9.205l.254-.264a11.064,11.064,0,0,1,6.547-2.857l.333.005a9.8,9.8,0,0,1,4.91,1.33l.68.523,0,0c.422.324.859.659,1.287,1a9.74,9.74,0,0,1,2.5,9.469,6.76,6.76,0,0,1-1.111,2.781,9.793,9.793,0,0,1-3.441,3.429A9.557,9.557,0,0,1,678.073,405.448ZM198.252,402.7h0c-.274-.039-.566-.079-.849-.11a6.155,6.155,0,0,1-.986-.11l-.325-.071-.3-.078a6.25,6.25,0,0,1-1.143-.461,4.136,4.136,0,0,1-1.832-1.069,6.265,6.265,0,0,1-2.139-2.33l-.14-.32a5.8,5.8,0,0,1-.471-1.07,3.937,3.937,0,0,1-.519-1.93,5.841,5.841,0,0,1,.052-2.738l.087-.3.77-1.83a9.33,9.33,0,0,1,1.359-1.76c.336-.3,1.127-.913,1.566-1.218l.274-.181a6.231,6.231,0,0,1,3.081-.981,4.138,4.138,0,0,1,2.21,0,6.23,6.23,0,0,1,3.081.981c.561.44,1.137.883,1.679,1.3l.489.586a8.213,8.213,0,0,1,1.641,2.867l.008.02c.067.163.14.342.221.537a6.276,6.276,0,0,1,.141,3.24,4.056,4.056,0,0,1-.551,2.039,3.971,3.971,0,0,1-1.049,1.79,4.094,4.094,0,0,1-1.451,1.46,6.133,6.133,0,0,1-2.759,1.45l-2.151.29ZM83.182,381.756a7.429,7.429,0,0,1-7.159-9.276l.16-.642a7.174,7.174,0,0,1,2.855-4.143,8.151,8.151,0,0,1,4.667-1.463,7.578,7.578,0,0,1,5.408,2.2,7.478,7.478,0,0,1,1.99,3.6,8.142,8.142,0,0,1-.09,3.99,7.408,7.408,0,0,1-5.31,5.338l-.651.16A7.627,7.627,0,0,1,83.182,381.756Zm707.637-33.513a24.983,24.983,0,0,1-9.241-2.027,38.319,38.319,0,0,1-8.987-5.266,32.881,32.881,0,0,1-6.939-7.283,16.776,16.776,0,0,1-3.1-8.077.511.511,0,0,1,.134-.4.654.654,0,0,1,.474-.193.636.636,0,0,1,.433.16,64.554,64.554,0,0,1,4.773,4.915c2.694,2.983,5.24,5.8,8.967,7.934,3.539,2.023,7.224,2.746,10.787,3.446a50.755,50.755,0,0,1,7.283,1.815,2.226,2.226,0,0,1,0,4.25A13.893,13.893,0,0,1,790.819,348.242Zm-570.727-4.423a4.877,4.877,0,0,1-1.3-.18,4.822,4.822,0,0,1-2.45-.66,4.946,4.946,0,0,1-2.151-1.25,7.444,7.444,0,0,1-2.5-2.73c-.334-.781-.663-1.561-.978-2.32l-.351-2.59.351-2.59.019-.079a9.689,9.689,0,0,1,2.46-4.221l1.941-1.5a9.133,9.133,0,0,1,2.368-.989,7.663,7.663,0,0,1,2.265-.351,7.377,7.377,0,0,1,1.616.181,4.791,4.791,0,0,1,2.449.659,4.927,4.927,0,0,1,2.15,1.25,5,5,0,0,1,1.75,1.751,7.338,7.338,0,0,1,1.74,3.3l.34,2.59-.34,2.59c-.314.73-.643,1.511-.98,2.32l-.894,1.211a6.624,6.624,0,0,1-1.917,1.778c-.2.144-.42.308-.68.5a7.214,7.214,0,0,1-3.619,1.149A4.812,4.812,0,0,1,220.092,343.819Zm466.357-1.342c-.1,0-.208,0-.315-.008a7.836,7.836,0,0,1-3.9-1.06l-1.56-1.211a5.746,5.746,0,0,1-1.6-2.488,5.8,5.8,0,0,1-.67-2.98l-.008-.191a2.86,2.86,0,0,1,.14-1.13,4.344,4.344,0,0,1,.16-1.141,8.146,8.146,0,0,1,5.62-5.619,7.967,7.967,0,0,1,2.112-.283,8.14,8.14,0,0,1,5.728,2.353,8.019,8.019,0,0,1-.009,11.378,7.967,7.967,0,0,1-3.55,2.071,8.142,8.142,0,0,1-2.145.308ZM86.429,312.8a7.894,7.894,0,0,1-1.036-.073,5.686,5.686,0,0,1-2.82-1.061,5.4,5.4,0,0,1-1.95-1.95l-.55-1.3a8.927,8.927,0,0,1-.2-1.561,1.359,1.359,0,0,0-.01-.2,10.408,10.408,0,0,1,.219-1.73,6.6,6.6,0,0,1,1.182-2.26,4.747,4.747,0,0,1,1.779-1.63l.066-.05.075-.05c.1-.067.192-.133.291-.2l.01-.007c.133-.091.271-.186.409-.284a6.428,6.428,0,0,1,3.26-.878c.065,0,.13,0,.192,0a4.833,4.833,0,0,1,2.3.563,4.653,4.653,0,0,1,2.08,1.339,4.758,4.758,0,0,1,1.34,2.081,4.885,4.885,0,0,1,.56,2.489,6.412,6.412,0,0,1-.88,3.26c-.364.472-.692.9-1.02,1.31a6.392,6.392,0,0,1-2.85,1.67l-.64.22A5.214,5.214,0,0,1,86.429,312.8Zm517.115-2.625a8.858,8.858,0,0,1-4.461-16.5,8.844,8.844,0,0,1,8.932,0,1.231,1.231,0,0,1,.139.061,8.831,8.831,0,0,1,3.151,3.149,8.778,8.778,0,0,1,0,8.86,8.85,8.85,0,0,1-3.151,3.151.575.575,0,0,1-.11.057l-.029.013A8.914,8.914,0,0,1,603.544,310.179ZM190.91,298.423h0c-.084,0-.168,0-.247,0a8.461,8.461,0,0,1-5.789-2.329c-.12-.134-.238-.274-.353-.41l-.178-.21-1.25-1.44a7.663,7.663,0,0,1-1.969-3.39c-.1-.645-.18-1.29-.263-1.913l-.018-.138a7.7,7.7,0,0,1,7.418-7.683l.273-.005c.084,0,.168,0,.25,0a5.646,5.646,0,0,1,2.709.674,5.847,5.847,0,0,1,2.48,1.59l1.461,1.219.423.344c.078.065.145.123.205.177a7.988,7.988,0,0,1,2.031,3.489c.12.775.218,1.527.3,2.3.266,2.421-1.492,4.632-2.26,5.47a5.926,5.926,0,0,1-2.489,1.6A5.839,5.839,0,0,1,190.91,298.423ZM137.784,275.98a7.427,7.427,0,0,1-5.84-2.518,8.871,8.871,0,0,1,0-11.09,8.03,8.03,0,0,1,11.683,0,8.866,8.866,0,0,1,0,11.09A7.43,7.43,0,0,1,137.784,275.98Zm523.5-19.6c-.095,0-.194,0-.294-.006a9.586,9.586,0,0,1-4.83-1.31l-.557-.43-.023-.018-.008-.006c-.441-.341-.9-.694-1.35-1.035a9.628,9.628,0,0,1-2.339-3.85l-.111-.37-.35-2.551a9.922,9.922,0,0,1,9.241-9.565l.328.005a9.555,9.555,0,0,1,4.821,1.31l1.939,1.49a9.777,9.777,0,0,1,2.461,4.22c.1.773.215,1.67.339,2.54a9.919,9.919,0,0,1-9.266,9.576ZM613.608,220.5a7.03,7.03,0,0,1-4.535-1.976l-.271-.251-.007-.007c-.15-.14-.306-.284-.462-.422a5.839,5.839,0,0,1-1.689-4.08,6.486,6.486,0,0,1,1.689-4.081c.174-.153.347-.314.514-.469l.227-.21a7.244,7.244,0,0,1,4.749-1.969q.1,0,.2,0a7.583,7.583,0,0,1,4.563,1.972,6.486,6.486,0,0,1,0,9.519,6.787,6.787,0,0,1-2.97,1.731l-1.79.24C613.749,220.5,613.677,220.5,613.608,220.5ZM133.893,201.189a10.418,10.418,0,0,1-5.231-1.419l-2.1-1.619a7.86,7.86,0,0,1-2.151-3.342,7.774,7.774,0,0,1-.9-3.644l.007-.356a2.224,2.224,0,0,1,.011-.26c.1-.752.2-1.517.3-2.257l0-.019.074-.542a8,8,0,0,1,1.9-3.611,3.4,3.4,0,0,1,.97-1.191,10.644,10.644,0,0,1,4.679-2.731c.722-.091,1.455-.191,2.164-.288l.037-.005.621-.085a10.631,10.631,0,0,1,5.015,1.264l.334.185,2.14,1.66a7.977,7.977,0,0,1,2.2,3.41,9.624,9.624,0,0,1,0,8.17,7.836,7.836,0,0,1-2.2,3.41,6.228,6.228,0,0,1-2.26,1.811c-.675.277-1.369.572-1.982.832l-.558.237a11.853,11.853,0,0,1-2.945.383Zm464.933-32.954c-.076,0-.158,0-.243,0a7.345,7.345,0,0,1-3.76-1.021c-.6-.455-1.078-.824-1.51-1.16a7.462,7.462,0,0,1-1.816-2.978l-.094-.312-.269-1.981a5.535,5.535,0,0,1,.639-2.869,6.684,6.684,0,0,1,3.941-3.939,5.552,5.552,0,0,1,2.565-.644l.3,0a7.43,7.43,0,0,1,3.761,1.01c.455.35.935.722,1.509,1.17a7.382,7.382,0,0,1,1.92,3.289l.271,1.979a8.375,8.375,0,0,1-2.191,5.271,8.467,8.467,0,0,1-5.028,2.186Zm-405.383-3.708c-.118,0-.239,0-.36-.007a10.925,10.925,0,0,1-5.56-1.5l-.767-.594-.006,0c-.476-.369-.967-.75-1.456-1.122a11.234,11.234,0,0,1-2.83-4.86l-.391-2.93a12.277,12.277,0,0,1,3.221-7.779,8.218,8.218,0,0,1,3.55-2.282,8.336,8.336,0,0,1,3.891-.955l.349.005a11.042,11.042,0,0,1,5.56,1.51l.251.193c.643.5,1.308,1.009,1.968,1.527a11.049,11.049,0,0,1,2.841,4.859l.389,2.92a12.274,12.274,0,0,1-3.23,7.79,12.535,12.535,0,0,1-7.42,3.227Zm370.587-29.2a7.867,7.867,0,0,1-2.377-.375c-.8-.345-1.62-.686-2.415-1.015l-.013-.006-.021-.009-.261-.15a10.079,10.079,0,0,1,0-17.41,1.634,1.634,0,0,0,.18-.094l.081-.046a7.652,7.652,0,0,1,3.811-1.22,5.238,5.238,0,0,1,2.729,0,7.645,7.645,0,0,1,3.811,1.22l2.07,1.6a.765.765,0,0,1,.09.1,10.148,10.148,0,0,1,2.6,4.46l.361,2.69a11.495,11.495,0,0,1-2.721,6.916l-.329.323a7.687,7.687,0,0,1-3.29,2.12,5.036,5.036,0,0,1-2.59.7A7.751,7.751,0,0,1,564.03,135.324Z" transform="translate(47 3.092)"/>
  </g>
</svg>
