<svg xmlns="http://www.w3.org/2000/svg" width="830.949" height="765" viewBox="0 0 830.949 765">
  <g id="body_Turtleneck" data-name="body/Turtleneck" transform="translate(0 32)">
    <path id="_Skin" data-name="âœ‹ Skin" d="M56.569,118.7c49.785-10.965,79.313-10.965,96.021-27.952s19.74-46.146,26.671-68.66C183.081,9.687,220.5-1.581,256.792.183c29.577,1.438,59.386,13.927,61.689,21.909,5.128,17.777,13.374,93.874,40.492,105.565s85.011,1.033,101.563,28.952,70.911,141.732,70.911,168.252S0,343.271,0,343.271,6.784,129.669,56.569,118.7Z" transform="translate(210.243 -32)" fill="#d08b5b"/>
    <path id="_Ink" data-name="ðŸ– Ink" d="M20.713,725.016h0A19.994,19.994,0,0,1,8.176,721.03a18.493,18.493,0,0,1-4.919-5.521A21.859,21.859,0,0,1,.82,708.985c-.981-4.594-.86-9.6-.742-14.449l0-.2q.011-.476.023-.951.173-7.725.346-15.451Q.623,670.245.8,662.55c.393-17.483.681-35.287.96-52.5v-.008c.516-31.9,1.049-64.89,2.276-97.3,1.376-36.368,3.5-68.1,6.485-97,2.123-20.514,4.6-38.9,7.569-56.2a557.208,557.208,0,0,1,12.293-55.586c2.591-9.31,5.441-18.426,8.472-27.095,3.173-9.076,6.644-17.952,10.318-26.38,3.828-8.784,8-17.356,12.385-25.478,4.558-8.433,9.495-16.638,14.674-24.389a326.082,326.082,0,0,1,65.98-71.85,363.189,363.189,0,0,1,40.029-28.168A380.251,380.251,0,0,1,225.616,77.93a424.045,424.045,0,0,1,47.039-17.69c7.92-2.43,16.093-4.386,24-6.279l.008,0c6.732-1.612,13.692-3.278,20.465-5.229,7.224-2.08,12-3.632,17.389-7.639-.019.013-.02.013-.021.013s.159-.141.416-.357c.341-.286.8-.673.946-.816.47-.45.9-.875,1.328-1.3.448-.468.7-.73.841-.869.387-.54.744-1.134,1.058-1.657,1.412-2.379,1.962-4.865,2.723-8.306l.018-.082q.079-.356.161-.725a46.468,46.468,0,0,1,2.126-7.48,18.586,18.586,0,0,1,4.264-6.46,25.574,25.574,0,0,1,8.8-5.8,11.686,11.686,0,0,1,4.527-.878,13.294,13.294,0,0,1,3.441.457A14.76,14.76,0,0,1,371.336.01a.131.131,0,0,1,.049-.01.1.1,0,0,1,.081.04c1.981,3.269,2.029,6.29,2.085,9.789v.015c.007.439.014.894.025,1.356.047,2.308.107,4.782.22,7.24,6.213,4.251,14.567,5.708,21.938,6.995,1.025.179,1.992.348,2.962.525,15.552,2.844,27.568,4.617,38.96,5.75,9.791.986,19.915,1.485,30.091,1.485,3.389,0,6.847-.056,10.279-.165,6.558-.209,13.19-.643,19.71-1.29,1.78-.177,3.712-.525,5.756-.894a56.038,56.038,0,0,1,9.647-1.179,18.054,18.054,0,0,1,3.4.292h.01l.1-.044c.273-.123.555-.251.824-.376a22.435,22.435,0,0,1-.7-2.41,18.061,18.061,0,0,1-.092-7.344c.419-1.989,1.443-4.627,3.943-5.9a4.185,4.185,0,0,1,1.905-.486,4.3,4.3,0,0,1,2.754,1.086,13.484,13.484,0,0,1,3.071,4.584,25.012,25.012,0,0,0,1.4,2.586,16.412,16.412,0,0,0,2.11,2.489c2.331-.7,4.676-1.314,6.971-1.82a9.72,9.72,0,0,1,2.093-.236,8.714,8.714,0,0,1,7.247,4.036c4.425,6.262,7.545,14.511,9.82,25.96.137.689.274,1.4.406,2.088l0,.008a72.216,72.216,0,0,0,2.378,9.853,22.154,22.154,0,0,0,5.035,8.581,9.782,9.782,0,0,1,3.041,6.921,10.176,10.176,0,0,1-2.381,6.359,219.305,219.305,0,0,1,35.246,4.581,194.1,194.1,0,0,1,33.813,10.439,97.445,97.445,0,0,1,17.936,9.812,102.962,102.962,0,0,1,15.4,13.1,110.988,110.988,0,0,1,12.672,15.813,118.7,118.7,0,0,1,9.752,17.941,241.8,241.8,0,0,1,10.984,31.464c3.018,10.71,5.589,21.743,8.076,32.414,1.012,4.342,2.058,8.831,3.119,13.232,3.128,12.956,6.457,26.093,9.677,38.8l0,.016c4.14,16.337,8.422,33.23,12.319,49.917q9.567,40.92,19.131,81.841l.48,2.053.059.251c6.971,29.825,14.179,60.665,21.271,91,4.016,17.2,8.233,35.245,11.622,49.746l.293,1.252q4.5,19.273,9.005,38.542c1.674,7.153,3.365,14.39,5,21.39s3.329,14.248,5.01,21.43l2.73,11.68,2.73,11.68c.4,1.729.894,3.5,1.412,5.379l0,.006c1.423,5.154,2.9,10.482,2.726,15.435-.246,7.1-3.6,12-10.266,14.992-5.774,2.59-13.131,3.356-19.622,4.032-2.033.212-3.953.412-5.743.657-3.992.547-8.064,1.158-12,1.749l-.014,0c-10.11,1.517-20.563,3.086-30.865,3.768-1.9.126-3.786.19-5.615.19-11.953,0-22.247-2.678-30.6-7.959l-.3,1.874q-.347,2.183-.694,4.365a21.189,21.189,0,0,1-1.29,8.2,12.557,12.557,0,0,1-4.426,6.329,11.7,11.7,0,0,1-10.273,2.021,11.283,11.283,0,0,1-4.512-2.38h-.009a42.79,42.79,0,0,1-8.55.99c-9.357.262-18.859.489-28.048.709l-.892.021q-8.128.2-16.256.392c-13.643.328-27.75.668-41.643,1.028-82.661,2.146-146.092,3.219-205.671,3.479l-1.684.007H377.9c-16.878.073-34.331.149-51.5.149-18.887,0-35.439-.094-50.6-.286-19.976-.259-36.156-.615-50.919-1.121-9.223-.319-17.543-.662-25.97-1.63-1.15-.133-2.312-.233-3.542-.339h-.013c-4.435-.381-9.021-.775-12.725-2.76a6.445,6.445,0,0,1-3.857,1.334,4.825,4.825,0,0,1-4.873-4.044q-3-13.166-6.007-26.319l-1.973-8.642-1.027,2.336-.009.02c-1.274,2.9-2.592,5.9-3.895,8.835l-.263.594c-1.88,4.246-3.823,8.637-5.467,13.036-1.23,3.325-2.9,7.122-6,10.08-3.47,3.308-7.909,4.849-13.97,4.85a77.806,77.806,0,0,1-10.719-1.014c-1.934-.273-3.76-.531-5.551-.706-7.381-.719-14.793-1.083-22.033-1.083a203.108,203.108,0,0,0-33.666,2.743,229.393,229.393,0,0,0-28.721,6.84A48.893,48.893,0,0,1,20.713,725.016Zm3.072-21.576a.542.542,0,0,0,.344.409.028.028,0,0,0,.031-.018C24.175,703.784,24.086,703.654,23.785,703.44ZM20.4,701.019c-.022,0-.027.01-.027.018a.793.793,0,0,0,.628.323l-.031-.021c-.052-.035-.1-.067-.139-.1C20.539,701.04,20.435,701.019,20.4,701.019Z" transform="translate(14 1)"/>
  </g>
</svg>
