<svg xmlns="http://www.w3.org/2000/svg" width="818" height="764" viewBox="0 0 818 764">
  <g id="body_Paper" data-name="body/Paper" transform="translate(0 31)">
    <path id="_Skin" data-name="âœ‹ Skin" d="M364.166,227.567c-8.716-33.8-16.732-48.131-32.216-59.879-14.483-10.989-35.624-20.218-66.472-26.959-32.13-5.616-33.04-22.312-41.1-49.146-2.35-8.067-14-10.214-19.023-4.4a23.082,23.082,0,0,0-2.212-2.1c.684-3.847-4.918-14.874-4.731-18.555,1.954-38.413-10.613-57.7-41.979-64.873-6.821-1.56-53.153-2.478-59.8-.64-29.076,8.037-57.7,33.556-53.319,64.3-9.127,11.925-18.06,19.2-32.14,23.046C-10.754,91.145.261,401.746,38.345,587.828c16.34,79.84,407.051-56.051,389.4-96.038,2.5-7.33-2.059-15.385,0-22.954,1.49-5.478,5.306-7.743,7.227-13.167,2.7-7.633-.237-17.872-3.28-25.661-1.247-3.882,2.3-8.06,3.28-12.021,4.669-18.683-6.022-17.036-13.73-29.526.115-.039,2.119-8.955,2.11-8.91,1.18-6.366-1.776-14.521-4.355-19.835a9.363,9.363,0,0,0-9.187-5.427c3.736-12.681,8.461-23.233,13.542-35.45,8.986-21.536,17.531-44.064,30.435-63.557,5.284-7.982,1.016-15.323-7.535-15.867A522.6,522.6,0,0,1,364.166,227.567Z" transform="translate(345.94 -31)" fill="#d08b5b"/>
    <path id="_Device" data-name="ðŸ“± Device" d="M63.179,0,0,106.909s14.988,1.5,21.054,4.409,33.916,38.314,33.916,38.314l4.425,19.494L48.909,184.842,53,194.71a32.144,32.144,0,0,1,10.181-11.875c7.264-5.19,23.283-13.709,23.283-13.709s-5.323-2.848-5.323-6.191-4.689-17.605,5.323-22.993,61.751-18,61.751-18L200.648,11.355Z" transform="translate(603.72 199.178)" fill="#ec7495"/>
    <path id="_Top" data-name="ðŸ‘• Top" d="M347.511,0,548.125,35.2l92.219,43.4L655.4,90.2,566.173,248,428.4,273.133l-35.1,91.159,7.165,102.755,224.126-26.719,96.677-11.486L744,520.58l-4.106,37.739-5.971,19.137-239.67,64.7s-122.043-11.829-143.677-11.829-180.253,15.751-180.253,15.751l-36.7-3.922s-81.2-85.569-93.792-116.024S0,310.55,0,310.55l3-28.445L73.152,101.589A231.47,231.47,0,0,0,94.331,78.6C106.142,64.118,347.511,0,347.511,0Z" transform="translate(37.547 58.087)" fill="#9ddadb"/>
    <path id="_Ink" data-name="ðŸ– Ink" d="M607.763,703.542h0a222.334,222.334,0,0,1-22.893-1.214c-8.585-.891-17.279-2.052-25.687-3.174l-.017,0c-9.722-1.3-19.775-2.641-29.718-3.573-10.228-.961-20.909-1.726-32.652-2.336.766-1.533,1.564-3.072,2.335-4.561l.007-.013c.594-1.148,1.209-2.334,1.8-3.508a3.886,3.886,0,0,0-.118-3.916,4.535,4.535,0,0,0-3.7-2.146,3.387,3.387,0,0,0-3.088,2.024c-.638,1.26-1.3,2.532-1.934,3.763-1.339,2.587-2.723,5.263-3.986,7.942-15.307-.649-31.5-.964-49.507-.964-26.4,0-53.219.689-79.159,1.356-10.793.277-21.954.564-33,.8-10.715.226-21.608.421-32.142.61l-.153,0h-.021c-23.418.42-47.633.855-71.452,1.647-9.884.326-19.948.73-29.681,1.12h-.037l-.041,0c-6.257.251-12.728.51-19.093.747-.933-2.963-1.964-5.948-2.961-8.834-.4-1.171-.863-2.5-1.3-3.779a3.924,3.924,0,0,0-3.863-2.756,4.3,4.3,0,0,0-3.48,1.659,3.408,3.408,0,0,0-.371,3.223c.442,1.3.9,2.615,1.335,3.885l0,.013c.778,2.252,1.583,4.58,2.334,6.881-17.039.578-30.15.835-42.51.835-1.022,0-2.065,0-3.1-.006a3.894,3.894,0,0,1-1.22-.19l-.076.481-.03.187-.043.271a.119.119,0,0,1-.122.1.156.156,0,0,1-.1-.037.134.134,0,0,1-.047-.1c0-.339,0-.69-.021-1.05a4.441,4.441,0,0,1-2.55-2.87,30.136,30.136,0,0,1-.48-12.49,16.067,16.067,0,0,0-4.12-5.6c-3.258-2.737-7.59-4.207-11.779-5.628A58.243,58.243,0,0,1,91.58,669.3a91.9,91.9,0,0,1-13.62-8.571,114.908,114.908,0,0,1-23-23.539,166.092,166.092,0,0,1-10.108-15.273c-2.978-5.073-5.848-10.539-8.529-16.247A281.6,281.6,0,0,1,23.1,571.457c-3.687-11.519-6.983-23.639-9.8-36.024-2.7-11.884-5.025-24.311-6.91-36.935A604.858,604.858,0,0,1,.14,423.836a500.894,500.894,0,0,1,2.415-62.2A167.109,167.109,0,0,1,17.4,353.092a3.4,3.4,0,0,0,1.911-4,4.6,4.6,0,0,0-1.441-2.361,3.948,3.948,0,0,0-2.622-1.025,4.14,4.14,0,0,0-1.885.474c-3.154,1.605-6.32,3.365-9.68,5.379a494.078,494.078,0,0,1,13.7-69.9,477.779,477.779,0,0,1,23.8-67.154c5.7-12.907,11.073-24.007,16.426-33.934a275.867,275.867,0,0,1,20.058-32.164A70.533,70.533,0,0,1,93.8,151.32a4.215,4.215,0,0,0,1.261.2,3.789,3.789,0,0,0,3.6-3.432,4.244,4.244,0,0,0-.427-2.657,3.862,3.862,0,0,0-2.308-1.829,71.207,71.207,0,0,0-12.566-2.664A183.275,183.275,0,0,1,97.32,125.357a165,165,0,0,1,17.416-14.944,189.63,189.63,0,0,1,19.151-12.5A224.884,224.884,0,0,1,154.354,87.6c6.743-2.987,13.931-5.8,21.365-8.363,29.989-10.33,61.217-16.05,93.24-21.469,2.935-.5,5.871-.962,8.709-1.411,12.865-2.037,25.014-3.961,36.048-8.456a61.341,61.341,0,0,0,15.52-8.985A59.387,59.387,0,0,0,342.3,24.136a4.24,4.24,0,0,1,3.488-1.945,3.279,3.279,0,0,1,1.841.545c.635.423,1.475.983,2.34,1.57.023-.062.046-.129.066-.188l.053-.152a97.493,97.493,0,0,0,3.087-13.781C353.709,7.1,354.26,3.922,355.019.8a.991.991,0,0,1,1-.8,1.261,1.261,0,0,1,1.17.8,34.835,34.835,0,0,1,1.872,13.456,56.829,56.829,0,0,1-2.613,14.573c1.215.863,2.484,1.771,3.6,2.571a238.152,238.152,0,0,0,21.518,14.239c13.119,7.377,35.649,11.3,50.557,13.9l.682.119a221.805,221.805,0,0,0,37.732,3.558c2.579,0,5.145-.06,7.628-.179a64.313,64.313,0,0,0,17.221-2.919,35.278,35.278,0,0,0,8.28-3.981c.55-.369,1.073-.745,1.6-1.15a111.4,111.4,0,0,1-.81-18.91c.25-6.419.508-13.057,3.95-18.92a.246.246,0,0,1,.217-.135.334.334,0,0,1,.293.2c2.7,6.4,3.323,13.788,3.924,20.933.123,1.465.25,2.978.395,4.467a20.356,20.356,0,0,1,5.877-.874A19.63,19.63,0,0,1,535.18,50.1c2.382,3.316,3.6,7.051,4.77,10.664a65.488,65.488,0,0,0,2.31,6.347,17.5,17.5,0,0,0,1.668,2.575c1.065,1.478,2.272,3.153,2.3,4.133.417.359.615.579.587.654-.007.019-.03.029-.067.029a2.615,2.615,0,0,1-.762-.272c-.427-.14-.689-.22-.779-.24.111.047.345.129.7.253l.109.038c.281.142.547.273.8.4l.057.028a16.7,16.7,0,0,1,3.919,2.421,7.878,7.878,0,0,1,2.3,3.581,10.6,10.6,0,0,1,.444,4.31c1.3.614,2.607,1.257,3.872,1.878,2.66,1.307,5.411,2.659,8.138,3.77l.994.406c6.991,2.854,14.221,5.805,21.226,9.046,15.652,7.224,31.233,15.248,46.31,23.848q1.161.663,2.332,1.328c3.244,1.845,6.6,3.753,9.866,5.739a88.313,88.313,0,0,0-9.922,8.418,3.6,3.6,0,0,0-.906,4.082,4.371,4.371,0,0,0,3.9,2.734,3.776,3.776,0,0,0,2.667-1.16,80.89,80.89,0,0,1,11.428-9.441c7.906,5.493,13.485,10.927,17.559,17.1,3.7,5.608,6.153,12,8.53,18.19l.037.1q.3.772.593,1.541a93.658,93.658,0,0,0,10.158,19.66l.051.077a3.12,3.12,0,0,1,.2.333c.289.014.581.031.864.048l.049,0c.306.018.606.035.908.05,13.051.746,26.263,1.756,39.271,3,2.03.192,4.145.382,6.01.551,10.631.958,21.621,1.949,32.119,4.249a3.6,3.6,0,0,1,2.256,1.884,3.006,3.006,0,0,1,.233,2.506c-.422,1.035-.914,2.24-1.419,3.451C757.372,241.238,741.717,274.969,723,311.528a11.623,11.623,0,0,1,5.408,1.414,8.41,8.41,0,0,1,3.632,4.715,63.238,63.238,0,0,1,3.286,13.369,30.944,30.944,0,0,1-1.116,13.542.4.4,0,0,1-.376.3.43.43,0,0,1-.213-.058,18.169,18.169,0,0,0,5,13.15,36.2,36.2,0,0,0,4.078,3.423,25.451,25.451,0,0,1,5.512,5.117c4.207,5.82,1.328,10.493-1.721,15.441-.577.937-1.172,1.9-1.72,2.879-1,1.774-1.147,3.256-.474,4.664a11.91,11.91,0,0,0,3.033,3.409,20.848,20.848,0,0,1,2.731,2.736,13.4,13.4,0,0,1,2.495,5.341,17.238,17.238,0,0,1,.215,5.919c-.6,4.783-2.753,9.182-4.72,12.93-.591,1.13-1.18,2.32-1.751,3.471-1.954,3.942-3.974,8.017-6.739,11.29a2.344,2.344,0,0,1-.4.379.408.408,0,0,1,.1-.009h.009c.535,0,1.227.859,1.411,1.309.1.234.207.471.305.7.112.258.212.491.315.72-.01-.025-.02-.052-.031-.08s-.02-.055-.031-.08a.586.586,0,0,1,.071-.56,1.041,1.041,0,0,1,.8-.41h.017c.613.01,1.622,1.154,1.819,1.669a238.941,238.941,0,0,1,9.451,25.36l1.07,4.14.214.828L756.609,476c1.425,6.1,2.292,12.345,3.13,18.387l.01.073c.674,4.263,1.159,8.5,1.44,12.59.677,6.177,1.08,12.469,1.2,18.7a233.588,233.588,0,0,1-2.62,30.18,121.728,121.728,0,0,1-2.02,12.29,151.638,151.638,0,0,1-4.29,18.259c-.734,3.027-1.486,6.151-2.148,8.907l-.561,2.333-.062.167q-.57,1.536-1.138,3.073a57.641,57.641,0,0,1-2.49,7.02c-.332,1.015-.709,2.079-1.152,3.255-7.9-2.338-16.45-4.522-25.507-4.666h-.08a3.71,3.71,0,0,0-3.784,3.9,4.274,4.274,0,0,0,.954,2.788,3.745,3.745,0,0,0,2.91,1.311c8.11.131,15.832,2.1,22.316,4.012-1.144,2.3-2.392,4.539-3.708,6.649l-.133.261c-3.6,7.071-7.318,14.382-11.587,21.279a130.737,130.737,0,0,1-8.11,11.63,88.467,88.467,0,0,1-17.26,17.33,45.82,45.82,0,0,1-10.28,6.52,76.861,76.861,0,0,1-13.111,4.361,72.57,72.57,0,0,1-7.619,1.42c-1.369.17-2.77.273-4.124.374-1.673.124-3.4.252-5.1.506a38.618,38.618,0,0,0-8.15,2.02,19.783,19.783,0,0,0-3.721,1.87,27.24,27.24,0,0,0-2.79,2.86.128.128,0,0,1-.068.059,7.409,7.409,0,0,1-6.16,5.111A198.935,198.935,0,0,1,607.763,703.542ZM283.782,642.279a4.142,4.142,0,0,0-1.052.141,4.353,4.353,0,0,0-2.607,2.244,3.222,3.222,0,0,0-.187,2.677,55.165,55.165,0,0,0,11.4,17.894,3.688,3.688,0,0,0,2.663,1.2,4.345,4.345,0,0,0,3.83-2.69,3.7,3.7,0,0,0-.837-4.17,44.973,44.973,0,0,1-9.337-14.364A4.273,4.273,0,0,0,283.782,642.279Zm54.383-87.641a3.95,3.95,0,0,0-.939.119,22.134,22.134,0,0,1-2.539.44,13.758,13.758,0,0,0-3.767.881c-1.211.5-2.413,1.085-3.576,1.65-.441.214-.94.457-1.432.69-3.9,1.844-7.782,3.686-11.548,5.475-7.282,3.46-14.447,6.877-21.294,10.156-13.083,6.263-26.269,12.873-39.021,19.265l-.02.01-5.867,2.94c-13.248,6.634-28.657,14.356-43.889,22.063-7.758,3.929-15.364,7.934-21.781,11.334q-.991.525-1.982,1.047c-2.765,1.458-5.623,2.966-8.4,4.527-.744.419-1.506.818-2.312,1.24-2.788,1.462-5.67,2.973-7.653,5.229a.426.426,0,0,0-.059.445.316.316,0,0,0,.3.2h.027c5.044-.342,10.648-3.185,15.593-5.693,1.72-.872,3.345-1.7,4.9-2.4s3.127-1.412,4.691-2.117l.02-.009c5.526-2.492,11.24-5.068,16.827-7.676,17.663-8.25,32.151-14.953,45.594-21.094,6.1-2.787,12.3-5.583,18.293-8.287,8.72-3.934,17.733-8,26.558-12.086,7.383-3.416,14.9-6.882,22.347-10.3,3.179-1.46,6.692-3.069,10.739-4.919.588-.269,1.189-.538,1.771-.8l.078-.035c1.16-.518,2.359-1.055,3.523-1.62a20.721,20.721,0,0,0,4.287-2.9c.65-.53,1.322-1.078,2.124-1.657a3.511,3.511,0,0,0,1.318-3.96A2.993,2.993,0,0,0,338.165,554.638Zm254.526,69.188a4.352,4.352,0,0,0-3.849,2.7,3.674,3.674,0,0,0,.857,4.145c1.1,1.118,2.172,2.3,3.209,3.44a49.049,49.049,0,0,0,7.969,7.554,3.272,3.272,0,0,0,1.885.57,4.263,4.263,0,0,0,3.589-2.005,3.759,3.759,0,0,0,.385-3.019,4.622,4.622,0,0,0-1.822-2.454,37.436,37.436,0,0,1-6.486-6.35c-.992-1.142-2.019-2.322-3.072-3.392A3.714,3.714,0,0,0,592.691,623.826ZM418.413,598.482a3.716,3.716,0,0,0-2.665,1.191A139.991,139.991,0,0,0,403.6,614.307a3.219,3.219,0,0,0-.515,2.589,4.476,4.476,0,0,0,1.95,2.884,3.7,3.7,0,0,0,1.92.552,4.547,4.547,0,0,0,3.553-1.988A125.573,125.573,0,0,1,421.4,605.329a3.67,3.67,0,0,0,.859-4.143A4.352,4.352,0,0,0,418.413,598.482ZM94.7,568.648a4.186,4.186,0,0,0-1.849.448c-2.493,1.22-5.078,2.345-7.578,3.434a116.782,116.782,0,0,0-12.006,5.782,3.639,3.639,0,0,0-1.792,4.279,4.193,4.193,0,0,0,3.835,3.2,3.953,3.953,0,0,0,1.994-.571,116.685,116.685,0,0,1,12.008-5.783c2.5-1.089,5.086-2.214,7.576-3.432a3.336,3.336,0,0,0,1.941-3.916A4.427,4.427,0,0,0,94.7,568.648Zm608.556-63.363a.408.408,0,0,0-.291.123.33.33,0,0,0-.093.249,35.024,35.024,0,0,0,2.319,9.3c.422,1.216.859,2.474,1.218,3.686,1.806,6.09,3.067,11.087,3.968,15.726a117.354,117.354,0,0,1,1.54,13.392c.448,5.873.91,11.947,2.573,17.7a3.312,3.312,0,0,0,3.241,2.6,4.213,4.213,0,0,0,3.81-2.6,29.362,29.362,0,0,0,2.071-8.239,41.825,41.825,0,0,0-.03-8.622,78.992,78.992,0,0,0-3.87-16.8,76.424,76.424,0,0,0-6.673-15.032,60.116,60.116,0,0,0-4.139-6.328,19.229,19.229,0,0,0-5.463-5.1A.368.368,0,0,0,703.252,505.284ZM496.739,518.135a4.192,4.192,0,0,0-3.492,1.666,3.185,3.185,0,0,0-.192,3.123c1.1,2.716,2.3,5.442,3.462,8.078s2.353,5.341,3.45,8.049a4.427,4.427,0,0,0,7.52,1,3.187,3.187,0,0,0,.194-3.125c-1.1-2.719-2.3-5.443-3.462-8.078l0-.006c-1.156-2.625-2.351-5.339-3.448-8.044A4.2,4.2,0,0,0,496.739,518.135Zm105.16-2.619a4.279,4.279,0,0,0-1.218.186,165.056,165.056,0,0,0-19.338,7.577c-1.446.638-3.085,1.362-4.658,2.042a3.41,3.41,0,0,0-1.789,1.589,3.179,3.179,0,0,0-.229,2.073A4.613,4.613,0,0,0,579,532.6a4.318,4.318,0,0,0,1.72-.368c1.3-.564,2.626-1.145,3.9-1.707l.07-.031a156.411,156.411,0,0,1,18.11-7.075,3.821,3.821,0,0,0,2.757-4.4,4.418,4.418,0,0,0-1.167-2.434A3.413,3.413,0,0,0,601.9,515.516ZM243.634,512.1a4.361,4.361,0,0,0-3.871,2.717,3.64,3.64,0,0,0,.881,4.116L251.013,529.3a3.742,3.742,0,0,0,2.666,1.177,4.36,4.36,0,0,0,3.871-2.716,3.642,3.642,0,0,0-.881-4.117L246.3,513.274A3.743,3.743,0,0,0,243.634,512.1ZM181.729,342.1a.9.9,0,0,0-.657.26.836.836,0,0,0-.209.64c.285,5,.735,10.064,1.17,14.959v.005c.578,6.51,1.176,13.241,1.395,19.909.363,11.011.321,22.544-.127,35.257-.365,10.381-1.051,21.325-2.158,34.44-.286,3.387-.751,6.931-1.2,10.358v.006c-.989,7.538-2.012,15.332-1.365,22.711-10.618,2.781-19.766,5.591-27.966,8.591-1.714.627-3.5,1.244-5.392,1.9-6.043,2.088-12.889,4.454-18.824,7.723-6.818,3.756-11.354,8.114-13.866,13.324a.35.35,0,0,0,.028.338.342.342,0,0,0,.276.172.269.269,0,0,0,.211-.112,22.9,22.9,0,0,1,8.724-6.406,76.222,76.222,0,0,1,10.468-3.561c.631-.181,1.346-.386,2.037-.589,7.95-2.333,15.865-4.409,24.646-6.688,16.517-4.285,33.515-7.816,49.952-11.232l.013,0,1.845-.383c2.8-.583,5.74-1.189,8.1-1.675,14.4-2.974,29.3-6.049,43.835-9.623l2.247-.551.07-.017c7.4-1.813,15.057-3.688,22.359-6.171,8.588-2.922,17.463-6.277,24.194-11a3.343,3.343,0,0,0,1.1-3.63,2.18,2.18,0,0,0-2.17-1.63,3.09,3.09,0,0,0-.351.021c-7.056.8-14.278,2.744-21.262,4.622l-.052.014c-1.43.384-2.908.782-4.343,1.157-3.571.935-7.188,1.934-10.686,2.9l-.021.006c-5.153,1.423-10.481,2.895-15.767,4.189-12.294,3.013-24.865,5.78-37.021,8.457h-.005c-5.731,1.262-11.654,2.566-17.471,3.878-6.629,1.5-12.067,2.772-17.114,4.01a78.43,78.43,0,0,0,1.22-10.062c.073-.944.149-1.92.234-2.886.14-1.593.285-3.214.424-4.782l.014-.16c.359-4.016.729-8.168,1.056-12.255,1.088-13.585,1.693-25.476,1.849-36.352a278.557,278.557,0,0,0-1.585-35.251c-.577-5.141-1.318-11.218-2.448-17.307a105.54,105.54,0,0,0-4.434-16.866A1.02,1.02,0,0,0,181.729,342.1Zm392.817-35.656c-4.752,0-9.516.41-14.124.807l-.033,0c-1.282.11-2.493.214-3.7.309a200.723,200.723,0,0,0-31.07,4.73,42.761,42.761,0,0,0-11.868,4.662,39.465,39.465,0,0,0-9.783,8.149c-4.844,5.5-8.614,11.946-12.261,18.184-.508.87-1.085,1.856-1.639,2.794a136.508,136.508,0,0,1-17.707,23.747,125.43,125.43,0,0,1-22.3,18.954,6.855,6.855,0,0,1-2.73,3.02.229.229,0,0,1,.04.061c-.4.171-.729.317-1.04.46a.273.273,0,0,0-.046.02.325.325,0,0,1-.046.02l-1.9.833c-10.418,4.572-21.189,9.3-31.252,15.237-.054.431-.115.867-.174,1.289l0,.015c-.109.773-.211,1.5-.274,2.214-.19,2.231-.44,4.493-.682,6.68s-.489,4.43-.679,6.65a230.432,230.432,0,0,0-1,26.851,136.388,136.388,0,0,0,3.71,27.869c.884,3.633,2.053,7.232,3.185,10.713l.227.7c5.755-4.471,12.81-7.882,20.14-11.27,8.42-3.893,15.56-6.178,22.47-7.19a55.815,55.815,0,0,1,8.146-.566,117.2,117.2,0,0,1,16.154,1.426q.8.113,1.618.231l.086.012a85.126,85.126,0,0,0,12.058,1.157,28.836,28.836,0,0,0,8.748-1.211,22.567,22.567,0,0,0,9.553-6.254,74.311,74.311,0,0,0,7.179-9.367c2.536-3.7,5.156-7.514,8.3-10.449a25.081,25.081,0,0,1,14.67-7.079,23.154,23.154,0,0,1,2.433-.11c.644,0,1.3.016,1.938.032h.041c.656.017,1.33.034,1.991.034a14.765,14.765,0,0,0,6.1-1.037c3.412-1.539,5.778-4.49,7.03-8.771a5.261,5.261,0,0,1,2.768-3.239,15.143,15.143,0,0,1-4.784-3.142c-.473-.4-.962-.822-1.485-1.24-2.839-2.259-5.686-4.389-8.46-6.33-1.757-1.231-3.572-2.439-5.327-3.608-.883-.588-1.8-1.2-2.694-1.8-.459-.31-1.032-.778-1.7-1.32-1.875-1.529-4.2-3.43-5.923-3.43a2.015,2.015,0,0,0-.41.041.347.347,0,0,1-.059.005.4.4,0,0,1-.316-.157.273.273,0,0,1-.035-.258c.4-1.062,1.407-1.6,3.007-1.6,1.964,0,4.765.793,8.325,2.358a87.307,87.307,0,0,1,10.292,5.5c7.043,4.334,12.849,8.964,13.806,11.009a3.11,3.11,0,0,1-.64,3.63,7.653,7.653,0,0,0,1.909.248,8.7,8.7,0,0,0,6.288-3.071,15.314,15.314,0,0,0,3.452-6.5c1.5-5.983.361-12.857-.641-18.922q-.126-.763-.248-1.509a.971.971,0,0,1,.228-.793.949.949,0,0,1,.7-.345.746.746,0,0,1,.2.027l.219-.5c-4.842-2.114-10-3.8-14.987-5.423l-.006,0c-2.217-.723-4.509-1.471-6.735-2.245l-4.085-1.422-.335-.117q-4.767-1.66-9.541-3.321c-.471-.164-.952-.325-1.417-.48-3.128-1.044-6.08-2.03-8.2-4.62a4.225,4.225,0,0,1-.763-3.96,3.116,3.116,0,0,1,2.352-2.071,11.906,11.906,0,0,1,2.649-.291c2.96,0,5.706,1.008,8.612,2.075.712.262,1.448.532,2.189.786,3.9,1.324,7.808,2.663,11.59,3.958l1.469.5c2.024.69,4.1,1.367,6.111,2.021l.031.01a168.256,168.256,0,0,1,16.879,6.168A33.16,33.16,0,0,1,598.856,393a24.172,24.172,0,0,1,5.974,8.043c.263.58.529,1.385.838,2.316.948,2.861,2.244,6.773,4.611,7.3a2.37,2.37,0,0,0,.52.06c1.4,0,2.532-1.351,3.371-4.016a33.339,33.339,0,0,0,1.14-5.914,40.1,40.1,0,0,0-.572-12.4,45.91,45.91,0,0,0-4.187-12c-4.068-7.938-10.177-14.184-17.2-17.587-7.32-3.54-15.416-5.633-23.245-7.657l-.866-.224c-6.526-1.687-13.467-3.123-20.629-4.27-2.638-.434-5.5-.846-8.76-1.26a.493.493,0,0,1-.454-.512.43.43,0,0,1,.454-.419c2.5-.111,5.008-.167,7.443-.167,1.152,0,2.311.013,3.446.037,9.883-5.026,18.662-5.885,29.984-6.549.187-.011.376-.017.561-.017a14.179,14.179,0,0,1,7.407,2.461,33.669,33.669,0,0,1,6.672,5.687c4.06,4.372,6.886,9.12,7.366,10.868,8.321,5.583,14.3,14.016,18.28,25.781.194.583.371,1.146.54,1.72a25.07,25.07,0,0,1,4.88-7.465,36.76,36.76,0,0,1,6.769-5.755,122.079,122.079,0,0,1,16.931-9.39,5.6,5.6,0,0,1-1.4-.79c-2.275-1.772-2.612-4.914-2.909-7.686-.038-.355-.077-.723-.121-1.082a34.077,34.077,0,0,1,.2-11.811,18.165,18.165,0,0,1,2.084-5.166,20.525,20.525,0,0,1,3.352-4.194,33.75,33.75,0,0,1,9.134-6.06,134.027,134.027,0,0,1,25.691-9.1,144.518,144.518,0,0,1,26.989-3.937,4.38,4.38,0,0,1,.419-1.019c9.043-16.218,17.944-33.406,26.456-51.086,8.018-16.656,15.96-34.31,23.605-52.474-6.306-.47-12.714-1.247-18.91-2l-.014,0c-4.6-.557-9.347-1.133-14.025-1.58-12.4-1.19-24.953-2.166-37.3-2.9-2.557-.158-5.132-.3-7.623-.433l-.137-.007c-8.4-.442-17.041-.788-25.69-1.03-1.017-.028-2.05-.059-3.057-.089l-.318-.009c-4-.119-8.131-.242-12.2-.242-.664,0-1.321,0-1.953.01a12.811,12.811,0,0,0-3.7.433,6.131,6.131,0,0,0-3.006,2.067,11.571,11.571,0,0,0-1.105,1.73,6.669,6.669,0,0,1-2.223,2.73c-.075.041-.175.1-.287.164-.163.094-.344.2-.523.3-.084.087-.17.173-.254.255l-.011.011a5.406,5.406,0,0,0-.525.565,43.749,43.749,0,0,0-3.19,4.829c-2.8,4.819-5.368,9.888-7.854,14.791l-.035.069c-1.851,3.651-3.645,7.4-5.38,11.021-2.458,5.133-5,10.441-7.731,15.54-4.771,8.89-9.207,16.685-13.56,23.829-1.107,1.8-9.711,14.926-14.6,21.542a45.5,45.5,0,0,1,11.48,1.789c.809-1.851,1.75-3.668,2.661-5.424l0-.006c.777-1.5,1.579-3.047,2.3-4.61.534-1.17,1.011-2.425,1.473-3.639a32.591,32.591,0,0,1,3.1-6.622,2.163,2.163,0,0,1,1.809-1.03,2.207,2.207,0,0,1,1.67.791,2.277,2.277,0,0,1,.47,1.9c-.648,3.568-2.916,7.02-4.916,10.066l-.031.047-.274.417a47.533,47.533,0,0,1-6.77,8.61c.142.045.28.094.4.14a27.74,27.74,0,0,1,10.03,7.022,95.818,95.818,0,0,1,7.953,9.843c.948,1.285,1.842,2.5,2.756,3.685.188.245.437.562.724.928l.014.017c3.731,4.759,15.084,19.24,17.324,31.394a17.771,17.771,0,0,1-.079,6.792,14.038,14.038,0,0,1-2.575,5.785,8.626,8.626,0,0,1-6.386,3.477c-.059,0-.115.005-.168.005a1.923,1.923,0,0,1-1.717-.912,4.31,4.31,0,0,1-.545-2.276,12.152,12.152,0,0,1,1.649-5.794c1.166-2.007,2.622-3.124,4.1-3.145-.846,0-.867-.56-.893-1.268a4.889,4.889,0,0,0-.1-.932,16.925,16.925,0,0,0-.9-2.523c-.1-.238-.2-.481-.3-.717a78,78,0,0,0-4.06-8.41,123.57,123.57,0,0,0-8.43-13.059c-3.189-4.376-6.6-8.6-10.1-12.91l-.468-.574c-3.471-4.26-6.75-8.285-12.252-9.8a48.053,48.053,0,0,0-12.43-1.469ZM712.056,413.352a2.379,2.379,0,0,1,1.833.767,2.836,2.836,0,0,1,.673,1.76,3.47,3.47,0,0,1-.653,2.2,2.978,2.978,0,0,1-2.171,1.2l-.715.067h-.008c-14.658,1.384-29.815,2.815-44.635,4.931-8.079,1.158-15.25,2.345-21.92,3.63-2.53.488-5.108,1.127-7.6,1.744-1.234.305-2.509.621-3.768.916a.371.371,0,0,1-.05.33,28.34,28.34,0,0,0-4.515,11.008,14.423,14.423,0,0,0,.223,5.862,10.643,10.643,0,0,0,3.062,5.1c1.683,1.57,3.872,2.3,6.891,2.3a40.208,40.208,0,0,0,4.277-.307l.332-.036c4.479-.489,8.923-1.1,13.46-1.741,7.412-1.045,15.115-2.265,23.549-3.729,3.924-.674,8.032-1.428,12.21-2.24,3.424-.659,31.176-12.2,43.181-18.411a71.207,71.207,0,0,1,4.148-7.757c.857-1.456,1.744-2.961,2.531-4.443l.131-.248c2.263-4.273,5.361-10.126,3.4-14.981a13.253,13.253,0,0,0-3.891-4.7,13.637,13.637,0,0,1-3.949-4.753,9.04,9.04,0,0,1-.627-4.641,12.209,12.209,0,0,1,1.547-4.46,23.9,23.9,0,0,1,2.346-3.2c1.717-2.1,3.492-4.269,3.6-6.715.149-3.406-3.176-6-6.11-8.288a32.5,32.5,0,0,1-2.719-2.272,17.507,17.507,0,0,1-5.023-9.38,17.1,17.1,0,0,1,1.533-10.49.5.5,0,0,1,.409-.279,100.342,100.342,0,0,0-2.175-10.882A51.415,51.415,0,0,0,727.1,321c-1.371-2.668-3.341-3.215-5.877-3.215-.639,0-1.294.032-1.987.066l-.038,0c-.437.021-.889.043-1.348.057-3.515.116-6.819.339-10.1.68A142.875,142.875,0,0,0,686,322.576a132.91,132.91,0,0,0-20.837,7.4,34.1,34.1,0,0,0-8.35,4.948,13.233,13.233,0,0,0-4.66,8.232,33.124,33.124,0,0,0,.291,9.65c.016.111.032.229.049.35.129.932.289,2.093.661,2.27a.748.748,0,0,0,.3.045,25.5,25.5,0,0,0,4.417-1.005c.5-.141.885-.251,1.064-.29l2.058-.444.162-.035c6.525-1.407,13.271-2.862,19.9-4.3,1.926-.416,3.934-.923,5.875-1.414l.008,0c5.011-1.267,10.191-2.576,15.187-2.684h.056a2.985,2.985,0,0,1,2.748,2.52,2.372,2.372,0,0,1-1.364,2.8c-6.345,2.72-13.67,4.036-20.753,5.308-2.887.519-5.869,1.054-8.667,1.67l-2.46.54-2.46.54c-2.6,1.208-5.245,2.387-7.807,3.528A201.324,201.324,0,0,0,641.63,371.9l-.288.167c-5.006,2.916-10.68,6.222-13.683,11.4a12.568,12.568,0,0,0-1.568,4.975,10.418,10.418,0,0,0,.687,5.116,6.728,6.728,0,0,0,4.8,4.019,14.217,14.217,0,0,0,3.226.343,22.884,22.884,0,0,0,3.143-.234,65.191,65.191,0,0,0,8.611-2.027c1.64-.465,3.185-.9,4.611-1.223l19.319-4.381,7.659-1.734q15.972-3.617,31.942-7.236a3.042,3.042,0,0,1,.668-.077,2.545,2.545,0,0,1,1.876.807,3.15,3.15,0,0,1,.832,1.8,2.594,2.594,0,0,1-.351,1.676,2.444,2.444,0,0,1-1.575,1.05c-17.479,3.97-35.1,7.986-52.15,11.87-2.2.5-4.446,1.065-6.622,1.612l-.014,0a137.417,137.417,0,0,1-14.766,3.144l-.124.079c-6.458,4.145-12.557,8.059-17.525,13.982-.328.379-.671.8-1.08,1.33-1.557,2.019-2.041,4.3-1.263,5.94.669,1.416,2.208,2.232,4.333,2.3.159.011.322.011.48.011a23.882,23.882,0,0,0,5.958-1.121c.62-.172,1.258-.348,1.872-.5,5.239-1.313,10.633-2.507,16.031-3.549,20.489-4,41.651-5.933,62.116-7.8l2.953-.27C711.845,413.357,711.952,413.352,712.056,413.352ZM67.38,415.38a4.452,4.452,0,0,0-3.95,2.767,3.531,3.531,0,0,0,.959,4.014c4.946,4.7,11.281,7.191,17.409,9.6l.035.014q.8.315,1.6.632a3.944,3.944,0,0,0,1.449.3,3.5,3.5,0,0,0,3.27-3.1,4.271,4.271,0,0,0-2.592-4.913c-.643-.255-1.326-.521-1.874-.734-4.827-1.879-9.817-3.821-13.641-7.454A3.841,3.841,0,0,0,67.38,415.38Zm556.659-15.993a41.091,41.091,0,0,1-.35,7.561,41.413,41.413,0,0,1,6.9-4.031A12.06,12.06,0,0,1,624.039,399.387ZM343.592,372.709a3.689,3.689,0,0,0-3.757,3.87,4.3,4.3,0,0,0,.95,2.8,3.762,3.762,0,0,0,2.912,1.33,45.268,45.268,0,0,1,10.1,1.78l.007,0c.492.126,1,.256,1.5.38a4.416,4.416,0,0,0,1.065.136,4.035,4.035,0,0,0,3.878-3.72,3.919,3.919,0,0,0-.5-2.514,3.666,3.666,0,0,0-2.321-1.616l-.717-.179-.192-.048A58.451,58.451,0,0,0,343.7,372.71ZM232.12,310.6A4.425,4.425,0,0,0,228,314.033a3.342,3.342,0,0,0,1.939,3.922,73.33,73.33,0,0,0,17.083,6.164,4.507,4.507,0,0,0,.936.1,4.208,4.208,0,0,0,4.042-3.9,3.738,3.738,0,0,0-.532-2.429,3.555,3.555,0,0,0-2.319-1.493,64.538,64.538,0,0,1-15.173-5.356A4.177,4.177,0,0,0,232.12,310.6Zm140.2-49.521a3.667,3.667,0,0,0-3.682,2.825,180.238,180.238,0,0,0-4.609,23.041,4.13,4.13,0,0,0,.974,3.39,4.8,4.8,0,0,0,3.52,1.634,3.105,3.105,0,0,0,3.222-2.9,180.1,180.1,0,0,1,4.608-23.04,3.672,3.672,0,0,0-.55-3.3A4.424,4.424,0,0,0,372.321,261.078ZM109.085,272.326a3.939,3.939,0,0,0-1.459.3A133.952,133.952,0,0,0,89.391,281.1a3.772,3.772,0,0,0-1.712,1.97,3.854,3.854,0,0,0-.067,2.34A4.589,4.589,0,0,0,89,287.636a3.655,3.655,0,0,0,2.421.948,3.936,3.936,0,0,0,2-.58,120.756,120.756,0,0,1,16.325-7.66,4.294,4.294,0,0,0,2.583-4.941A3.483,3.483,0,0,0,109.085,272.326Zm405.879-66.707a3.362,3.362,0,0,0-3.073,2.033,63.649,63.649,0,0,0-3.54,8.222,29.855,29.855,0,0,0-1.614,8.772,3.648,3.648,0,0,0,.984,2.712,4.073,4.073,0,0,0,2.92,1.149,4.3,4.3,0,0,0,2.774-.965,3.778,3.778,0,0,0,1.321-2.9c.117-4.687,1.989-8.8,4.063-12.957a3.914,3.914,0,0,0-.141-3.93A4.539,4.539,0,0,0,514.964,205.619ZM257.379,192.979a4.346,4.346,0,0,0-1.146.161c-4.928,1.351-10.023,2.352-14.951,3.319-3.8.745-7.721,1.516-11.546,2.442a3.638,3.638,0,0,0-2.319,1.59,3.888,3.888,0,0,0-.5,2.5,4.057,4.057,0,0,0,3.909,3.754,4.443,4.443,0,0,0,1.041-.129c3.83-.927,7.754-1.7,11.549-2.443,4.925-.967,10.018-1.967,14.948-3.317a3.721,3.721,0,0,0,2.787-4.272,4.465,4.465,0,0,0-1.185-2.5A3.522,3.522,0,0,0,257.379,192.979ZM100.248,181.328a3.511,3.511,0,0,0-3.285,3.114,4.256,4.256,0,0,0,2.6,4.894c2.655,1.041,5.4,1.974,8.052,2.876l.005,0c2.659.9,5.407,1.838,8.071,2.883a3.962,3.962,0,0,0,1.441.292,3.51,3.51,0,0,0,3.285-3.113,4.257,4.257,0,0,0-2.6-4.9c-2.657-1.042-5.4-1.975-8.057-2.878s-5.409-1.839-8.071-2.882A3.958,3.958,0,0,0,100.248,181.328Zm249.206-28.651h0a3.681,3.681,0,0,0-2.9,1.25,4.207,4.207,0,0,0-.966,2.75,3.775,3.775,0,0,0,3.864,4,89.016,89.016,0,0,1,16.217,1.011,4.57,4.57,0,0,0,.828.078,3.945,3.945,0,0,0,2.916-1.267,4.725,4.725,0,0,0,1.253-2.768,3.305,3.305,0,0,0-2.871-3.758,99.116,99.116,0,0,0-18.343-1.294Zm215.484-45.062a3.729,3.729,0,0,0-2.078.681l-10.368,6.912a3.992,3.992,0,0,0-1.647,2.141,4.191,4.191,0,0,0,.021,2.454,3.969,3.969,0,0,0,3.588,2.994,3.725,3.725,0,0,0,2.076-.681l2.074-1.382,8.3-5.53a3.992,3.992,0,0,0,1.648-2.141,4.19,4.19,0,0,0-.021-2.455A3.97,3.97,0,0,0,564.938,107.615ZM202.853,96.307a4.623,4.623,0,0,0-.764.065,94.64,94.64,0,0,0-18.432,4.61,4.236,4.236,0,0,0-2.608,4.871,3.521,3.521,0,0,0,3.3,3.13,3.985,3.985,0,0,0,1.434-.287,92.424,92.424,0,0,1,18.432-4.608,3.238,3.238,0,0,0,2.877-3.666,4.76,4.76,0,0,0-1.263-2.817A4.019,4.019,0,0,0,202.853,96.307ZM396.812,82.388a4.248,4.248,0,0,0-3.578,2,4.07,4.07,0,0,0,1.435,5.473,59.624,59.624,0,0,1,8.266,7.3l.141.14a3.744,3.744,0,0,0,2.667,1.177,4.361,4.361,0,0,0,3.872-2.716,3.64,3.64,0,0,0-.881-4.116,70.344,70.344,0,0,0-10.026-8.69A3.34,3.34,0,0,0,396.812,82.388Z" transform="translate(35 6.999)"/>
  </g>
</svg>
