<svg xmlns="http://www.w3.org/2000/svg" width="818" height="758" viewBox="0 0 818 758">
  <g id="body_Striped_Tee" data-name="body/Striped Tee" transform="translate(0 25)">
    <path id="_Skin" data-name="âœ‹ Skin" d="M4.468,617.466c-2.994,27.446-9.776,57.68,3.152,83.575-8.142.365-1.537,2.72,2.857,3.53a13.126,13.126,0,0,0,9.052,2.441c16.464,3.48,33.46,4.741,50.177,6.71,208.718,17.336,418.835,12.732,627.943,5.262,6.8-.295,11.364-5.235,11.885-11.889q11.5-146.883,11.283-294.368c-3.4-34.517,22.684-21.048,8.767-66.532a691.308,691.308,0,0,0-48.863-139.168c-14.6-28.955-28.349-59.422-50.6-83.433-7.03-.971-13.015-7.954-18.956-11.854-6.017-1.172-10.477-6.281-16.575-7.852-11.621-3.023-37.627-9.452-47.524-1.72-.391-.107-.787-.2-1.178-.309-1.937,2.148-4.6.537-6.043-1.393-4.945-3.839-26.559-4.234-29.012-10.126-12.788-11.6-16.21-36.013-16.21-50.3-4.782-5.373-5.113-4.375-11.6-7.215A93.477,93.477,0,0,0,460.39,12.3C412.1-19.41,342.022,14,330.717,69.115c-17.871,14.15-36.266,28.524-58.155,35.9-10.682-5.495-22.851-7.249-34.188-7.26-8.451-.307-20.129-5.194-25.621,3.7C120.356,131.7,64.592,219.67,24.94,303.023c-5.558,11.868-12.207,24.294-10.506,37.815,1.169,16.193,18.743,25.831,15.422,42.992-4.827,47.206-10.318,94.364-15.343,141.556Q9.49,571.425,4.468,617.466Z" transform="translate(43 -25)" fill="#d08b5b"/>
    <path id="_Top" data-name="ðŸ‘• Top" d="M198.59,5.314c5.492-8.894,17.17-4.007,25.621-3.7,11.337.011,23.506,1.765,34.188,7.26q.655-.22,1.305-.449l.633,1.405-46.506,6.552,23.452,42.533q82.836,77.5,184.165,68.885Q521.763,119.275,559.33,20.664l.753-2L528.271,9.83V6.457a2.854,2.854,0,0,0,3.459-.736c.391.111.787.2,1.178.309,9.9-7.732,35.9-1.3,47.524,1.72,6.1,1.571,10.558,6.68,16.575,7.852,5.941,3.9,11.926,10.883,18.956,11.854,22.247,24.011,36,54.478,50.6,83.433a691.311,691.311,0,0,1,48.863,139.168c8.907,29.11,1.427,34.072-4.22,42.921l-.466.071a134.993,134.993,0,0,0-21.383,5.035,281.587,281.587,0,0,0-41.633,17.546l-1.575.821,17.283,307.1-10.791.372c-176.262,6.018-353.157,9.335-529.243-1.457l16.471-292.253L2.832,254.165A27.372,27.372,0,0,1,.271,244.7c-1.7-13.521,4.948-25.947,10.506-37.815C50.429,123.532,106.193,35.561,198.59,5.314Z" transform="translate(57.163 71.137)" fill="#78e185"/>
    <path id="_Ink" data-name="ðŸ– Ink" d="M723.729,701.956h0a7.3,7.3,0,0,1-6.717-5.083l-.176.1-.043.025c-1.974-5.026-1.493-10.522-1.029-15.838.079-.905.16-1.837.227-2.742.456-6.16.9-12.477,1.321-18.776.788-11.784,1.508-23.762,2.142-35.6,2.116-39.527,3.587-81.948,4.5-129.685.166-8.647.3-17.4.422-25.871.188-12.612.383-25.654.694-38.5.091-3.722.192-7.508.289-11.17l.006-.242v-.029c.186-6.957.378-14.151.51-21.227.041-2.209.059-4.466.077-6.648v-.028c.039-4.822.079-9.808.368-14.694-3.664.63-7.068,1.33-10.407,2.141a179.859,179.859,0,0,0-17.265,5.141c-1.66.585-3.317,1.307-5.071,2.071l-.01,0c-4.064,1.771-8.266,3.6-12.472,3.6h-.058a8.714,8.714,0,0,1-4.776-1.374c4.071,40.269,6.947,81.334,9.727,121.048v.007c.356,5.086.724,10.345,1.093,15.574.971,13.773,2.03,27.768,3.054,41.3,2.669,35.281,5.428,71.764,6.9,107.666a9.926,9.926,0,0,1-2.961,7.083,10.2,10.2,0,0,1-7.164,3.043,9.474,9.474,0,0,1-7.063-3.021,11.87,11.87,0,0,1-3.062-7.106c-.262-2.973-.5-5.9-.721-8.629-6.388,3.768-14.042,3.784-21.444,3.8-1.853,0-3.768.008-5.623.074-9.18.326-18.889.664-28.858,1-18.59.631-37.34,1.242-55.729,1.813-59.513,1.847-129.941,3.89-201.066,5.039l-5.209.084c-31.225.505-63.513,1.028-95.272,1.028h-.07c-18.708,0-35.317-.194-50.777-.592-8.608-.22-16.983-.723-24.892-1.494-4.2-.409-8.436-1.039-12.535-1.649l-.014,0c-2.5-.372-5.081-.756-7.651-1.089q-.049.945-.1,1.89c-.043.869-.09,1.794-.138,2.7-.028.524-.055,1.068-.08,1.594l-.005.112c-.3,6.177-.637,13.177-4.675,18.111a9.933,9.933,0,0,1-7.557,4.048,8.7,8.7,0,0,1-4.87-1.567c-2.789-1.861-4.589-4.7-5.5-8.687a42.889,42.889,0,0,1-.694-10.616c.115-4.063.348-8.195.573-12.19l0-.032c.106-1.887.216-3.838.312-5.756q.927-18.475,1.853-36.952c2.635-52.557,6.074-105.4,9.09-150.8.255-3.84.515-7.717.781-11.682,1.336-19.931,2.718-40.539,3.741-60.834.6-11.992.83-21.138.737-29.657-8.4-.064-16.109-.229-23.553-.5,6.032,2.809,11.809,5.72,16.2,10.4a7.01,7.01,0,0,1,1.025,7.409,5.152,5.152,0,0,1-4.813,3.351,5.989,5.989,0,0,1-.654-.037c-8.46-.934-16.2-5.112-23.687-9.153-2-1.079-4.065-2.195-6.112-3.227-10.574-5.335-19.452-9.823-28.409-14.382l-14.63-7.447-2.409-1.226-12.221-6.221c-2.219-1.129-4.508-2.249-6.721-3.331-3.042-1.487-6.187-3.025-9.238-4.632-.375,18.78-2.277,37.809-4.116,56.211l-.017.169c-.368,3.686-.749,7.5-1.111,11.241-1.323,13.69-2.738,27.6-4.107,41.045l0,.043c-3.044,29.907-6.191,60.833-8.522,91.341-1.8,23.528-2.969,45.412-3.582,66.9-.288,10.124-.44,20.769-.478,33.5q0,1.576-.01,3.152v.012c-.016,4.78-.033,9.723,0,14.584.006.851.024,1.719.039,2.485a44.175,44.175,0,0,1-.485,9.52,9.546,9.546,0,0,1-.826,2.989,19.2,19.2,0,0,1-.939,2.169c-.032-.04-.062-.08-.093-.12l-.087-.114a12.685,12.685,0,0,1-9.859,5.441,8.53,8.53,0,0,1-4.44-1.209,10.721,10.721,0,0,1-3.745-4C-.1,673.509-.014,667.388.067,661.468c.018-1.323.037-2.691.019-4-.1-7.25-.112-13.2-.041-18.731C.2,626.6.569,614,1.133,601.305c.969-21.77,2.54-43.834,4.8-67.451,2.043-21.315,4.594-43.288,7.8-67.174,3.007-22.415,6.541-44.923,10.5-66.9,3.762-20.863,7.607-41.224,13.27-60.952-.155-.1-.314-.195-.468-.288l-.009-.006c-.216-.132-.44-.269-.657-.41a49.642,49.642,0,0,1-7.952-6.237,28.705,28.705,0,0,1-5.918-8.129,26.087,26.087,0,0,1-2.385-12.38,46.281,46.281,0,0,1,2.434-12.5c4.6-14.246,10.311-29.35,17.966-47.532,7.148-16.976,14.162-31.834,21.443-45.421A348.911,348.911,0,0,1,88.6,163.386,283.19,283.19,0,0,1,118.37,129a240.045,240.045,0,0,1,35.077-28.538,200.189,200.189,0,0,1,39.9-20.571,180.413,180.413,0,0,1,21.611-6.635A174.06,174.06,0,0,1,237.6,69.411l.031,0a.24.24,0,0,1,.237.225.291.291,0,0,1-.194.33,228.4,228.4,0,0,0-44.829,18.214,277.486,277.486,0,0,0-40.551,26.483,257.889,257.889,0,0,0-21.954,19.327l.112-.02c.146-.024.3-.049.459-.074,2.112-.318,4.273-.53,6.363-.736l.046,0c.67-.066,1.364-.134,2.044-.2,4.413-.458,8.919-.68,13.277-.894h.012c1.2-.059,2.443-.12,3.664-.185l3.794-.2c9.54-.514,19.4-1.046,29.115-1.4,2.758-.1,5.624-.21,8.153-.306,13.882-.528,28.236-1.074,42.333-1.074,6.189,0,11.856.1,17.326.312a8.719,8.719,0,0,1,2.785.553A120.248,120.248,0,0,1,252.2,117.6a118.666,118.666,0,0,1-7.371-15.953,61.167,61.167,0,0,1-3.832-17.124,2.419,2.419,0,0,1-1.447-2.2,2.366,2.366,0,0,1,1.39-2.131c0-.088,0-.177,0-.264,0-.121,0-.244.008-.365a.406.406,0,0,1,.413-.409.459.459,0,0,1,.373.2c.067.093.134.187.2.281s.131.185.2.277l2.646-.285c11.723-1.257,22.793-2.444,34.1-5.891a103.514,103.514,0,0,0,16.612-6.746,129.244,129.244,0,0,0,15.365-9.273,104.715,104.715,0,0,0,24.7-24.242,102.964,102.964,0,0,0,9.56-16.151c1.137-2.4,2.031-4.806,3-7.473.126-.346.249-.706.369-1.054a18.412,18.412,0,0,1,1.611-3.76c1.174-1.888,3.4-3.111,4.732-3.841.2-.107.364-.2.511-.285A7.165,7.165,0,0,1,358.9,0a7.6,7.6,0,0,1,3.567.865,5.852,5.852,0,0,1,2.546,2.581,1.822,1.822,0,0,0-.556-.339.023.023,0,0,0-.024.013,8.662,8.662,0,0,0,1.607,1.913A9.238,9.238,0,0,1,367.3,9.694a17.48,17.48,0,0,1-1.623,6.441c-1.439,3.622-2.867,6.844-4.367,9.851A106.616,106.616,0,0,1,350.3,43.407a117.74,117.74,0,0,1-30.7,27.884,118.716,118.716,0,0,1-26.29,12.3,106.715,106.715,0,0,1-14.622,3.663,86.707,86.707,0,0,1-14.818,1.333,65.5,65.5,0,0,1-17.3-2.211c1.8,2.743,3.578,5.564,5.3,8.293,4.408,7,8.966,14.237,14.352,20.809a202.317,202.317,0,0,0,14.554,15.95,184.482,184.482,0,0,0,16.237,14.228,171.215,171.215,0,0,0,36.544,21.421,220.566,220.566,0,0,0,40.39,12.951,265.655,265.655,0,0,0,57.219,6.34,235.468,235.468,0,0,0,30.956-2.008,164.255,164.255,0,0,0,39.423-10.12,125.757,125.757,0,0,0,34.871-20.767,132.629,132.629,0,0,0,24.092-27A142.267,142.267,0,0,0,576.6,94.11c-11.643-1.93-20.736-4.309-28.615-7.486a68.774,68.774,0,0,1-24.575-16.191,54.529,54.529,0,0,1-8.99-12.668,65.977,65.977,0,0,1-5.426-14.628,82.523,82.523,0,0,1-1.366-31.095.42.42,0,0,1,.444-.371.545.545,0,0,1,.57.507,57.729,57.729,0,0,0,1.875,14.862,40.765,40.765,0,0,0,6.308,13.494c8.117,11.126,13.814,16.352,17.871,19.662,6.977,5.692,15.643,9.9,26.494,12.873,9.9,2.709,20.306,4.031,29.287,5.058a11.208,11.208,0,0,1,6.314,2.71,8.314,8.314,0,0,1,2.679,6.285,9.893,9.893,0,0,1-2.768,6.465,10.182,10.182,0,0,1-.466,3.62,139.141,139.141,0,0,1-17.446,36.211c3.48-.55,7.058-.842,10.517-1.124,1.054-.086,2.249-.183,3.383-.285,6.389-.574,12.925-.87,19.245-1.157l3.374-.155c5.672-.266,11.45-.354,17.038-.438h.007c2.151-.032,4.373-.066,6.556-.109.355-.007.731-.017,1.128-.028.841-.023,1.789-.049,2.76-.049a21.434,21.434,0,0,1,8.087,1.225,6.735,6.735,0,0,1,2.878,2.225,6.6,6.6,0,0,1-2.812,10.016,20.832,20.832,0,0,1-7.987,1.233c-1.042,0-2.055-.032-2.949-.06h-.005c-.417-.013-.763-.024-1.1-.032-2.239-.054-4.485-.1-6.658-.137-5.561-.1-11.306-.212-16.943-.515-1.377-.074-2.783-.147-4.024-.212-6.427-.334-13.073-.679-19.579-1.3-.944-.09-1.911-.176-2.846-.259l-.029,0a94.7,94.7,0,0,1-14.819-2.113A155.2,155.2,0,0,1,558.256,158a156.744,156.744,0,0,1-18.224,15.205c-1.191.851-2.406,1.659-3.58,2.44,36.336-3.557,73.6-3.9,109.629-4.224h.072c10.571-.1,21.5-.2,32.216-.376h.132a5.743,5.743,0,0,1,4.615,2.06c-3.4-7.175-6.72-13.617-10.138-19.694-11.068-19.671-23.587-36.489-37.208-49.988A152.754,152.754,0,0,0,611.6,83.762a120.533,120.533,0,0,0-27.977-13.527.542.542,0,0,1-.39-.618.556.556,0,0,1,.549-.483.669.669,0,0,1,.139.015A138.881,138.881,0,0,1,616.568,80.4a146.795,146.795,0,0,1,14.948,8.473,161.437,161.437,0,0,1,14.108,10.268,153.581,153.581,0,0,1,12.616,11.5c3.867,3.934,7.658,8.2,11.268,12.692a215.831,215.831,0,0,1,19.025,28.2A316.87,316.87,0,0,1,703.763,182.2c4.052,9.291,8.142,19.627,12.5,31.6,19.588,53.771,34,101.921,44.05,147.2a10.5,10.5,0,0,1-1.886,8.795,9.879,9.879,0,0,1-7.693,3.783,170.028,170.028,0,0,0-20.536,1.753c1.005,6.449,1.516,13.1,2.009,19.536l0,.063c.185,2.414.377,4.91.591,7.342,1.056,11.96,2.064,23.685,2.8,35.64,1.263,20.622,2.014,41.992,2.3,65.332.242,19.894.138,41.28-.318,65.38-.414,21.859-1.136,43.833-2.146,65.309-.512,10.881-1.1,21.857-1.735,32.626-.133,2.254-.177,4.6-.223,7.088a116.132,116.132,0,0,1-.734,13.071,31.778,31.778,0,0,1-3.665,11.887A6.127,6.127,0,0,1,723.729,701.956ZM170.017,609.442c-.443,9.515-.917,19.647-1.422,29.721-.193,3.851-.389,7.819-.573,11.553l-.011.225c-.318,6.436-.647,13.092-.984,19.635,3.095-.455,6.228-.978,9.258-1.484,4.847-.809,9.855-1.645,14.825-2.224,8.617-1,17.44-1.476,25.973-1.934l2.9-.156c14.673-.8,29.6-1.278,44.042-1.741h.023l.336-.011c3.722-.12,7.572-.243,11.355-.37,38.672-1.3,77.991-2.264,116.016-3.2l.1,0c27.852-.682,56.653-1.388,84.973-2.221,33.347-.981,67.168-2.067,100.523-3.227,16.888-.588,33.964-1.205,50.754-1.834,7.922-.3,16.292-.617,24.877-.95,1.452-.056,2.93-.129,4.359-.2,2.81-.138,5.717-.282,8.575-.308h.191a19.207,19.207,0,0,1,9.077,2.259c-1.126-15.619-2.031-31.525-2.907-46.906l-.017-.3c-.3-5.265-.61-10.709-.924-16.055q-.686-11.694-1.377-23.388l0-.062v-.019c-1.356-23-2.759-46.785-4.082-70.181a11.442,11.442,0,0,1-3.562.576,11.277,11.277,0,0,1-2.971-.4c-24.669,1.075-49.263,1.164-74.387,1.164H570.638c-4.572,0-10.591,0-16.6.023-10.221.035-20.261.053-29.843.053-61.043,0-114.6-.727-163.742-2.224-36.351-1.107-68.326-2.433-97.75-4.055-14.33-.791-31.223-1.836-47.859-3.591l-.684-.072c-8.076-.852-16.427-1.732-24.612-2.891-.916-.13-1.869-.26-2.71-.376-3.885-.533-7.9-1.084-11.766-1.935-.077,2.113-.168,4.6-.25,7.023-.624,18.46-1.349,38.056-2.217,59.909,12.929-.328,26.015-.682,38.669-1.024,19.96-.54,40.6-1.1,60.935-1.564,55.262-1.263,111.393-2.187,165.675-3.081l2.665-.044q12.558-.207,25.116-.415c32.453-.542,65.327-1.251,97.709-2.11,15.842-.419,31.941-.884,47.849-1.381,4.958-.156,9.983-.317,14.844-.473l.594-.019q5.239-.168,10.478-.335l3.321-.1.1,0c2.8-.086,5.693-.174,8.538-.281.244-.009.543-.032.941-.071a5.906,5.906,0,0,1,2.538-3.463,8,8,0,0,1,4.367-1.2,10.455,10.455,0,0,1,3.514.622,8.233,8.233,0,0,1,5.748,7.359,10.51,10.51,0,0,1-1.282,5.7,10.642,10.642,0,0,1-4.369,4.345c-3.576,1.891-7.763,2.044-11.457,2.178-3.859.139-7.783.26-11.579.377l-.129,0L637,554.3l-3.846.119c-10.634.334-21.375.615-30.851.864h-.05c-79.506,2.075-145.995,3.042-209.246,3.042-3.3,0-6.7,0-10.107-.009-62.14-.105-128.993-2.218-210.39-6.648-.8,19.87-1.569,37.9-2.364,55.105,33.567-2.524,66.659-3.883,106.018-5.147,13.175-.423,26.564-.925,39.512-1.409l.043,0c19.7-.737,40.068-1.5,60.115-2,25.354-.637,51.112-1.008,76.023-1.367,6.7-.1,14.3-.206,21.654-.318,33.848-.515,67.907-.972,99.67-1.39l44.258-.582,5.577-.073,15.438-.2,10.476-.138c1.312-.017,2.655-.072,3.955-.125,1.6-.065,3.263-.133,4.885-.133,1.145,0,2.166.033,3.121.1,4.158.3,6.894,2.434,9.559,4.787a4.663,4.663,0,0,1,1.468,3.466,4.987,4.987,0,0,1-1.468,3.693c-3.724,3.452-6.747,4.746-11.553,4.946-2.788.115-5.587.125-8.215.125h-1.587c-1.475,0-2.8,0-4.151.014l-27.907.281-18.674.188-37.141.374c-9.577.1-19.32.2-28.742.3l-.671.007h-.037c-50.407.525-102.53,1.067-153.79,1.067-4.717,0-9.463,0-14.107-.014-19.635-.038-39.579-.346-58.867-.643-13.364-.206-27.182-.419-40.8-.541-36.824-.328-66.753-1.149-94.186-2.584h0Zm50.809-135.483c18.068,0,36.255.361,53.843.709,13.468.268,26.979.549,40.046.822,50.306,1.049,102.325,2.133,153.5,2.461,14.308.092,28.829.138,43.161.138,18.117,0,36.5-.074,54.637-.221,13.352-.108,26.933-.4,40.067-.69,16.568-.361,33.7-.734,50.549-.734,2.428,0,4.84.008,7.171.023.319,0,.646.021.971.053-.723-13.192-1.341-24.894-1.89-35.773-1.357-26.89-2.258-51.254-2.755-74.485l-.092-4.3L660,360.187c-14.187.547-28.606,1.426-42.551,2.277h-.017c-7.729.471-15.72.959-23.594,1.385-30.159,1.63-60.906,2.1-90.641,2.547-10.533.16-21.419.325-32.136.54L348.279,369.4l-1.519.03h-.009c-40.065.8-81.494,1.636-122.248,2.157-5.389.069-10.879.155-16.189.238l-.164,0c-11.365.178-23.117.361-34.706.4a267.589,267.589,0,0,1,3.183,35.34c.055,2.856.089,5.92.1,9.367,21.249-1.031,43.555-1.553,66.3-1.553,12.344,0,25.162.153,38.1.456,60.858,1.426,125.575,2.872,188.911,3.519,24.838.254,50.027.383,74.868.383,6.154,0,12.419-.008,18.621-.024,15.846-.04,31.908-.134,47.74-.278,8.1-.073,16.135-.159,23.869-.256,1.156-.014,2.295-.053,3.4-.091h.011c1.37-.047,2.664-.091,3.958-.091a25.479,25.479,0,0,1,7.261.845,15.545,15.545,0,0,1,6.59,3.849,4.482,4.482,0,0,1,1.346,3.2,4.817,4.817,0,0,1-1.346,3.428,15.645,15.645,0,0,1-5.082,3.652,17.319,17.319,0,0,1-6.189,1.2c-2.871.121-5.736.131-8.663.131h-.756c-1.477,0-3.005,0-4.5.014-8.829.083-17.529.149-25.858.2-14.209.084-28.616.127-42.82.127-3.54,0-7.2,0-10.889-.008-62.982-.092-126.554-1.072-188.949-2.912-29.687-.876-61.522-1.973-93.181-4.05-34.315-2.251-64.645-5.413-92.725-9.665.022,18.128-.668,36.562-1.335,54.388l-.076,2.025c4.381-.529,8.886-.682,13.243-.831h.019c1.42-.048,2.889-.1,4.327-.161C202.333,474.015,211.9,473.959,220.826,473.959ZM710.9,359.013c-7.028.2-14.179.319-21.094.437h-.007c-5.387.092-10.957.187-16.488.318.612,5.571,1.072,9.785,1.49,13.661,3.538-4.047,9.817-6.164,15.357-8.032,1.148-.387,2.232-.753,3.264-1.126a171.013,171.013,0,0,1,17.478-5.258h0ZM35.313,304.473h0c-.06.23-.124.464-.186.69l0,.008c-.084.305-.171.621-.25.935-1.883,7.553-.167,12.928,5.564,17.428,4.3,3.379,9.473,5.811,14.472,8.162,1.274.6,2.592,1.219,3.871,1.845L75,341.472l.33.161c10.12,4.949,20.584,10.067,30.871,15.1,4.336,2.123,8.653,4.253,11.93,5.872,12.78-1.427,26.472-2.514,41.86-3.322-.226-4.474-.514-8.42-.882-12.064a63.893,63.893,0,0,1-.451-7.517,22.544,22.544,0,0,1,1.245-7.344.389.389,0,0,1,.361-.27.4.4,0,0,1,.266.1c4.443,3.853,6.2,9.367,7.883,15.648.925,3.456,1.8,7.13,2.6,10.921,14.677-.625,29.6-1,44.032-1.362l.1,0c7.657-.192,15.574-.39,23.339-.624,58.806-1.771,118.593-3.055,176.411-4.3l.318-.007c23.214-.5,47.218-1.014,70.822-1.555,5.211-.119,10.511-.244,15.636-.366l.15,0c29.114-.688,59.219-1.4,88.843-1.4,6.56,0,13,.035,19.146.1,5.846.066,11.785.154,17.528.24,10.643.159,21.648.323,32.473.35-.122-8.187-.119-14.462.006-20.345.051-2.376.059-4.8.068-7.15.02-5.362.04-10.9.544-16.29-32.121-.877-64.28-1.768-95.583-2.646-75.077-2.109-155.851-4.06-237.827-4.06-9.285,0-18.589.026-27.653.077-47.292.267-93.825,1.256-133.106,2.188-13.3.316-26.794.72-39.841,1.11H126.4c-28.687.859-58.351,1.746-87.564,1.747-1.152,0-2.337,0-3.522,0ZM723.5,348.807h0c3.563,0,6.859.036,10.079.11a4.36,4.36,0,0,1,3.466,1.625,4.733,4.733,0,0,1,.766,3.972l.211-.02.447-.039c-6.189-27.054-11.617-48.991-17.086-69.036-4.845-17.757-10.085-36.671-16.186-55.524a476.74,476.74,0,0,0-20.805-54.1,7.18,7.18,0,0,1-1.263,5.91,5.906,5.906,0,0,1-4.762,2.187c-10.756.07-21.716.227-32.315.379-14.454.207-29.4.42-44.113.42-14.03,0-26.411-.2-37.853-.6-13.518-.476-25.853-1.238-37.711-2.329a162.007,162.007,0,0,1-35.344,14.165,206.923,206.923,0,0,1-37.643,6.506c-7.136.587-14.45.885-21.738.885a277.978,277.978,0,0,1-37.092-2.506,274.426,274.426,0,0,1-36.26-7.4A213.69,213.69,0,0,1,317.561,177.6a4.04,4.04,0,0,1-2.108,1.4,46.687,46.687,0,0,1-11.613,1.1c-1.161.013-2.362.026-3.536.067l-13.954.478-27.146.93-1.755.06c-19.727.676-39.373,1.281-57.805,1.842-23.282.709-48.057,1.4-72.473,1.4-13.434,0-25.732-.2-37.6-.62a392.7,392.7,0,0,0-25.926,46.5c10.43.37,21.021.991,31.264,1.591h.006c11.4.668,23.194,1.359,34.806,1.707,9.964.3,20.353.451,30.876.451,11.95,0,24.553-.2,37.46-.583,38.225-1.144,77.052-3.023,114.6-4.839,43.588-2.109,88.661-4.29,133.045-5.333,40.963-.964,82.509-1.455,123.484-1.461h.751c21.864,0,42.141.12,61.989.368,10.343.129,20.729.289,30.87.474,5.8.107,11.493.22,16.927.337,5.25.114,8.989,1.341,13.673,3.422a4.179,4.179,0,0,1,2.661,4.094,6.515,6.515,0,0,1-1.165,3.442,6.177,6.177,0,0,1-2.784,2.315l-.4.157c-3.132,1.223-5.606,2.189-9,2.292-.42.013-.851.019-1.317.019-1.309,0-2.644-.051-3.935-.1h-.015c-.838-.032-1.787-.069-2.7-.088-6.114-.125-12.145-.239-17.924-.338-10.885-.186-22.285-.346-34.852-.487-19.692-.222-39.651-.334-59.323-.334-3.43,0-6.926,0-10.391.01-39.5.076-80.315.673-124.768,1.823-38.084.986-78.877,2.385-124.71,4.278q-4.976.206-9.952.414l-.079,0c-29.9,1.25-60.825,2.543-91.251,2.543h-.031c-6.857,0-13.6-.066-20.031-.2-21.247-.434-41.92-1.584-61.444-3.419-10.906-1.024-20.408-2.2-29.048-3.589a252.162,252.162,0,0,1-28.6-6.174c-4.3,9.232-8.395,18.837-12.168,28.547-.536,1.379-1.087,2.79-1.62,4.154l-.118.3c-4.3,11.01-8.747,22.392-12.026,33.83,22.071-3.781,45.669-6.774,72.14-9.15,26.249-2.357,52.583-3.837,72.592-4.863,23.583-1.21,47.662-2.068,73.614-2.624,23.179-.5,47.286-.738,73.7-.738,41.28,0,82.091.6,120.045,1.241,86.989,1.476,175.4,4.184,260.9,6.8l6,.184a7.745,7.745,0,0,1,5.949,2.781,8.823,8.823,0,0,1,1.922,5.749,8.338,8.338,0,0,1-1.946,5.375,7.256,7.256,0,0,1-5.66,2.411c-.087,0-.176,0-.265,0-12.815-.339-25.844-.693-38.445-1.037l-.2-.005-3.9-.106-6.016-.164c.3,2.067.547,4.129.809,6.311l.045.371.082.68c.4,3.312.84,6.665,1.265,9.908.469,3.582.955,7.287,1.392,10.966.6,5.089,1.184,10.252,1.746,15.245l.011.1c7.662-.071,15.461-.283,23-.489h.031C704.5,349.068,714.081,348.807,723.5,348.807ZM125.9,138.471c-6.327,6.529-12.512,13.57-18.383,20.927-5.668,7.1-11.195,14.691-16.426,22.553,39.621-3.794,78.827-5.876,108.557-7.266,21.825-1.019,40.176-1.862,58.8-2.661,8.653-.372,17.52-.753,27.905-1.2,2.6-.112,5.238-.33,8.03-.56,3.017-.249,6.135-.506,9.2-.618a177.822,177.822,0,0,1-25.347-19.132,131.249,131.249,0,0,1-13.709-14.563,8.172,8.172,0,0,1-1.786,6.265,7.68,7.68,0,0,1-5.7,2.629c-6.493.289-13.329.429-20.9.429-12.917,0-26.045-.418-38.74-.821-2.907-.093-5.529-.176-8.174-.256-9.959-.3-20.066-.787-29.84-1.255l-4.066-.194q-1.279-.061-2.558-.118h-.015c-4.716-.215-9.592-.438-14.38-.907-.7-.069-1.426-.131-2.123-.191h-.01c-1.915-.165-3.891-.335-5.8-.669a6.808,6.808,0,0,1-3.722-1.757C126.457,138.9,126.2,138.7,125.9,138.471Z" transform="translate(30 3.001)"/>
  </g>
</svg>
