<svg xmlns="http://www.w3.org/2000/svg" width="818" height="747.032" viewBox="0 0 818 747.032">
  <g id="body_Sweater_Dots" data-name="body/Sweater Dots" transform="translate(0 14)">
    <path id="_Skin" data-name="âœ‹ Skin" d="M222.682,85.25C204.16,71.768,194.975,49.7,188.065,45.939c-5.085-2.764-4.992-21.838-15.184-28.589C159.2,8.291,115.622,1.555,99.766.3,84.547-.914,58.076,1.626,43.8,7.2,19.984,16.493,10.487,34.22,0,57.059,0,57.059,235.407,94.512,222.682,85.25Z" transform="translate(359.29 -14)" fill="#d08b5b"/>
    <path id="_Top" data-name="ðŸ‘• Top" d="M194.545,0H570.908L701.179,115.891,759,603l-82.242,25.609L168.6,637.1,9.9,592.232,0,253.165Z" transform="translate(42 87)" fill="#78e185"/>
    <path id="_Ink" data-name="ðŸ– Ink" d="M460.823,724.153h0c-34.1,0-67.453-1.34-104.4-2.958-16.164-.7-29.545-1.759-42.11-3.33a182.262,182.262,0,0,0-22.267-1.736,81.437,81.437,0,0,0-16.394,1.555c-.952.194-1.9.391-2.957.61a121.183,121.183,0,0,1-18.743,2.879c-.886.044-1.81.066-2.746.066a122.141,122.141,0,0,1-14.7-1.194l-1.908-.232c-6.943-.845-14.533-1.533-23.885-2.165a299.089,299.089,0,0,1-9.764-37.4c-2.338-11.894-4.169-24.408-5.6-38.256-2.649-25.708-3.456-52.107-4.236-77.637v-.015c-.393-12.852-.8-26.141-1.436-39.095a3.866,3.866,0,0,0-1.395-2.889,4.414,4.414,0,0,0-2.8-.965,3.969,3.969,0,0,0-2.885,1.144,3.564,3.564,0,0,0-.917,2.71c.642,13.061,1.053,26.463,1.45,39.423.778,25.37,1.582,51.6,4.154,77.169,1.385,13.771,3.156,26.218,5.413,38.051a307.112,307.112,0,0,0,9.411,37.222c-2.774-.166-5.528-.323-8.111-.47-12.01-.685-24.23-1.3-36.047-1.892l-.059,0h-.012c-15.581-.782-31.692-1.592-47.522-2.574-2.748-.17-5.592-.34-8.1-.49h-.008c-11.178-.669-22.736-1.361-34.081-2.419-2.688-.25-5.6-.367-9.15-.367-2.25,0-4.541.046-6.755.091h-.024l-.1,0H52.12c-2.185.044-4.445.089-6.66.089-.449,0-.893,0-1.319-.006a25.152,25.152,0,0,1-1.71,3.94,9.3,9.3,0,0,1-8.19,4.443,7.865,7.865,0,0,1-7.471-4.443c-3.46-7.6-6.42-14.713-9.049-21.74A285.472,285.472,0,0,1,4.87,645.649,265.42,265.42,0,0,1,.021,598.525c-.149-12.834.554-25.88,1.234-38.5v-.008c.184-3.424.375-6.965.546-10.445l.1-2.05c.773-15.555,1.573-31.639,2.6-47.451.955-14.731,1.565-29.725,2.156-44.225.733-18.008,1.491-36.625,2.915-54.9,1.242-16.008,3.222-31.777,5.885-46.87a428.985,428.985,0,0,1,10.715-46,440.878,440.878,0,0,1,16.2-45.21c5.32-12.792,11.639-26.691,19.886-43.74l1.428-2.953.023-.047c6.141-12.706,12.491-25.845,19.754-38.168a204.337,204.337,0,0,1,11.756-17.9,146.9,146.9,0,0,1,13.95-16.353,155.074,155.074,0,0,1,33.98-25.52,74.881,74.881,0,0,0,7.54-4.646,25.1,25.1,0,0,0,6.191-6.243c.953-1.4,1.877-2.874,2.77-4.3a57.648,57.648,0,0,1,7.73-10.455,25.37,25.37,0,0,1,8.5-5.609,39.185,39.185,0,0,1,9.936-2.422,21.528,21.528,0,0,0,7.321-2.1,23.442,23.442,0,0,0,6.009-4.676c.725-.739,1.454-1.5,2.159-2.231l.006-.006c3.376-3.511,6.867-7.142,11.085-9.863,6.32-4.075,13.716-5.222,20.869-6.331,28.01-4.344,54.84-16.075,80.786-27.419,2.555-1.117,5.2-2.272,7.8-3.4a43.358,43.358,0,0,1,11.389-3.6,20.756,20.756,0,0,1,2.958-.181c.685,0,1.375.02,2.042.039s1.364.039,2.045.039a21.106,21.106,0,0,0,2.595-.138c3.519-.437,5.454-4.382,7.16-7.864a31.976,31.976,0,0,1,1.89-3.506,17.813,17.813,0,0,1,4.88-4.72c1.891-3.12,5.226-4.79,8.549-6.13A33.232,33.232,0,0,1,377.315,0c4.187,0,9.814,1.068,12.847,6.155a7.636,7.636,0,0,1,.46.9c6.931,1.484,13.945,3.121,20.729,4.705,15.495,3.618,31.517,7.358,47.611,9.515a302.932,302.932,0,0,0,39.05,2.62h.943c6.423,0,12.835-.2,19.057-.592,1.324-.082,2.723-.256,4.077-.424a48.927,48.927,0,0,1,5.936-.5h.067a20.029,20.029,0,0,1,6.7-7.855,17.113,17.113,0,0,1,9.7-3.2,14.349,14.349,0,0,1,8.037,2.457c3.119,2.059,5.327,5.515,6.561,10.271a28.394,28.394,0,0,1,5.749,8.969c1.422,3.465,2.528,7.183,3.6,10.778.408,1.374.831,2.794,1.263,4.172.22.708.43,1.448.652,2.232,1.022,3.608,2.181,7.7,4.837,10.108,2.566,2.322,6.463,2.639,10.231,2.946a29.089,29.089,0,0,1,6.431.984c5.549,1.791,10.591,4.972,15.467,8.048l.639.4a61.047,61.047,0,0,0-7.329,2.93,26.344,26.344,0,0,0-6.509,4.42,3.517,3.517,0,0,0-.968,4,4.455,4.455,0,0,0,3.959,2.773,3.854,3.854,0,0,0,2.665-1.12c3.084-2.911,7.2-4.272,11.173-5.588l.034-.011.852-.283a3.844,3.844,0,0,0,2.678-3.048c9.193,5.7,19.616,12.153,33.8,20.934A363.59,363.59,0,0,1,679.269,118.8a200.814,200.814,0,0,1,27.553,25.325c17.649,19.758,29.99,40.332,36.68,61.15a112.366,112.366,0,0,1,4.209,18.09c.285,1.925.495,3.9.7,5.816a70.339,70.339,0,0,0,1.9,11.664,49.679,49.679,0,0,0,4.616,10.232c1.048,1.921,2.131,3.906,3.034,5.928a52.8,52.8,0,0,1,4.149,17.65c.745,8.975,1.086,18.149,1.415,27.021.175,4.716.356,9.592.6,14.379.073,1.46.117,2.961.161,4.412.164,5.462.333,11.11,1.939,16.3a48.674,48.674,0,0,0,3.981,8.649,65.945,65.945,0,0,1,3.158,6.362,33.079,33.079,0,0,1,2.089,7.525,42.2,42.2,0,0,1,.463,7.564,110.37,110.37,0,0,1-1.793,15.247c-.259,1.57-.526,3.193-.768,4.794a47.431,47.431,0,0,0-.607,8.57,28.537,28.537,0,0,0,1.477,8.42c.815,2.391,1.849,4.741,2.849,7.013a74.864,74.864,0,0,1,3.271,8.326,36,36,0,0,1,1.345,12.633,102.807,102.807,0,0,1-1.73,12.418,99.294,99.294,0,0,0-1.805,13.489c-.465,11.157,1.5,22.375,3.406,33.223l.006.035c.348,1.985.708,4.038,1.046,6.052,4.752,28.268,8.835,53.835,10.67,80.471.88,12.745,1.325,25.552,1.324,38.064,0,12.738-.465,25.54-1.378,38.051a3.713,3.713,0,0,0-2.743-1.1c-4.637,0-9.546.182-14.116,2.275a3.332,3.332,0,0,0-1.744,2.094,4.315,4.315,0,0,0,.309,3.379,3.755,3.755,0,0,0,3.364,1.913,5.115,5.115,0,0,0,2.108-.478c2.4-1.1,5.269-1.193,7.769-1.193.394,0,.78,0,1.154.005h.122c.357,0,.694,0,1.033,0a3.61,3.61,0,0,0,3.4-2.035c.1.247.188.49.276.725l.005.015a20.723,20.723,0,0,0,1.208,2.751c.723,1.354,1.53,2.685,2.311,3.973l0,.006a37.546,37.546,0,0,1,4.5,9.261,19.078,19.078,0,0,1,.58,7.732,16.912,16.912,0,0,1-2.72,7.228,18.1,18.1,0,0,1-7.677,6.38,40.456,40.456,0,0,1-9.693,2.81c-23.972,4.391-49.008,7.3-71.1,9.874-2.6-17.668-4.9-37-7.048-59.086-1.98-20.385-3.634-41.059-5.093-59.3a3.98,3.98,0,0,0-1.485-2.877,4.555,4.555,0,0,0-2.835-.962,3.853,3.853,0,0,0-2.849,1.14,3.455,3.455,0,0,0-.832,2.7c1.626,20.319,3.244,40.178,5.154,59.758,2.167,22.211,4.487,41.689,7.092,59.547-3.331.389-8.349.977-13.448,1.595-3.264.395-6.621.868-9.867,1.326l-.016,0c-8.758,1.235-17.812,2.512-26.671,2.512-1.806,0-3.578-.054-5.268-.16a141.806,141.806,0,0,1-15.08-2.027c-6.078-1.042-12.362-2.119-18.7-2.119a50.644,50.644,0,0,0-6.2.365c-7.18.88-14.445,2.126-21.47,3.331l-.01,0c-6.621,1.135-13.467,2.309-20.239,3.177-12.987,1.668-26.714,2.991-40.8,3.93C505.718,723.5,484.424,724.153,460.823,724.153ZM304.96,668.17a4.638,4.638,0,0,0-2.063.5l-.823.41a34.677,34.677,0,0,0-8.627,5.4,3.522,3.522,0,0,0-.965,4.006,4.454,4.454,0,0,0,3.956,2.772,3.852,3.852,0,0,0,2.666-1.121,24.325,24.325,0,0,1,6.274-3.8l.026-.013c.531-.254,1.033-.495,1.53-.743a3.541,3.541,0,0,0,1.774-2.215,4.193,4.193,0,0,0-.337-3.257A3.851,3.851,0,0,0,304.96,668.17Zm103.389-3.587a3.264,3.264,0,0,0-2.379,1.011,4.489,4.489,0,0,0-.738,5.038,3.916,3.916,0,0,0,2.3,1.889c5.468,1.82,10.854,3.464,16.615,3.6h.114a3.681,3.681,0,0,0,3.748-3.856,4.306,4.306,0,0,0-.948-2.807,3.77,3.77,0,0,0-2.914-1.338c-4.88-.114-9.562-1.673-14.09-3.181l-.4-.132A4.154,4.154,0,0,0,408.35,664.583ZM76.964,633.557c-.048,0-.1,0-.144,0a4.053,4.053,0,0,0-3.938,3.521,4.458,4.458,0,0,0-2.508,1.313,3.574,3.574,0,0,0-1.01,2.622,4.455,4.455,0,0,0,1.153,2.773,3.668,3.668,0,0,0,2.713,1.229l.134,0a7.774,7.774,0,0,0,7.456-7.456,4.042,4.042,0,0,0-3.856-4Zm468.223-12.094h-.08a85.754,85.754,0,0,0-9.5.864,85.741,85.741,0,0,1-9.5.864,3.742,3.742,0,0,0-2.909,1.313,4.281,4.281,0,0,0-.954,2.792,3.708,3.708,0,0,0,3.783,3.9h.08a85.713,85.713,0,0,0,9.5-.864,85.751,85.751,0,0,1,9.5-.864,3.743,3.743,0,0,0,2.909-1.313,4.284,4.284,0,0,0,.954-2.792A3.707,3.707,0,0,0,545.188,621.464Zm186.374-39.746a3.512,3.512,0,0,0-2.741,1.171,4.075,4.075,0,0,0-.947,2.615,4.359,4.359,0,0,0,.939,2.834,3.81,3.81,0,0,0,2.92,1.383c2.756.1,5.28,1.367,7.721,2.6l.627.315a4.16,4.16,0,0,0,1.865.46,4.41,4.41,0,0,0,4.1-3.414,3.368,3.368,0,0,0-1.927-3.955c-4.206-2.1-8.041-3.85-12.387-4C731.674,581.718,731.618,581.717,731.562,581.717ZM455.141,567.9a3.683,3.683,0,0,0-3.751,3.86,4.305,4.305,0,0,0,.948,2.805,3.768,3.768,0,0,0,2.914,1.336,5.618,5.618,0,0,1,5.185,3.2,3.481,3.481,0,0,0,3.138,1.992,4.518,4.518,0,0,0,3.732-2.161,3.8,3.8,0,0,0,.039-3.867,13.787,13.787,0,0,0-12.094-7.166Zm-166.852,6.852a4.387,4.387,0,0,0,2.889,1.114,3.852,3.852,0,0,0,2.743-1.136,4.18,4.18,0,0,0,1.155-3.038,3.584,3.584,0,0,0-1.155-2.618c-3.25-2.895-7.616-2.9-11.469-2.9a3.685,3.685,0,0,0-2.9,1.25,4.206,4.206,0,0,0-.966,2.749,3.776,3.776,0,0,0,3.864,4c.271,0,.537,0,.854-.005h.036c.26,0,.528,0,.8,0a18.467,18.467,0,0,1,2.464.132,7.826,7.826,0,0,1,1.028.2,3.429,3.429,0,0,1,.39.162,1.525,1.525,0,0,0,.269.11s.006,0,.007,0,0-.008-.007-.015Zm370.744-58.493a3.973,3.973,0,0,0-3.332,1.784,19.468,19.468,0,0,1-5.787,5.455,27.168,27.168,0,0,1-7.374,3.075,3.683,3.683,0,0,0-2.8,4.22,3.981,3.981,0,0,0,3.807,3.646,4.376,4.376,0,0,0,1.119-.152,30.65,30.65,0,0,0,17.942-12.206,3.327,3.327,0,0,0,.342-3.563A4.538,4.538,0,0,0,659.033,516.254Zm-530.239,6.712-.134,0a7.776,7.776,0,0,0-7.457,7.456,4.046,4.046,0,0,0,3.857,4c.048,0,.1,0,.144,0a4.054,4.054,0,0,0,3.939-3.52,4.457,4.457,0,0,0,2.506-1.313,3.572,3.572,0,0,0,1.01-2.622,4.454,4.454,0,0,0-1.152-2.774A3.667,3.667,0,0,0,128.794,522.966Zm259.227-31.078a4.049,4.049,0,0,0-2.358.794,4.546,4.546,0,0,0-1.556,1.951,3.58,3.58,0,0,0,.924,4.06c4.266,4.149,8.583,6.228,13.2,6.356l.136,0a3.549,3.549,0,0,0,2.774-1.186,4.1,4.1,0,0,0,.952-2.642,4.327,4.327,0,0,0-.944-2.818,3.787,3.787,0,0,0-2.917-1.356c-3.094-.085-5.547-2.076-7.539-4.011A3.8,3.8,0,0,0,388.022,491.888Zm174.516-3.483c-.049,0-.1,0-.15,0a4.3,4.3,0,0,0-2.813,1.2,3.883,3.883,0,0,0-1.188,2.8c0,.049,0,.1,0,.148v.076a3.748,3.748,0,0,0-1.726,3.233,4.459,4.459,0,0,0,1.152,2.772,3.66,3.66,0,0,0,2.709,1.231l.139,0a5.48,5.48,0,0,0,5.088-3.331,10.516,10.516,0,0,0,.641-4.125,4.105,4.105,0,0,0-1.139-2.768A3.772,3.772,0,0,0,562.538,488.405ZM216.787,465.943h0a4.155,4.155,0,0,0-2.928,1.3,3.67,3.67,0,0,0-1.071,2.7,4.3,4.3,0,0,0,1.2,2.813,3.88,3.88,0,0,0,2.8,1.187h.223a3.727,3.727,0,0,0,3.075,1.729c.052,0,.105,0,.158,0a4.446,4.446,0,0,0,2.819-1.195,3.639,3.639,0,0,0,1.181-2.8,5.477,5.477,0,0,0-3.331-5.087,10.527,10.527,0,0,0-4.125-.642Zm473.954-37.964a4.662,4.662,0,0,0-3.5,1.638,3.971,3.971,0,0,0-.839,3.375c1.521,8.183,1.521,15.4,0,22.066a3.846,3.846,0,0,0,.706,3.345,4.548,4.548,0,0,0,3.49,1.647,3.454,3.454,0,0,0,3.518-2.866c1.814-7.948,1.814-16.557,0-26.319A3.278,3.278,0,0,0,690.741,427.979ZM69.9,448.663h0a3.68,3.68,0,0,0-2.894,1.25,4.206,4.206,0,0,0-.966,2.749,3.777,3.777,0,0,0,3.863,4H70.2c2.715,0,5.523,0,8.057,1.182a4.984,4.984,0,0,0,2.083.474,3.823,3.823,0,0,0,3.389-1.909,4.308,4.308,0,0,0,.313-3.361,3.365,3.365,0,0,0-1.748-2.112,22.953,22.953,0,0,0-6.057-1.832,39.1,39.1,0,0,0-6.331-.442Zm217.732-20.6a3.778,3.778,0,0,0-4,3.864c0,2.613,0,4.19-1.182,6.621a4.588,4.588,0,0,0-.372,3.034,3.764,3.764,0,0,0,1.808,2.439,3.983,3.983,0,0,0,2.014.518,3.781,3.781,0,0,0,3.458-1.953,23.011,23.011,0,0,0,2.273-10.659,3.681,3.681,0,0,0-1.248-2.9A4.2,4.2,0,0,0,287.637,428.065ZM565.771,405.54a3.767,3.767,0,0,0-3.381,1.906,4.318,4.318,0,0,0-.308,3.383,3.326,3.326,0,0,0,1.742,2.09,19.092,19.092,0,0,0,16.134,0,3.33,3.33,0,0,0,1.744-2.092,4.316,4.316,0,0,0-.308-3.381,3.756,3.756,0,0,0-3.363-1.913,5.122,5.122,0,0,0-2.109.478,10.426,10.426,0,0,1-8.06,0A5.073,5.073,0,0,0,565.771,405.54ZM451.732,393.4a3.88,3.88,0,0,0-2.764,1.143l-5.185,5.184a4.094,4.094,0,0,0-1.152,2.983,3.679,3.679,0,0,0,1.152,2.673,4.275,4.275,0,0,0,2.892,1.143,3.883,3.883,0,0,0,2.765-1.143l5.184-5.183a4.1,4.1,0,0,0,1.152-2.984,3.679,3.679,0,0,0-1.152-2.672A4.274,4.274,0,0,0,451.732,393.4Zm284.185-17.3a4.308,4.308,0,0,0,2.795,1.046,3.878,3.878,0,0,0,2.76-1.137,4.162,4.162,0,0,0,1.153-3,3.656,3.656,0,0,0-1.153-2.658c-2.8-2.55-6.5-2.9-9.741-2.9a4,4,0,1,0,0,8c.415,0,.861,0,1.317.018.076,0,.239.015.444.031.249.019.531.04.624.04.031,0,.032,0,.032,0,.416.074.814.174,1.235.279l.02.005.1.025.015,0,.026.006a.434.434,0,0,0,.082.052,3.491,3.491,0,0,1,.358.267c.038.031.051.041.052.042s-.022-.022-.125-.115Zm-80.066-24.115a4.409,4.409,0,0,0-4.1,3.413,3.37,3.37,0,0,0,1.927,3.957l5.183,2.592,5.183,2.592a4.16,4.16,0,0,0,1.868.462,4.408,4.408,0,0,0,4.1-3.412,3.37,3.37,0,0,0-1.926-3.957l-10.368-5.185A4.155,4.155,0,0,0,655.851,351.982ZM180.5,329.569a3.777,3.777,0,0,0-4,3.864c0,5.141-.124,9.779-1.585,14.489a3.565,3.565,0,0,0,.457,3.26,4.359,4.359,0,0,0,3.482,1.659,3.8,3.8,0,0,0,3.777-2.792c1.72-5.553,1.867-11.253,1.869-16.616a3.682,3.682,0,0,0-1.249-2.9A4.205,4.205,0,0,0,180.5,329.569ZM308.372,313.88a3.684,3.684,0,0,0-2.9,1.251,4.209,4.209,0,0,0-.966,2.752,3.774,3.774,0,0,0,3.864,4h8.64a3.684,3.684,0,0,0,2.9-1.251,4.209,4.209,0,0,0,.966-2.752,3.774,3.774,0,0,0-3.864-4ZM101.263,293.062a4.161,4.161,0,0,0-1.314.226c-5.205,1.738-11.105,3.708-15.589,7.942a3.518,3.518,0,0,0-.968,4,4.455,4.455,0,0,0,3.958,2.773,3.855,3.855,0,0,0,2.666-1.12c3.084-2.912,7.2-4.273,11.176-5.589l.882-.293a3.918,3.918,0,0,0,2.3-1.9,4.495,4.495,0,0,0-.737-5.039A3.255,3.255,0,0,0,101.263,293.062Zm308.943-11.873a4.05,4.05,0,0,0-2.91,1.147,3.637,3.637,0,0,0-.973,2.714,17.365,17.365,0,0,0,4.629,11.469,3.628,3.628,0,0,0,2.658,1.232,4.328,4.328,0,0,0,3.787-2.662,3.766,3.766,0,0,0-.789-4.227,9.3,9.3,0,0,1-2.285-5.812,3.79,3.79,0,0,0-1.335-2.894A4.327,4.327,0,0,0,410.206,281.189Zm167.711,1.6a3.793,3.793,0,0,0-2.807,1.157,4.226,4.226,0,0,0-1.138,2.831,4.077,4.077,0,0,0,1.138,2.825c.075.079.173.182.22.222.133.193.252.379.354.553.176.3.336.622.49.93.061.122.123.244.185.366a13.387,13.387,0,0,0,2.209,3.114,3.917,3.917,0,0,0,2.852,1.157,3.787,3.787,0,0,0,2.8-1.157,4.223,4.223,0,0,0,1.139-2.831,4.075,4.075,0,0,0-1.139-2.825c-.087-.092-.175-.185-.218-.222-.137-.2-.253-.379-.354-.552-.179-.308-.34-.628-.5-.938l-.012-.025c-.056-.111-.112-.222-.169-.333a13.373,13.373,0,0,0-2.208-3.114A3.914,3.914,0,0,0,577.917,282.792Zm-319.39-39.85a4.141,4.141,0,0,0-1.33.233,63.95,63.95,0,0,0-14.779,7.316,3.976,3.976,0,0,0-1.653,2.127,4.161,4.161,0,0,0,.013,2.445,3.98,3.98,0,0,0,3.606,3.009,3.742,3.742,0,0,0,2.072-.673,55.44,55.44,0,0,1,12.868-6.509,3.938,3.938,0,0,0,2.3-1.916,4.384,4.384,0,0,0,.4-2.716,4.339,4.339,0,0,0-1.136-2.319A3.229,3.229,0,0,0,258.527,242.942Zm371.139-13.733a3.681,3.681,0,0,0-3.748,3.859,4.305,4.305,0,0,0,.948,2.8,3.767,3.767,0,0,0,2.913,1.337,5.623,5.623,0,0,1,5.187,3.2A3.479,3.479,0,0,0,638.1,242.4a4.518,4.518,0,0,0,3.732-2.162,3.8,3.8,0,0,0,.038-3.866,13.783,13.783,0,0,0-12.094-7.165ZM500.01,198.1a3.513,3.513,0,0,0-2.742,1.17,4.074,4.074,0,0,0-.947,2.615,4.358,4.358,0,0,0,.939,2.834,3.813,3.813,0,0,0,2.92,1.383c2.755.1,5.28,1.367,7.722,2.6l.062.031.564.283a4.162,4.162,0,0,0,1.866.46,4.411,4.411,0,0,0,4.1-3.414,3.368,3.368,0,0,0-1.928-3.954c-4.207-2.1-8.043-3.851-12.386-4Zm-282.989-12.17a4.188,4.188,0,0,0-1.3.218c-2.86.935-5.8,1.778-8.642,2.593l-.007,0c-2.839.814-5.775,1.656-8.632,2.59a3.9,3.9,0,0,0-2.3,1.871,4.316,4.316,0,0,0-.412,2.687,4.365,4.365,0,0,0,1.145,2.356,3.287,3.287,0,0,0,2.4,1.019,4.181,4.181,0,0,0,1.3-.218c2.863-.936,5.807-1.78,8.654-2.6s5.769-1.654,8.626-2.587a3.9,3.9,0,0,0,2.3-1.872,4.317,4.317,0,0,0,.412-2.688,4.364,4.364,0,0,0-1.145-2.355A3.286,3.286,0,0,0,217.022,185.933Zm117.062,6.34c-.043,0-.065,0-.065.007a3.061,3.061,0,0,0,.5.1c.243.04.518.086.64.12.378.1.76.215,1.129.323l.019.006c.373.109.758.222,1.139.326a23.651,23.651,0,0,0,5.488.856l.138,0a3.544,3.544,0,0,0,2.771-1.185,4.1,4.1,0,0,0,.951-2.64,4.33,4.33,0,0,0-.944-2.819,3.787,3.787,0,0,0-2.917-1.358,18.274,18.274,0,0,1-4.43-.867,19.322,19.322,0,0,0-4.21-.861c-.059,0-.118,0-.176,0a3.683,3.683,0,0,0-2.693,1.244,4.125,4.125,0,0,0-1.131,2.76,3.886,3.886,0,0,0,1.114,2.732,4.328,4.328,0,0,0,2.787,1.261Zm331.981-32.185h0a3.682,3.682,0,0,0-2.9,1.25,4.206,4.206,0,0,0-.966,2.75,3.775,3.775,0,0,0,3.864,4c5.714,0,11.806.127,17.945,1.586a4.442,4.442,0,0,0,1.023.124,3.692,3.692,0,0,0,2.719-1.168,4.546,4.546,0,0,0,1.214-2.61,3.86,3.86,0,0,0-.508-2.486,3.63,3.63,0,0,0-2.321-1.575,86,86,0,0,0-20.072-1.87ZM515.57,110.021a3.838,3.838,0,0,0-2.667,1.129c-2.4,2.28-5.464,3.649-8.432,4.972l-.012.006c-.94.419-1.913.853-2.844,1.308a3.331,3.331,0,0,0-1.941,3.91,4.432,4.432,0,0,0,4.133,3.445,4.186,4.186,0,0,0,1.846-.446c.834-.407,1.682-.8,2.5-1.189l.009,0c3.777-1.769,7.344-3.44,10.393-6.345a3.537,3.537,0,0,0,.955-4.022A4.447,4.447,0,0,0,515.57,110.021Zm-283.092-1.772-.139,0c-4.256.119-8.741,1.391-14.114,4a3.323,3.323,0,0,0-1.947,3.9,4.437,4.437,0,0,0,4.143,3.452,4.2,4.2,0,0,0,1.841-.442,25.116,25.116,0,0,1,10.077-2.911,3.784,3.784,0,0,0,2.916-1.359,4.337,4.337,0,0,0,.945-2.822,4.091,4.091,0,0,0-.95-2.637A3.547,3.547,0,0,0,232.479,108.248Zm115.715-13.8a3.822,3.822,0,0,0-2.535.991,4.6,4.6,0,0,0-1.42,2.3,3.515,3.515,0,0,0,1.859,4.133c3.213,1.744,5.361,5.324,7.2,8.933a3.4,3.4,0,0,0,3.1,2.019,4.533,4.533,0,0,0,3.708-2.147,3.873,3.873,0,0,0,.1-3.909,38.873,38.873,0,0,0-4.2-6.662,19.785,19.785,0,0,0-5.879-5.142A4.05,4.05,0,0,0,348.194,94.451Z" transform="translate(8 8.879)"/>
  </g>
</svg>
