<svg xmlns="http://www.w3.org/2000/svg" width="818" height="765" viewBox="0 0 818 765">
  <g id="body_Button_Shirt_1" data-name="body/Button Shirt 1" transform="translate(0 32)">
    <path id="_Skin" data-name="âœ‹ Skin" d="M47.665,746c130.645,19.844,263.66,20.842,395.39,13.636,52.134-3.9,104.428-4.606,156.52.384,30.781,2.289,165.742,12.6,176.768-14.964-6.94-146.805-21-294.86-64.115-436.05-17.733-50.133-32.964-91.743-67.574-133.229-10.908-11.327-34.432-35.083-47.911-42.831-11.678-6.711-16.559-4.317-23.264-15.653-6.663-12.523-11.578-33.437-21.039-42.273-9.633-9-23.909-5.778-41.6-2.88,3.251-43.931-17.027-55.119-44.963-63.473-49.1-18.741-97.6-9.326-109.96,50.451-22.916,0-35.788,9.862-49.7,19.337-5.689,3.873-1.731,13.742-8.526,16.787-12.572,4.476-34.787,3.38-46.892,8.888C195.745,129.178,146.72,165.5,114.524,218.556,42.344,331.822-7.239,570.418,1.341,704.664c-3.759,5.9,1.439,14.348,2.76,20.687a12.068,12.068,0,0,0,12.706,8.555C24.673,742.365,36.84,744.248,47.665,746Z" transform="translate(30 -32)" fill="#d08b5b"/>
    <path id="_Top" data-name="ðŸ‘• Top" d="M319.465,13.141c8.05-8.4,20.672-13.412,32.625-13.13l.56.017,4.058.182L354,13.513l-.137.631-.553,2.31-.736,3.024-.262,1.112-.276,1.231q-.065.3-.128.593l-.121.582-1.156,5.652.216.5-.062,1.284c-.179,4.643.821,7.194,3.025,8.013l.176.061,1.257.4,1.026,2.226c2.36,5.09,4.562,9.536,6.823,13.724a308.51,308.51,0,0,0,23.53,36.691q12.926,17.488,26.928,33.353c4.2,4.751,8.63,9.521,13.348,14.377l4.062,4.159,1.292,1.307.869.867,1.084,1.061,1.562,1.489,1.132,1.114.367.349a8.375,8.375,0,0,0,1.14.925l.119.074.357.212,18.829,19.8,6.651,3.657,3.158,1.75.64-1.273.129-.409,7-15.369,4.273-9.413c8.771-19.366,15.6-34.772,21.836-49.441l.777-1.83,2.3-5.458,1.218-2.912c5.578-13.367,9.7-23.683,13.386-33.7l.524-1.43.776-2.141,1.154-3.229.21-.552c1-2.564-1.459-11.884-3.882-16.989l-.137-.284-.63-1.265-.682-1.334a46.185,46.185,0,0,1-3.739-10.8q-.237-1.02-.447-2.056l-.2-1.04-.129-.683-.18-.956-.257-1.37,5.423-.906,2.975-.485,1.3-.2c1.681-.26,3.178-.473,4.586-.652l.524-.065.943-.112.034.186,1.935.191,1.437.149A140.023,140.023,0,0,1,547.018,12.7l.382.092.692.175.316.084a14.764,14.764,0,0,1,8.392,6.024,34.828,34.828,0,0,1,3.946,7.827l.543,1.359,1.8,4.456q.316.814.978,2.6l1.53,4.165,7.667,21.172,7.846,4.128c3.647,1.908,6.315,3.284,7.632,3.935l.467.227.334.153,2.7,1.072-.29.844.326.187c32.3,18.581,57.213,47.166,76.607,85.115l.586,1.153.6,1.194c15.457,30.911,26.531,65.406,37.344,111.46l.669,2.863.527,2.277,2.819,12.29c10.592,46.4,17.871,81.006,23.894,114.958l.391,2.213,1,5.768q11.346,65.919,18.966,130.615l.841,7.257c2.115,18.529,4.025,37.682,6.1,60.681l.277,3.09.913,10.331q1.457,16.7,2.663,33.328l.395,5.541.811,12.048.477,6.866.058.929.193,3.578.053.84c.073,1.075.155,1.983.259,2.822l.082.617.092.6a14.824,14.824,0,0,0,1.671,4.748l.226.413,1.5,2.685-2.721,1.434c-14.189,7.475-42.124,10.763-80.447,10.934l-1.164,0h-2.4c-18.622-.011-38.358-.728-58.951-1.956l-4.658-.285-3.887-.248c-1.674-.109-3.3-.219-4.994-.336l-2.593-.182-10.828-.792c-48.708-4.666-99.787-4.588-156.07-.375-146.736,8.027-273.389,4.64-392.43-13.128l-3.605-.543-2.656-.432-1.584-.265c-12.627-2.155-20.555-4.919-26.742-10.716l-.324-.308-.27-.264h-.117A15.118,15.118,0,0,1,1.818,669.912l-.11-.324-.14-.448-.1-.447c-.1-.431-.222-.9-.371-1.408l-.117-.392L0,663.673l3.313-.606a1.417,1.417,0,0,0,.87-.669L4.459,662l.478-.663,1.154-1.582a12.635,12.635,0,0,0,2.134-3.892,14.178,14.178,0,0,0,.336-3.912l-.022-.838-.131-3.039c-.009-.244-.014-.457-.018-.663l0-.306,0-4.278.011-4.7c.008-2.051.019-4.054.035-6.019l.027-2.922.027-2.356q.239-19.54,1.147-39.038,1.775-38.058,6.083-75.946A1145.42,1145.42,0,0,1,43.069,360.371l1.241-4.877c13.354-52.191,26.23-92.427,42.6-129.635,20.814-47.324,46.193-86.272,78.148-117.408a257.279,257.279,0,0,1,57.7-42.654,250.882,250.882,0,0,1,30.453-13.689l1.553-.578,2.507-.916,1.923-.71,6.2-2.316c1.3-.488,2.72-1.034,4.4-1.693l1.038-.409,11.1-4.427,1.843-.725,2.049-.8,1.506-.578c2.463-.939,4.693-1.759,6.763-2.481l1.224-.422,1.11-.374,4.737-1.639-.092,4.309c-.061,2.865.677,5.03,2.316,6.585l.055.049.057.045.051.033.287-.008,1.119-.005a1.951,1.951,0,0,0,.326-.224c1.593-1.353,2.333-3.167,3.052-7.327l.19-1.157.332-2.169.132-.82a23.575,23.575,0,0,1,1.708-6.305,37.128,37.128,0,0,1,4.548-7.563l.426-.541,1.7-2.049.261-.323a5.164,5.164,0,0,0,1.032-1.8l.031-.134.17-.861Z" transform="translate(30 22.952)" fill="#ffcf77"/>
    <path id="_Ink" data-name="ðŸ– Ink" d="M782.534,723.8a7.771,7.771,0,0,1-6.376-3.378l-.779-1.192a22.144,22.144,0,0,1-3.81-8.714,65.288,65.288,0,0,1-.622-7.059c-.052-1.007-.106-2.047-.179-3.06-.248-3.425-.477-6.879-.7-10.219l-.005-.082c-.178-2.673-.361-5.437-.552-8.154-.9-12.842-1.926-25.9-3.054-38.818-3.5-40.042-5.88-61.909-7.563-76.486-5.1-44.224-11.665-89.725-19.5-135.24-7.753-45.035-17.58-89.375-27.044-130.583l-1.03-4.484c-5.261-22.841-10.157-41.271-15.408-58a391.628,391.628,0,0,0-22.349-56.846A268.157,268.157,0,0,0,658.722,155.2a214.591,214.591,0,0,0-17.853-23.953,181.192,181.192,0,0,0-21.291-20.938,166.161,166.161,0,0,0-25.154-17.241.618.618,0,0,1-.331-.72.735.735,0,0,1,1.041-.494,182.9,182.9,0,0,1,51.378,36.454,234.663,234.663,0,0,1,38,50.456c9.907,17.453,18.559,37.188,26.45,60.333,7.5,21.984,13.4,44.422,18.19,63.472l.383,1.529c10.345,41.292,20.054,86.078,29.681,136.918,4.3,22.693,8.314,46.2,11.938,69.881,3.485,22.77,6.715,46.4,9.6,70.242,3.107,25.661,5.485,48.474,7.269,69.744.975,11.635,1.87,23.392,2.659,34.943.368,5.384.646,9.829.876,13.987l.185,3.5c.025.5.056,1.013.086,1.5a26.121,26.121,0,0,1-.334,7.982,29.553,29.553,0,0,1-2.689,6.316c-.21.4-.447.858-.674,1.306A6.07,6.07,0,0,1,782.534,723.8Zm-612.373-2.327a5.256,5.256,0,0,1-3.3-1.3l-.626-.495-.442-.344-.021-.017a14.728,14.728,0,0,1-4.693-5.058c-1.815-3.514-2.112-7.248-2.426-11.2l-.007-.095c-.358-4.486-.264-9.089-.172-13.54.029-1.414.059-2.877.074-4.324.121-11.817.287-23.837.5-35.726.839-47.772,2.49-90.6,5.046-130.944,1.361-21.475,3.189-42.195,5.433-61.584l.452-3.832c.347-2.911.682-5.865,1.005-8.722.354-3.126.72-6.359,1.105-9.563a134.717,134.717,0,0,1-28.959-27.817.854.854,0,0,1-.1-.916.788.788,0,0,1,.682-.465.756.756,0,0,1,.542.256A105.238,105.238,0,0,0,157.81,417.6a113.447,113.447,0,0,0,15.264,9.367c1.454-10.655,3.754-24.556,8.663-37.574a1.018,1.018,0,0,1,.945-.635.758.758,0,0,1,.773.635c2.46,11.073,2.835,22.628,3.2,33.8q.034,1.042.068,2.081c.343,10.372.408,21.705.2,35.665-.495,33.837-1.339,68.205-2.156,101.442l-.011.44c-.234,9.506-.475,19.336-.7,29-.456,19.221-.976,42.033-1.377,65.488-.138,8.049-.259,16.313-.358,24.563l-.121,10.8a131.717,131.717,0,0,1-.767,14.26,20.3,20.3,0,0,1-2.934,8.818,12.493,12.493,0,0,1-3.585,3.37c-.362.259-.736.526-1.1.805l-.32.246A5.364,5.364,0,0,1,170.161,721.473Zm285.521-7.035a2.028,2.028,0,0,1-2.135-1.611c-2.451-15.208-2.888-30.925-3.311-46.125l0-.108c-.061-2.176-.123-4.425-.191-6.633l-.114-3.523c-.656-19.125-.955-38.232-.891-56.788.2-55.664,1.448-112.235,2.657-166.944V432.7l.008-.34c.253-11.456.515-23.3.762-34.951.194-9.088.373-18.332.546-27.271l0-.242c.471-24.287.958-49.4,1.775-74.106.608-18.417,1.245-35.037,1.946-50.811l.064-1.45v-.013c.308-6.951.626-14.14,1.1-21.2l.227-3.236c.077-1.044.148-2.1.216-3.113v-.02c.069-1.024.14-2.083.217-3.129a11.666,11.666,0,0,1-4.014.711c-4.244,0-8.317-2.242-12.256-4.411-.965-.531-1.958-1.078-2.931-1.578l-5.814-2.993-.431-.222c-4.886-2.516-9.939-5.117-14.976-7.7l-7.083-3.626-14.174-7.232c-.538-.275-1.071-.552-1.586-.819l-.012-.006c-3.694-1.922-6.884-3.581-10.4-3.581a12.29,12.29,0,0,0-6.106,1.729c-21.623,12.131-43.7,28.9-67.48,51.273a8.516,8.516,0,0,1-5.813,2.147,8.337,8.337,0,0,1-4.734-1.392,6.244,6.244,0,0,1-2.636-4.236,176.824,176.824,0,0,1-1.958-18.766c-.316-5.9-.4-12.067-.246-18.839.28-12.571,1.334-25.335,2.353-37.679l.017-.2q.17-2.053.338-4.1l.8-9.823c.864-10.48,1.945-22.852,3.421-35.145l.064-.533,0-.017c.6-4.957,1.21-10.083,1.877-15.116l.532-3.911c.158-1.128.308-2.273.453-3.38l0-.03a88.771,88.771,0,0,1,2.814-14.848,4.281,4.281,0,0,1-1.641-.97c-2.454-2.328-3.529-5.672-3.194-9.937A36.766,36.766,0,0,1,306.6,46.89,47.347,47.347,0,0,1,317.661,30.7a6.05,6.05,0,0,1,3.976-1.7,59.667,59.667,0,0,1,12.85-6.569,40.478,40.478,0,0,1,13.55-2.447,36.454,36.454,0,0,1,11.018,1.72c.45-2.149.8-3.785,1.147-5.3l.405-1.762c.222-.948.414-2.03.617-3.174A45.829,45.829,0,0,1,362.673,5.1,10.12,10.12,0,0,1,365.79.108.492.492,0,0,1,366.083,0a.3.3,0,0,1,.238.108c1.982,2.31,1.968,5.715,1.956,8.719,0,.611,0,1.188.008,1.761l.009.326c.148,4.455.2,9.184.185,15.332l-.053,16.291c0,.829-.029,1.686-.055,2.515-.045,1.421-.091,2.889-.019,4.309l.06.872a5.37,5.37,0,0,1,1.4,4.964,7.033,7.033,0,0,1-3.125,5.594l3.877,5.5,3.881,5.5c9.687,13.739,17.247,24.109,24.514,33.622,8.306,10.872,17.51,21.8,27.356,32.482,5.037,5.467,9.725,10.375,14.332,15,1.375,1.383,2.79,2.757,4.159,4.087.611.594,1.244,1.208,1.864,1.814l2,1.975c.273.273.555.538.854.82l0,0a12.225,12.225,0,0,1,2.592,3.021,9.128,9.128,0,0,1,.552,2.439,5.54,5.54,0,0,0,.178.98,5.69,5.69,0,0,1-.486,5.227,3.789,3.789,0,0,1-3.208,1.9,4.292,4.292,0,0,1-1.547-.307l.19-.127c.25-.173.366-.292.347-.354-.01-.033-.061-.05-.151-.05a8.05,8.05,0,0,0-1.664.382,6.686,6.686,0,0,1-3.1-.759l-.287-.158a13.6,13.6,0,0,1-3.107-2.536c-.2-.2-.38-.377-.564-.555l-.273-.261c-2.136-2-4.217-4.134-6.229-6.2l-1.112-1.139c-5.331-5.445-10.154-10.618-14.744-15.814-9.309-10.539-18.424-21.828-27.092-33.556a313.11,313.11,0,0,1-23.757-37.049c-2.39-4.425-4.736-9.167-7.383-14.922a6.882,6.882,0,0,1-4.439-4.348,17.957,17.957,0,0,1-.814-7.32A67.547,67.547,0,0,1,349.379,38.2a.668.668,0,0,1,.621-.784.523.523,0,0,1,.4.192,65.445,65.445,0,0,1,4.07,5.182c.446-2.18.954-4.24,1.4-6.058l0-.013c.331-1.341.617-2.5.813-3.444l2-9.828c-.628-.033-1.279-.05-1.932-.05a42.707,42.707,0,0,0-16.029,3.237,39.428,39.428,0,0,0-13.475,8.98c-.334,1.689-1.421,2.972-2.679,4.458l-.006.007c-.309.365-.629.743-.947,1.138a34.532,34.532,0,0,0-4.572,7.445,30.09,30.09,0,0,0-1.808,7.616c-.631,4.217-1.284,8.579-4.406,11.23a4.988,4.988,0,0,1-1.73.954c1.863,9.134,1.63,18.992,1.406,28.526v.017c-.064,2.727-.131,5.547-.143,8.255l0,1.055c.012,14.01-.486,28.107-.954,40.221l-.527,13.258c-.656,17.011-1.151,35.113.592,52.957,7.83-6.935,16.022-13.629,24.348-19.9,5.483-4.128,11.16-8.171,16.876-12.018l4.656-3.111.195-.13c5.492-3.683,11.171-7.491,17.208-10.139a23.886,23.886,0,0,1,9.767-2.095,31.976,31.976,0,0,1,13.536,3.389c5.266,2.454,10.5,5.221,15.569,7.9l0,0c2.323,1.227,4.726,2.5,7.1,3.716,5.854,3.013,11.8,6.047,17.547,8.982l.823.42,4.65,2.374c1.232.63,2.589,1.238,4.026,1.883,4.414,1.979,9.412,4.22,12.237,7.842.248-1.1.531-2.165.839-3.163a6.988,6.988,0,0,1,.672-4.986c12.2-22.411,23.354-45.024,35.635-70.14,2.852-5.832,5.682-11.8,8.418-17.563l.013-.027c2.849-6.005,5.8-12.215,8.774-18.29l5.675-11.6c1.141-2.324,2.021-4.11,2.856-5.791s1.688-3.352,2.52-4.981c.61-1.194,1.24-2.426,1.851-3.642.284-.565.607-1.138.92-1.692l.006-.011c.36-.637.731-1.3,1.048-1.949l.282-.616c.013-.029,1.039-3.251.636-3.871a.2.2,0,0,0-.179-.1.364.364,0,0,0-.13.028l-.091.044a.548.548,0,0,1-.27.077.478.478,0,0,1-.426-.285.563.563,0,0,1,.071-.6,1.943,1.943,0,0,1,1.528-.819c1.211,0,2.364,1.206,2.923,2.327,1.88,3.766-.471,9.221-2.36,13.6-.479,1.113-.931,2.161-1.27,3.084l-.092.253c-5.32,15.059-11.317,29.691-17,43.259-10.977,26.183-22.934,52.427-34.5,77.806l-1.649,3.62-.147.465c1.5-1.147,3.052-2.235,4.556-3.286l.006,0c1.15-.8,2.237-1.564,3.269-2.328,6.176-4.575,12.732-9.053,18.516-13.005,10.5-7.173,21.966-14.395,35.055-22.078l2.386-1.4a52.715,52.715,0,0,1,7.712-3.843,22.984,22.984,0,0,1,8.228-1.616,20.484,20.484,0,0,1,2.977.22c5.442.8,10.576,3.367,15.54,5.847,1.006.5,2.045,1.022,3.058,1.511l.613.293,18.325,8.712c-1.8-7.165-3.854-14.8-6.293-23.331-4.252-14.881-9.034-30-14.215-44.933-4.638-13.375-9.712-26.852-15.51-41.2l-1.656-4.084-.182-.456-.054-.135a39.036,39.036,0,0,0-3.817-7.839,11.911,11.911,0,0,0-6.829-5.01,27.655,27.655,0,0,0-7.182-.687l-.967,0-.951,0c-3.733,0-7.345-.163-10.506-2.135a.779.779,0,0,1-.347-.787.693.693,0,0,1,.526-.584l3.612-.911c5.034-1.252,10.372-2.41,15.307-2.41a23.7,23.7,0,0,1,5.84.667A22.631,22.631,0,0,1,563,36.756a32.962,32.962,0,0,1,6.722,8.48,138.517,138.517,0,0,1,7.629,17.347c.535,1.385,1.089,2.817,1.647,4.23l.453,1.138c3.312,8.257,6.492,16.558,9.451,24.672,5.95,16.311,11.5,33.19,16.5,50.169,2.278,7.741,4.52,15.761,6.854,24.519.328,1.233.768,2.6,1.233,4.048l0,.012c.429,1.336.872,2.717,1.277,4.138a23.718,23.718,0,0,1,2.761,3.218,3.433,3.433,0,0,1,.62,2.656,4.63,4.63,0,0,1-2,2.9,10.611,10.611,0,0,1-1.615,5.636,8.856,8.856,0,0,1-7.45,3.924,7.889,7.889,0,0,1-5.742-2.3,7.227,7.227,0,0,1-1.855-5.511,6.856,6.856,0,0,1,1.372-3.67l-.023-.174-.089-.318c-1.125-.539-2.232-1.1-3.4-1.7l-.008,0c-.833-.425-1.695-.864-2.569-1.3l-19.232-9.5c-1.484-.733-2.983-1.558-4.57-2.431-4.341-2.388-8.826-4.855-13.368-5.624a10.364,10.364,0,0,0-1.724-.142c-4.235,0-8.586,2.439-12.425,4.592-.934.523-1.815,1.018-2.68,1.47l-.322.167c-13.12,6.724-26,13.635-35.76,18.9-3.365,1.818-6.762,3.712-10.046,5.542l-.044.025c-2.35,1.31-4.781,2.665-7.18,3.981-1.323.726-2.649,1.523-4.053,2.367l-.006,0c-3.666,2.2-7.457,4.484-11.387,5.567a5.839,5.839,0,0,1-3.652,1.284,6.955,6.955,0,0,1-3.624-1.086,112.832,112.832,0,0,1,1.069,14.142c.054,1.613.11,3.281.189,4.928.345,7.07.45,14.27.551,21.234.021,1.458.043,2.965.067,4.449l.056,3.209c.348,18.122.555,36.7.631,56.787.163,42.951-.084,86.621-.323,128.854-.136,24.049-.277,48.916-.34,73.39-.076,29.624-.582,60.964-1.639,101.62-.389,14.992-1.234,30.056-2,43l-.464,7.813c-.139,2.342-.272,4.722-.4,7.023-.782,13.98-1.591,28.436-4.21,42.392A2.114,2.114,0,0,1,455.681,714.438Zm30.771-2.412a10.381,10.381,0,0,1-2.695-.363,10.143,10.143,0,0,1-7.083-12.474l.245-.586a10.439,10.439,0,0,1,7.276-7.277,10.3,10.3,0,0,1,2.729-.366,10.539,10.539,0,0,1,7.409,3.047,10.42,10.42,0,0,1-4.224,17.3l-.374.112-.586.244A10.394,10.394,0,0,1,486.452,712.026Zm210.6-22a17.616,17.616,0,0,1-2.646-.227,7.524,7.524,0,0,1-4.976-3.395,11.579,11.579,0,0,1-1.983-5.745c-1.111-23.289-2.638-47.871-4.669-75.151-2.193-29.454-3.846-59.451-5.445-88.46v-.01l0-.054c-.809-14.683-1.646-29.866-2.543-44.79l-.94-15.528c-.917-15.288-1.921-33.06-2.232-50.515-.091-5.056-.017-10.194.055-15.163.086-6,.176-12.21-.025-18.312-.057-1.742-.137-3.547-.213-5.292-.386-8.8-.786-17.908,1.1-26.312a.47.47,0,0,1,.47-.34.412.412,0,0,1,.386.228,69.831,69.831,0,0,1,5.007,15.88c5.829-7.372,12.127-15.23,18.673-22.747a.65.65,0,0,1,.493-.244.79.79,0,0,1,.642.394.764.764,0,0,1,.043.76c-5.656,11.086-11.892,21.963-17.924,32.482.474,2.874.965,5.842,1.534,8.752.831,4.251,1.742,8.544,2.623,12.7l0,.013c1.642,7.738,3.34,15.739,4.578,23.745,7.136,46.135,10.678,93.117,13.438,133.534,2.981,43.667,3.434,88.116,3.872,131.1l.034,3.334a9.887,9.887,0,0,1-1.961,5.753,8.151,8.151,0,0,1-5,3.387A13.03,13.03,0,0,1,697.049,690.023ZM8.777,686.482A4.556,4.556,0,0,1,5.153,684.5l-.7-.935-.109-.145c-2-2.654-3.894-5.161-4.178-8.6-.215-2.613-.174-5.317-.135-7.933.017-1.138.035-2.315.031-3.469-.029-6.83.039-14.076.213-22.8.292-14.481.87-29.174,1.72-43.67,1.755-29.9,4.671-59.592,8.665-88.253,3.6-25.814,8.163-51.937,13.568-77.643,5.368-25.53,11.7-51.283,18.811-76.544,7.573-26.89,14.952-50.137,22.556-71.068a589.625,589.625,0,0,1,29.487-68.43c5.393-10.51,11.134-20.651,17.062-30.14,6.255-10.013,12.9-19.583,19.737-28.445A301.45,301.45,0,0,1,154.5,130.3a264.45,264.45,0,0,1,25.722-23.188,250.376,250.376,0,0,1,26.549-18.275,232.776,232.776,0,0,1,28.757-14.55,152.254,152.254,0,0,1,31.29-9.634,155.17,155.17,0,0,1,21.234-1.92c3.471-.152,7.058-.31,10.611-.587l.061,0a.544.544,0,0,1,.566.547.716.716,0,0,1-.627.769c-10.166,1.18-20.1,4.9-29.7,8.5l-.03.011c-1.643.616-3.342,1.252-5,1.861l-.966.352A250.017,250.017,0,0,0,229.8,88.84,253.838,253.838,0,0,0,172.77,131a301.817,301.817,0,0,0-23.718,26.038,339.908,339.908,0,0,0-20.6,28.363c-6.188,9.5-12.181,19.684-17.814,30.279-5.321,10.009-10.49,20.7-15.365,31.787a654.9,654.9,0,0,0-24.724,66.459c-6.3,19.915-12.326,41.389-18.95,67.581-6.17,24.4-11.615,49.658-16.182,75.08-4.445,24.743-8.181,50.313-11.1,76-2.85,25.05-4.892,50.535-6.068,75.747-.6,12.891-.985,25.991-1.144,38.935-.074,6.013-.106,12.539-.1,19.952,0,.843.043,1.73.087,2.669a23.961,23.961,0,0,1-.354,7.175,19.09,19.09,0,0,1-3.356,5.9c-.389.53-.757,1.03-1.109,1.539A4.226,4.226,0,0,1,8.777,686.482Zm478.151-58.1c-.177,0-.362,0-.55-.015l-.321-.02.193.025-.338-.038c-.318-.027-.636-.062-.945-.1-.092-.011-.184-.021-.277-.031-.115-.012-.244-.025-.37-.043-.143-.011-.255-.016-.363-.016-.089,0-.172,0-.252.011-.176.017-.357.025-.538.025a9.5,9.5,0,0,1-6.1-2.774,9.162,9.162,0,0,1-2.041-3.046,7.588,7.588,0,0,1-.706-3.589l.093-.9a10.26,10.26,0,0,1,.944-3.647,11.092,11.092,0,0,1,2.692-3.905,12.022,12.022,0,0,1,8.2-3.336h.089a10.564,10.564,0,0,1,5.539,1.449l2.17,1.678c.556.714,1.13,1.458,1.756,2.272,1.355,1.766,1.536,4.638,1.254,6.737a7.9,7.9,0,0,1-1.254,3.928l-1.652,2.139a14.136,14.136,0,0,1-4.835,2.842A7.656,7.656,0,0,1,486.928,628.382Zm-.3-114a10.254,10.254,0,0,1-4.119-.839,10.76,10.76,0,0,1-4.954-4.088l-.192-.315c-.08-.128-.158-.262-.23-.4l-.105-.205a11.033,11.033,0,0,1,1.657-12.839A9.75,9.75,0,0,1,486,492.68a11.807,11.807,0,0,1,5.523,1.36,13.276,13.276,0,0,1,2.165,1.578l.006,0c.189.158.384.321.574.474,2.632,2.127,3.081,6.03,3.152,7.609a9.633,9.633,0,0,1-.828,4.113,10.884,10.884,0,0,1-2.324,3.5l-.455.441a8.763,8.763,0,0,1-4.295,2.326A16.023,16.023,0,0,1,486.627,514.382Zm-4.545-108.119a10,10,0,0,1-2.656-.355,10.187,10.187,0,0,1-7.106-7.105l-.2-1.376a12.123,12.123,0,0,1,.226-5.215,14.148,14.148,0,0,1,1.242-3.1,11,11,0,0,1,2.875-3.3,12.253,12.253,0,0,1,3.9-1.989,8.552,8.552,0,0,1,2.558-.4,8.4,8.4,0,0,1,1.83.2,10.885,10.885,0,0,1,7.179,4.139,8.32,8.32,0,0,1,1.969,3.742l.392,2.925-.392,2.926-1.11,2.629c-.357.465-.65.844-.922,1.192a12.3,12.3,0,0,1-3.828,3.2A10.3,10.3,0,0,1,482.082,406.263ZM629.17,317.575a43.9,43.9,0,0,1-4.892-.374c-1.021-.116-2.076-.237-3.1-.305-5.177-.347-10.477-.643-15.754-.88-10.953-.489-20.94-.748-30.533-.79-1.558-.007-3.2-.01-4.882-.01-7.781,0-16.16.075-25.614.228-2.886.047-5.859.157-8.733.264-3.876.144-7.884.293-11.815.293a104.552,104.552,0,0,1-10.834-.5,1.325,1.325,0,0,1-1.226-1.161,1.24,1.24,0,0,1,.889-1.326c8.661-3,18.23-4.174,27.485-5.314,1.066-.131,2.166-.267,3.252-.4,10.158-1.284,20.749-2.248,31.478-2.867,11.483-.659,22.115-1.015,32.5-1.088,1.616-.011,3.258-.017,4.88-.017,2.547,0,5.145.014,7.722.042l3.15.042c.69.011,1.363.011,2.014.011,4.463,0,8.316,0,11.926,3.188a4.9,4.9,0,0,1,1.7,4.072,6.789,6.789,0,0,1-2.875,5.042A11.248,11.248,0,0,1,629.17,317.575ZM481.038,292.381l-.346-.006a10.977,10.977,0,0,1-5.535-1.5l-2.221-1.715a11,11,0,0,1-2.82-4.84l-.393-2.916a11.351,11.351,0,0,1,10.623-10.975l.346.007a10.925,10.925,0,0,1,5.193,1.3l.344.192,2.22,1.714a11,11,0,0,1,2.82,4.84l.392,2.916a11.347,11.347,0,0,1-10.623,10.976ZM520.175,65.692h-.007c-.082,0-.168,0-.253-.006a10.416,10.416,0,0,1-6.975-2.957,17.72,17.72,0,0,1-4.074-6.693c-2.044-5.515-2.58-12.363-2.868-16.043a45.674,45.674,0,0,1,1.161-14.206,39.119,39.119,0,0,1,5.7-13.027,3.112,3.112,0,0,1,2.611-1.521,3.648,3.648,0,0,1,2.743,1.4,2.986,2.986,0,0,1,.678,2.493c.178,8.467.639,15.585,2.317,22.8A43.258,43.258,0,0,0,524.7,48.046l.683,1.337c2.153,4.253,3.707,8.141.9,12.649a8.153,8.153,0,0,1-2.6,2.61A6.676,6.676,0,0,1,520.175,65.692Z" transform="translate(24 4.553)"/>
  </g>
</svg>
