<svg xmlns="http://www.w3.org/2000/svg" width="818" height="763" viewBox="0 0 818 763">
  <g id="body_Dress" data-name="body/Dress" transform="translate(0 30)">
    <path id="_Skin" data-name="âœ‹ Skin" d="M744.567,675.4c-2.426-22.531-3.921-45.22-4.779-67.865-.857-22.618.264-45.514.756-68.141,1-46.029,2.633-92.167-1.032-138.126a616.157,616.157,0,0,0-23.961-128.3c-6.11-20.325-12.549-41.468-22.6-60.248-10.105-18.882-26.111-31.456-43.693-42.987-18.719-12.277-37.288-24.786-55.934-37.177-15.652-10.4-43.819-22.507-56.661-36.412-13.513-14.631-16.053-50.9-25.052-68.23C502.849,11.029,478.041.016,458.939.016c-31.618,0-55.574-1.616-81.572,27.631C364.4,42.24,374.717,56.992,361.121,71c-12.5,12.877-44.467,26.111-60.578,33.583-19.3,8.949-39.079,16.85-59.149,23.888-20.473,7.18-41.462,12.531-62.05,19.307-19.734,6.5-45.5,33.266-60.822,47.431-14.243,13.17-17.778,11.7-28.606,27.694-23.764,35.111-47.554,70.625-66.478,108.64C14.012,350.477,4.885,370.4,1.465,391.426c-3.648,22.43-.031,44.106,5.885,65.823,6.022,22.1,25.145,43.143,31.375,65.188,2.871,10.159-6.984,21.246-2.451,30.82a70.487,70.487,0,0,0,8.361,13.2c2.5,3.21,12.254,2.5,13.516,6.428,1.275,3.968-5.781,12.2-5.886,16.309-.149,5.877-.383,11.754-.576,17.631l-1.14,34.745-2.247,68.5c-.245,7.453-.6,14.735,1.185,21.807a15.818,15.818,0,0,1-1.818-1.98c-1.639-2.14-5.115-.326-3.724,2.177a23.2,23.2,0,0,0,9.584,9.229c4.559,6.721,694.983,21.733,698.38,2.083,1.906-11.025-1.563-22.828-2.95-33.782C747.515,698.2,745.8,686.836,744.567,675.4Z" transform="translate(21 -30)" fill="#d08b5b"/>
    <path id="_Top" data-name="ðŸ‘• Top" d="M0,0,713.1,38.988q.767,7.407,1.358,14.828c3.665,45.959,2.035,92.1,1.032,138.126-.133,6.1-.311,12.222-.484,18.352l-70.347,11.614-500.09,12.019L19.576,219.012l-5.188-8.994-3.594-15.654c1.542-6.428,4.651-13.08,2.872-19.376-.519-1.835-1.127-3.664-1.809-5.486L12.5,156.94Z" transform="translate(46.059 317.449)" fill="#fdea6b"/>
    <path id="_Ink" data-name="ðŸ– Ink" d="M767.661,736.222a7.434,7.434,0,0,1-5.254-2.046c-3.514-3.522-4.165-7.868-4.856-12.469l0-.02c-.1-.637-.195-1.3-.3-1.951-.741-4.607-1.458-9.187-2.13-13.611-1.515-9.9-2.935-19.727-4.22-29.219-2.5-18.455-4.663-37.609-6.42-56.93-.791-8.738-1.443-11.065-1.967-12.935-.6-2.143-1.035-3.691-1.293-13.884-.3-11.878-.333-20.961-.1-29.451.048-1.693.067-3.445.085-5.14.036-3.357.074-6.826.325-10.231-2.9.4-5.853.744-8.709,1.08-2.18.256-4.433.521-6.671.81-2.1.274-4.244.651-6.514,1.049a80.246,80.246,0,0,1-13.5,1.6c-.837,0-1.652-.03-2.421-.09.838,8.942,1.76,10.157,2.736,11.443.939,1.238,2,2.64,3.144,11.259,2.687,20.171,5.848,41.6,10.25,69.469,1.675,10.616,3.613,21.38,5.487,31.79l0,.018,0,.012c1.849,10.27,3.76,20.89,5.419,31.36v.01a16.092,16.092,0,0,1,1.584,5.631,15.193,15.193,0,0,1-.584,5.841,9.183,9.183,0,0,1-3.766,5.034,10.614,10.614,0,0,1-5.813,1.735,10.038,10.038,0,0,1-2.322-.268,5.446,5.446,0,0,1-.4,3.722,4.733,4.733,0,0,1-3.044,2.478c-.618.169-1.239.343-1.839.51-4.349,1.215-8.458,2.363-13.022,2.363-.146,0-.3,0-.449,0-3.344-.051-6.748-.2-10.04-.338h-.009l-.085,0c-1.254-.054-2.551-.109-3.826-.159-9.486-.362-19.129-.389-28.455-.415h-.007l-1.447,0q-14.136-.045-28.918-.085h-.163c-9.426-.027-19.174-.055-28.759-.085-33.611-.1-67.761-.193-100.9-.286l-4.46-.013q-51.524-.145-103.047-.292l-9.435-.027c-30.876-.088-62.8-.179-94.265-.343-17.862-.091-35.345-.2-52.85-.54-12.176-.231-24.083-.549-35.88-1.89-1.391.471-2.673.89-3.919,1.281a11.415,11.415,0,0,1-3.436.551,9.984,9.984,0,0,1-4.377-1,11.521,11.521,0,0,1-3.518-2.672,15.013,15.013,0,0,1-3.689-8.317c-1.123-9.8-.746-17.523,1.219-25.029.49-1.884,1.048-3.718,1.66-5.45a21.38,21.38,0,0,1-.36-2.691c-.138-2.032-.181-4.114-.223-6.128v-.015c-.019-.9-.038-1.84-.066-2.757-.134-4.4-.242-8.862-.347-13.179-.052-2.154-.106-4.38-.163-6.592-.311-12.572-.48-25.219-.5-37.589-.03-17.487.239-35.016.8-52.1-1.416.052-2.859.077-4.41.077-4.152,0-8.359-.184-12.427-.361h-.02c-1.643-.072-3.341-.146-4.993-.205-9.652-.348-19.472-.971-29.19-1.85a524.012,524.012,0,0,1-57.55-8.5l-1.117-.228h-.005c-2.1-.427-4.263-.869-6.389-1.371.229,3.2.185,6.455.141,9.6v.02c-.013.949-.026,1.93-.031,2.875q-.011,2.007-.02,4.013v.008c-.027,5.811-.056,11.819-.17,17.729-.179,8.839-.418,17.806-.649,26.477v.036c-.131,4.925-.267,10.018-.39,15.028-.137,5.561-.29,11.19-.438,16.633v.021c-.231,8.49-.469,17.269-.651,25.9-.149,6.853-.27,13.851-.36,20.8-.018,1.456.009,2.961.034,4.417.105,6.017.214,12.239-2.595,17.624a7.291,7.291,0,0,1-3.1,3.045,9.175,9.175,0,0,1-4.274,1.036,8.577,8.577,0,0,1-4.108-1.006,6.845,6.845,0,0,1-2.93-3.075,24.2,24.2,0,0,1-2.166-8.906,74.75,74.75,0,0,1,.151-9.261v-.016c.073-1.266.148-2.575.195-3.857.3-8.143.594-15.271.89-21.789.742-16.46,1.53-29.984,2.479-42.561,1.174-15.59,2.469-29.5,3.96-42.53.812-7.138,1.858-14.333,2.87-21.29.1-.674.2-1.381.29-2,.367-2.556.745-5.2,1.26-7.784a8.858,8.858,0,0,1,.59-3.982,32.091,32.091,0,0,1-7.68-4.349c-4.5-3.484-7.443-8.451-9.27-15.631a41.127,41.127,0,0,1-1.2-9.676,65.1,65.1,0,0,1,.664-9.744c.425-3.107.865-6.146,1.57-9.17a6.176,6.176,0,0,1-2.74-.84,24.351,24.351,0,0,1-7.34-7.046,73.3,73.3,0,0,1-5.124-8.9l-.011-.022-.416-.8c-2.864-5.55-5.575-11.458-8.29-18.061a217.826,217.826,0,0,1-11.45-36.689c-10.194-46.961-5.36-96.073,13.61-138.29A243.434,243.434,0,0,1,37.88,260.325c6.424-9.761,13.8-19.808,23.208-31.618,8.384-10.519,17.421-20.876,26.861-30.782,9.219-9.675,19.107-19.22,29.389-28.368a1.118,1.118,0,0,1,.744-.309,1.067,1.067,0,0,1,.945.624,1.1,1.1,0,0,1-.169,1.205c-1.2,1.483-2.475,3.079-3.9,4.88,1.784-.371,3.534-.69,5.2-.949a104.664,104.664,0,0,1,20.281-23.948A149.381,149.381,0,0,1,166.1,132.908c6-3.4,12.255-6.535,19.124-9.595,6.119-2.726,12.59-5.327,19.782-7.952,13.359-4.875,27.24-9.09,40.663-13.166,17.309-5.256,35.2-10.689,52.181-17.6A208.373,208.373,0,0,0,325.665,70.91a149.813,149.813,0,0,0,24.923-18.374,114.9,114.9,0,0,0,18.99-22.01,99.928,99.928,0,0,0,7.15-12.991c.786-1.741,1.464-3.541,2.119-5.281l0-.005a55.141,55.141,0,0,1,3.679-8.334A7.745,7.745,0,0,1,389.411,0a8.766,8.766,0,0,1,6.225,2.543,7.519,7.519,0,0,1,2.171,5.513,36.266,36.266,0,0,1-1.268,8.674,57.054,57.054,0,0,1-3.088,8.587,114.977,114.977,0,0,1-8.864,15.709,129.4,129.4,0,0,1-23.26,26.529A163.2,163.2,0,0,1,348,77.984c-4.442,3.121-9.193,6.135-14.123,8.959a233.544,233.544,0,0,1-30.11,14.337c-20.73,8.24-42.767,14.27-64.078,20.1l-.306.084-4.973,1.362c-20.289,5.57-41.971,12.12-63.05,22.25a210.868,210.868,0,0,0-23.292,13.069,194.285,194.285,0,0,0-21.207,15.941c1.108-.128,3.5-.189,7.3-.189,11.659,0,34.848.607,57.273,1.194l.111,0c22.463.589,45.691,1.2,57.387,1.2,2,0,3.635-.018,4.871-.053,34.562-1,70.22-1.488,109.012-1.488,30.83,0,63.31.31,99.3.948,34.215.6,69.074,1.529,103.61,2.75,16.974.6,34.242,1.288,52.79,2.109,9.6.425,18.067.821,25.88,1.21,1.55.074,3.123.131,4.643.185,2.187.078,4.448.159,6.667.295a74.513,74.513,0,0,1,21.1-2.9,89.1,89.1,0,0,1,9.014.465,187.037,187.037,0,0,0-21.11-17.069c-14.564-10.01-30.737-17.663-46.377-25.064-8.317-3.936-16.918-8.006-25.172-12.381a206.141,206.141,0,0,1-23.941-14.615,123.577,123.577,0,0,1-32.34-33.7A88.292,88.292,0,0,1,527.04,55.86a71.463,71.463,0,0,1-3.192-23.133.828.828,0,0,1,.855-.783.69.69,0,0,1,.7.573A82.888,82.888,0,0,0,535.016,57.2a85.1,85.1,0,0,0,16.771,20.5,214.73,214.73,0,0,0,38.01,27.58c11.3,6.327,23.1,12.118,34.515,17.718l.01,0c4.587,2.25,9.33,4.578,13.975,6.908,18.68,9.358,33.141,18.294,45.51,28.12a238.455,238.455,0,0,1,20.21,18.161c1.112,1.108,2.285,2.222,3.527,3.4a102.581,102.581,0,0,1,8.162,8.359c.184.076.38.16.561.249a87.388,87.388,0,0,1,15.738,9.6,91.843,91.843,0,0,1,13.038,12.223,106.4,106.4,0,0,1,10.577,14.358,130.334,130.334,0,0,1,8.354,16c8.548,19.455,13.915,43.244,15.952,70.707.346,4.659.568,9.431.661,14.184a347.416,347.416,0,0,1,5.107,67.855,292.59,292.59,0,0,1-2.115,29.582,216.359,216.359,0,0,1-5.623,29.1,174.174,174.174,0,0,1-9.239,26.23,116.076,116.076,0,0,1-14.223,23.954c2.828,3.764,3.895,9.09,4.836,13.789l.008.042c.13.647.252,1.258.378,1.86.109.52.219,1.035.336,1.581l0,.011c1.173,5.49,2.5,11.711,1.172,17.168a13.1,13.1,0,0,1-4.694,7.331,18.39,18.39,0,0,1-8.106,3.469l-.105.019c-.24.043-.489.087-.734.121.55,3.159.923,6.41,1.285,9.554l0,.036c.212,1.847.432,3.757.681,5.581,1.343,9.7,2.48,19.321,3.579,28.626,1.122,9.489,2.295,11.49,3.429,13.425s2.313,3.944,3.452,13.409c2.072,17.234,4.515,35.66,7.47,56.33,1.351,9.457,2.841,19.268,4.43,29.16.6,3.726,1.4,8.638,2.24,13.59.087.514.176,1.025.262,1.518l0,.02c.863,4.936,1.607,9.2-.715,14.071a5.884,5.884,0,0,1-2.521,2.645A7.37,7.37,0,0,1,767.661,736.222ZM46.878,502.528a6.181,6.181,0,0,1-1.34,1.269c-.116,1.13-.256,2.281-.391,3.394v.012a71.8,71.8,0,0,0-.7,8.565c0,5.2.36,11.868,3.17,17.319a19.324,19.324,0,0,0,6.6,7.249,33.358,33.358,0,0,0,9.291,4.121,109.376,109.376,0,0,0,15.469,2.907c2.076.286,4.036.556,5.871.864,16.565,2.789,33.59,4.855,50.6,6.141,8.514.651,17.356,1.1,26.28,1.349,1.094.029,2.239.043,3.5.043,2.185,0,4.421-.043,6.583-.085h.058c2.152-.042,4.378-.085,6.568-.085,1.328,0,2.532.016,3.681.048.473-11.472,1.083-22.955,1.81-34.13a5.9,5.9,0,0,1-2.367.469c-.175,0-.354-.007-.533-.019-20.3-1.415-47.084-3.529-74.171-7.34-13.188-1.852-25.725-4.036-37.26-6.491C62.514,506.628,54.486,504.93,46.878,502.528Zm652.83,1.349c.807,11.207,1.662,22.122,2.54,32.441a59.119,59.119,0,0,1,12.088-1.469c1.611-.085,3.277-.173,4.862-.312l16.88-1.469c1.122-.094,2.282-.177,3.3-.25h.01c1.849-.132,3.761-.269,5.625-.47.192-.023.4-.038.615-.055h.012c1.027-.078,2.192-.167,2.784-1.013.632-.9.374-2.92.186-4.395v-.008c-.05-.393-.093-.733-.114-1.007-.2-2.6-.492-5.214-.87-7.781q-.086-.592-.17-1.193l-.014-.1a61.5,61.5,0,0,0-1.186-6.659,9.023,9.023,0,0,0-.353-1.1,10.8,10.8,0,0,1-2.269.237,13.353,13.353,0,0,1-8.511-3.255c-1.55-.082-3.125-.152-4.649-.219h-.018c-1.766-.078-3.591-.159-5.381-.259-2.356-.131-4.8-.223-7.156-.313h-.011a170.129,170.129,0,0,1-18.2-1.346ZM52.114,368.811a3.964,3.964,0,0,0-3.886,2.744,81.292,81.292,0,0,0-4.193,20.132,102.886,102.886,0,0,0,.476,20.531,139.616,139.616,0,0,0,4.062,20.315,190.842,190.842,0,0,0,6.567,19.484,4.159,4.159,0,0,0,4.007,2.677,4.206,4.206,0,0,0,3.489-1.664,3.218,3.218,0,0,0,.218-3.14c-5.451-13.787-8.814-26.112-10.28-37.678A96.019,96.019,0,0,1,52,392.794a75.784,75.784,0,0,1,3.938-19.112,3.435,3.435,0,0,0-.344-3.208A4.282,4.282,0,0,0,52.114,368.811Zm36.762,49.48a4.093,4.093,0,0,0-2.923,1.147,3.677,3.677,0,0,0-1,2.716,49.18,49.18,0,0,0,1.973,13.054,47,47,0,0,0,5.485,12,3.813,3.813,0,0,0,3.282,1.858,4.481,4.481,0,0,0,3.852-2.225,3.478,3.478,0,0,0-.226-3.671,39.446,39.446,0,0,1-6.366-21.02,3.752,3.752,0,0,0-1.3-2.9A4.28,4.28,0,0,0,88.876,418.292Z" transform="translate(16 -10.09)"/>
  </g>
</svg>
