<svg xmlns="http://www.w3.org/2000/svg" width="818" height="783.892" viewBox="0 0 818 783.892">
  <g id="body_Button_Shirt_2" data-name="body/Button Shirt 2" transform="translate(0 32)">
    <path id="_Skin" data-name="âœ‹ Skin" d="M385.52,772.9c-82.277,0-164.112-4.044-243.319-12.021l-.035-.157-4.206-.508c-11.969-1.492-24.205-2.668-36.038-3.8-31.215-3-63.495-6.1-93.6-15.316L3,739.467,2.479,740.8C1.7,740.394.874,739.973,0,739.569c4.737-77.363,12.639-153.295,19.775-217.582l.293-2.632-1.747-1.989C8.232,505.877,4.515,496.25,6.971,487.953,27.09,445.96,31.355,392.386,35.48,340.569c8.551-107.4,16.627-208.835,156.108-213.226l.223-.01,1.471-.1c29.087-1.993,59.164-4.055,86.032-17.428l3.131-1.557.186-3.492c.226-4.214,5.414-9.226,9.582-13.252,1.435-1.386,2.789-2.695,4.007-4.006l.255-.275.219-.3c6.288-8.738,13.673-13.953,19.755-13.953,8.858,0,13.15,11.117,14.92,17.744l2.791,10.447,7.387-7.9C358.9,74.705,367.209,54.3,366.277,32.544l.63-.2-.808-5.2c-1.525-9.021-.511-15.713,3.017-19.887C373.246,2.376,381.345,0,393.876,0c8.28,0,17.29,1.044,25.24,1.965,2.6.3,5.1.591,7.47.834C442.5,4.475,458.769,7.491,474.5,10.407l2.208.409-1.494,4.069,3.822,2.642c5.093,3.521,8.886,10.584,10.407,19.377l.068.4.122.386c2.262,7.17,3.12,15.177,4.029,23.654,1.528,14.263,3.107,29.01,11.645,41.706l5.13,7.627,4.918-7.766c2.4-3.789,5.616-5.632,9.834-5.632,11.378,0,25.274,12.582,27.743,22.334l.793,3.132,3.051,1.061c20.951,7.3,38.214,12.619,53.445,17.316,38.242,11.793,57.437,17.713,69.754,35.064,12.671,17.849,19.083,49,29.75,110.986C721.4,354.338,729.2,423.377,736.738,490.143,746.209,574,756,660.686,773.576,744.774a15.636,15.636,0,0,0-2.782,3.754c-7.758.686-15.648,1.307-23.323,1.911-12.774,1.006-25.983,2.046-38.89,3.4l-2.864.3-.635.988c-1.178.1-2.339.215-3.48.33-1.82.183-3.575.359-5.29.459l-.519-1.038-4.164.467A2752.65,2752.65,0,0,1,385.52,772.9" transform="translate(35.999 -32)" fill="#d08b5b"/>
    <path id="_Top" data-name="ðŸ‘• Top" d="M316.449,0c8.858,0,13.15,11.117,14.92,17.744l2.791,10.447,4.311-4.61-7.846,13.727L391.7,93.365l2.339,1.647q37.441,26.226,50.98,26.226,13.958,0,83.086-68.384L503.222,37.308l2.243-6.991,4.973,7.392,4.918-7.766c2.4-3.789,5.616-5.632,9.834-5.632,11.378,0,25.274,12.582,27.743,22.334l.793,3.132,5.547,1.927c16.527,5.712,30.736,10.2,43.475,14.142l16.292,5.035c32.451,10.087,49.6,16.375,60.935,32.338,12.418,17.492,18.824,47.762,29.115,107.3l.635,3.682C720.867,278.32,728.48,344.14,735.708,408.06l2.812,24.874c8.944,78.93,18.58,160.043,35.057,238.876a15.636,15.636,0,0,0-2.782,3.754c-5.172.457-10.4.886-15.589,1.3l-14.74,1.165c-10.561.841-21.323,1.738-31.884,2.845l-2.864.3-.635.988c-.785.066-1.563.14-2.332.215l-1.148.115c-1.82.183-3.575.359-5.29.459l-.519-1.038-4.164.467A2752.65,2752.65,0,0,1,385.52,699.937c-82.277,0-164.112-4.044-243.319-12.021l-.035-.157-4.206-.508c-9.575-1.194-19.321-2.185-28.9-3.116L95.218,682.8c-29.111-2.828-58.942-6.114-86.9-14.669L3,666.5l-.521,1.333C1.7,667.429.874,667.008,0,666.6l.324-5.213C5.092,585.834,12.8,511.864,19.775,449.022l.293-2.632L18.321,444.4C8.232,432.912,4.515,423.285,6.971,414.988,27.09,372.995,31.355,319.421,35.48,267.6l.514-6.436C44.321,157.26,54.683,60.672,187.443,54.539l4.368-.171,6.613-.457c27.472-1.92,55.6-4.487,80.89-17.073l3.131-1.557.186-3.492c.2-3.756,4.345-8.146,8.194-11.907l2.6-2.516c.989-.963,1.928-1.9,2.8-2.835l.255-.275.219-.3C302.982,5.215,310.367,0,316.449,0Z" transform="translate(35.999 40.965)" fill="#fff"/>
    <path id="_Ink" data-name="ðŸ– Ink" d="M153.962,768.892c-1.776,0-3.719-1.069-5.773-3.177a35.187,35.187,0,0,1-3.51-8.069,47.728,47.728,0,0,1-1.668-8.536,129.056,129.056,0,0,1-.27-17.752c.128-4.189.26-8.52.085-12.655.372-22.1,1.23-43.795,2.552-64.47,1.408-22.015,3.39-43.66,5.892-64.332,2.641-21.824,5.95-43.292,9.833-63.807,4.074-21.522,8.91-42.683,14.375-62.9l.928-2.873c2.511-7.721,4.609-13.754,6.295-18.6l0-.009c7.435-21.383,7.435-21.383,3.242-51.115-.508-3.6-1.083-7.684-1.719-12.326a40.485,40.485,0,0,0-.588-4.538c-.813-4.958-1.824-11.127,1.5-13.222,3.247,2.051,4.758,7.331,5.972,11.574.3,1.038.577,2.018.863,2.884l.1.3c2.193,6.4,4.181,12.966,6.028,19.145,1.683-4.545,3.3-9.245,4.874-13.79,4.418-12.8,8.986-26.035,15.571-37.9a.5.5,0,0,1,.451-.239.555.555,0,0,1,.414.17.409.409,0,0,1,.1.33c-2.067,13.721-5.968,27.4-9.74,40.637-2.5,8.768-5.085,17.835-7.108,26.818l.154.429a72.955,72.955,0,0,1,3.009,13.166c.573,4.384.829,10.21-1.2,13.073a3.992,3.992,0,0,1-3.425,1.757,10.038,10.038,0,0,1-4.4-1.292l-1.164,6.092c-5.272,27.715-9.623,52.2-13.3,74.849-4.363,26.87-7.844,51.482-10.642,75.242-6.468,54.935-9.132,104.539-8.143,151.647a47.838,47.838,0,0,1-1.222,11.123c-.772,3.429-2.2,8.049-4.638,10.58A5.135,5.135,0,0,1,153.962,768.892Zm303.2-9.4c-3.888,0-6.244-2.372-6.464-6.507a9.213,9.213,0,0,1-2.189-4.112,10.614,10.614,0,0,1-.07-4.641,10.064,10.064,0,0,1,1.765-3.974,8.477,8.477,0,0,1,3.436-2.737c0-.02.522-.238,1.258-.544l.019-.008.036-.015c.4-.168.786-.326.99-.416a9.451,9.451,0,0,1,2.679-.393,10.662,10.662,0,0,1,8.6,4.835,11.13,11.13,0,0,1,1.519,10.192,10.325,10.325,0,0,1-4.424,5.914A13.038,13.038,0,0,1,457.158,759.488Zm248.737-5.848a7.671,7.671,0,0,1-5.967-2.56c-1.818-2.125-2.443-5.394-1.808-9.455-12.156-52.64-21.386-99.332-28.216-142.743-3.893-24.741-7.089-49.024-9.5-72.177-2.578-24.742-4.36-49.15-5.3-72.545a505.64,505.64,0,0,1-3.381-54.714c-.257-18.4.143-37.139.53-55.258l0-.152c.139-6.5.282-13.225.392-19.8a348.874,348.874,0,0,1,3.116-42.324c.088-.3.235-.471.415-.471a.521.521,0,0,1,.394.256.908.908,0,0,1,.14.8c1.169,5.921.989,12.318.815,18.5-.1,3.551-.2,7.224-.049,10.758a33.918,33.918,0,0,1,4.687-7.909,1.766,1.766,0,0,1,1.391-.731,2.329,2.329,0,0,1,1.973,1.4,2.161,2.161,0,0,1-.314,2.384,28.759,28.759,0,0,0-4.962,8.635,43.041,43.041,0,0,0-2.266,9.636c1.628,34.544,4.077,69.387,7.278,103.561,3.229,34.476,7.31,69.184,12.128,103.16,4.864,34.3,10.61,68.771,17.077,102.449,6.533,34.021,13.977,68.146,22.125,101.428a15.279,15.279,0,0,1,1.073,7.066,11.75,11.75,0,0,1-2.011,5.509A12.255,12.255,0,0,1,705.895,753.64Zm-293.909-.9a8.374,8.374,0,0,1-6.048-2.845,12.365,12.365,0,0,1-2.64-4.5,16.136,16.136,0,0,1-.76-6.187c-.186-47.875.211-91.835,1.215-134.391,1.1-46.6,2.972-91.819,5.566-134.4,2.811-46.127,6.59-91.2,11.234-133.981,2.443-22.505,5.187-44.946,8.154-66.7,3.056-22.4,6.443-44.753,10.065-66.435-11.2,14.122-22.595,28.49-33.61,42.385l-.429.541c-15.042,18.975-30.6,38.6-45.93,57.909a3.707,3.707,0,0,1-3,1.445,5.51,5.51,0,0,1-4.369-2.371l-.1-.155.656,1.76a16.881,16.881,0,0,1-3.5-1.758c-.3-.181-.636-.385-.963-.574C337.905,278.861,330.6,254,323.535,229.962c-2.781-9.464-5.657-19.249-8.634-28.825-3.018-11.4-6.614-22.921-10.091-34.062l0-.007c-3.33-10.669-6.773-21.7-9.713-32.638a280.307,280.307,0,0,1-7.03-33.144l-.221-.092a109.849,109.849,0,0,1-20.7,7.965,90.348,90.348,0,0,1-21.888,3.179c-14.983,3.859-30.628,5.886-45.758,7.846-1.611.209-3.436.445-5.193.676a168.21,168.21,0,0,0-21.6,2.288,141.84,141.84,0,0,0-19.425,4.787,126.342,126.342,0,0,0-17.357,7.088,119.906,119.906,0,0,0-15.4,9.19,121.443,121.443,0,0,0-13.54,11.093A130.393,130.393,0,0,0,95.2,168.1a157.035,157.035,0,0,0-18.754,29.911A216.8,216.8,0,0,0,63.42,232.358a303.228,303.228,0,0,0-8.136,37.184c-3.623,23.085-5.3,48.833-5,76.529l-.211,4.762c-.116,2.724-.229,5.5-.338,8.183v.005c-.54,13.309-1.1,27.072-2.345,40.543a257.42,257.42,0,0,1-6.532,39.943c-.558,1.118-1.356,3.462-2.366,6.43l0,0A149.092,149.092,0,0,1,32.5,461.528a30.131,30.131,0,0,1-3.724,6.161c-1.382,1.649-2.732,2.485-4.014,2.485-1.325,0-2.617-.892-3.84-2.653-3.445,4.6-4.76,8.278-4.139,11.565a10.336,10.336,0,0,0,2.762,5.094,28.921,28.921,0,0,0,6.079,4.755A120.394,120.394,0,0,1,38.063,501.34a121.382,121.382,0,0,1,11.075,14.9,101.543,101.543,0,0,1,8.508,16.644,76.429,76.429,0,0,1,4.735,17.651,4.93,4.93,0,0,1-1.255,3.876,4.874,4.874,0,0,1-3.536,1.779,3.478,3.478,0,0,1-3.178-2.294l-1.122-2.447c-5.176-11.235-8.272-17.123-10.392-21a156.963,156.963,0,0,0-12.5-19.594,4.69,4.69,0,0,1-1.656,1.668c-1.865,48.9-5.37,98.545-8.76,146.552-.7,9.983-1.434,20.306-2.139,30.491-.56,2.122-.711,6.985-.9,13.141-.238,7.644-.533,17.156-1.79,24.681a32.221,32.221,0,0,1-2.72,9.384c-1.3,2.482-2.927,3.741-4.845,3.742a8.334,8.334,0,0,1-4.87-2.1l-.525-.423C-.978,731.29-.041,723.524.865,716.014c.214-1.771.415-3.445.567-5.117l2.4-28.276c1.268-14.1,2.5-28.406,3.686-42.24,3.689-42.937,7.5-87.335,12.927-130.823l-.563-.647c-4.969-5.758-8.424-11.078-10.563-16.266a31.577,31.577,0,0,1-2.345-9.169,24.039,24.039,0,0,1,1.015-9.493,18.467,18.467,0,0,1,3.447-6.627,53.294,53.294,0,0,1,5.1-5.365,55.644,55.644,0,0,0,5.107-5.353c2.581-13.613,4.676-29.288,6.4-47.92,1.545-16.649,2.672-34.2,3.763-51.178,1.879-29.247,3.821-59.486,7.994-87.877a370.466,370.466,0,0,1,8.222-41.17c1.782-6.727,3.765-13.2,5.9-19.245,2.238-6.348,4.716-12.44,7.364-18.105a163.107,163.107,0,0,1,9.04-16.78,139.056,139.056,0,0,1,10.924-15.269,126.053,126.053,0,0,1,13.017-13.573,123.408,123.408,0,0,1,15.318-11.692,131.5,131.5,0,0,1,17.827-9.626,151.694,151.694,0,0,1,20.544-7.374,186.605,186.605,0,0,1,23.47-4.937,240.035,240.035,0,0,1,26.6-2.315l8.156-.564c12-.852,25.943-1.967,39.475-4.436,14.527-2.651,26.829-6.548,37.61-11.913.157-2.927,1.444-5.954,3.934-9.251a72.2,72.2,0,0,1,7.472-8c1.373-1.326,2.67-2.579,3.778-3.771a48.338,48.338,0,0,1,12.158-12.213,27.486,27.486,0,0,1,6.293-3.162,19.176,19.176,0,0,1,6.173-1.075,15.855,15.855,0,0,1,6.39,1.326,18.4,18.4,0,0,1,5.754,4.06c3.727,3.808,6.611,9.464,8.573,16.81C365.884,53.646,372.278,27.608,362.8,0a9.128,9.128,0,0,1,5.431,2.582,21.631,21.631,0,0,1,4.187,5.609,53.056,53.056,0,0,1,4.764,13.232,64.206,64.206,0,0,1,.607,21.671,80.286,80.286,0,0,1-5.995,20.96,99.525,99.525,0,0,1-11.024,19.1,106.76,106.76,0,0,1-14.48,16.084,609.465,609.465,0,0,0,48.305,39.3,545.7,545.7,0,0,0,52.288,33.835,12.724,12.724,0,0,1,9.778-4.062,20.789,20.789,0,0,1,9.9,2.65c5.472-5.177,11.055-10.408,16.454-15.466,13.923-13.044,28.316-26.53,42.063-40.26a56.165,56.165,0,0,1-17.438-17.37,69.617,69.617,0,0,1-9.006-22.281c-4.06-18.043-2.105-36.686.249-49.149l.182-.95a1.785,1.785,0,0,1,1.834-1.626,2.624,2.624,0,0,1,2.586,2.225l.134,1.492c.234,2.693.444,5.456.647,8.127,1.369,18.052,2.785,36.718,12.656,52.228a18.158,18.158,0,0,1,6.709-6.455,17.142,17.142,0,0,1,8.2-1.966,27.129,27.129,0,0,1,10.664,2.411,43.17,43.17,0,0,1,10.13,6.257,45.316,45.316,0,0,1,8.122,8.638,29.474,29.474,0,0,1,4.642,9.554c20.849,7.259,38.057,12.565,53.24,17.247,19.153,5.907,34.281,10.572,45.955,16.028a79.029,79.029,0,0,1,15.31,9.13,57.159,57.159,0,0,1,11.615,12.167c6.552,9.229,11.609,21.666,16.4,40.326,4.544,17.705,8.711,40.216,14.373,73.115,5.208,30.6,10.145,64.181,15.093,102.656,4.41,34.3,8.422,69.236,12.3,103.024l0,.019c4.809,41.88,9.781,85.186,15.556,127.655,3.109,22.864,6.2,43.663,9.436,63.586,3.637,22.363,7.375,43.069,11.426,63.3.376,4.315-3.542,7.84-7.438,8.426a7.942,7.942,0,0,1-1.046.071,7.031,7.031,0,0,1-3.5-.928,10.2,10.2,0,0,1-2.9-2.579,28.014,28.014,0,0,1-4.3-8.874c-2.3-7.154-3.567-16.075-4.688-23.946a106.135,106.135,0,0,0-2.362-13.263c-6.485-37.133-12.09-77.352-17.639-126.573-4.287-36.7-7.807-74.174-11.211-110.418-4.117-43.836-8.375-89.164-14.025-133.523-3.041-23.878-6.232-45.575-9.754-66.329-3.953-23.3-8.219-44.813-13.042-65.781a97.111,97.111,0,0,0-5.425-15.238,56.092,56.092,0,0,0-8.672-13.593,70.449,70.449,0,0,0-12.81-10.933,92.811,92.811,0,0,0-14.516-7.866c-10.121-4.449-21.2-7.591-31.908-10.63l-.009,0c-9.731-2.761-19.793-5.615-29.153-9.449a104.437,104.437,0,0,1-13.566-6.648,76.489,76.489,0,0,1-12.331-8.95c2.665,8.2,3.546,17.888,2.776,30.472-1.623,24.623-2.974,49.676-4.28,73.9v.02c-1.551,28.761-3.154,58.5-5.224,87.717a6.309,6.309,0,0,1-2.019,4.317,5.981,5.981,0,0,1-4.025,1.55,6.219,6.219,0,0,1-5.142-2.838c-9.347-13.643-18.937-27.441-28.211-40.784l-.039-.056c-17.642-25.384-35.885-51.632-53.224-77.91a22.528,22.528,0,0,1-9.789,2.362,20.111,20.111,0,0,1-3.908-.387c-2.25,2.841-3.761,7.282-4.618,13.577a170.739,170.739,0,0,0-1.085,17.826c-.174,6.512-.339,12.661-1.224,17.354l-.938,10.258c-3.886,42.743-7.159,81.778-10,119.334-3.187,42.064-5.756,81.146-7.854,119.478-2.25,41.119-3.931,81.364-5,119.616-1.138,40.9-1.619,81.191-1.429,119.749l.029,5.154c0,1.656.04,3.364.081,5.016v.012c.081,3.25.164,6.61-.078,9.841a14.4,14.4,0,0,1-3.472,7.3A7.126,7.126,0,0,1,411.986,752.741ZM331.1,240.058h0c1.293,4.674,3,10.827,4.755,16.962,4.531,15.864,10.021,31.23,14.3,42.844-6.005-18.788-12.237-38.351-19.052-59.807ZM327.549,67.537h0a9.076,9.076,0,0,0-4.75,1.447,20.67,20.67,0,0,0-4.466,3.826,96.423,96.423,0,0,0-8.5,11.683l0,0h0c-3.039,4.624-6.182,9.405-9.5,12.809,1.521,10.878,3.564,21.871,6.244,33.607,2.387,10.453,5.229,21.259,8.689,33.036,6.427,21.875,14.064,43.851,21.449,65.1,7.017,20.193,14.273,41.074,20.472,61.814,15.685-20.048,31.862-40.705,46.135-58.931l.788-1.006c11-14.041,22.366-28.56,33.539-42.835.949-1.216,1.9-2.49,2.81-3.721l.008-.011c.627-.845,1.276-1.719,1.932-2.582-8.646-5-17-10.139-24.838-15.286-8.309-5.457-16.326-11.11-23.827-16.8-7.891-5.987-15.469-12.213-22.525-18.5-7.38-6.581-14.423-13.442-20.932-20.394a5.305,5.305,0,0,1-1.106.118,7.387,7.387,0,0,1-4.448-1.782,33.738,33.738,0,0,1-3.941-3.783,30.45,30.45,0,0,0-3.275-3.184l-.387-.319a16.334,16.334,0,0,1-4.3-5.343,7.376,7.376,0,0,1-.128-6.54.847.847,0,0,1-.018-.72,1.208,1.208,0,0,1,.755-.629c1.194-1.31,2.443-2.624,3.652-3.9,1.5-1.58,3.054-3.211,4.543-4.88-4.93-8.278-9.533-12.3-14.074-12.3ZM529.01,95.272h0a35.729,35.729,0,0,0-5.941.529c2.657,3.639,6.553,5.757,10.32,7.805,3.63,1.974,7.383,4.014,9.934,7.4a4.736,4.736,0,0,1,.22,4.472,5.634,5.634,0,0,1-4.1,3.18c-9.27,8.4-18.482,17.012-27.391,25.345-13,12.161-26.444,24.735-40.267,36.806,20.339,26.332,40.379,53.518,59.759,79.808l.006.009.038.051c5.266,7.144,10.712,14.531,16.082,21.791.895-23.766,2.158-47.906,3.381-71.251l0-.028c1.153-22.021,2.345-44.792,3.224-67.2a95.96,95.96,0,0,0-.659-22.655c-1.4-8.407-4.155-14.9-8.2-19.288a20.4,20.4,0,0,0-6.936-4.959,23.764,23.764,0,0,0-9.466-1.822Zm-78.395,575.65a6.575,6.575,0,0,1-5.039-2.5,5.753,5.753,0,0,1-1.084-5.008l-.019-1.072q-.01-.414-.022-.836l0-.06a29.394,29.394,0,0,1,.519-8.113,8.116,8.116,0,0,1,5.06-5.849,9.026,9.026,0,0,1,6.222-2.8,8.265,8.265,0,0,1,7.654,6.166,11.7,11.7,0,0,1-.629,8.237,21.471,21.471,0,0,1-7.936,8.9A5.247,5.247,0,0,1,450.615,670.922Zm-.973-120.2a4.577,4.577,0,0,1-3.716-1.9,10.062,10.062,0,0,1-1.846-4.723,14.1,14.1,0,0,1,.181-5.268,12.361,12.361,0,0,1-1.644-9.762,17.308,17.308,0,0,1,3.054-6.451A19.258,19.258,0,0,1,451.1,517.7a13.25,13.25,0,0,1,4.024-.7,7.1,7.1,0,0,1,5.424,2.247,11.1,11.1,0,0,1,2.562,5.681,28.666,28.666,0,0,1-1.807,14.749,24.286,24.286,0,0,1-3.583,6.384,11.894,11.894,0,0,1-4.942,3.828A7.135,7.135,0,0,1,449.642,550.726Zm7.368-110.843a3.925,3.925,0,0,1-2.9-1.322,16.6,16.6,0,0,1-4.3-8.427,15.4,15.4,0,0,1,.992-8.836c-.57-2.412-.779-5.883,1.466-8.72a8.811,8.811,0,0,1,6.893-3.231,8.629,8.629,0,0,1,6.143,2.482,10.712,10.712,0,0,1,2.849,7.718c.4,3.8-1.551,6.84-3.439,9.782a22.472,22.472,0,0,0-3.109,6.128A4.876,4.876,0,0,1,457.01,439.882Zm4.942-131.554a12.514,12.514,0,0,1-5.944-1.732,18.055,18.055,0,0,1-5.21-4.38c-2.275-2.838-3.193-5.906-2.584-8.639.475-3.8,1.841-6.68,4.061-8.555a9.914,9.914,0,0,1,6.407-2.271c2.938,0,5.146,1.171,5.365,2.264.159.8-.68,1.326-1.412,1.631-.129.138-.268.28-.426.434a6.637,6.637,0,0,1,4.808,2.46,11,11,0,0,1,1.925,6.231,34.477,34.477,0,0,1-.438,6.867,7.614,7.614,0,0,1-2.5,4.37A6.309,6.309,0,0,1,461.953,308.329Z" transform="translate(26 -17)"/>
  </g>
</svg>
