<svg xmlns="http://www.w3.org/2000/svg" width="818" height="787" viewBox="0 0 818 787">
  <g id="body_Polo_and_Sweater" data-name="body/Polo and Sweater" transform="translate(0 54)">
    <path id="_Skin" data-name="âœ‹ Skin" d="M83.452,762.934c61.232,1.714,119.074,3.6,180.188,0,97.8-6.049,384.795,4.855,447.879,0,4.761-.366,21.133,4.855,21.474,0,2.773-33.807,4.571-375.844-3.668-399.379S680.419,226.887,628.6,174.133c-14.449-14.252-36.437-19.773-48.583-36.242-10.473-17.96-9.659-28.5-20-37.949-4.488-4.1-15.072-5.763-22.937-11.454-7.908-7.859-.421-25.159-3.667-36.1C526.722,25.058,502.075,7.527,475.136,3.4c-37.442-8.959-76.97-.488-94.9,28.922-6.676,10.948-3.123,24.254-11.334,41.8.586,13.257-14.891,16.46-24.142,21.713L326.384,114.4c-56.6,31.846-123.183,49.043-172.776,91.829C111.444,249,69.506,298.435,50.8,356.305c-3.873,15.769-5.137,32.067-6.742,48.18-4.582,47.088-17.341,92.791-28.321,138.658C3.215,600.932-8.456,662.278,8.418,720.614,13.283,732.961,72.377,762.357,83.452,762.934Z" transform="translate(13.323 -54)" fill="#d08b5b"/>
    <path id="Path" d="M368.966,0l4.782.512V37.329l62.531,65.048,11.428,13.063q-10.218,36.437,20.579,36.437c30.8,0,6.988-8.949,12.779-21.061l.244-.5q6.3-12.439,43.1-52.764l28.143-47.043v-8.59l.953.39a22.79,22.79,0,0,1,6.508,3.659c10.342,9.449,9.529,19.99,20,37.949,12.146,16.47,34.134,21.991,48.583,36.243,51.819,52.754,92.487,165.888,100.726,189.422s6.441,365.572,3.668,399.379c-.341,4.855-16.714-.366-21.474,0-63.085,4.855-350.083-6.049-447.879,0-61.114,3.6-118.956,1.714-180.188,0-11.075-.577-70.169-29.974-75.034-42.321-16.874-58.336-5.2-119.681,7.317-177.47l1.085-4.511c10.541-43.6,22.395-87.1,27-131.832l.232-2.315c1.6-16.113,2.869-32.411,6.742-48.18,18.708-57.87,60.646-107.308,102.81-150.081C202.7,89.9,268.454,72.619,324.683,41.377l1.7-.951,18.372-18.567.562-.313c9.3-5.072,24.154-8.408,23.58-21.4L368.966,0Z" transform="translate(13 19.992)" fill="#fdea6b"/>
    <path id="_Ink" data-name="ðŸ– Ink" d="M112.257,731.246c-8.37,0-15.8-.268-22.707-.821a166.2,166.2,0,0,1-24.691-3.658,97.6,97.6,0,0,1-23.408-8.5,67.813,67.813,0,0,1-17.586-13.291c1.195-.7,2.414-1.4,3.594-2.073l.065-.037c3.84-2.2,7.81-4.484,11.581-6.951a3.966,3.966,0,0,0,1.658-2.115,4.136,4.136,0,0,0-.007-2.437,3.988,3.988,0,0,0-3.62-3.02,3.76,3.76,0,0,0-2.069.666c-3.756,2.458-7.71,4.728-11.533,6.923-1.609.924-3.271,1.878-4.9,2.834A74.179,74.179,0,0,1,8.92,681.215c-3.852-9.883-5.382-20.512-6.73-31.441A304.558,304.558,0,0,1,0,612.056c0-23.3,2.123-48.431,6.681-79.1,3.912-26.368,9.191-52.588,13.838-74.759l.711-3.381c1-4.766,2.013-9.615,2.99-14.3l.019-.089c4.016-19.272,8.168-39.2,12.891-58.646,5.873-24.183,12.156-45.942,19.208-66.52,2.857,1.766,5.819,3.466,8.684,5.11,3.818,2.19,7.767,4.456,11.516,6.909a3.756,3.756,0,0,0,2.068.666,3.991,3.991,0,0,0,3.623-3.022,4.132,4.132,0,0,0,.007-2.436,3.916,3.916,0,0,0-1.659-2.115c-3.757-2.459-7.712-4.731-11.537-6.929l-.005,0c-3.3-1.9-6.716-3.859-9.988-5.932,4.3-12,8.909-23.656,13.713-34.635,5.084-11.618,10.558-22.89,16.271-33.5a358.411,358.411,0,0,1,41.641-61.574,310.423,310.423,0,0,1,25.6-26.864,283.329,283.329,0,0,1,60.846-43.215,281.051,281.051,0,0,1,34.289-15.278,256.758,256.758,0,0,1,36.538-10.357,303.759,303.759,0,0,1,37.61-5.242c.029,0,.058,0,.086,0a.924.924,0,0,1,.684.292,1.3,1.3,0,0,1,.332.945l-.01.115,1,.161a17.558,17.558,0,0,1,2.579-7.17c2.816-4.334,7.85-7.383,12.291-10.072.789-.478,1.534-.929,2.268-1.387l1.185-.738c5.884-3.647,12.21-7.317,19.146-8.612a.308.308,0,0,1,.052,0,.24.24,0,0,1,.222.135.249.249,0,0,1-.045.269,82.45,82.45,0,0,1-11.4,10.178c-1.436,1.13-2.919,2.3-4.342,3.475l-1.229,1.025c-.525.432-1.062.861-1.631,1.316-4.219,3.37-9,7.19-9.146,12.566a98.751,98.751,0,0,0,1,14.051v.01c.3,2.555.619,5.2.808,7.75.537,7.236.9,14.446,1.089,21.429a668.278,668.278,0,0,1-2.409,76.861l10.039-6.721c15.9-10.645,31.486-21,47.3-30.68a88.4,88.4,0,0,1,15.005-7.562,46.22,46.22,0,0,1,16.389-3.214c.257,0,.514,0,.765.008a41.507,41.507,0,0,1,10.441,1.53c-2.177-2.062-4.329-4.228-6.41-6.323-1.542-1.552-3.137-3.157-4.72-4.7l-.089-.087c-5.963-5.807-12.129-11.811-18.24-17.753l-17.618-17.16L373.33,89.6c-.621-.606-1.265-1.218-1.888-1.809l-.021-.02a45.57,45.57,0,0,1-6.726-7.371,16.171,16.171,0,0,1-2.09-4.334,14.047,14.047,0,0,1-.554-5.1c.352-5.011,2.362-10.041,4.305-14.905.648-1.623,1.317-3.3,1.9-4.925.311-.879.609-1.781.91-2.759,2.306-7.664,4.153-15.591,5.939-23.257,1.854-7.957,3.771-16.186,6.2-24.114A1.307,1.307,0,0,1,382.578,0a1.516,1.516,0,0,1,1.494,1.376,131.186,131.186,0,0,1,.151,22.947c-.547,7.784-1.53,15.455-2.481,22.873-.292,2.3-.548,4.648-.8,6.924-.54,4.958-1.1,10.081-2.055,14.955-.168.709-.34,1.48-.51,2.291a7.549,7.549,0,0,0,1.691,1.7c.3.244.575.474.78.674l2.822,2.745,5.657,5.477c6.018,5.827,12.137,11.755,18.055,17.488l.1.1q7.526,7.291,15.052,14.581l16.249,15.75c1.67,1.618,3.432,3.239,5.137,4.806a115.8,115.8,0,0,1,11.654,11.785,9.821,9.821,0,0,1,2.293,5.3,7.863,7.863,0,0,1-1.653,5.476,8.917,8.917,0,0,1-5.96,3.25,13.768,13.768,0,0,1,2.08,4.342,4.985,4.985,0,0,1-.946,4.3,4.516,4.516,0,0,1-3.548,1.918,3.954,3.954,0,0,1-1.435-.275,38.828,38.828,0,0,1-5.263-2.658,33.14,33.14,0,0,0-6.138-2.962,26.439,26.439,0,0,0-8.193-1.271,28.291,28.291,0,0,0-4.677.391,38.855,38.855,0,0,0-5.749,1.442,169.3,169.3,0,0,0,31.094,10.8,163.9,163.9,0,0,0,32.646,4.46c1.573.053,3.156.08,4.7.08,2.948,0,5.894-.1,8.756-.288a125.743,125.743,0,0,0,22.33-3.47,136.1,136.1,0,0,0,17.022-5.471,86.789,86.789,0,0,0,8.01-3.619l.228-.135c.087-.054.4-.235.868-.508l.034-.02c2.617-1.519,10.579-6.141,10.74-6.927a2.669,2.669,0,0,0-.165-2.055,3.53,3.53,0,0,0-1.334-1.362c-3.277-1.4-6.787-2.77-10.5-2.795h-.1c-7.607,0-15.848,5.088-22.47,9.176-.718.443-1.393.86-2.058,1.265-5.069,3.086-9.948,6.574-14.667,9.948l-.019.014c-2.418,1.729-4.918,3.516-7.415,5.229a.939.939,0,0,1-.54.17,1.225,1.225,0,0,1-1.031-.662,1,1,0,0,1,.031-1.05,69.98,69.98,0,0,1,9.131-10.764,112.629,112.629,0,0,1,10.765-9.169l3.009-2.255a106.861,106.861,0,0,1,11.024-7.442,35.356,35.356,0,0,1,12.132-4.539,21.687,21.687,0,0,1,3.147-.225,33.556,33.556,0,0,1,10.714,2.019c3.546,1.2,7.023,2.771,10.387,4.291l.01,0c1.971.89,3.832,1.732,5.662,2.48l16.1,6.59c1.11.452,2.282.889,3.415,1.31l.005,0c1.813.675,3.689,1.372,5.46,2.188l-6.747-21.109c-3.011-9.432-6.562-20.571-10.062-31.68l-.646-2.07c-.4-1.3-.806-2.627-1.2-3.912l-.013-.042c-2.865-9.4-5.827-19.128-10.674-27.726-1.177-2.1-2.528-4.113-3.834-6.064l-.1-.145-.389-.582a22.624,22.624,0,0,1-1.557-2.866,14.96,14.96,0,0,0-2.523-4.055c-3.266-3.46-8.065-6.1-14.671-8.059a1.026,1.026,0,0,1-.8-1.1,1.236,1.236,0,0,1,1.1-1.108,24.944,24.944,0,0,1,2.6-.136,30.12,30.12,0,0,1,12.879,3.115l2.035.971.545.257c4.492,2.121,8.735,4.125,12.038,7.9a61.446,61.446,0,0,1,9.362,14.906,163.33,163.33,0,0,1,6.289,16.539l1,3a1.449,1.449,0,0,1,.428-.049,34.526,34.526,0,0,1,6.289,1.35,40.007,40.007,0,0,1,5.382,1.829,153.284,153.284,0,0,1,25.216,13.611,170.811,170.811,0,0,1,22.22,17.716,214.848,214.848,0,0,1,35.756,44.684c10.125,16.581,18.785,35.293,26.475,57.2,7.614,21.692,13.295,43.854,17.393,60.737,2.966,12.218,5.918,24.944,8.775,37.825-4.347,1.673-8.862,3.091-13.228,4.462-8.17,2.566-16.614,5.218-24.238,9.632a3.637,3.637,0,0,0-1.794,4.277,4.194,4.194,0,0,0,3.838,3.2,3.958,3.958,0,0,0,1.993-.569c7.187-4.161,15.166-6.643,22.883-9.044,4.052-1.26,8.24-2.563,12.273-4.1,6.6,30.374,12.232,60.059,16.748,88.232,3.725,23.211,7.035,46.177,9.839,68.261,2.957,23.29,5.452,46.388,7.415,68.654,2.057,23.332,3.6,46.509,4.578,68.886,1.022,23.332,1.469,46.532,1.327,68.958a13.164,13.164,0,0,1-1.72,6.25,3.463,3.463,0,0,0,1.451-1.158,5.083,5.083,0,0,1,4.381-2.488,5.989,5.989,0,0,1,5.143,2.975,4.657,4.657,0,0,1-.294,4.913l-.542.843a36.777,36.777,0,0,1-4.347,5.7,20.96,20.96,0,0,1-5.93,4.3,26.6,26.6,0,0,1-7.664,2.358,60.894,60.894,0,0,1-8.046.632c-16.763.442-34.918.779-55.5,1.032-.963-7.51-1.721-15.172-2.454-22.582v-.006c-1.2-12.126-2.441-24.664-4.612-36.879a3.245,3.245,0,0,0-3.346-2.89,4.686,4.686,0,0,0-3.5,1.637,4,4,0,0,0-.865,3.381c2.171,12.217,3.413,24.759,4.615,36.888v.006c.668,6.739,1.358,13.708,2.2,20.542-31.541.339-63.613.412-94.63.483-7.446.017-15.885.036-24.072.059-19.087.056-39.2.082-63.3.082-19.992,0-40.3-.018-59.942-.036h-.152c-12.244-.011-24.9-.023-37.356-.03l-22.964-.007c-62.153,0-124.631-.205-185.7-.61l-14.721-.1c-3.165-18.656-5.5-35.665-7.126-52-1.842-18.445-2.754-35.591-2.79-52.418a3.692,3.692,0,0,0-1.257-2.9,4.217,4.217,0,0,0-2.754-.967,4.16,4.16,0,0,0-2.943,1.148,3.732,3.732,0,0,0-1.046,2.716c.035,16.815.938,33.95,2.761,52.385,1.616,16.351,3.925,33.356,7.057,51.988-3.266-.014-6.281-.022-9.219-.022-13.5,0-24.545.169-34.743.531l-7.459.266C127.745,731.016,119.973,731.246,112.257,731.246Zm494.078-61.224a4.36,4.36,0,0,0-3.871,2.717,3.642,3.642,0,0,0,.88,4.117l1.928,1.92c3.294,3.286,6.434,6.561,8.641,10.495l.327.6a3.455,3.455,0,0,0,3.124,2,4.521,4.521,0,0,0,3.724-2.157,3.82,3.82,0,0,0,.059-3.881c-2.793-5.3-7.143-9.639-11.351-13.839L609,671.2A3.741,3.741,0,0,0,606.335,670.022Zm-170.658-1.513a90.672,90.672,0,0,0-17.192,1.661,3.482,3.482,0,0,0-2.313,1.418,3.583,3.583,0,0,0-.552,2.377,4.28,4.28,0,0,0,4.139,4,4.566,4.566,0,0,0,.854-.083,78.8,78.8,0,0,1,30.128,0,4.559,4.559,0,0,0,.852.083,3.918,3.918,0,0,0,2.894-1.255,4.711,4.711,0,0,0,1.249-2.75,3.576,3.576,0,0,0-.552-2.374,3.487,3.487,0,0,0-2.314-1.417A90.672,90.672,0,0,0,435.677,668.509ZM295.12,589.391a4.023,4.023,0,0,0-3.862,3.7,3.937,3.937,0,0,0,.493,2.522,3.678,3.678,0,0,0,2.321,1.628l2.459.617c6.225,1.538,11.469,2.563,16.831,2.563a37.484,37.484,0,0,0,8.18-.875,3.576,3.576,0,0,0,2.319-1.521,3.783,3.783,0,0,0,.525-2.45,4.64,4.64,0,0,0-1.225-2.657,3.767,3.767,0,0,0-2.779-1.2,4.409,4.409,0,0,0-.77.07l-.2.04a28.729,28.729,0,0,1-6.27.668c-5.289,0-10.334-1.286-15.674-2.648l-1.272-.324a4.392,4.392,0,0,0-1.077-.139Zm276.655-52.973a4.05,4.05,0,0,0-2.358.793,4.546,4.546,0,0,0-1.556,1.951,3.581,3.581,0,0,0,.924,4.061c5.43,5.28,10.877,7.924,16.653,8.084l.137,0a3.555,3.555,0,0,0,2.737-1.146,4.07,4.07,0,0,0,.983-2.573,4.374,4.374,0,0,0-.852-2.814,3.73,3.73,0,0,0-2.779-1.458l-.227-.012a12.5,12.5,0,0,1-6.009-1.8,25.563,25.563,0,0,1-4.986-3.939A3.8,3.8,0,0,0,571.775,536.418ZM101.448,508.832h0a4.159,4.159,0,0,0-1.868.462L71.932,523.118a3.371,3.371,0,0,0-1.924,3.959,4.406,4.406,0,0,0,4.092,3.411,4.159,4.159,0,0,0,1.87-.462L103.617,516.2a3.37,3.37,0,0,0,1.925-3.957,4.407,4.407,0,0,0-4.093-3.412Zm548.364,9.131a3.546,3.546,0,0,0-2.772,1.185,4.1,4.1,0,0,0-.951,2.641,4.329,4.329,0,0,0,.944,2.818,3.787,3.787,0,0,0,2.917,1.357c4.1.114,8.714,1.443,14.108,4.061a4.193,4.193,0,0,0,1.84.442,4.438,4.438,0,0,0,4.146-3.452,3.322,3.322,0,0,0-1.948-3.9,60.4,60.4,0,0,0-8.815-3.536,35.225,35.225,0,0,0-9.331-1.617Zm-260.148-46.23h0a3.69,3.69,0,0,0-2.085.7c-3.185,2.164-6.255,4.581-9.224,6.918-2.47,1.944-5.024,3.955-7.63,5.809l-1.578,1.1a4.019,4.019,0,0,0-1.636,2.167,4.243,4.243,0,0,0,.035,2.472,3.948,3.948,0,0,0,3.554,2.965,3.693,3.693,0,0,0,2.085-.7c3.179-2.16,6.246-4.575,9.212-6.91l.005,0c2.967-2.335,6.034-4.75,9.214-6.91a4.017,4.017,0,0,0,1.636-2.167,4.243,4.243,0,0,0-.035-2.472,3.948,3.948,0,0,0-3.553-2.966Zm302.631-42.551c3.3,0,7.111.121,10.477,1.568l.454.2a4.228,4.228,0,0,0,1.81.421,4.162,4.162,0,0,0,2.729-1.066,4.61,4.61,0,0,0,1.468-2.429,3.27,3.27,0,0,0-1.969-3.833c-5.6-2.635-11.288-2.847-18.147-2.851a3.685,3.685,0,0,0-2.9,1.25,4.206,4.206,0,0,0-.966,2.75,3.776,3.776,0,0,0,3.864,4l.976,0,.607,0h.034C691.245,429.185,691.773,429.182,692.295,429.182ZM244.758,407.26a4.076,4.076,0,0,0-1.376.255c-5.545,1.992-10.054,5.249-14.828,8.7l-.007,0c-1.478,1.068-3.007,2.171-4.551,3.22a4.019,4.019,0,0,0-1.637,2.167,4.242,4.242,0,0,0,.035,2.471,3.949,3.949,0,0,0,3.555,2.966,3.694,3.694,0,0,0,2.085-.7c1.588-1.079,3.172-2.261,4.7-3.405,3.773-2.818,7.675-5.731,12.1-7.461l.672-.252a3.993,3.993,0,0,0,2.286-1.975,4.479,4.479,0,0,0,.374-2.754A3.6,3.6,0,0,0,244.758,407.26ZM543.843,386.7a4.122,4.122,0,0,0-1.9.482c-2,1.027-3.909,2.262-5.759,3.455-1.516.978-3.081,1.988-4.683,2.879l-1.079.578a3.42,3.42,0,0,0-1.9,4.019,4.6,4.6,0,0,0,1.437,2.352,3.926,3.926,0,0,0,2.608,1.019,4.124,4.124,0,0,0,1.9-.482c1.994-1.027,3.9-2.26,5.752-3.453,1.517-.979,3.084-1.991,4.689-2.883l1.079-.577a3.421,3.421,0,0,0,1.9-4.021,4.6,4.6,0,0,0-1.437-2.352A3.925,3.925,0,0,0,543.843,386.7ZM419.711,315.229a4.373,4.373,0,0,0-3.9,2.737,3.6,3.6,0,0,0,.913,4.076c9.2,9,19.946,15.764,31.069,22.465l2,1.2a3.9,3.9,0,0,0,2.016.6,3.613,3.613,0,0,0,2.393-.937,4.59,4.59,0,0,0,1.385-2.212,3.9,3.9,0,0,0-.053-2.358,3.8,3.8,0,0,0-1.7-2l-2.93-1.762c-4.689-2.828-9.679-5.9-14.4-9.176A110.173,110.173,0,0,1,423.2,317.18l-.824-.795A3.783,3.783,0,0,0,419.711,315.229ZM198.289,304h0a4.182,4.182,0,0,0-3.266,1.536l-.111.139a78.975,78.975,0,0,1-11.066,11.451l-.752.645c-.371.316-.809.7-1.232,1.08-2.535,2.253-6.008,5.337-8.84,5.579a4.2,4.2,0,0,0-3.832,4.537,3.382,3.382,0,0,0,3.433,3.48c.13,0,.264-.006.4-.017,5.064-.431,9.434-3.921,13.29-7l.266-.212a90.6,90.6,0,0,0,15.242-15.5,3.133,3.133,0,0,0,.489-3.411,4.545,4.545,0,0,0-4.019-2.3Zm426.153-30.2h0a3.826,3.826,0,0,0-2.533,1l-.132.12c-6.15,5.777-14.6,7.791-22.771,9.738-1.022.243-2.078.495-3.113.751a3.658,3.658,0,0,0-2.32,1.611,3.918,3.918,0,0,0-.5,2.512,4.039,4.039,0,0,0,3.885,3.726,4.426,4.426,0,0,0,1.061-.134l4.074-1.005a97.787,97.787,0,0,0,13.46-4.15,38.187,38.187,0,0,0,11.878-7.393,3.508,3.508,0,0,0,.975-3.993,4.458,4.458,0,0,0-3.965-2.778Zm-156.526-43.83a4.02,4.02,0,0,0-3.859,3.7,3.941,3.941,0,0,0,.492,2.524,3.682,3.682,0,0,0,2.322,1.631,123.523,123.523,0,0,1,24.386,8.814,4.179,4.179,0,0,0,1.852.45,4.426,4.426,0,0,0,4.125-3.434,3.344,3.344,0,0,0-1.938-3.924,133.033,133.033,0,0,0-26.3-9.619,4.4,4.4,0,0,0-1.081-.141ZM230.553,144.562h0a3.343,3.343,0,0,0-2.207.868,4.59,4.59,0,0,0-1.338,2.088,4.255,4.255,0,0,0-.039,2.476,4.031,4.031,0,0,0,1.634,2.176c2.8,1.913,5.521,4.005,8.153,6.028,4.67,3.59,9.5,7.3,14.887,10.1a4.105,4.105,0,0,0,1.9.488,3.907,3.907,0,0,0,2.566-.988,4.613,4.613,0,0,0,1.446-2.295,3.421,3.421,0,0,0-1.717-4.027l-.159-.086c-5.384-2.8-10.214-6.509-14.884-10.1-2.635-2.025-5.357-4.117-8.156-6.029a3.68,3.68,0,0,0-2.087-.7Zm254.512,25.691h0a7.692,7.692,0,0,1-.933-.057,9.265,9.265,0,0,1-4.508-1.791,7.984,7.984,0,0,1-2.669-3.53,7.528,7.528,0,0,1,1.728-7.839,57.174,57.174,0,0,1,7.176-6.342c1.589-1.255,3.23-2.552,4.7-3.889,3.638-3.29,7.322-6.83,10.949-10.52a252.736,252.736,0,0,0,20.431-23.49c6.738-8.835,12.363-16.914,17.2-24.7l1.051-1.709c.863-1.42,1.97-2.986,3.142-4.645a64.389,64.389,0,0,0,6.138-9.912c1.82-3.987,2.228-7.377,1.249-10.363a.488.488,0,0,1,.08-.441.514.514,0,0,1,.408-.224.427.427,0,0,1,.142.025,7.442,7.442,0,0,1,4.437,3.961c.978,2.2,1.026,5.106.145,8.88a66.125,66.125,0,0,1-3.077,9.08l-.089.224-.506,1.286a173.553,173.553,0,0,1-17.139,32.36,272.964,272.964,0,0,1-23.09,30.19c-3.6,4.081-7.4,8.124-11.3,12.017l-1.468,1.453c-.656.645-1.337,1.364-2.059,2.126a46.555,46.555,0,0,1-5.572,5.262A11.012,11.012,0,0,1,485.066,170.253Z" transform="translate(9 -17.978)"/>
  </g>
</svg>
