<svg xmlns="http://www.w3.org/2000/svg" width="818" height="766" viewBox="0 0 818 766">
  <g id="body_Device" data-name="body/Device" transform="translate(0 33)">
    <path id="_Skin" data-name="âœ‹ Skin" d="M688.718,327.928c-3.142-8.626,1.446-17.23,3.991-25.575,9.041-28.941-15.688-101.938-32.983-103.005-6.325-16.364-23.206-23.152-36.492-32.576-15.077-9.41-29.743-20.218-45.423-28.468-.872-7.795-10.324-9.727-16.1-4.151-15.875-9.875-34.912-8.041-51.929-14.511-12.931-20.9-13.9-42.878-17.324-63.041-1.492-8.789.093-17.27-5.913-25.106C466.366,3.12,386.65-9.183,357.259,7.632c-15.821-9.867-16.2,8-18.715,19.032a35,35,0,0,0-3.837,18.351c-7.49,15.644-13.841,35.212-29.581,46.9-19.973,14.826-50.7,20.461-70.174,27.731a22.777,22.777,0,0,1-5.7-10.28c-30.18,6.561-59.471,18.094-84.757,36.1-28.728,8.4-48.96,31.767-63.59,56.82a10.828,10.828,0,0,0-1.521,7.807C34.391,276.038,12.919,354.987,9.9,434.725-19.028,452.088,23.654,608.066,33.59,640.448l.03-.013c6.446,11.412,13.765,43.976,29.9,41.457,11.066,12.512,28.7,10.052,43.718,11.013-2.446,9.382-1.244,20.117,1.667,29.388,3.443,11.036,20.339,11.41,22.735-.622,149.544,29.054,302.983,5.872,454.208,10.233,43.724.31,87.444,1.663,131.063,4.778,6.142.438,12.369-5.838,11.951-11.953-9.378-99.772-18.185-231.023-28.672-329.818C697.7,372.38,695.733,349.6,688.718,327.928Z" transform="translate(55 -33)" fill="#d08b5b"/>
    <path id="_Top" data-name="ðŸ‘• Top" d="M505.032,632.77c-87.494,0-186.4-1.553-264.579-4.153-39.05-1.3-71.538-2.825-93.951-4.412-11.825-.837-21.005-1.7-27.287-2.562-6.563-.9-10.032-1.814-10.312-2.712a76.621,76.621,0,0,1-2.843-17.652c-.388-7.043.03-13.341,1.176-17.736-2.81-.18-5.774-.241-8.641-.3-6.338-.131-12.892-.267-18.944-1.641A33.81,33.81,0,0,1,71,578.458a26.73,26.73,0,0,1-7.484-5.928,11.415,11.415,0,0,1-1.755.138c-4.912,0-9.391-3.289-13.692-10.055-3.719-5.851-6.709-13.336-9.346-19.939a107.917,107.917,0,0,0-5.1-11.6l-.03.013c-2.637-8.593-7.162-24.5-11.961-43.364-5.97-23.472-10.834-45.385-14.457-65.13C2.494,397.1.082,376.134,0,360.279c-.046-9.162.7-16.705,2.205-22.419a29.407,29.407,0,0,1,3.085-7.681A13.821,13.821,0,0,1,9.9,325.363a471.845,471.845,0,0,1,19-117.488,406.264,406.264,0,0,1,21.067-55.438,371.112,371.112,0,0,1,29.412-51.708,10.832,10.832,0,0,1,1.326-7.476l.2-.33A188.229,188.229,0,0,1,92.97,74.656a135.72,135.72,0,0,1,14.44-16.388A101.037,101.037,0,0,1,124.493,45a83.35,83.35,0,0,1,20-8.9,208.325,208.325,0,0,1,40.543-22.344A256.263,256.263,0,0,1,229.249,0c.044.2.094.418.156.663l-.572,1.3c-3.606,8.316-5.435,15.3-5.435,20.757,0,1.575.877,4.791,2.4,8.825a141.964,141.964,0,0,0,7.3,15.832,216.964,216.964,0,0,0,29.77,42.595c15.255,17.043,32.357,30.62,50.831,40.354a155.519,155.519,0,0,0,33.623,13.031,154.33,154.33,0,0,0,18.918,3.626,161.294,161.294,0,0,0,20.342,1.279c5.2,0,10.529-.248,15.838-.737a276.5,276.5,0,0,0,29.344-4.238,214.863,214.863,0,0,0,26.333-7.032,172.067,172.067,0,0,0,23.321-9.825,145.193,145.193,0,0,0,20.31-12.618A132.146,132.146,0,0,0,519.03,98.4a131.687,131.687,0,0,0,14.287-18.205,143.839,143.839,0,0,0,11.276-21A169.645,169.645,0,0,0,552.857,35.4l1.055-14.514a48.457,48.457,0,0,1,7.8,3.905,11.049,11.049,0,0,1,7.667-3.2,8.824,8.824,0,0,1,5.576,1.884,8.008,8.008,0,0,1,2.861,5.463c10.337,5.438,20.382,12.087,30.1,18.517l0,0c5.008,3.315,10.186,6.742,15.322,9.948l.922.646c2.812,1.947,5.817,3.822,8.723,5.636,5.383,3.359,10.948,6.833,15.69,10.985a44.946,44.946,0,0,1,6.446,6.854,34.832,34.832,0,0,1,4.711,8.454l2.474.158a9.4,9.4,0,0,1,5.235,2.463,30.892,30.892,0,0,1,5.4,6.229A100.679,100.679,0,0,1,682.842,118.9a191.743,191.743,0,0,1,7.864,26.017,160.219,160.219,0,0,1,3.9,26.513c.461,8.81-.176,16.063-1.892,21.558-.513,1.683-1.12,3.406-1.707,5.072-2.356,6.694-4.793,13.615-2.284,20.5a199.3,199.3,0,0,1,6.935,29.956c1.622,10.125,2.744,20.51,3.83,30.554v.008l.02.189c.223,2.059.453,4.188.683,6.278,6.082,57.295,11.627,125.857,16.989,192.162l0,.033c3.981,49.224,7.741,95.717,11.68,137.623a10.206,10.206,0,0,1-3.521,8.059,14.453,14.453,0,0,1-8.43,3.894c-20.082,1.842-49.787,3.246-88.291,4.172C593.389,632.34,551.809,632.77,505.032,632.77Zm81.922-425.333c-17.3,0-57.314,8.269-86.318,15.349a163.623,163.623,0,0,0-23.584,7.6,119.18,119.18,0,0,0-15.931,7.946c-8.1,4.877-11.822,8.757-11.859,8.8l-43.273,47.495L395.04,301.7c0,.217.026,22.43,2.533,46.646a76.912,76.912,0,0,0,4.558,18.414,135.339,135.339,0,0,0,7.558,16.654A159.842,159.842,0,0,0,419.9,400.136l.111-.031c6-1.644,58.9-16.125,69.655-18.16,8.57-1.622,15.841-12.635,21.15-20.676,1.8-2.731,3.358-5.086,4.7-6.7,1.534-1.842,4.358-3.327,8.886-4.673,4.039-1.2,8.937-2.143,14.122-3.141a168.5,168.5,0,0,0,18.66-4.321,26.288,26.288,0,0,0,10.033-6.062,40.716,40.716,0,0,0,6.77-8.493,52.726,52.726,0,0,0,5.031-10.828c.289-.062,34.464-7.44,45.358-9.877,2.744-.613,4.356-1.754,4.79-3.39.292-1.1.181-3.037-2.011-6.026a23.877,23.877,0,0,0-2.779-3.134l-85.655-3c.021-.006.13-.03.319-.07,8.607-1.832,52.041-11.038,61.946-12.4a127.985,127.985,0,0,0,24.364-6.788,64.894,64.894,0,0,0,11.344-5.421c3.173-2.031,4.782-3.9,4.782-5.558,0-1.541-2.246-2.834-6.675-3.844a113.931,113.931,0,0,0-16.53-2.037c-12.328-.828-27.308-.942-41.66-.942h-5.435c-23.252,0-75.145,4.375-75.667,4.419l20.007-9.581c.678-.131,67.838-13.11,76.737-13.11a9.3,9.3,0,0,0,5.808-2.111,17.271,17.271,0,0,0,3.974-4.645,30.292,30.292,0,0,0,3.01-6.756,44.684,44.684,0,0,0-2.747-5.127,34.372,34.372,0,0,0-7.591-8.883C593.567,207.887,590.956,207.437,586.954,207.437Z" transform="translate(55 76.362)" fill="#ffcf77"/>
    <path id="_Device" data-name="ðŸ“± Device" d="M37.384,116.477,81.338,16.916S87.979,0,99.257,0,212.8,3.2,212.8,3.2s20.928,2.669,14.171,13.714-107.24,216.558-107.24,216.558H77.11V223.09l47.445-13.264s8.635-9.162-4.828-9.162-91.8-3-91.8-3l74.691-10.959L139.568,172.5l-5.435-7.47-31.512-4.5L0,165.029l27.931-9.445,62.415-13.247s12.276-8.645,12.276-17.122-32.885-11.738-32.885-11.738Z" transform="translate(556.913 170.322)" fill="#fff"/>
    <path id="_Ink" data-name="ðŸ– Ink" d="M738.194,725.644a4.545,4.545,0,0,1-3.589-1.69,17.56,17.56,0,0,1-4.7-11.75c-.14-2.31-.218-4.666-.293-6.943-.051-1.529-.1-3.107-.173-4.659-.365-8.056-.842-16.505-1.418-25.115-1.158-17.341-2.46-34.213-3.869-50.147-3.035-34.33-7.75-69.079-12.31-102.684-3.217-23.711-6.544-48.228-9.253-72.39-3.364-30.02-5.68-59.814-6.885-88.556-.612-14.56-.847-29.488-.7-44.37.05-5.063.278-10.466.7-16.52-9.783,22.225-20.18,44.47-30.9,66.12l-2.555,5.156c-6.635,13.366-13.8,27.506-22.057,40.549l-1.411,2.211c-.348.551-.706,1.13-1.085,1.742l-.007.012a69.255,69.255,0,0,1-5.591,8.133c-2.473,2.943-4.846,4.695-7.254,5.355a20.632,20.632,0,0,1-5.507.617c-1.551,0-3.132-.1-4.661-.188h-.018c-1.235-.075-2.4-.145-3.534-.167-1.277-.024-2.594-.044-3.755-.061-3-.044-6.093-.09-9.144-.213A63.244,63.244,0,0,1,584.15,428a15.776,15.776,0,0,1-2.173-.723,38.667,38.667,0,0,1-9.11,10.068,50.482,50.482,0,0,1-11.705,6.865,143.869,143.869,0,0,1-20.226,6.331l-2.419.607c-1.051.262-2.144.509-3.2.747-6.462,1.459-13.145,2.968-16.7,9.049l-.963,1.645c-3.061,5.2-6.013,9.814-11.136,13.584a46.9,46.9,0,0,1-8.864,5.054,83.912,83.912,0,0,1-9.605,3.506c-5.358,1.635-10.9,2.982-16.269,4.285l-.085.021c-1.247.3-2.537.616-3.8.928l-1.835.456c-1.449.363-2.928.722-4.358,1.069l-.039.01c-2.942.714-5.985,1.453-8.955,2.266-2.033.557-3.862,1.068-5.655,1.684a19.681,19.681,0,0,0-5.449,3.171,10.129,10.129,0,0,1-4.875,5.865,15.653,15.653,0,0,1-7.685,2.072c-.317,0-.633-.011-.939-.032a16.779,16.779,0,0,1-7.692-2.568c-2.637,2.245-5.48,4.361-8.23,6.407l-.006,0c-1.446,1.076-2.941,2.188-4.367,3.292-6.156,4.762-11.839,9.1-17.373,13.277-12.857,9.691-24.734,18.431-36.309,26.719-20.709,14.831-43.04,29.843-66.371,44.618-8.372,5.3-18.293,11.551-28.4,17.688l1.019.378,2.022.764a25.009,25.009,0,0,1,6.96,3.7,10.539,10.539,0,0,1,4.07,6.543,6.892,6.892,0,0,1-1.077,5.379,7.134,7.134,0,0,1-5.026,2.631,9.723,9.723,0,0,1-1.186.073,11.1,11.1,0,0,1-6.252-2.089,29.3,29.3,0,0,1-5.02-4.51c-.6-.651-1.242-1.292-1.862-1.911-.853-.853-1.736-1.735-2.527-2.656a9.807,9.807,0,0,1-1.362-2.181c-10.419,6.139-19.784,11.353-28.628,15.941l-2.423,1.247c-10.422,5.329-20.9,10.973-31.026,16.431l-.007,0c-13.192,7.108-26.834,14.459-40.522,21.2a132.569,132.569,0,0,1-22.033,8.77c2.043,7.919,2.094,16.433,2.144,24.667l.006,1.02a5.823,5.823,0,0,1-1.631,4.252,6.716,6.716,0,0,1-4.764,1.855,6.571,6.571,0,0,1-4.734-1.864,5.663,5.663,0,0,1-1.517-4.243l.132-3.922c.221-6.176.59-13.314,2.187-19.863a78.512,78.512,0,0,1-12.8,1.015,102.891,102.891,0,0,1-25.132-3.3,65.159,65.159,0,0,1-13.723-4.872c-5.179-3.011-9.856-8.021-12.924-11.527a88.452,88.452,0,0,1-10.191-14.571,177.674,177.674,0,0,1-7.928-15.957,325.167,325.167,0,0,1-13.388-35.731c-3.589-11.513-6.835-23.938-9.648-36.93A469.352,469.352,0,0,1,.977,496.321a498.53,498.53,0,0,1,.565-70.242A515.489,515.489,0,0,1,31.4,289.28,527.278,527.278,0,0,1,59.72,225.441l1.347-2.547c6.343-11.943,11.87-21.521,17.393-30.144A226.471,226.471,0,0,1,99.2,164.884,172.951,172.951,0,0,1,125.608,140.7a213.449,213.449,0,0,1,30.507-18.819,302.269,302.269,0,0,1,32.134-14.017c1.55-.578,3.238-1.152,5.315-1.806a111.5,111.5,0,0,1,18.295-9.678,65.157,65.157,0,0,1,9.93-3.135,46.658,46.658,0,0,1,10.164-1.181c.274,0,.534,0,.8.008a3.341,3.341,0,0,1,2.277.913,18.407,18.407,0,0,1,2.008.455c1.506.436,3.039,2.069,2.829,3.714l-.072.554a4.586,4.586,0,0,1-.173.787,8.4,8.4,0,0,1,1.46.355c8.756-2.473,17.532-5.852,26.018-9.12,4.359-1.678,8.866-3.414,13.284-4.991l2.951-1.042.773-.27.419-.147c10.384-3.633,21.121-7.389,29.7-14.641,8.27-6.992,15.11-16.3,20.332-27.672,3.538-7.7,5.95-15.925,8.282-23.876,1.578-5.38,3.21-10.943,5.177-16.3A1.17,1.17,0,0,1,349.128,0a1.062,1.062,0,0,1,1.092,1.089c.266,10.833-.506,27.271-5.695,44.056a93.042,93.042,0,0,1-8.99,20.478,66.915,66.915,0,0,1-14.058,16.749c-9.869,8.331-22.472,12.8-34.661,17.115-2,.708-4.062,1.439-6.088,2.18l-1.578.582-24.719,9.208c-.926.345-1.881.723-2.8,1.09l-.018.007c-3.773,1.5-7.674,3.043-11.306,3.043a10.045,10.045,0,0,1-5.291-1.391c1.4,3.468,2.753,7.024,4.062,10.461a246.724,246.724,0,0,0,10.265,24.3,184.129,184.129,0,0,0,11.825,20.026,169.264,169.264,0,0,0,14.381,18.271,147.892,147.892,0,0,0,26.142,22.76,157.553,157.553,0,0,0,30.119,16.031,173.056,173.056,0,0,0,32.82,9.484,187.876,187.876,0,0,0,34.245,3.121,195.723,195.723,0,0,0,43.378-4.884,209.959,209.959,0,0,0,22.563-6.437,166.437,166.437,0,0,0,21.5-9.2A134.271,134.271,0,0,0,506,205.745a114.847,114.847,0,0,0,17.119-16.02A102.041,102.041,0,0,0,533.7,174.994a115.626,115.626,0,0,0,8.041-16.453,126.162,126.162,0,0,0,5.481-17.56,129.62,129.62,0,0,0,2.9-18.05,5.385,5.385,0,0,1-.846.068,5.182,5.182,0,0,1-1.107-.12c-7.807-1.7-15.657-6.013-21.624-9.578l-.634-.38c-6.428-3.87-13-8.257-17.487-14.111-1.288-1.678-3.43-5.6-6.321-14.748-1.716-5.428-2.923-10.286-2.934-10.334a186.369,186.369,0,0,1-2.3-28.881c.012-.425,1.2-.755,2.207-.755.648,0,1.083.137,1.192.376,1.582,3.472,2.56,9.252,3.5,14.841a84.383,84.383,0,0,0,2.405,11.4l.439,1.286c.412,1.193.806,2.407,1.223,3.693l.006.02c.951,2.934,1.935,5.968,3.181,8.842a29,29,0,0,0,4.73,7.808c7.675,8.661,18.645,13.082,29.254,17.357l.027.011c1.853.747,3.77,1.519,5.615,2.295a8.693,8.693,0,0,1,3.263-6.351,10.3,10.3,0,0,1,6.385-2.116,9.859,9.859,0,0,1,7.046,2.766,8.741,8.741,0,0,1,2.386,6.466c-.009.5-.028.99-.047,1.469l-.006.163q-.006.161-.012.322c1.5.824,2.944,1.775,4.161,2.6l1.275.866a170.006,170.006,0,0,0,14.834,9.191c6.383,3.46,13.115,6.509,19.625,9.458,3.637,1.647,7.4,3.351,11.063,5.111a163.173,163.173,0,0,1,14.978,8.17,152.551,152.551,0,0,1,14,9.753,149.775,149.775,0,0,1,12.137,10.606l1.044,1.03c.591.589,1.2,1.177,1.842,1.8,3.245,3.141,6.923,6.7,8.674,10.721.469,1.079,2.759,3.515,4.015,3.6,21.27,1.394,40.23,3.276,57.965,5.753,2.735.382,4.528,1.307,5.329,2.75.685,1.232.612,2.8-.217,4.67-6.3,14.2-31.241,71.579-37.713,86.6.393,5.744.313,12.107.235,18.261-.074,5.884-.151,11.963.188,17.461.983,15.893,2.308,32.439,3.937,49.178,4.451,45.709,10.8,91.992,16.935,136.751,1.718,12.53,3.495,25.487,5.214,38.319,4.031,30.084,7.785,60.99,10.988,87.6,1.869,15.542,3.322,30.057,4.442,44.373.491,6.279.931,12.518,1.309,18.546l.333,5.486c.048.718.1,1.443.156,2.144v.019c.468,6.149.91,11.957-2.914,17.262A6.916,6.916,0,0,1,738.194,725.644ZM18.32,524.806c2.1,15.779,4.988,31.489,8.585,46.695l.8,3.365c2.758,11.464,5.264,20.813,7.885,29.421A275.819,275.819,0,0,0,45.907,632.9a101.317,101.317,0,0,0,15.466,25.346,71.587,71.587,0,0,0,10.419,9.965,37.373,37.373,0,0,0,9.732,4.947,50.77,50.77,0,0,0,16.908,3.053c12.677,0,16.173-1.2,22.519-3.387l.079-.027c10.309-3.548,20.279-8.859,29.922-14,2.215-1.18,4.505-2.4,6.75-3.571l1.231-.64c4.968-2.571,10.119-5.279,15.747-8.279a21.291,21.291,0,0,1,.347-7.525,27.087,27.087,0,0,1,2.929-7.22,5.316,5.316,0,0,1,4.74-2.9,6.4,6.4,0,0,1,4.105,1.574,6.247,6.247,0,0,1,2.159,4.105l.017.208a28.147,28.147,0,0,0,.546,3.731c32.957-18.053,66.632-38.022,102.946-61.05,21.974-13.934,43.626-28.246,64.356-42.539,10.721-7.392,21.3-14.892,31.455-22.293,5.465-3.985,10.931-8.022,16.245-12,1.152-.862,2.309-1.759,3.428-2.626,1.067-.827,2.171-1.682,3.269-2.507-.556-.7-1.092-1.383-1.6-2.043a85.5,85.5,0,0,1-10.416-17.872,98.409,98.409,0,0,1-6.152-19.767,149.6,149.6,0,0,1-2.673-24.957l-.106-3.618c-.156-5.746-.227-12.38.914-18.383-.547.3-1.11.605-1.653.9-.983.532-2,1.081-3,1.646-6.192,3.509-11.681,6.605-16.78,9.466-9.9,5.552-21.662,12.089-33.857,18.478-23.326,12.222-43.027,21.719-62,29.889l-10.268,4.426c-17.274,7.431-35.7,15.165-54.317,20.89-10.419,3.2-25.951,7.151-36.722,9.643h0s.007.005.016.014a36.561,36.561,0,0,1,3.721,4.259,20.388,20.388,0,0,1,2.385,4.031,7.515,7.515,0,0,1,.7,4.129,5.068,5.068,0,0,1-3.289,3.746,7.583,7.583,0,0,1-3.111.687,9.364,9.364,0,0,1-5.454-1.987,21.544,21.544,0,0,1-4.418-4.469,29.845,29.845,0,0,1-4.228-7.412c-4.845,1.014-18.691,3.467-18.829,3.491a131.345,131.345,0,0,0-37.946,14.1,4.344,4.344,0,0,1-2.026.621,1.517,1.517,0,0,1-1.563-1.055c-.356-1.13.333-3.095,2.686-4.74a101.221,101.221,0,0,1,20.523-10.857,206.4,206.4,0,0,1,22.47-7.344l.754-.208c5.5-1.506,11.175-3.127,16.867-4.817a23.84,23.84,0,0,1-.9-7.1c.1-3.6.342-7.274.576-10.823.135-2.051.275-4.17.387-6.26.612-11.528,1.394-23.217,2.391-35.736.388-4.891.793-9.4,1.238-13.785-1.005-.539-1.979-1.146-2.921-1.734l0,0a26.489,26.489,0,0,0-6.034-3.071l-.566-.166a2.666,2.666,0,0,1-2.184-2.838,3.472,3.472,0,0,1,2.994-3.148,24.827,24.827,0,0,1,3.039-.187,26.577,26.577,0,0,1,5.566.6c.45.1.861.2,1.256.324.56-4.562,1.137-8.725,1.761-12.728.331-2.115.649-4.293.956-6.4l0-.018c1.331-9.113,2.707-18.535,5.645-27.218a1.144,1.144,0,0,1,1.062-.748.907.907,0,0,1,.823.5,47.238,47.238,0,0,1,4.579,14.927,154.36,154.36,0,0,1,1.335,15.822v.013c.045.913.092,1.858.141,2.776l.074,1.337c.616,10.725.78,22.4.515,36.73-.219,11.842-.62,24.181-1.228,37.721-.049,1.1-.088,2.215-.125,3.294a85.783,85.783,0,0,1-.956,11.867c15.915-5.173,31.6-10.843,46.605-16.853,15.54-6.222,30.757-12.967,45.229-20.049,20.906-10.229,41.762-20.941,61.987-31.838,4.6-2.477,9.281-4.976,13.81-7.393l.04-.021.036-.019c5.539-2.956,11.267-6.013,16.883-9.053,3.271-1.771,6.787-3.681,10.75-5.84l5.371-2.928c.581-.317,1.149-.633,1.7-.938a55.787,55.787,0,0,1,6.361-3.2,20.23,20.23,0,0,1,7.016-1.528l.173,0a5.707,5.707,0,0,1,4.248,2,18.169,18.169,0,0,1,10.465-3.569h.132c6.76-9.337,12.366-16.8,17.64-23.5l4.48-5.7c7.65-9.7,15.948-19.8,25.855-27.3a62.9,62.9,0,0,1,14.329-7.914,7.6,7.6,0,0,1-3.4-1.841,16.722,16.722,0,0,1-4.357-7.692,64.29,64.29,0,0,1-1.792-9.132l-.006-.039c-.112-.767-.217-1.492-.329-2.2a49.723,49.723,0,0,1-.569-9.387,75.907,75.907,0,0,1,.95-9.372,2.9,2.9,0,0,1,3.02-2.2,2.642,2.642,0,0,1,2.548,1.474c.713,1.62,1.451,3.242,2.164,4.811l0,.006,0,0c1.421,3.123,2.89,6.352,4.187,9.63l.575,1.484a56.183,56.183,0,0,0,2.448,5.3l0,.006c1.967,3.909,4,7.951,3.8,12.072a7.732,7.732,0,0,1-1.484,4.236c2.967-.986,6.007-1.91,8.948-2.8l.006,0c1.2-.364,2.556-.777,3.85-1.177,12.088-3.735,26.174-8,40.378-11.34,3.642-.856,7.317-1.653,10.923-2.369a183.675,183.675,0,0,1,8-26.791,22.29,22.29,0,0,1-5.491-4.424c-.741-.738-1.506-1.5-2.328-2.23a35.051,35.051,0,0,1-4.434-5.049c-.624-.809-1.268-1.646-1.947-2.456a4.27,4.27,0,0,1-.578-4.474,3.258,3.258,0,0,1,3.065-1.93c.054,0,.109,0,.165,0l.993.041c3.241.151,6.988.461,10.444,2.239l1.174.6a39.89,39.89,0,0,1,4.94,2.924c1.829-4.209,3.844-8.664,6.339-14.019l2.8-5.983c.7-1.512,1.422-3.059,2.115-4.554l.066-.142c6.5-14.01,13.216-28.493,21.409-41.54a25.045,25.045,0,0,1,7.2-7.73,20.347,20.347,0,0,1,9.965-3.363c1.986-.16,4.09-.237,6.433-.237,3.776,0,7.629.205,11.355.4,2.112.113,4.3.229,6.426.305,9.951.357,19.017.752,27.716,1.208-1.069-1.12-2.111-2.314-3.119-3.469l0,0c-1.219-1.4-2.479-2.841-3.781-4.143a143.334,143.334,0,0,0-12.5-11.142,155.013,155.013,0,0,0-28.114-17.332c-2.555-1.252-5.164-2.479-7.687-3.666-7.282-3.425-14.811-6.966-21.717-11.42a84.147,84.147,0,0,1-15.944-13.739,127.731,127.731,0,0,1-4.575,23.928,134.573,134.573,0,0,1-8.892,22.571A141.787,141.787,0,0,1,543,189.046a146.955,146.955,0,0,1-16.174,18.391c-11.617,11.176-25.95,20.547-42.6,27.852a206.673,206.673,0,0,1-49.083,14.274,219.47,219.47,0,0,1-35.89,3,202.164,202.164,0,0,1-33.329-2.732,184.208,184.208,0,0,1-32.372-8.471,179.634,179.634,0,0,1-24.408-11,177.186,177.186,0,0,1-22.6-14.61,12.244,12.244,0,0,1-.716,2.76,18.892,18.892,0,0,1-1.805,3.225l-1.246,1.821c-.712,1.037-1.549,2.236-2.478,3.342a10.638,10.638,0,0,1-8.458,3.685h-.055a9.466,9.466,0,0,1-4.389-1.085,10.052,10.052,0,0,1-3.337-2.829,9.593,9.593,0,0,1-1.663-8.41,11.16,11.16,0,0,1,2.521-4.709,12.343,12.343,0,0,1,4.393-2.955c1.134-.478,2.316-.888,3.43-1.266l.867-.294a24.815,24.815,0,0,1,3.526-1,157.97,157.97,0,0,1-18.661-19.468,188.394,188.394,0,0,1-12.815-17.966A137.988,137.988,0,0,1,235.095,150.3c-6.486-15.717-8.417-30.407-5.74-43.663a1.206,1.206,0,0,1,1.039-.9,9.49,9.49,0,0,1,2.925-5.361,25.862,25.862,0,0,0-3.036-.607c-3.053.683-6.1,1.276-8.41,1.716-2.589,1.388-5.2,2.81-7.725,4.186-7.839,4.271-15.943,8.687-24.273,12.54a384.539,384.539,0,0,0-34.388,17.506,183.974,183.974,0,0,0-16.073,10.638,181,181,0,0,0-14.666,12.115,186.084,186.084,0,0,0-13.327,13.584c-4.184,4.724-8.241,9.786-12.056,15.044a393.967,393.967,0,0,0-34.617,58.043,498.454,498.454,0,0,0-25.374,62.678c-3.566,10.8-6.824,21.936-9.685,33.1,5.516-5.1,12.052-7.915,17.718-9.994a5.135,5.135,0,0,1,1.772-.3,7.432,7.432,0,0,1,6.04,3.484,5.987,5.987,0,0,1,.945,3.491c-.146,2.807-1.975,6.1-5.079,6.671a128.41,128.41,0,0,0-17.279,4.9l-.078.026c-1.2.4-2.442.818-3.66,1.216a3.756,3.756,0,0,1-1.169.2,3.011,3.011,0,0,1-1.494-.389,495.681,495.681,0,0,0-12.655,88.43,472.151,472.151,0,0,0,2.3,75.835,35.829,35.829,0,0,1,6.6-2.417c2.907-.676,5.862-1.511,9.034-2.55a7.052,7.052,0,0,1,2.2-.369,5.874,5.874,0,0,1,4.417,2,8.158,8.158,0,0,1,2.015,4.506,7.221,7.221,0,0,1-.852,4.517,6.278,6.278,0,0,1-4.045,2.876c-3.451.849-6.686,1.491-9.889,1.962a22.386,22.386,0,0,1-3.283.239A30.261,30.261,0,0,1,18.32,524.806ZM586.507,310a175.8,175.8,0,0,0-35.577,4.006c-12.331,2.541-24.454,6.014-34.686,9.075l-5.192,1.556c-10.65,3.205-19.557,5.992-28.407,9.174-10.03,3.6-18.5,9.281-26.646,17.864-2.583,2.72-5.174,5.494-7.679,8.176-5.814,6.224-11.826,12.661-18.027,18.743-5.055,4.959-10.605,10.264-16.969,16.221a17.69,17.69,0,0,0-3.037,5.844c-1.207,3.981-.929,7.688-.474,11.774.495,4.442.829,8.979,1.153,13.367.429,5.815.872,11.826,1.693,17.694,1.236,8.829,3.054,19.093,7.165,28.277a52.422,52.422,0,0,0,5.934,10.024l1.877,2.439c.778,1.008,1.707,2.19,2.694,3.309a6.6,6.6,0,0,1,5.1-2.6,6.2,6.2,0,0,1,.723.043,45.51,45.51,0,0,0,5.34.342,36.835,36.835,0,0,0,8.6-1.05c2.535-.593,5.1-1.264,7.578-1.914l.008,0c1.19-.312,2.538-.665,3.844-1,2.092-.534,4.2-1.058,6.248-1.565,5.33-1.322,10.839-2.689,16.183-4.271l1.273-.383a69.334,69.334,0,0,0,8.161-2.985,36.208,36.208,0,0,0,7.467-4.388c3.366-2.611,5.226-5.889,7.194-9.358a50.6,50.6,0,0,1,3.733-5.915c2.84-3.711,7.05-6.473,12.869-8.443a100.875,100.875,0,0,1,16.18-3.512c3.563-.573,6.927-1.114,9.97-1.858a76.588,76.588,0,0,0,15.136-5.22,42.9,42.9,0,0,0,12.713-9.006l.424-.454a3.234,3.234,0,0,1,1.463-3.6l.275-.153a2.984,2.984,0,0,1,1.474-.379h.067a35.69,35.69,0,0,0,1.915-3.1.74.74,0,0,1,.658-.427.912.912,0,0,1,.683.338.89.89,0,0,1,.2.738c-.081.447-.189.891-.294,1.321v.005l-.058.237c5.085-1.308,10.6-1.488,15.8-1.488,1.086,0,2.194.008,3.171.015.91.006,1.942.014,2.932.014l9.267-.032a38.905,38.905,0,0,0,4.207-.2l.218-.1c.106-.046.164-.07.193-.081l.021-.009-.009,0-.02,0a.326.326,0,0,1-.055.005c-.042,0-.068-.012-.08-.035-.022-.045.015-.132.111-.259.417-.553.846-1.139,1.311-1.792,1.334-1.867,2.695-3.9,4.413-6.6-16.346,4.164-33.154,6.615-47.441,8.465-9.23,1.2-17.614,2.077-25.631,2.693-9.119.7-17.54,1.046-25.745,1.054h-.005a3.406,3.406,0,0,1-2.619-1.083,3.7,3.7,0,0,1-.9-2.413,3.9,3.9,0,0,1,.858-2.562,3.523,3.523,0,0,1,2.671-1.254c17.258-.658,35.777-1.6,54.269-3.982,9.033-1.167,18.406-2.675,27.857-4.484,3.522-.673,7.113-1.4,10.674-2.169l2.66-.581c.347-.077.844-.164,1.37-.256,2.186-.383,5.488-.962,7.315-2.187l.229-.395c.347-.6.74-1.271,1.122-1.934-.076-.944-.974-1.616-2.668-2a21.114,21.114,0,0,0-4.5-.38c-.334,0-.637,0-.915.007l-.145,0h-.008c-.21,0-.392.005-.532.005h-1.477c-2.482,0-5,.011-7.442.022-1.516.007-3.233.015-4.9.019-1.187,0-2.45.005-3.753.005-7.425,0-14.975-.061-22.277-.119h-.065l-1.538-.012c-4.708-.038-9.5-.11-14.137-.18h-.025c-6.873-.1-13.98-.209-20.967-.209-7.514,0-14.1.125-20.137.383-.057,0-.115,0-.174,0-2.382,0-4.052-2.075-4.471-4.126a4,4,0,0,1,2.249-4.729c17.309-7.39,36.432-9.654,54.924-11.844l.027,0c2.281-.27,4.64-.549,6.946-.833a262.708,262.708,0,0,0,32.572-5.615l2.644-.672c6.938-1.778,14.18-3.855,19.789-7.925a42.471,42.471,0,0,0-11.03-2.6c-3.845-.449-7.758-.584-11.542-.715h-.015c-1.843-.064-3.585-.124-5.292-.218l-.675-.04c-12.283-.754-24.752-1.146-37.062-1.164h-1.44c-21.447,0-44.4.636-74.422,2.061h-.028a.534.534,0,0,1-.518-.508.521.521,0,0,1,.4-.6A378.073,378.073,0,0,1,540.243,349c12.827-1.406,26.183-2.227,39.7-2.441,3.253-.052,6.551-.078,9.8-.078,9.072,0,18.266.2,27.325.6l4.538.21,1.606.067.184.008a111.159,111.159,0,0,1,15.288,1.336,33.7,33.7,0,0,1,13.986,5.533,4.836,4.836,0,0,1,2.165,3.52c10.718-21.365,20.842-43.455,30.632-64.819l.436-.951q1.331-2.9,2.661-5.805c2.869-6.255,5.749-12.633,8.535-18.8l0-.006c5.495-12.167,11.176-24.748,17.042-36.992L717,224.415c4.291-8.919,7.994-16.346,12.117-23.607-14.769-1.974-30.828-3.561-49.1-4.85-11.679-.826-43.792-2.433-60.988-2.433a68.561,68.561,0,0,0-9.917.432c-3,.582-5.6,2.372-7.956,5.472a52.78,52.78,0,0,0-5.1,9.07c-.592,1.239-1.151,2.409-1.721,3.5-7.8,14.9-15.112,30.325-22.186,45.246l0,.01-.638,1.347c-1.751,3.69-3.491,7.452-5.173,11.091l-.048.1q-.764,1.652-1.529,3.3a7.472,7.472,0,0,1-.52,1.12c-5.121,11.028-9.608,20.2-14.858,29.112,5.216-.976,10.349-1.781,15.258-2.392-.211-3.93,1.922-8.881,3.636-12.859.376-.871.73-1.693,1.027-2.433l.136-.341c.328-.837.656-1.746,1-2.708,1.784-4.941,4-11.086,8.385-13.343a2.7,2.7,0,0,1,1.246-.313,2.429,2.429,0,0,1,1.691.682,2.708,2.708,0,0,1,.8,1.776c.3,4.319-2.8,9.082-5.543,13.285l-.005.008c-.878,1.347-1.708,2.62-2.371,3.8-1.7,3.018-3.323,6-4.828,8.854-.2.381-.39.759-.573,1.124-.367.731-.711,1.419-1.109,2.066,3.076-.332,5.592-.562,7.916-.724l1.723-.118c2.363-.156,5.474-.335,8.588-.335a56.3,56.3,0,0,1,10.538.879,33.455,33.455,0,0,1,9.942,3.458,18.813,18.813,0,0,1,8.726,9.8,15.764,15.764,0,0,1,1,6.367,16.081,16.081,0,0,1-1.825,6.6c-2.524,4.873-6.6,8.252-12.474,10.33-5.132,1.817-10.927,2.4-16.424,2.847-13.12,1.057-26.432,2.962-39.306,4.8l-1.435.205a182.568,182.568,0,0,0-22.891,5.312c-5.861,1.63-11.92,3.315-18,4.484a1.332,1.332,0,0,1-.252.024,1.234,1.234,0,0,1-1.18-.9,1.086,1.086,0,0,1,.529-1.266c9.818-5.975,21.441-9.488,32.682-12.884,1.151-.348,2.341-.707,3.507-1.063l.982-.3c1.369-.42,2.752-.86,4.089-1.284a116.02,116.02,0,0,1,15.738-4.194c6.586-1.109,13.291-2.018,19.931-2.7l.647-.059c.81-.068,1.778-.127,2.8-.189a82.539,82.539,0,0,0,11.276-1.238c4.579-.93,7.676-2.379,9.468-4.428a7.144,7.144,0,0,0,1.733-5.419c-.228-3.128-2.574-5.458-6.972-6.926a38.2,38.2,0,0,0-10.583-1.6C587.924,310.006,587.21,310,586.507,310Zm35.176,77.508c4.215,0,8.648.208,12.506,1.717a11.487,11.487,0,0,1,3.047,1.762c4.951-8.8,9.83-17.935,14.913-27.913a36.034,36.034,0,0,1-11.744,7.9,109.315,109.315,0,0,1-13.475,4.717,220.886,220.886,0,0,1-31.867,6.461c-2.856.4-5.707.8-8.465,1.176-7.366,1.015-14.983,2.064-22.409,3.289,2.512.031,5.066.059,7.536.086,5.118.055,10.409.112,15.61.206,10.206.185,18.674.379,26.647.611.663.019,1.394.029,2.235.029.886,0,1.8-.01,2.679-.02h.054C619.84,387.518,620.759,387.508,621.683,387.508ZM610.2,716.294a8.937,8.937,0,0,1-5.981-2.255,8.569,8.569,0,0,1-2.826-6.289,31.1,31.1,0,0,1,3.35-14.2,31.691,31.691,0,0,1,9.131-11.445,3.54,3.54,0,0,1,2.146-.74c2.055,0,3.891,1.791,4.576,3.476a29.34,29.34,0,0,1,1.459,14,31.987,31.987,0,0,1-4.378,13.313A8.8,8.8,0,0,1,610.2,716.294Zm44.823-1.03a3.207,3.207,0,0,1-3.05-2.368c-2.755-8.072-3.711-16.77-4.635-25.181v-.005c-.19-1.726-.386-3.512-.594-5.257-1.012-8.486-1.681-17.162-2.328-25.552q-.121-1.571-.243-3.142l-.226-2.87c-1.686-21.208-3.029-42.477-3.991-63.216-.958-20.644-1.564-41.941-1.8-63.3-.1-9.25.041-18.938.427-28.8l.12-2.875c.1-2.268.161-4.6.22-6.856.2-7.709.414-15.679,2.11-23.125a1.014,1.014,0,0,1,1.035-.771,1.035,1.035,0,0,1,1.045.771c1.664,7.088,2.037,14.658,2.4,21.979v.018c.112,2.28.228,4.638.382,6.924l.075,1.06c.829,11.334,1.445,21.693,1.881,31.67.872,19.968,1.92,40.35,3.206,62.31.6,10.222,1.251,20.611,1.938,30.877a59.985,59.985,0,0,1,6.685-3.191,25.021,25.021,0,0,1,9.646-1.521c.279,0,.565,0,.876,0a7.445,7.445,0,0,1,7.32,8.444,7,7,0,0,1-2.631,4.744,8.165,8.165,0,0,1-5.033,1.581,10.652,10.652,0,0,1-1.637-.129c-1.821-.285-3.674-.634-5.467-.972-3.024-.569-6.15-1.158-9.241-1.465.608,8.811,1.169,16.616,1.717,23.859.351,4.639.755,9.335,1.145,13.876.5,5.8,1.012,11.789,1.421,17.69.064.912.137,1.9.222,3.019a42.474,42.474,0,0,1,8.762-3.048l.831-.226.92-.258q.605-.174,1.239-.362a29.529,29.529,0,0,1,8.081-1.594,9.947,9.947,0,0,1,6.058,1.894,6.5,6.5,0,0,1,2.8,4.457,6.106,6.106,0,0,1-1.614,4.745c-2.842,3.291-6.631,3.735-9.962,3.735-1.244,0-2.523-.07-3.76-.139-.552-.03-1.175-.065-1.767-.09l-2.981-.108a35.312,35.312,0,0,1-8-1,106.525,106.525,0,0,1-.113,20.5A3.565,3.565,0,0,1,655.019,715.265Zm-434.19-10.082a12.407,12.407,0,0,1-5.124-1.162c-3.643-1.67-6.766-4.3-10.126-8.543l-.8-1.013-.087-.11a15.118,15.118,0,0,1-3.012-4.969,15.417,15.417,0,0,1-.11-5.386l.007-.068q.013-.134.026-.267a3.719,3.719,0,0,1,.77-1.891,2.282,2.282,0,0,1,1.771-.939,2.112,2.112,0,0,1,.271.018c.677.088,1.374.117,2.048.144a19.792,19.792,0,0,1,2.418.2,12.123,12.123,0,0,1,3.454,1.321c.589.3,1.2.606,1.827.858a49.036,49.036,0,0,0,5.554,1.72c1.17.312,2.38.635,3.541,1.005a10.31,10.31,0,0,1,6.263,5.439,9.554,9.554,0,0,1,.091,7.792,9.4,9.4,0,0,1-3.636,4.417A9.592,9.592,0,0,1,220.829,705.183Zm285.855-23.316c-5.192,0-9.949-3.007-14.55-5.915l-.011-.007c-1.03-.651-2-1.265-2.983-1.849l-.33-.194c-.791-.463-1.6-.924-2.377-1.369l-.007,0a72.9,72.9,0,0,1-7.619-4.777,24.54,24.54,0,0,1-6.186-6.51,3.507,3.507,0,0,1-.076-3.216,2.732,2.732,0,0,1,2.059-1.66,23.513,23.513,0,0,1,3.267-.228c5.126,0,9.773,1.635,14.692,3.367l.077.027q.705.248,1.418.5l.526.182c1.222.422,2.532.815,3.919,1.231l.009,0c6.05,1.814,12.907,3.87,15.658,9.363a8.089,8.089,0,0,1,.176,6.933,6.66,6.66,0,0,1-4.518,3.741A12.931,12.931,0,0,1,506.684,681.867Zm-125.009-38.2a11.427,11.427,0,0,1-9.742-6.161,10.984,10.984,0,0,1-1.367-5.156,9.509,9.509,0,0,1,1.575-5.309,22.241,22.241,0,0,1,8.15-7.186,75.328,75.328,0,0,1,10.3-4.432l.007,0c.8-.3,1.632-.608,2.43-.914a137.032,137.032,0,0,0,17.945-8.924l.036-.02c.758-.424,1.542-.862,2.317-1.293a3.5,3.5,0,0,1,1.712-.463,3.664,3.664,0,0,1,3.3,2.3,3.293,3.293,0,0,1-.753,3.683l-4.236,4.237a118.9,118.9,0,0,0-11.122,12.445l-.815,1.1q-.41.557-.823,1.124l-.043.059a75.419,75.419,0,0,1-6.979,8.628,21.8,21.8,0,0,1-8.983,5.838A9.8,9.8,0,0,1,381.675,643.664ZM106.136,613.3a11.23,11.23,0,0,1-7.7-3.076,9.8,9.8,0,0,1-2.857-6.007,12.612,12.612,0,0,1,1.233-6.579c1.75-3.733,5.324-6.706,8.781-9.58,1.34-1.115,2.606-2.168,3.763-3.257l.373-.358c1.622-1.575,3.31-3,4.942-4.375a51.5,51.5,0,0,0,8.254-8.107,3.674,3.674,0,0,1,2.968-1.386,3.436,3.436,0,0,1,2.826,1.3,2.746,2.746,0,0,1,.2,2.612c-1.127,3.055-2.072,6.327-3.072,9.791a106.1,106.1,0,0,1-5.292,15.353c-2.548,5.461-5.667,9.457-9.536,12.215A8.34,8.34,0,0,1,106.136,613.3Zm483.111-.881a8.2,8.2,0,0,1-4.828-1.57,9.24,9.24,0,0,1-3.071-3.882,9.069,9.069,0,0,1-.654-4.886,8.643,8.643,0,0,1,2.358-4.726c4.153-4.324,10.1-6.846,15.855-9.286l.049-.021c.948-.4,1.928-.818,2.866-1.229l1.486-.66c2.342-1.009,7.349-2.717,11.261-2.717,2.285,0,3.889.573,4.769,1.7a2.062,2.062,0,0,1,.336.438,4.039,4.039,0,0,1,0,4.1,46.8,46.8,0,0,1-11.411,12.173l-.526.391c-.969.712-1.943,1.46-2.884,2.184-4.025,3.093-8.187,6.29-13.221,7.66A9.1,9.1,0,0,1,589.247,612.423ZM284.235,538.956a9.423,9.423,0,0,1-4.269-1.089,50.352,50.352,0,0,1-13.014-9.312,56.475,56.475,0,0,1-9.528-12.891,3,3,0,0,1,.066-3.044,3.071,3.071,0,0,1,2.593-1.569,2.867,2.867,0,0,1,1.51.444,104.537,104.537,0,0,0,25.005,10.64,9.381,9.381,0,0,1,4.552,3.112,7.558,7.558,0,0,1,1.767,5.187l-.04.572a6.784,6.784,0,0,1-1.135,3.773,11.478,11.478,0,0,1-3.428,3.077A8.212,8.212,0,0,1,284.235,538.956Zm221.97-3.6c-2.658,0-5.682-1.172-8.99-3.483a55.293,55.293,0,0,1-7.445-6.519l-.206-.209a43.243,43.243,0,0,1-6.3-7.99,27.139,27.139,0,0,1-3.564-9.376,1.547,1.547,0,0,1,.311-1.281,1.386,1.386,0,0,1,1.082-.481,1.825,1.825,0,0,1,.337.033,39.6,39.6,0,0,1,9.281,3.064,69.71,69.71,0,0,1,8.6,4.827c1.553,1,3.1,2.075,4.6,3.112,1.361.943,2.767,1.917,4.173,2.837a12.585,12.585,0,0,1,3.942,3.621,11.731,11.731,0,0,1,1.611,5.116,5.219,5.219,0,0,1-1.348,3.949,7.915,7.915,0,0,1-3.471,2.379A8.486,8.486,0,0,1,506.205,535.356Zm192.329-7.1a14.557,14.557,0,0,1-7.791-2.746,32.79,32.79,0,0,1-6.241-5.451l-.3-.344c-.491-.566-.986-1.123-1.511-1.712a42.52,42.52,0,0,1-5.858-7.651,59.3,59.3,0,0,1-3.325-8.019l0-.01c-.252-.7-.512-1.426-.771-2.124a3.9,3.9,0,0,1,.475-3.671,5.3,5.3,0,0,1,4.242-2.2,4.219,4.219,0,0,1,2.171.576c1.114.655,2.279,1.28,3.405,1.884a54.986,54.986,0,0,1,6.009,3.558c1.749,1.252,3.426,2.675,5.047,4.052.873.741,1.776,1.508,2.69,2.247l1.278,1.012a30.117,30.117,0,0,1,5.5,5.855c1.92,2.721,2.936,5.328,2.938,7.541a6.582,6.582,0,0,1-2.647,5.305A8.257,8.257,0,0,1,698.535,528.259ZM595.022,480.47l-.174,0a7.931,7.931,0,0,1-6.189-2.563c-1.83-2.064-3.382-5.385-2.251-8.516a44.12,44.12,0,0,1,6.028-11.322,30.363,30.363,0,0,1,9.469-8.514,3.6,3.6,0,0,1,1.75-.436,3.354,3.354,0,0,1,3.415,2.537c.092.46.2.936.308,1.4a18.2,18.2,0,0,1,.615,3.952,20.367,20.367,0,0,1-.731,4.551l0,.012c-.152.642-.3,1.248-.413,1.848a39,39,0,0,1-4.44,12.721A8.775,8.775,0,0,1,595.022,480.47ZM227.546,452.514a36.99,36.99,0,0,1-18.51-5.363,4.054,4.054,0,0,1-1.43-5.451,25.406,25.406,0,0,1,4.031-5.222,31.407,31.407,0,0,1,5.474-4.4,24.781,24.781,0,0,1,12.906-4.175c.419,0,.839.016,1.249.046a12.6,12.6,0,0,1,8.123,3.58,12.314,12.314,0,0,1,3.473,7.174,11.833,11.833,0,0,1-1.549,7.526,12.332,12.332,0,0,1-6.86,5.266A21.965,21.965,0,0,1,227.546,452.514ZM106.534,441.89a8.839,8.839,0,0,1-2.293-.3C97.485,439.774,90.853,435.3,85,431.345l-.089-.06-1.218-.821-1.144-.76-.453-.3a41.461,41.461,0,0,1-7.34-5.641,50.657,50.657,0,0,1-4.986-6.587c-.336-.5-.683-1.011-1.024-1.507a1.562,1.562,0,0,1-.108-1.678,2.163,2.163,0,0,1,1.842-1.117,1.789,1.789,0,0,1,.383.041c1.257.276,2.572.5,3.844.708a48.887,48.887,0,0,1,6.139,1.3,55.761,55.761,0,0,1,5.451,2.092c1.384.587,2.815,1.195,4.239,1.693,2.8.982,5.735,1.775,8.57,2.542a86.545,86.545,0,0,1,12.062,3.906,7.569,7.569,0,0,1,3.3,3.26,8.149,8.149,0,0,1,1.15,4.5l-.062.656a8.666,8.666,0,0,1-1.166,3.882A9.291,9.291,0,0,1,106.534,441.89Zm230.028-29.927c-1.921,0-4.063-.986-6.367-2.931a28.071,28.071,0,0,1-4.677-5.184,50.208,50.208,0,0,1-7.173-15.887,2.85,2.85,0,0,1,.453-2.544,3.259,3.259,0,0,1,2.552-1.248,3.013,3.013,0,0,1,2.086.828c1.824,1.7,3.714,3.375,5.542,4.995,2.541,2.252,5.168,4.58,7.653,7l.287.284a21.337,21.337,0,0,1,4.4,6.149c1.173,2.778.879,5.074-.873,6.827A5.38,5.38,0,0,1,336.562,411.963Zm-99.4-86.279a9.447,9.447,0,0,1-6.371-2.629,11.686,11.686,0,0,1-3.463-5.985,8.708,8.708,0,0,1,.421-5.4,8.25,8.25,0,0,1,4.275-4.168,180.553,180.553,0,0,1,20.987-8.518c1.216-.386,2.422-.8,3.589-1.193,4.814-1.636,9.361-3.18,14.335-3.18a22.911,22.911,0,0,1,2.341.119,2.94,2.94,0,0,1,2.321,1.509,2.421,2.421,0,0,1-.094,2.369c-2.91,5.121-7.336,8.3-12.022,11.658l-.022.016c-.753.54-1.531,1.1-2.3,1.662l-.48.354a175.734,175.734,0,0,1-18.793,12.081A9.607,9.607,0,0,1,237.16,325.684Zm169-24.972a7.444,7.444,0,0,1-2.6-.5c-9.419-3.512-19.543-7.247-29.76-10.768a3.288,3.288,0,0,1-2.073-3.7,2.585,2.585,0,0,1,2.646-2.289h.044l.193.008c10.666.7,21.206,1.164,31.006,1.56a7.571,7.571,0,0,1,5.694,2.5,7.726,7.726,0,0,1,1.679,5.155C412.908,296.627,410.331,300.712,406.157,300.712Zm-273.9-24.741h-.008c-.113,0-.225,0-.343-.006-7.257-.267-13.538-3.16-20.734-7.422a33.371,33.371,0,0,1-7.178-5.7,65.9,65.9,0,0,1-5.8-7.131,2.059,2.059,0,0,1-.239-2.123,3.156,3.156,0,0,1,2.464-1.756c1.334-.136,2.7-.343,4.012-.543,1.69-.257,3.437-.522,5.148-.642.346-.024.71-.037,1.082-.037a35.384,35.384,0,0,1,4.6.407c.781.1,1.587.21,2.378.287l2.854.277c5.728.57,11.339,1.281,17.009,3.7a8.743,8.743,0,0,1,4.751,4.629,10.722,10.722,0,0,1,.514,6.372,13.23,13.23,0,0,1-3.6,6.721A9.739,9.739,0,0,1,132.257,275.972Zm477.766-26.524a6.631,6.631,0,0,1-3.209-.83,8.141,8.141,0,0,1-2.75-2.52,12.745,12.745,0,0,1-2.122-4.969,14.762,14.762,0,0,1-.011-5.121,31.214,31.214,0,0,1,3.8-9.9l1.006-1.81a47.136,47.136,0,0,1,6.534-9.406l.045-.28a8.646,8.646,0,0,1,2.768-5.585,7.5,7.5,0,0,1,4.913-1.79,7.667,7.667,0,0,1,5.868,2.636,8.069,8.069,0,0,1,1.633,6.795,67.212,67.212,0,0,1-4.426,15.451,68.752,68.752,0,0,1-7.947,13.977A7.662,7.662,0,0,1,610.023,249.448ZM205.8,185.561a9.6,9.6,0,0,1-5.451-1.624,7.273,7.273,0,0,1-3.075-4.829l-.152-.846q-.065-.355-.132-.713c-.575-3.083-1.169-6.27-.345-9.27a29.568,29.568,0,0,1,2.864-6.211l.006-.011c.178-.32.362-.651.537-.97l.261-.481a40.462,40.462,0,0,1,4.594-6.683,57.263,57.263,0,0,1,5.659-5.851,5.388,5.388,0,0,1,3.573-1.335,5.013,5.013,0,0,1,2.872.87,4.266,4.266,0,0,1,1.711,2.618,47.335,47.335,0,0,1,1.116,16.614c-.093.651-.175,1.333-.253,1.991a25.793,25.793,0,0,1-1.462,6.9c-1.174,2.782-3.382,4.95-5.518,7.048l-.307.3A9.279,9.279,0,0,1,205.8,185.561Zm382.714-10.485c-3.121,0-5.434-1.945-7.884-4l-.389-.327a31.354,31.354,0,0,0-8.458-4.979,3.625,3.625,0,0,1-2.221-4.037,2.933,2.933,0,0,1,3.087-2.408h.007l.932.01a41.774,41.774,0,0,1,12.873,2.11c4.968,1.855,7.5,4.771,7.533,8.666a4.967,4.967,0,0,1-1.021,2.978,4.585,4.585,0,0,1-2.593,1.769A8.282,8.282,0,0,1,588.515,175.076Z" transform="translate(48 -20)"/>
  </g>
</svg>
