<svg xmlns="http://www.w3.org/2000/svg" width="818" height="788.873" viewBox="0 0 818 788.873">
  <g id="body_Killer" data-name="body/Killer" transform="translate(0 55.873)">
    <path id="_Skin" data-name="âœ‹ Skin" d="M333.257,13.133c66.555-28.657,115.711-6.41,131.71,28.3,12.66,27.464,12.909,85.568,37.671,108.589C623.17,238.98,649.454,393.987,674.058,532.57a1675.492,1675.492,0,0,1,20.873,202.263c.26,6.216-5.668,12.2-11.911,11.913-178.027-8.6-356.421-7.954-534.442-.258-10.505.076-21.155-.894-31.072-4.623-13.973,5.476-22.82-11.377-22.466-23.037-1.185-7.736-8.934-13.1-14.576-18.044-13.355-11.081-24.154-23.8-31.51-39.648-10.527-21.48-11.972-45.117-21.346-66.665-4.252-12.445-5.878-25.44-7.89-38.35-5.24-12.956-6.892-26.855-7.457-40.618-19.755-12.415-10.145-42.861-8.33-62.047,3.1-22.271,6.4-44.542,10.426-66.665C37.93,234.556,145.267,147.6,292.683,116.907,322.286,98.049,322.286,17.856,333.257,13.133Z" transform="translate(74 -55.873)" fill="#d08b5b"/>
    <path id="_Knife" data-name="ðŸ”ª Knife" d="M380.3,296.472a117.644,117.644,0,0,1-15.5-1.016c-1.867-.251-3.807-.561-5.764-.921l-1.435-.272-1.431-.287-.041-.27-.019-.07a.172.172,0,0,0-.166-.1.294.294,0,0,0-.23.121l-.031.055-.014.058-.01.1-1.427-.31a180.868,180.868,0,0,1-18.264-5.161,393.5,393.5,0,0,1-52.03-22.19,493.7,493.7,0,0,1-91.71-60c-16.656-13.743-32.578-28.756-44.59-40.3.337-.948.672-1.906.995-2.832l0-.014c.725-2.077,1.41-4.038,2.14-5.945,2.109-5.5,4.369-11.584,7.11-19.148l1.388-3.841,1.551-4.312.332-.95,1.453-4.273c2-5.812,4.361-11.824,9.247-15.865a37.553,37.553,0,0,1,3.682-2.631l.639-.407,1.289-.8,1.077,1.27,1.093,1.263a289.93,289.93,0,0,0,25,24.657l2.5,2.23,2.408,2.134,12.267,10.834,5.469,4.786c5.8,5.05,11.717,10.15,17.443,15.082l.046.04c5.089,4.383,10.351,8.915,15.5,13.393,25.577,22.229,55.817,48.57,86.171,75.4,16.745,14.793,31.5,27.946,45.11,40.21-.531-.027-1.089-.041-1.705-.041-1.468,0-2.968.082-4.418.161-1.339.073-2.72.148-4.087.161C380.993,296.47,380.64,296.472,380.3,296.472ZM33.4,35.486h0a13.857,13.857,0,0,0-5.432-3.118l-.377-.137-1.727-.611L19.8,29.412,8.357,25.256l-.213-.074c-.5-.164-1.153-.338-1.849-.522-2.081-.55-4.67-1.234-5.667-2.324A3.042,3.042,0,0,1,.052,19.76l.027-.2.13-.8.1-.553.116-.585A40.239,40.239,0,0,1,4.879,6.206a12.05,12.05,0,0,1,4.9-4.844A13.459,13.459,0,0,1,15.985,0C20.07,0,24.53,1.385,27.529,2.427l.292.1,1.156.413,1.147.424,3.465,1.31,1.562.6c5.917,2.326,11.71,5.159,17.311,7.9l.008,0c2.23,1.091,4.536,2.219,6.819,3.3l1.607.754-1.751.77-1.172.522-1.173.529A92.468,92.468,0,0,0,43.98,25.913,42.139,42.139,0,0,0,33.4,35.485Z" transform="translate(318 88)" fill="#fdea6b"/>
    <path id="_Ink" data-name="ðŸ– Ink" d="M129.279,684.007a7.516,7.516,0,0,1-5.589-2.2,5.716,5.716,0,0,1-1.4-4.5l.192-2.1c.82-8.852,1.948-19.079,4.959-28.42-.453.013-.853.019-1.223.019a18.71,18.71,0,0,1-5.968-.809,38.761,38.761,0,0,1-9.25-4.929,65.336,65.336,0,0,1-8.776-7.11,73.864,73.864,0,0,1-7.493-8.46,108.3,108.3,0,0,1-11.518-19.207,187.738,187.738,0,0,1-8.293-20.842c-4.754-14.116-9.33-28.962-13.989-45.387L56.29,523.578c-6.018-21.39-11.709-42.362-15.2-63.768a4.036,4.036,0,0,1-1.589,1.239,24.018,24.018,0,0,1-9.826,2.193,22.507,22.507,0,0,1-10.1-2.435,29.457,29.457,0,0,1-8.422-6.429,38.313,38.313,0,0,1-6.222-9.108A39.78,39.78,0,0,1,1.435,434.8c-1.67-9.162-1.5-18.642-1.333-27.81v-.045c.02-1.093.04-2.223.057-3.332L.175,402.5c.027-1.989.051-4.061.073-5.89.117-9.847.238-20.029.749-30.04.5-9.838,1.456-19.857,2.852-29.779,1.362-9.676,3.176-19.53,5.394-29.289C11.4,298,14,288.315,16.977,278.727c2.892-9.326,6.215-18.827,9.878-28.238,7.534-19.338,15.018-36.441,22.881-52.285,4.373-8.812,8.912-17.307,13.492-25.25C68.1,164.5,73.18,156.4,78.326,148.86a228.934,228.934,0,0,1,16.432-21.467,152.04,152.04,0,0,1,19.387-18.8c13.529-10.818,29.534-20.042,48.931-28.2,18.166-7.642,37.088-13.663,54.83-19.03A539.826,539.826,0,0,1,280,46.139a4.785,4.785,0,0,1,.829-.074,3.428,3.428,0,0,1,3.051,1.655c.669,1.113,1.336,2.311,2.1,3.77a23.257,23.257,0,0,1,7.08-2.364c1.116-.247,2.168-.479,3.071-.756,2.6-.805,5.809-1.519,9.206-2.275,8.474-1.885,18.074-4.021,23.153-8.545a44.256,44.256,0,0,0,9.536-12.419,111.887,111.887,0,0,0,6.158-14.466l.666-1.835c2.207-6.1,4.549-8.83,5.891-8.83a.936.936,0,0,1,.752.382c.773.962.754,3.615-.053,7.278l-.36,1.627c-.989,4.433-2.117,9.182-3.668,13.87a59.553,59.553,0,0,1-5.911,13c-7.5,12-25.523,17.523-40.007,21.962-2.376.728-4.62,1.416-6.743,2.107a4.014,4.014,0,0,1,.009,1.031,58.269,58.269,0,0,1,13.886,4.11,90.819,90.819,0,0,1,22.812,14.287,51.239,51.239,0,0,1,8.312,9.173l23.481-10.2c1.335-.579,2.7-1.188,4.015-1.777l.031-.014c6.379-2.853,12.975-5.8,19.933-6.919a27.327,27.327,0,0,1,4.3-.327,33.033,33.033,0,0,1,11.2,1.975,23.457,23.457,0,0,1,9.342,5.957A14.924,14.924,0,0,1,416,89.35a5.212,5.212,0,0,1-3.01,4.26c.865-.072,1.727-.108,2.562-.108.34,0,.682.006,1.017.018a19.67,19.67,0,0,1,8.066,2.212A15.944,15.944,0,0,1,431,101.243a9.321,9.321,0,0,1,1.432,4.134,9.435,9.435,0,0,1-.86,4.713,1.823,1.823,0,0,1-1.694,1.206,2.882,2.882,0,0,1-2.667-2.385c-.791-6.624-4.692-9.844-11.927-9.844-4.177,0-8.882,1.072-12.662,1.934a228.439,228.439,0,0,0-25.21,7.229A119.924,119.924,0,0,0,352.2,120.389c-8.194,5.308-15.708,11.665-15.209,22.14a.192.192,0,0,1-.052.149.269.269,0,0,1-.193.083.2.2,0,0,1-.186-.113,12.051,12.051,0,0,1-1.044-6.722,17.6,17.6,0,0,1,2.286-6.459,37.69,37.69,0,0,1,9.359-10.339c8.478-6.579,19.01-12.136,32.2-16.99a169.766,169.766,0,0,1,17.906-5.328l1.395-.342c.708-.171,1.436-.352,2.14-.526l.006,0c2.865-.709,5.824-1.442,8.783-1.922a4.268,4.268,0,0,1-3.092-3.121l-.068-.249a13.567,13.567,0,0,0-4.987-8.057,13.754,13.754,0,0,0-8.156-2.284c-3.859,0-8.473,1.016-14.1,3.106-4.814,1.787-9.576,4.072-13.4,5.909l-.013.006c-1.87.9-3.484,1.672-4.888,2.291-2.442,1.075-4.936,2.156-7.347,3.2l-.09.039c-5.747,2.49-11.689,5.065-17.443,7.78l-1.056.5a76.084,76.084,0,0,0-9.409,5.189,31.16,31.16,0,0,0-7.846,7.207,24.72,24.72,0,0,0-4.27,9.245,33.315,33.315,0,0,0-.655,10.012c.488,6.833,2.527,13.816,4.5,20.57,1.05,3.6,2.041,6.991,2.766,10.243a69.246,69.246,0,0,1,2,13.74,33.846,33.846,0,0,1-1.573,9.155l0,.009c-.15.558-.3,1.135-.452,1.705l-.542,2.121a.916.916,0,0,1,.692.384.709.709,0,0,1,.117.636,129.718,129.718,0,0,1-7.495,18.581c-2.851,5.876-5.937,11.511-9.386,17.741-7.952,14.371-14.271,25.162-20.489,34.988-12.679,20.034-26.541,39.922-41.2,59.109-14.425,18.879-29.945,37.5-46.129,55.351-6.741,7.436-13.836,14.771-20.7,21.865-8.879,9.181-18.061,18.675-26.573,28.483a176.942,176.942,0,0,0-19.07,25.811,124.931,124.931,0,0,0-7.86,15.54l-.442,1.063c-1.815,4.335-3.6,8.213-7.058,11.767a3.411,3.411,0,0,1-5.64-1.49c-1.08-5.06-.266-10.717,2.488-17.3a110.785,110.785,0,0,1,8.8-15.862l.1-.156.469-.745a226.278,226.278,0,0,1,22.239-29.191c2.171-2.465,4.454-4.981,6.98-7.691a165.475,165.475,0,0,1-21.092,3.857l-.011,0c-3.731.516-7.589,1.05-11.337,1.713a252.2,252.2,0,0,0-32.649,7.61,143.192,143.192,0,0,0-28.08,12.25,109.358,109.358,0,0,0-12.389,8.15c-.29.219-.577.452-.855.679l-.064.052-.173.141c5.484,13.779,9.947,28.207,14.262,42.161l0,.009c.718,2.322,1.461,4.723,2.2,7.08,3.757,12.069,7.339,23.9,10.347,33.888L77.1,554.27c1.023,3.4,2.034,6.922,3.012,10.33l.009.03C84.5,579.9,89.033,595.68,96.956,609.27a69.527,69.527,0,0,0,16.379,18.93,60.394,60.394,0,0,0,10.139,6.34,43.661,43.661,0,0,1,4.6,2.937l.006,0c.552.386,1.122.785,1.691,1.167a6.37,6.37,0,0,1,4.842-2.213,7.31,7.31,0,0,1,1.153.094l.285.051a24.539,24.539,0,0,0,4.712.447,33.736,33.736,0,0,0,9.682-1.555,59.878,59.878,0,0,0,9.116-3.682c8.95-4.415,15.686-8.685,21.2-13.439,12.1-10.442,22.2-23.419,31.974-35.968l.757-.972a793.89,793.89,0,0,0,91.029-148.96c12.058-25.608,23.982-53.019,35.44-81.472,6.083-15.087,11.411-28.589,16.29-41.278l.7-1.847c.869-2.316,1.731-4.7,2.565-7.01,3.81-10.547,7.75-21.454,14-30.594a.725.725,0,0,1,.23-.239,1.931,1.931,0,0,1,.281-.881c1.895-3.029,5.213-4.363,8.422-5.652l.006,0c.8-.321,1.625-.653,2.412-1.005,4.4-1.978,8.867-3.978,13.187-5.912l.082-.037c.87-.39,1.832-.762,2.849-1.155,2.993-1.156,6.384-2.466,8.341-4.685,2.182-2.455,3.309-6.377,4.3-9.838.364-1.265.707-2.459,1.086-3.544,3.225-9.209,6.774-18.468,10.2-27.422l0-.01.111-.288c.726-1.9,1.44-3.851,2.13-5.742,2.294-6.287,4.666-12.788,8-18.567a28.09,28.09,0,0,1,6.669-7.787,70.1,70.1,0,0,1,8.484-5.741l1.332-.8c2.519-1.535,5.292-3.42,6.314-6.359a7.871,7.871,0,0,0-.883-6.753,14.478,14.478,0,0,0-5.067-4.877,14.686,14.686,0,0,0-7.47-1.953,26.091,26.091,0,0,0-10.11,2.381,82.047,82.047,0,0,0-9.2,4.8c-2.325,1.356-4.667,2.816-6.932,4.227a120.7,120.7,0,0,1-16.449,9.1.161.161,0,0,1-.058.011.179.179,0,0,1-.159-.124.186.186,0,0,1,.037-.207c5.877-5.384,12.924-9.928,19.739-14.323l.02-.013c.818-.527,1.663-1.072,2.487-1.607l1.884-1.228c4.514-2.953,10.5-6.462,16.82-7.39a1.035,1.035,0,0,1-.771-1.1,1.238,1.238,0,0,1,1.1-1.1,130.613,130.613,0,0,1,14.953-.665c6.874-.041,13.982-.084,20.868-1.706a50.288,50.288,0,0,0,14.728-6.124A60.11,60.11,0,0,0,505.865,125.8a102.63,102.63,0,0,0,9.464-11.815c2.52-3.622,5.02-7.571,8.106-12.8,1.189-2.018,2.384-4.072,3.539-6.058,1.748-3,3.555-6.11,5.371-9.144.415-.7.86-1.518,1.362-2.5a27.081,27.081,0,0,1-7.935-3.493,55.125,55.125,0,0,1-6.636-4.9,42.09,42.09,0,0,1-7.43-8.358,56.863,56.863,0,0,1-5.329-9.842,65.676,65.676,0,0,1-5.044-25.212,79.977,79.977,0,0,1,.953-12.908,87.654,87.654,0,0,1,2.921-12.581,1.086,1.086,0,0,1,1.063-.769,1.019,1.019,0,0,1,1.017.769c1.49,5.349,2.48,10.964,3.437,16.395,1.555,8.824,3.163,17.947,6.962,26.225A47.469,47.469,0,0,0,527.8,63.09a31.684,31.684,0,0,0,6.92,5.25,28.921,28.921,0,0,0,2.808,1.3,13.542,13.542,0,0,1,5.232,3.219,4.8,4.8,0,0,1,.36.43,6.877,6.877,0,0,1,.915-.064,4.485,4.485,0,0,1,2.416.637l.189.127.04-.059c-4.075-2.78-8.088-5.475-12.37-7.871a.951.951,0,0,1-.511-1.105,1.172,1.172,0,0,1,1.34-.865l2.822.5c9.693,1.727,19.1,3.622,27.648,7.781a203.388,203.388,0,0,1,27.37,16.13,251.835,251.835,0,0,1,46.391,41.96,255.432,255.432,0,0,1,32.308,47.721,298,298,0,0,1,21.681,53.429c3.1,10.354,5.842,21.04,8.394,32.667,2.271,10.35,4.333,21.207,6.3,33.19,3.66,22.248,6.423,44.992,9.095,66.987l.089.732c.331,2.721.672,5.534,1.01,8.292,2.752,22.551,5.269,45.553,7.483,68.367l.6,6.224c.635,6.728,1.312,13.56,1.966,20.168l.011.107c.458,4.619.976,9.855,1.463,14.9a11.4,11.4,0,0,1,.96,10.111c.964,10.522,1.707,19.85,2.271,28.519,1.58,24.575,2.6,49.442,3.04,73.91.3,17.116-.037,34.5-.364,51.318v.034c-.15,7.736-.306,15.736-.4,23.608a7.671,7.671,0,0,1-2.559,5.908,8.412,8.412,0,0,1-5.535,1.967,8.543,8.543,0,0,1-5.574-1.971,7.761,7.761,0,0,1-2.642-5.9c-.449-19.4-1.577-39.115-2.669-58.184-.462-8.075-.94-16.425-1.361-24.665-.282-5.5-.559-11-.867-17.1-1.053-20.876-2.141-42.462-3.442-63.691-.154-2.445-.3-4.961-.451-7.691a33.192,33.192,0,0,1-5.817,1.4c-.639.114-1.242.222-1.831.339l-.6.123a127.477,127.477,0,0,1-14.827,2.252l-1.616.137c-1.829.126-6.233.262-11.579.262-7.16,0-20.562-.254-29.879-1.951,1.048,16.924,2.172,34.945,3.4,52.82.826,12.016,1.258,24.239,1.675,36.059.28,7.929.57,16.128.976,24.2.457,9.027,1.058,19.534,2.4,29.991.566,4.4,1.178,9.071,1.895,13.619l.366,2.261q.089.539.18,1.064v.006c.593,3.473,1.105,6.472-.391,9.62a8.122,8.122,0,0,1-.943,7.17,6,6,0,0,1-5.1,2.465c-.214,0-.435-.009-.657-.025-35.3-2.642-72.478-4.016-113.651-4.2C530.635,677,527.011,677,523.4,677c-47.536,0-95.843,1.462-142.559,2.876l-.12,0c-14.055.425-28.589.865-42.884,1.258l-17.686.479-2.23.061c-26.587.728-54.08,1.481-81.128,1.481-38.8,0-70.748-1.542-100.55-4.854a5.23,5.23,0,0,1-2.211,4.27A8.073,8.073,0,0,1,129.279,684.007ZM37.246,451.536a4.059,4.059,0,0,1,2.779,1.164c-.188-1.335-.368-2.719-.55-4.23l-.074.07c-1.22,1.113-2.482,2.263-3.775,3.339A4.167,4.167,0,0,1,37.246,451.536Zm594.025-84.87a.182.182,0,0,1,.185.174l.04.27c2.935.605,5.839,1.1,8.63,1.48a117.7,117.7,0,0,0,15.485,1.015c.354,0,.712,0,1.064,0,1.367-.012,2.75-.088,4.087-.161h.011c1.448-.079,2.944-.16,4.41-.16.6,0,1.16.013,1.7.041-13.617-12.272-28.373-25.426-45.11-40.21-30.275-26.76-60.549-53.132-86.17-75.4-5.169-4.494-10.446-9.039-15.549-13.434-7.531-6.486-15.319-13.194-22.913-19.868l-12.267-10.834c-10.995-9.723-21.639-19.356-31-30.283l-1.077-1.27a49.709,49.709,0,0,0-5.61,3.839c-5.4,4.469-7.711,11.305-9.943,17.917l0,.006c-.353,1.046-.718,2.128-1.086,3.166l-.167.472c-3.1,8.631-6.422,17.812-9.881,26.83-.733,1.914-1.419,3.879-2.146,5.959-.324.929-.658,1.885-.994,2.831,12.014,11.546,27.94,26.562,44.591,40.3a493.653,493.653,0,0,0,91.709,60A393.593,393.593,0,0,0,611.3,361.53,177.275,177.275,0,0,0,630.986,367l.011-.1A.283.283,0,0,1,631.271,366.666ZM291.31,73.132h0A13.456,13.456,0,0,0,285.1,74.5a12.051,12.051,0,0,0-4.9,4.844,39.57,39.57,0,0,0-4.572,12l-.1.554-.025.149c-.207,1.229-.42,2.5.445,3.43,1,1.089,3.584,1.774,5.664,2.324.833.22,1.55.41,2.065.6l11.444,4.155,5.715,2.084c.366.134.737.264,1.129.4,2.39.839,5.1,1.79,6.751,3.588a44.18,44.18,0,0,1,12.486-10.778,126.388,126.388,0,0,1,15.014-7.471c-2.824-1.314-5.668-2.705-8.418-4.051l-.013-.007c-6.094-2.981-12.4-6.064-18.877-8.5l-3.464-1.31c-4.682-1.748-9.636-3.365-14.14-3.366ZM347.329,265.01H347.3a24.83,24.83,0,0,1-12.486-3.863,38.269,38.269,0,0,1-9.845-8.806,1.1,1.1,0,0,1-.179-1.2,1.067,1.067,0,0,1,.95-.618,1.159,1.159,0,0,1,.75.3c5.752,4.869,12.186,7.28,19,9.832.707.265,1.508.565,2.282.859a1.948,1.948,0,0,1,1.21,2.177A1.573,1.573,0,0,1,347.329,265.01Zm21.381-108.464a.409.409,0,0,1-.335-.162.308.308,0,0,1-.03-.3,41.509,41.509,0,0,1,7.642-12.894,61.216,61.216,0,0,1,11.355-10.1c8.759-6.145,19.107-10.688,27.143-13.96l.638-.256A39.008,39.008,0,0,1,429,115.928c5.868,0,10.551,1.972,13.916,5.862a19.034,19.034,0,0,1,4.242,13.719,12.139,12.139,0,0,1-4.491,8.681,2.937,2.937,0,0,1-3.9-.5,1.888,1.888,0,0,1-.1-1.832,25.577,25.577,0,0,0,1.858-7.23,13.052,13.052,0,0,0-1.007-6.869,9.983,9.983,0,0,0-6.541-5.22,16.551,16.551,0,0,0-4.735-.658,29.688,29.688,0,0,0-9.436,1.8c-3.125,1.056-6.23,2.452-8.97,3.683-.544.245-1.056.475-1.574.7l-2.091.922c-14.093,6.256-28.346,13.9-37.134,27.389A.385.385,0,0,1,368.711,156.546Z" transform="translate(42 14.629)"/>
  </g>
</svg>
