<svg xmlns="http://www.w3.org/2000/svg" width="829.559" height="780" viewBox="0 0 829.559 780">
  <g id="body_Blazer_Black_Tee" data-name="body/Blazer Black Tee" transform="translate(0 47)">
    <path id="_Skin" data-name="âœ‹ Skin" d="M689.556,274.831c-13.881-65.762-63.109-116.792-129.318-142.213-12.726-7.2-25.063-38.084-42.167-43.74-2.742-.907,1.586,6.309,0,6.74-5.656,1.537-11.994,1.7-18.24-3.853-11.162-9.921-14.663-38.9-21.45-52C442.591-29.324,353.229-2.293,341.257,74.08c-8.348,5.441-20.148,10.234-29.235,14.618-9.357,4.515-17.587,15.45-27.23,19.36-8.6,3.488-22.78,1.017-31.449,4.058-39.874,13.987-73.646,31.636-100.123,67.4-5.579,7.542-11.868,16.814-16.945,24.433-26.174,30.131-44.354,63.9-61.1,100.136C28.331,410.432,15.589,528.186,4.157,642.772c.26,20.049-13.044,75.643,6.633,85.255a2.1,2.1,0,0,0,1.432,3.647,808.088,808.088,0,0,1,148.789,12.642c23.7,4.189,47.271,9.933,71.411,10.877,50.111-.346,100.042-8.743,150.087-.8,60.162,0,133.278-1.753,200.208-4.326,62.552-2.4,125.44,3.026,187.217-7.611,4.89-.774,7.278-6.738,6.253-11.012-7.248-26.41-10.806-53.592-14.873-80.623.81-17.338-.639-35.438-7.053-51.587Q729.124,435.71,689.556,274.831Z" transform="translate(45.999 -47)" fill="#d08b5b"/>
    <path id="_Jacket" data-name="ðŸ§¥ Jacket" d="M518.072,6.819c1.586-.431-2.742-7.647,0-6.74,17.1,5.656,29.44,36.542,42.167,43.74C626.446,69.24,675.675,120.27,689.556,186.032q39.687,160.622,64.705,324.406c6.414,16.149,7.863,34.249,7.053,51.587l.639,4.269c3.813,25.621,7.368,51.334,14.234,76.354,1.025,4.274-1.363,10.238-6.253,11.012-61.075,10.516-123.236,5.328-185.085,7.532l-12.891.484c-63.933,2.35-132.5,3.921-189.449,3.921-50.045-7.946-99.976.451-150.087.8-24.14-.944-47.712-6.688-71.411-10.877A808.088,808.088,0,0,0,12.222,642.875a2.1,2.1,0,0,1-1.432-3.647c-19.677-9.612-6.373-65.206-6.633-85.255L5.19,543.652c11.194-111.32,24.546-225.21,69.987-328.37l1.361-2.932c16.372-35.123,34.271-67.887,59.737-97.2l1.558-2.332c4.77-7.124,10.366-15.313,15.387-22.1C179.7,54.953,213.469,37.3,253.343,23.317c8.669-3.041,22.846-.57,31.449-4.058C293.811,15.6,301.594,5.8,310.219.852v36.9l124.8,122.939L505.8,52.155,513,7.7A25.432,25.432,0,0,0,518.072,6.819Z" transform="translate(45.999 42.199)" fill="#8fa7df"/>
    <path id="_Ink" data-name="ðŸ– Ink" d="M696.148,735.634a16.654,16.654,0,0,1-11.631-4.515c-4.408-4.242-5.4-11.3-6.284-17.522-.212-1.5-.412-2.918-.653-4.27l-1.218-6.6c-5.228-28.459-9.164-52.221-12.389-74.779-3.869-27.067-6.593-51.7-8.328-75.3-1.055-14.439-1.8-27.2-2.27-39-.312-7.738-.333-15.6-.354-23.206-.012-4.423-.024-9-.094-13.506l-.063-3.338c-.294-13.3-.034-26.667.291-39.129.043-1.736.124-3.467.19-4.781a4.3,4.3,0,0,1-.929-1.8l-.182-.82a6.547,6.547,0,0,1,1.681-6.089c.173-2.205.364-4.447.547-6.615v-.01c.557-6.564,1.133-13.351,1.321-20.025a.523.523,0,0,1,.544-.54.574.574,0,0,1,.587.54c.592,7.592,1.79,15.277,2.948,22.71a46.945,46.945,0,0,0,9.86-11.42,77.578,77.578,0,0,0,6.65-13.16.531.531,0,0,1,.5-.359.493.493,0,0,1,.488.629,109.063,109.063,0,0,1-5.63,18.891,88.891,88.891,0,0,1-4.36,8.833c-1.408,2.6-2.863,5.3-4.039,8.065a4.2,4.2,0,0,1-1.521,1.821l.2,1.575.187,1.575c.557,4.826,1.154,9.713,1.731,14.439.7,5.7,1.417,11.6,2.07,17.416l.581,5.316c1.46,13.794,3.48,27.775,5.432,41.3l0,.014c1.187,8.22,2.415,16.721,3.5,25.089,2.5,19.214,5.5,41.96,8.76,64.981,3.04,21.393,6.33,44.173,10.17,66.81,1.581,9.318,3.258,18.782,4.983,28.129l1.337,7.17a15.878,15.878,0,0,1,8.5,5.223,16.564,16.564,0,0,1,3.74,8.664,15.23,15.23,0,0,1-1.551,8.781,14.989,14.989,0,0,1-2.843,3.836,17.346,17.346,0,0,1-4.333,3.066A18.194,18.194,0,0,1,696.148,735.634Zm-129.8-3.585h-.043l-65.49-.25c-26.976-.107-54.4-.267-80.929-.421h-.063c-11.814-.069-22.46-.131-33.128-.19-8.693-.045-18.106-.2-28.779-.479-9.057-.252-17.924-1.37-26.5-2.451-4.942-.62-8.861-2.671-11.333-5.931s-3.381-7.563-2.647-12.468c.2-1.372.424-2.761.637-4.1l.006-.038c.121-.764.258-1.63.388-2.468a6.463,6.463,0,0,1-2.028.326,5.619,5.619,0,0,1-3.962-1.546l-1.509-1.477a24.68,24.68,0,0,1-5.29-6.864c-.957-1.981-1.8-4.07-2.612-6.091-.351-.87-.711-1.766-1.08-2.648-2.6-6.218-5.165-12.54-7.62-18.79-5.294-13.456-10.039-25.6-14.5-37.921-9.039-24.978-17.174-50.736-24.179-76.559-6.19-22.829-11.631-46.3-16.17-69.759-4.495-23.228-8.22-47.029-11.071-70.741l-1.363-11.3-.4-3.337c-1.978-16.812-4.013-36.343-3.121-55.373.608-13.146,2.767-24.192,6.6-33.771,3.36-8.394,8.378-15.921,13.231-23.2.87-1.3,1.769-2.653,2.648-3.99l.665-1.021.668-1.045a71.379,71.379,0,0,0,6.493-12.442,39.87,39.87,0,0,0,2.834-13.733,59.732,59.732,0,0,0-1.665-14.631,135.194,135.194,0,0,0-4.236-14.158l-.8-2.285-.539-1.512c-.58-1.621-1.178-3.267-1.755-4.859l-.032-.088c-3.113-8.58-6.332-17.451-8.408-26.365a90.57,90.57,0,0,1-2.165-13.545,68.872,68.872,0,0,1,.274-14,93.918,93.918,0,0,1,5.469-21.9,105.138,105.138,0,0,1,10.081-19.695c7.53-11.6,17.708-22.665,30.251-32.886a202.129,202.129,0,0,0-59.591,22.58,223.013,223.013,0,0,0-30.536,21A257.217,257.217,0,0,0,166.118,155.1,312.213,312.213,0,0,0,144.1,182.052c-6.561,8.994-12.986,18.754-19.1,29.01a538.312,538.312,0,0,0-31.291,62.116,718.584,718.584,0,0,0-25.353,68.188c-7.027,22.185-13.411,45.818-18.976,70.242-5.206,22.849-9.822,47-13.72,71.794-3.609,22.953-6.742,47.347-9.311,72.506-2.3,22.5-4.27,46.217-6.019,72.52-.3,4.578-.583,9.236-.854,13.74v.027c-.462,7.686-.94,15.633-1.545,23.433-.164,2.119-.315,4.275-.462,6.36-.711,10.141-1.446,20.628-3.949,30.609a5.5,5.5,0,0,1-2.4,3.289,7.229,7.229,0,0,1-3.912,1.135,6.228,6.228,0,0,1-3.608-1.081A5,5,0,0,1,1.589,702.6c-2.272-13.867-1.625-28.194-1-42.05l.057-1.27c.593-13.3,1.4-27.346,2.39-41.74,2.018-29.251,4.709-57.889,8-85.12,3.116-25.812,6.838-50.806,11.064-74.288,4.575-25.419,9.926-50.107,15.9-73.379C44.389,359.9,51.719,335.759,59.793,313c4.217-11.889,8.734-23.68,13.426-35.046,4.816-11.666,9.96-23.23,15.289-34.372,5.351-11.192,10.892-21.843,16.47-31.658,6.122-10.772,12.535-20.972,19.06-30.318a307.13,307.13,0,0,1,22.067-28.093A252.1,252.1,0,0,1,171.6,128.528a212.484,212.484,0,0,1,58.019-34.861,154.5,154.5,0,0,1,28.549-8.427A156.931,156.931,0,0,1,287.6,82.5h.083A228.419,228.419,0,0,1,319.3,62.357a.662.662,0,0,1,.315-.082.687.687,0,0,1,.622.428.606.606,0,0,1-.146.685c-.113.109-.225.219-.336.33l0,0c-.16.158-.326.322-.491.477a5.5,5.5,0,0,1,3.609,1.84,70.431,70.431,0,0,1,10.29,14.729c2.159,2.7,4.3,5.478,6.379,8.168l0,0c2.292,2.972,4.662,6.044,7.047,9,6.6,8.167,13.871,16.891,22.24,26.67,13.806,16.145,26.67,30.283,39.326,43.224l2.274,2.316c1.692,1.715,3.348,3.465,5.1,5.319,5.461,5.775,11.107,11.746,17.458,16.051l.445.3a8.7,8.7,0,0,0,4.593,1.789c1.525,0,2.933-.8,4.431-2.5a79.66,79.66,0,0,0,6.021-8.218l.006-.008c.43-.643.875-1.307,1.314-1.953l.541-.79a593.1,593.1,0,0,0,33-53.8c4.5-8.311,8.885-16.923,13.021-25.6l1.229-2.594c.567-1.205,1.152-2.416,1.717-3.587,1.681-3.48,3.419-7.079,4.8-10.744.405-1.082.817-2.207,1.26-3.439-6.484-4.251-11.258-13.384-12.949-20.07a30.324,30.324,0,0,1-.735-10.923,31.756,31.756,0,0,1,3.1-10.457,1.471,1.471,0,0,1,1.365-.79,1.622,1.622,0,0,1,1.635,1.179,43.669,43.669,0,0,0,7.09,15.741,30.181,30.181,0,0,0,5.57,6.231,28.974,28.974,0,0,0,3.678,2.446c.756.449,1.535.911,2.282,1.413a8.427,8.427,0,0,1,1.3-.1,9.191,9.191,0,0,1,6.61,2.86L524,64.8a.714.714,0,0,1,.178-.566.988.988,0,0,1,.728-.3.811.811,0,0,1,.845.632c9.366,47.241,17.1,90.651,23.634,132.713l3.027,19.625,2.849,18.425c4.506,29.251,9.2,60.473,12.749,92.317,4.9,44.036,8.584,84.626,11.269,124.09,2.54,37.443,4.386,77.258,5.811,125.3.2,6.872.416,13.857.623,20.612l.005.17q.166,5.413.331,10.827l2.136-12.6c1.933-11.425,4.151-24.716,6.014-37.879,3.46-24.381,6.244-46.681,8.511-68.174,2.542-24.1,4.363-46.5,5.57-68.466a554.379,554.379,0,0,0,.3-63.01c-.639-10.864-1.706-21.4-3.172-31.33a290.737,290.737,0,0,0-6.235-30.871,251.212,251.212,0,0,0-9.921-30.17c-2.141-5.329-4.76-10.527-7.293-15.554-2.012-3.993-4.091-8.118-5.918-12.285a57.11,57.11,0,0,1-4.611-16.235,51.305,51.305,0,0,1,.843-16.865c.752-3.581,1.717-7.142,2.65-10.585,1.739-6.418,3.536-13.051,3.978-19.945a81.134,81.134,0,0,0-.4-14.6,96.275,96.275,0,0,0-2.807-14.249,120.651,120.651,0,0,0-4.738-13.79c-1.759-4.289-3.845-8.735-6.2-13.216-2.286-4.349-4.813-8.868-7.51-13.431a427.715,427.715,0,0,0-26.15-38.66.558.558,0,0,1-.07-.609.828.828,0,0,1,.712-.429.636.636,0,0,1,.458.188c2.25,2.224,4.6,4.479,6.872,6.661A242.308,242.308,0,0,1,557.509,91.6c4.1,4.916,7.6,9.371,10.729,13.621a125.846,125.846,0,0,1,27.074,7.758,137.463,137.463,0,0,1,24.632,13.27,152.815,152.815,0,0,1,21.729,17.881,166.265,166.265,0,0,1,18.365,21.591,216.136,216.136,0,0,1,16.582,27.48,279.232,279.232,0,0,1,12.8,29.426c6.456,17.4,12.062,37.03,17.642,61.773,7.687,34.062,14.6,68.918,21.28,102.626l0,.014c2.362,11.912,4.8,24.23,7.257,36.4,2.915,14.445,5.875,29.137,8.737,43.344l.11.547c6.6,32.759,13.424,66.634,20.2,100.009l.435,2.141.121.6c4.577,22.516,9.31,45.8,13.953,68.7,2.423,11.922,5.017,24.071,7.71,36.11.451,2.014.921,4.061,1.376,6.041l.014.059c.931,4.056,1.894,8.25,2.752,12.391,1.419,6.87.167,11.356-4.62,16.55a4.85,4.85,0,0,1-3.686,1.543,7.068,7.068,0,0,1-2.965-.684l-.675-.318-.653-.315c-2.855-1.4-4.822-2.77-6.431-5.6-1.512-2.65-1.964-5.479-2.442-8.474v-.007c-.1-.609-.2-1.238-.307-1.859-.682-3.863-1.371-7.784-2.038-11.576l-.058-.332q-.686-3.9-1.374-7.812c-1.8-10.209-3.724-20.193-5.537-29.462L750.6,596.013c-2.11-10.75-4.895-24.92-7.721-39.206-8.515-43.1-17.162-86.82-25.525-129.1l-2.184-11.043c-2.786-14.088-5.516-28.436-8.155-42.311-5.77-30.333-11.736-61.7-18.665-92.289l-.573-2.513-.584-2.508c-2.427-10.33-4.9-19.667-7.55-28.542-2.97-9.935-6.085-19.015-9.522-27.757A272.069,272.069,0,0,0,658,194.09a228.671,228.671,0,0,0-15.348-25.242,193.775,193.775,0,0,0-14.46-18.154,177.41,177.41,0,0,0-16.795-16.365,141.262,141.262,0,0,0-39.655-24.222c2.056,2.958,4.021,5.967,5.841,8.941a136.084,136.084,0,0,1,14.234,30.86,88.136,88.136,0,0,1,3.975,33.591,117.452,117.452,0,0,1-2.312,13.662c-1.338,6.371-2.722,12.96-2.487,19.537.287,7.714,4.063,14.713,7.715,21.482l0,0c1.033,1.916,2.1,3.9,3.053,5.833a262.356,262.356,0,0,1,21.13,61.8c2.178,10.35,3.917,21.247,5.167,32.386,1.168,10.406,1.952,21.4,2.33,32.68a625.08,625.08,0,0,1-1.608,65.553c-1.587,22.241-3.9,45.453-7.08,70.963-2.658,21.345-5.845,43.784-10.029,70.617-1.934,12.4-4.236,24.961-6.461,37.1l0,.017c-2.088,11.391-4.247,23.17-6.1,34.79-1.3,8.12-2.938,16.353-4.525,24.316-.726,3.643-1.478,7.41-2.185,11.115l-1.072,5.628c-.536,2.792-1.187,6.081-1.943,9.317l-.444,1.844v.33a10.162,10.162,0,0,1-1.641,5.651,68.716,68.716,0,0,1-5.33,12.78,7.19,7.19,0,0,1-4.671,3.71,12.69,12.69,0,0,1-4.3,5.289A11.478,11.478,0,0,1,566.351,732.048ZM313.008,70.218c-3.113,2.934-6.319,5.879-9.42,8.727l-.033.03c-2.141,1.967-4.355,4-6.519,6.013l-1.945,1.818-1.936,1.826c-8.268,7.841-17.79,17.376-25.727,28.646a112.3,112.3,0,0,0-9.093,15.305,92.355,92.355,0,0,0-6.241,16.506,70.471,70.471,0,0,0-.807,35.029c2.059,8.567,5.331,16.92,8.5,25,4.093,10.445,8.324,21.244,9.964,32.6,1.557,10.769.531,20.782-3.051,29.759-3.021,7.57-7.531,14.42-11.892,21.045l-.009.013c-1.239,1.882-2.52,3.827-3.749,5.763a79.738,79.738,0,0,0-11.262,29.9c-1.572,9.185-1.98,19.4-1.287,32.163.6,11.039,1.531,22.347,2.836,34.568,1.15,10.768,2.571,22.024,4.344,34.411,3.291,23.025,7.474,46.251,12.433,69.032,4.951,22.747,10.8,45.612,17.376,67.958,6.294,21.391,13.806,42.725,21.07,63.357l1.121,3.184c3.994,11.345,8.622,22.276,13.028,32.4,2.251,5.164,4.708,10.656,7.511,16.79-.63-5.271-.841-10.7-1.045-15.953v-.018c-.1-2.577-.2-5.241-.356-7.828-.476-8.1-1.055-16.318-1.615-24.264-.205-2.909-.437-6.207-.655-9.366-1.53-22.193-2.95-45.169-4.219-68.29-2.483-45.509-4.274-85.367-5.476-121.851-1.441-43.743-2.087-83.633-1.975-121.949.126-42.245,1.035-83.281,2.7-121.971.685-15.981,1.927-32.213,3.128-47.911v-.011c.224-2.928.478-6.247.717-9.433l.305-4.094c1.143-15.44,2.679-33.614,5.4-51.34a37.979,37.979,0,0,1-1.94-5.319l-.178-.681.13.02A5.71,5.71,0,0,1,313.008,70.218ZM145.972,724.67a13.212,13.212,0,0,1-1.765-.122,10.9,10.9,0,0,1-7.464-4.159,11.921,11.921,0,0,1-2.113-4.79,16.136,16.136,0,0,1-.132-5.622c3.214-22.173,7.371-51.467,11.02-81.438l3.77-30.989c4.277-35.048,9.326-75.813,15.14-116.083,2.341-16.211,4.732-32.145,7.179-48.4l-.849-1.1c-2.619-3.4-5.35-6.8-7.992-10.092l-.005-.007-.044-.055c-.843-1.05-1.715-2.136-2.57-3.2-7.542-9.467-13.789-17.394-19.8-26.011a.492.492,0,0,1-.016-.523.611.611,0,0,1,.513-.34.442.442,0,0,1,.272.094c8.72,6.44,16.986,13.333,25.391,20.419l7.3,6.179c4.237-28.111,8.349-55.665,12.069-83.69a.618.618,0,0,1,.617-.543.506.506,0,0,1,.368.145.536.536,0,0,1,.138.4c-.268,8.51-.508,17.163-.74,25.531-.522,18.82-1.061,38.28-1.961,57.4l-.449,9.428a10.162,10.162,0,0,1,2.252,3.731,8.29,8.29,0,0,1,.017,4.72,4.536,4.536,0,0,1-2.82,3.07l-.424,8.767c-1.851,37.829-4.142,78.325-8.326,118.154-5.115,48.709-11.12,98.149-16.927,145.961l-.193,1.588a14.631,14.631,0,0,1-3.576,8.191A10.5,10.5,0,0,1,145.972,724.67ZM340.861,61.422a5.259,5.259,0,0,1-3.074-.874l-.842-.638c-.149-.117-.282-.225-.408-.332a6.019,6.019,0,0,1-1.59-6.019c1.17-3.1,3.328-5.723,5.416-8.259a55.478,55.478,0,0,0,3.434-4.472,83.148,83.148,0,0,0,6.66-12.1c3.328-7.524,5.176-15.578,6.964-23.367.378-1.645.768-3.347,1.168-5.024A.425.425,0,0,1,359.021,0a.475.475,0,0,1,.467.338c2.6,8.739,2.381,19.189-.639,31.06a90.586,90.586,0,0,1-5.711,15.84l-.829,1.785a50.305,50.305,0,0,1-3.415,6.377,18.2,18.2,0,0,1-4.857,5.149A5.746,5.746,0,0,1,340.861,61.422Z" transform="translate(38 -21.6)"/>
  </g>
</svg>
