<svg xmlns="http://www.w3.org/2000/svg" width="818" height="765" viewBox="0 0 818 765">
  <g id="body_Tee_1" data-name="body/Tee 1" transform="translate(0 32)">
    <path id="_Skin" data-name="âœ‹ Skin" d="M748.281,585.022q-6.047-34.146-11.084-68.463c-1.594-10.86-3.149-21.729-4.547-32.617-.979-7.628-2.47-16.351,2.72-22,7.3-7.952,13.937-14.758,14.831-26.148.841-10.717-2.783-22.4-5.049-32.8-4.752-21.816-10.668-43.362-17.205-64.7-6.641-21.683-13.923-43.162-21.31-64.6-6.906-20.044-13.545-40.269-22.54-59.5-17.071-36.5-45.951-63.522-81.643-81.568-8.877-4.488-26.982-20.51-36.256-24.1-8.526-3.3-8.5,6.333-16.887,2.7-6.708-2.9-12.954-6.767-16.71-13.244-4.078-7.033-14.3-16.869-15.862-25.055-3.3-17.351.275-32.12-12.109-45.179-10.994-11.6-25.771-19.541-41.061-23.806-33.636-9.382-78.494-2.823-98.788,28.433C355.089,47.3,351.7,65.342,338.622,77.523c-11.421,10.636-8.865,17.908-23.657,23.39-.838.311-23.546-4.559-24.383-4.248C274.4,93.2,258.934,102.9,244.088,108.521a325.468,325.468,0,0,0-63,32.269c-39.919,26.155-74.109,60.118-102.3,98.551-28.42,38.749-50.471,82.182-66.172,127.576Q6.9,383.456,2.359,400.372c-1.691,6.307-3.5,12.848-1.439,19.305,1.684,5.282,5.43,9.215,9.829,12.385,5.963,4.3,17.924,7.09,17.691,15.731-.178,6.571-2.407,13.485-3.495,19.978-1.3,7.732-2.359,15.51-3.423,23.277-4.84,35.35-8.607,70.9-10.273,106.549-1.64,35.1-3,70.921-.566,106.013a13.575,13.575,0,0,0,1.964,6.233,1.414,1.414,0,0,0,.174,2.609l2.716.576a11.955,11.955,0,0,0,6.93,2.382c1.831.058,3.661.14,5.49.234,19.3,4.034,38.6,7.846,58.152,10.732q35.652,5.262,71.518,8.693c49.135,4.776,97.883,3.192,147.083.618q73.686-3.857,147.394-1.894c49.218,1.281,98.418,3.422,147.647,4.3,55,.977,109.914-.525,164.754-4.9,7.519-.6,12.171-6.581,10.688-14.049C766.307,674.4,756.239,629.958,748.281,585.022Z" transform="translate(25.999 -32)" fill="#d08b5b"/>
    <path id="_Top" data-name="ðŸ‘• Top" d="M244.088,12.585l1.074-.414C259.679,6.5,274.79-2.65,290.582.729c.559-.208,10.834,1.887,17.873,3.215l-6.681,6.973-11.79,2.268Q350.994,113.877,434.3,113.877T560.723,13.186l3.923-1.085a11.506,11.506,0,0,1,1.552.485c9.274,3.587,27.379,19.609,36.256,24.1,35.692,18.046,64.572,45.073,81.643,81.568,8.7,18.59,15.189,38.108,21.85,57.495l.69,2c7.387,21.438,14.669,42.917,21.31,64.6,6.253,20.414,11.937,41.015,16.579,61.86l.626,2.844c2.266,10.4,5.89,22.086,5.049,32.8a28.982,28.982,0,0,1-2.912,10.687l-80.446,28.947,38.326,261.394q-52.66,2.258-105.419,1.269c-49.229-.876-98.429-3.017-147.647-4.3q-71.527-1.86-142.928,1.665l-12.1.619c-46.613,2.331-92.858,3.521-139.452-1.009l-3.175-.312h0V600.585l16.367-212.911L87.873,372.061,6.452,332.514A21.689,21.689,0,0,1,.92,323.742c-1.907-5.98-.5-12.033,1.064-17.9l.375-1.4q4.532-16.9,10.259-33.455c15.7-45.393,37.752-88.826,66.172-127.576,28.187-38.433,62.377-72.4,102.3-98.551A325.468,325.468,0,0,1,244.088,12.585Z" transform="translate(26 63.936)" fill="#ec7495"/>
    <path id="_Ink" data-name="ðŸ– Ink" d="M161.738,710.958a8.657,8.657,0,0,1-1.018-.059,8.916,8.916,0,0,1-5.63-3,9.132,9.132,0,0,1-2.3-5.981c-.038-8.362.7-16.913,1.413-25.183v-.01c.3-3.484.611-7.086.858-10.611.689-9.848,1.462-20.277,2.5-33.816,2.014-26.11,4.257-52.637,6.425-78.291V554c1.246-14.743,2.535-29.988,3.77-45.023,1.049-12.785,2.262-26.677,3.818-43.719a216.791,216.791,0,0,1-33.353-3.763,274.162,274.162,0,0,1-32.335-8.326c-10.039-3.22-20.315-7.053-31.414-11.72C65.1,437.5,55.1,432.941,43.892,427.5c-.555,12.6-1.877,25.372-3.156,37.725l-.2,1.907c-4.238,40.973-7.4,77.1-9.671,110.458-1.1,16.163-2.024,33.422-3,55.958-.393,9.137-.718,18.4-.964,27.523-.084,3.1-.159,6.187-.223,9.177l-.138,7.008c-.11,4.346-.522,8.518-4.3,11.786a9.928,9.928,0,0,1-6.44,2.529,9.114,9.114,0,0,1-6.237-2.529,12.231,12.231,0,0,1-3.781-7.006,37.052,37.052,0,0,1-.278-8.063v-.008c.025-.682.051-1.387.068-2.08.122-5.156.272-10.449.447-15.732.344-10.41.791-20.991,1.329-31.45,1.754-34.076,5.214-69.883,10.579-109.468l1.922-14.029c1.73-12.571,3.628-25.961,6.115-39.3a317.991,317.991,0,0,1,9.442-38.58c-3.025-1.5-6.169-3.083-9.345-4.691-1.626-.823-3.3-1.646-4.913-2.441l0,0c-3.866-1.9-7.863-3.871-11.633-6.038-5.09-2.926-8.063-6.435-9.09-10.73-1.138-4.754.183-9.791,1.461-14.663l.006-.023c.2-.763.389-1.484.57-2.21l.116-.473c1.255-5.169,2.675-10.6,4.219-16.152a534.582,534.582,0,0,1,22.286-63.85,522.921,522.921,0,0,1,67.8-116.944,404.551,404.551,0,0,1,40.77-45.5c7.5-7.141,15.254-13.888,23.05-20.055A297.939,297.939,0,0,1,185.6,101.841,254.535,254.535,0,0,1,211.678,87.3a227.309,227.309,0,0,1,27.685-11.17,142.182,142.182,0,0,1,27.811-6.47c4.451-.5,9.237-.847,15.061-1.1.563-.024,1.151-.037,1.747-.037a90.865,90.865,0,0,1,10.052.755l.035,0c1.154.13,2.347.264,3.512.378a.481.481,0,0,1,.416.45.351.351,0,0,1-.3.38c-9.009,1.881-17.9,4.445-26.98,7.127l-3.819,1.13c-9.454,2.8-19.577,5.946-29.555,10.012a264.5,264.5,0,0,0-54.794,30.845c-31.106,22.49-59.539,51.531-84.512,86.318a481.652,481.652,0,0,0-32.248,51.716,539.953,539.953,0,0,0-25.652,54.7A527.66,527.66,0,0,0,19.608,374c-1.307,4.93-2.6,10.094-3.83,15.347-.078.332-.212.773-.368,1.284-.535,1.758-1.343,4.414-.683,5.616.548,1,2.274,1.723,3.66,2.306.507.213.985.414,1.346.6l4.561,2.365c8.878,4.576,23.68,12.1,25.2,12.857l2.318,1.141c22.276,10.92,40.947,18.635,58.758,24.278a257.27,257.27,0,0,0,30.736,7.774,202.94,202.94,0,0,0,31.585,3.384l.334-3.643c1.825-19.332,4.281-39.97,9.846-59.911a.8.8,0,0,1,.771-.64,1.012,1.012,0,0,1,.978.878,267.154,267.154,0,0,1,2.039,34.769c0,11.2-.465,22.412-1.033,34.85-1.293,28.368-2.905,57.189-4.464,85.06v.024c-.7,12.534-1.426,25.5-2.112,38.243-.776,14.4-1.726,29.034-2.645,43.185v.022c-.392,6.031-.8,12.268-1.186,18.457-.335,5.332-.617,10.794-.889,16.077v.02c-.782,15.182-1.591,30.879-3.781,46.007a7.133,7.133,0,0,1-3.283,4.87A10.585,10.585,0,0,1,161.738,710.958ZM774.9,694.5a6.153,6.153,0,0,1-2.535-.584l-.63-.292c-3.268-1.528-6.074-3.114-7.312-7.053a38.265,38.265,0,0,1-1.1-5.191c-.138-.835-.28-1.7-.444-2.521-.969-4.854-1.89-9.733-2.739-14.5-1.719-9.67-3.419-19.461-5.052-29.1l-1.535-9.09c-5.063-30.1-10.222-62.182-12.805-94.509-1.171-14.655-2.427-29.423-3.513-42.115l-.9-10.528c-.179-2.1-.368-4.239-.551-6.312l0-.04c-.988-11.2-2.009-22.772-2.175-34.14l-4.531,1.609-22.11,7.816c-1.368.483-2.81,1.085-4.336,1.722-3.987,1.664-8.5,3.549-12.558,3.549a12.1,12.1,0,0,1-1.468-.087,11.173,11.173,0,0,1-6.79-2.914c2.111,29.793,4.958,58.712,8.465,85.953,3.713,28.852,7.45,54.271,11.423,77.71,1.773,10.458,4.149,24.262,6.813,38.289,1.191,6.278,2.451,12.7,3.743,19.083.2.989.415,1.994.623,2.966.46,2.15.936,4.372,1.28,6.573.566,3.622-.391,5.846-2.48,8.923a6.27,6.27,0,0,1-5.057,2.818,5.02,5.02,0,0,1-2.7-.783,16.561,16.561,0,0,1-4.228-3.475,12.22,12.22,0,0,1-2.319-4.869c-.67-2.6-1.163-5.31-1.64-7.933l-.005-.027c-.208-1.145-.424-2.329-.65-3.482-1.36-6.906-2.7-13.978-3.993-21.02-2.776-15.156-5.258-30-7.376-44.132-3.829-25.525-7.06-51.848-9.606-78.236-2.477-25.678-4.372-52.131-5.633-78.626-1.172-24.623-1.628-50.052-1.395-77.741.122-14.447.608-27.488,1.486-39.869.782-11.025,2.286-22.069,3.74-32.749l.013-.1c.312-2.3.635-4.669.946-7.008a.4.4,0,0,1,.4-.361.352.352,0,0,1,.355.361c.347,6.171.782,12.443,1.2,18.509v.012c.6,8.58,1.211,17.45,1.588,26.194.375,8.715.626,17.584.868,26.161v.011c.154,5.441.313,11.067.5,16.614.654,19.127,1.565,38.048,2.707,56.236a9.783,9.783,0,0,1,7.157-3.263,8.708,8.708,0,0,1,1.4.113,59.775,59.775,0,0,0,9.183-3.061c1.718-.675,3.341-1.313,4.923-1.842l16.734-5.59c8.333-2.784,17.3-5.762,26.421-8.686-6.831-22.982-12.356-47.916-17.916-80.844l-2.059-12.3c-1.953-11.6-4.115-24.019-6.686-36.217-2.8-13.3-5.8-24.958-9.166-35.642a233.425,233.425,0,0,0-14.524-35.61A229.579,229.579,0,0,0,676.08,180.6a288.465,288.465,0,0,0-24.906-29c-8.012-8.252-16.84-16.606-27.782-26.293-9.492-8.4-19.535-16.46-29.247-24.253-6.952-5.578-14.14-11.346-21.075-17.2a9.624,9.624,0,0,1,.059,3.076,105.53,105.53,0,0,1-4.443,18.986,114.586,114.586,0,0,1-7.74,17.908,122.07,122.07,0,0,1-10.6,16.418,124.019,124.019,0,0,1-55.623,41.046,135.8,135.8,0,0,1-24.027,6.5,144.972,144.972,0,0,1-24.909,2.141,152.038,152.038,0,0,1-25.491-2.171,154.949,154.949,0,0,1-24.94-6.434,168.958,168.958,0,0,1-33.709-16.218,173.631,173.631,0,0,1-29.68-23.357,161.619,161.619,0,0,1-23.653-29.263,141.817,141.817,0,0,1-15.629-33.937.63.63,0,0,1,.075-.579.723.723,0,0,1,.586-.272.764.764,0,0,1,.625.31c.7.956,1.4,1.919,2.126,2.9l.313.426a1.061,1.061,0,0,1,.718-1.131C316.591,72.69,332.247,62.9,343.66,51.1A99.872,99.872,0,0,0,359.6,29.521a85.855,85.855,0,0,0,5.371-11.693l.373-1.042c.2-.572.407-1.162.587-1.683,1.525-4.4,3.1-8.955,6.412-12.509a8,8,0,0,1,6-2.594A10.211,10.211,0,0,1,386.4,4.135a7.871,7.871,0,0,1,1.094,7.279A127.978,127.978,0,0,1,373.97,39.988a100.384,100.384,0,0,1-9.519,12.5,91.256,91.256,0,0,1-11.613,10.878,96.784,96.784,0,0,1-23.516,13.812,70.89,70.89,0,0,1-26.419,5.29c-1.829,0-3.68-.078-5.5-.232a1.21,1.21,0,0,1-.416-.111l1.765,2.393c5.718,7.735,13.344,17.856,21.633,27.555a235.513,235.513,0,0,0,24.454,24.987,173.863,173.863,0,0,0,22.37,16.512,164.609,164.609,0,0,0,24.679,12.589,150.4,150.4,0,0,0,26.336,8.025A136.368,136.368,0,0,0,445.561,177a127.045,127.045,0,0,0,31.227-3.874,112.6,112.6,0,0,0,26.726-10.618,115.629,115.629,0,0,0,23.319-16.981A108.217,108.217,0,0,0,544.994,123.3,96.5,96.5,0,0,0,556.247,96.93a7.335,7.335,0,0,1-3.022.636,8.477,8.477,0,0,1-1.795-.2c-7.666-1.665-15.247-9.683-20.282-15.57a73.647,73.647,0,0,1-12.638-20.723,66.934,66.934,0,0,1-4.864-23A50.259,50.259,0,0,1,514.692,26.3a38.6,38.6,0,0,1,4.071-10.9,1.589,1.589,0,0,1,1.4-.883,2.016,2.016,0,0,1,1.919,1.782l.293,2.552c1.473,12.661,3.295,24.991,9.329,36.659a75.06,75.06,0,0,0,10.747,15.981,62.727,62.727,0,0,0,7.466,7.111c1.04.826,2.185,1.574,3.293,2.3a28.479,28.479,0,0,1,4.835,3.671l.43.458.012-.082a8.307,8.307,0,0,1,2.6-5.4,7.064,7.064,0,0,1,4.684-1.73c.1,0,.2,0,.306.006a26.825,26.825,0,0,1,8.8,2.313l.144.068c21.195,10.174,42.489,23.922,65.1,42.031a274.509,274.509,0,0,1,54.2,57.7,247.816,247.816,0,0,1,34.209,71.26c6.916,23.489,11.164,48.018,15.272,71.739l.047.271q.467,2.7.936,5.4l2.781,15.916c1.92,10.923,4.221,23.614,7.234,36a221.44,221.44,0,0,0,11.21,34.744,10.407,10.407,0,0,1,.351,8.283,9.756,9.756,0,0,1-5.824,5.169c-6.563,2.468-13.77,5.1-22.682,8.288,2.683,11.511,4.635,23.454,6.522,35l.006.037c.725,4.433,1.474,9.016,2.25,13.48,3.336,19.193,7.157,38.636,10.853,57.44l.007.035c2.868,14.594,5.834,29.684,8.553,44.559,1.6,8.763,3.15,17.682,4.647,26.308,1.478,8.52,3.007,17.33,4.588,25.989.939,5.141,1.942,10.491,2.828,15.211l.081.431c.584,3.114,1.188,6.335,1.775,9.5.552,2.983,1.078,6.012,1.586,8.941.248,1.429.529,3.049.809,4.639l.139.752q.053.275.107.551c.431,2.207.876,4.49.269,6.7-.67,2.438-2.449,4.242-4.169,5.987l-.018.019q-.3.3-.588.6A4.356,4.356,0,0,1,774.9,694.5Z" transform="translate(19 -5)"/>
  </g>
</svg>
