<svg xmlns="http://www.w3.org/2000/svg" width="818" height="788" viewBox="0 0 818 788">
  <g id="body_Thunder_T-Shirt" data-name="body/Thunder T-Shirt" transform="translate(0 55)">
    <path id="_Skin" data-name="âœ‹ Skin" d="M131.6,770.609c-.347,0-.725-.011-1.124-.031a427.35,427.35,0,0,1-61.506-7.994c-17.768-3.537-36.332-8.1-60.191-14.791a12.184,12.184,0,0,1-6.292-4.318A11.688,11.688,0,0,1,0,736.268c.746-57.826,2.4-116.081,4.922-173.147,2.258-51.137,5.275-102.964,8.968-154.042,1.608-22.229,3.372-44.726,5.244-66.868l.816-9.547c.217-2.514.418-5.065.612-7.532.765-9.727,1.556-19.786,3.485-29.459a66.76,66.76,0,0,1,5.8-16.876,75.484,75.484,0,0,1,9.909-14.849c1.674-1.976,7.515-7.242,16.893-15.229,8.687-7.4,19.951-16.736,31.719-26.293,21.179-17.2,47.477-37.936,57.768-44.54,12.153-7.8,24.924-14.918,37.274-21.8,6.4-3.569,13.025-7.259,19.49-11.005a35.16,35.16,0,0,1,10.449-3.63c4.136-.94,8.043-1.828,11.731-4.9,2.007-1.671,19.57-8.854,36.555-15.8,12.953-5.3,26.346-10.775,32.384-13.63l.409-.2a125.942,125.942,0,0,0,15.116-8.333A57.833,57.833,0,0,0,322.2,87.468c1.344-1.614,3.243-7.591,4.572-12.647,1.655-6.3,2.727-12.144,2.731-14.894,0-1.8-.018-3.655-.039-5.447-.1-8.916-.207-18.135,2.458-26.689a38.612,38.612,0,0,1,3.857-8.585A35.86,35.86,0,0,1,348.76,6.6,38.359,38.359,0,0,1,357.48,3c7.285-2.017,15.813-3,26.071-3,6.3,0,12.493.377,16.605.661,5.9.407,13.658,1.04,21.406,2.329a100.3,100.3,0,0,1,20.76,5.524,56.39,56.39,0,0,1,15.544,9.167,47.632,47.632,0,0,1,11.379,13.973,67.859,67.859,0,0,1,5.531,14.068,116.1,116.1,0,0,1,2.975,14.838c.614,4.338,1.116,8.67,1.527,12.335l.95,8.567c.372,3.27.7,5.734,1.348,9.387a84.391,84.391,0,0,0,3.534,13.988A44.071,44.071,0,0,0,491.5,116.76a56.005,56.005,0,0,0,9.886,10.01,75.358,75.358,0,0,0,11.648,7.513c8.211,4.357,17.266,7.625,26.023,10.786,2.749.992,5.592,2.018,8.346,3.057a46.333,46.333,0,0,1,16.749,10.386,33.509,33.509,0,0,1,9.2,17.282c.629,3.121,6.68,11.79,17.985,25.767,9.377,11.594,22.05,26.46,37.665,44.184,27.491,31.2,56.111,62.141,61.254,66.973l.281.258c6.352,5.72,7.01,15.519,7.591,24.164.146,2.166.283,4.212.5,6.146,1.176,10.393,2.317,20.986,3.389,31.486,2.17,21.256,4.129,42.81,5.822,64.063,3.315,41.611,5.756,83.858,7.257,125.569,1.5,41.73,2.1,84.044,1.781,125.765l-.04,4.746c-.024,2.6-.038,5.22-.051,7.759-.042,7.942-.084,16.154-.446,24.2-.564,12.557-4.945,21.231-13.019,25.781a34.966,34.966,0,0,1-12.141,3.871,115.43,115.43,0,0,1-12.993.951c-1.494.053-3.039.107-4.531.182l-.587.031c-10.025.549-20.647,1.033-31.57,1.438-29.922,1.107-62.28,1.623-101.835,1.623-8.272,0-16.969-.021-26.587-.066-15.446-.071-31.157-.193-46.35-.311h-.1c-23.848-.185-48.509-.377-72.758-.377-25.238,0-47.42.211-67.813.644-24.285.516-46.453,1.347-67.771,2.542-1.607.09-3.552.136-5.781.136-10.954,0-27.658-1.059-45.342-2.181l-1.636-.1c-16.893-1.07-36.04-2.284-49.159-2.284-4.2,0-7.643.128-10.226.379-5.339.519-8.607,1.627-9.991,3.386-1.085,1.38-.863,2.946-.667,4.328.162,1.146.3,2.135-.294,2.823C134.625,770.31,133.487,770.609,131.6,770.609ZM380.264,277.188,297.976,437.44h53.508l-38.354,89.037h84.229L367.479,651.191,538.348,437.44H474.229l64.119-84.159H493.876l44.472-71.272Z" transform="translate(51.995 -55)" fill="#d08b5b"/>
    <path id="_Top" data-name="ðŸ‘• Top" d="M298.279,17.856,266.306,381.962,0,388.56V0Z" transform="translate(324.036 194.934)" fill="#fdea6b"/>
    <path id="_Ink" data-name="ðŸ– Ink" d="M140.026,741.664h0a10.426,10.426,0,0,1-1.378-.092,10.9,10.9,0,0,1-7.087-4.386,8.982,8.982,0,0,1-1.823-6.8c-1.105-25.065-.643-50.643-.2-75.379l0-.119q.057-3.163.113-6.322c.419-23.146,1.271-46.731,2.607-72.1,1.192-22.643,2.744-46.194,4.744-72,2.283-29.354,4.531-51.824,7.29-72.859.333-2.542.652-5.134.961-7.64a271.608,271.608,0,0,1,4.469-28.121c.724-3.109,1.368-6.39,1.991-9.562.518-2.636,1.052-5.358,1.639-8.027l-.323-.511c-1.21-1.915-2.46-3.893-3.747-5.768-4.448-6.487-8.987-12.681-13.49-18.41-26.433-33.636-60.411-64.731-100.99-92.42a7.855,7.855,0,0,1,.511,5.349,6.382,6.382,0,0,1-3.081,4.21c-.5,20.475-1.976,41.25-3.4,61.34v.017c-.3,4.284-.618,8.713-.918,13.074-3.216,46.829-4.487,72.248-5.235,89.161-1.444,32.66-2.048,61.867-1.845,89.289.225,30.387.925,60.445,2.08,89.339.668,16.489,1.352,31.251,2.091,45.131.3,5.656.653,11.408.992,16.971l0,.028c.116,1.906.261,4.278.4,6.53q.041.675.085,1.354a44.381,44.381,0,0,1-.091,9.99,14,14,0,0,1-1.458,4.4,11.336,11.336,0,0,1-3.156,3.658l-.011.067,0,.011c-.006.04-.012.077-.018.11a6,6,0,0,1-2.068,3.8,5.851,5.851,0,0,1-3.71,1.407,4.524,4.524,0,0,1-2.764-.9,5.372,5.372,0,0,1-1.858-2.894c-.046-.167-.1-.338-.14-.489l0-.006c-.046-.158-.094-.32-.138-.483-6.461-3.908-6.852-11.633-7.231-19.1-.048-.948-.1-1.927-.159-2.878-.509-7.862-.99-16.2-1.471-25.489C1.371,637.939.762,620.773.4,603.111-.2,573.9-.119,543.5.649,512.76c.728-29.145,2.094-59.516,4.06-90.27,2.094-32.828,4.73-62.29,8.06-90.069,2.906-24.175,6.16-43.762,10.239-61.64a14.781,14.781,0,0,1-6.107-3.516,17.325,17.325,0,0,1-4.142-6.344,20.133,20.133,0,0,1-1.357-6.535,20.528,20.528,0,0,1,.8-6.395,26.457,26.457,0,0,0-1.37,4.13.527.527,0,0,1-.523.441.685.685,0,0,1-.513-.24.646.646,0,0,1-.144-.53,34.243,34.243,0,0,1,4.292-11.462,113.605,113.605,0,0,1,6.927-10.4l0-.006c.628-.872,1.278-1.773,1.9-2.646a273.287,273.287,0,0,1,17.22-21.95c5.19-5.936,10.753-11.806,16.533-17.448,5.573-5.439,11.517-10.831,17.668-16.025a398.657,398.657,0,0,1,38.18-28.34c12.57-8.259,25.993-16.216,41.037-24.326,12.817-6.909,26.808-13.919,42.773-21.43,3.765-1.776,7.7-3.6,12.039-5.591a6.076,6.076,0,0,1,2.517-.567,5.541,5.541,0,0,1,1.183.128.017.017,0,0,0,.008,0l0,0a7.465,7.465,0,0,1,2.112-.3,10.416,10.416,0,0,1,6.278,2.328l.163.128a28.792,28.792,0,0,1,5.657,5.361,6.436,6.436,0,0,1,.98,4.919c6.554-1.765,13.368-3.982,20.83-6.779,15.937-5.97,31.157-13.129,45.38-19.949.918-.441,1.883-.9,2.735-1.3a140.6,140.6,0,0,0,16.761-8.911c6.04-3.949,10.4-8.2,13.334-12.987,3.84-6.255,5.19-13.629,6.5-20.76l.011-.06q.112-.611.224-1.22c.51-2.762.991-5.587,1.456-8.319,1-5.9,2.043-12.005,3.444-17.9a7.658,7.658,0,0,1,2.94-4.288A8.333,8.333,0,0,1,345.649,0a9.764,9.764,0,0,1,4.12,1.111,6.249,6.249,0,0,1,3.366,3.961,11.636,11.636,0,0,1,.374,5.25c-1.007,6.741-2.486,13.557-3.917,20.15v.006c-.543,2.5-1.105,5.093-1.632,7.635-1.589,7.692-3.679,16.52-8.41,23.95-3.892,6.107-9.294,11.435-16.514,16.287A147.282,147.282,0,0,1,302.419,89.38c-16.4,7.547-33.35,15.35-51.07,20.351a149.045,149.045,0,0,1-26.27,4.969c-.278.027-.643.06-1,.08,4.008,2.2,8.106,4.367,11.959,6.4,14.212,7.506,26.9,13.711,38.79,18.969a360.18,360.18,0,0,0,70.453,22.785,353.974,353.974,0,0,0,73.633,7.832c1.876,0,3.778-.016,5.654-.047a341.1,341.1,0,0,0,38.2-2.763,320.14,320.14,0,0,0,37.627-7.188,244.381,244.381,0,0,0,39.16-13.219,194.732,194.732,0,0,0,20.11-10.341c1.673-1,3.281-2.036,4.77-3.011-11.573-3.913-23.146-8.4-34.337-12.733l-.006,0-1.1-.425a108.521,108.521,0,0,1-20.276-9.97,63.473,63.473,0,0,1-16.534-15.22,62.992,62.992,0,0,1-9.2-17.677,92,92,0,0,1-4.173-19.545c-1.1-10.084-1.836-25.109.94-39.42a.938.938,0,0,1,.976-.769,1.118,1.118,0,0,1,1.094.769c1.6,5.606,2.792,11.407,3.945,17.017,1.315,6.4,2.675,13.01,4.645,19.384a141.1,141.1,0,0,0,6,16.216,75.74,75.74,0,0,0,8.675,14.9A47.311,47.311,0,0,0,519.73,99.15a116.521,116.521,0,0,0,17.7,7.8c7.458,2.747,15.111,5.332,22.512,7.831l.029.01c4.911,1.659,9.989,3.374,14.959,5.119a79.138,79.138,0,0,1,19.03,4.251c-2.58-1.736-4.768-3.32-6.69-4.839a.413.413,0,0,1-.135-.482.6.6,0,0,1,.531-.394.46.46,0,0,1,.115.015c7.916,2.033,16.107,6.021,23.334,9.539l.516.251c8.248,4.028,15.559,7.989,22.35,12.111,8.388,5.1,15.617,9.877,22.1,14.616a191.88,191.88,0,0,1,20.33,16.965c10.875,10.494,21.136,23.073,32.29,39.588,4.235,6.276,8.579,13.1,13.28,20.861,1.885,3.1,3.9,6.473,6.339,10.62.528.9,1.1,1.812,1.652,2.7,1.988,3.187,4.042,6.479,4.9,10.071.145.608-.228,2.786-1.079,6.3-.8,3.283-1.951,7.481-3.254,11.822-2.384,7.943-5.645,17.583-7.647,20.821-.324.516-.642,1-.97,1.489a6.882,6.882,0,0,1-5.749,3.284,7.22,7.22,0,0,1-5.215-2.328,6.658,6.658,0,0,1-1.765-5.115c-.554.487-1.073.948-1.541,1.369l.006.033c3.906,23.4,7.944,47.587,10.815,71.827,6.066,51.3,10.149,103.63,14.1,154.237v.006l.015.192c.466,5.974.948,12.151,1.426,18.226,2.229,28.424,3.883,56.615,5.521,85.4.888,15.778,1.634,30.076,2.28,43.711.353,7.349.7,14.784,1.006,21.343l.024.517c.08,1.787.221,3.589.37,5.5.459,5.873.933,11.945-.47,17.395a10.69,10.69,0,0,1-3.97,6.113,10.551,10.551,0,0,1-6.266,1.958,12.68,12.68,0,0,1-6.911-2.091A11.862,11.862,0,0,1,720.9,711.8c-1.221-3.435-1.309-7.228-1.395-10.9-.023-1.006-.048-2.047-.1-3.054l-.3-6.5-.3-6.412c-.39-8.141-.784-16.166-1.171-23.852-.4-7.967-.786-16.029-1.164-23.825l-.009-.195c-.376-7.756-.764-15.775-1.156-23.659-1.474-29.651-3-59.8-4.483-88.954l-.016-.316c-1.354-26.684-2.754-54.277-4.111-81.49-.208-4.183-.424-8.462-.614-12.236V430.4c-1.222-24.261-2.486-49.349-3.155-74.049-.467-17.412-.5-35.114-.529-52.235q-.005-2.958-.011-5.917c-.34.309-.686.631-1.021.942l-.007.006-.563.522c-7.627,7.162-13.731,13.165-19.21,18.891-2.645,2.767-6.112,6.428-9.48,10.21-.66.743-1.313,1.515-1.944,2.262a34.943,34.943,0,0,1-7.366,7.148,6.433,6.433,0,0,1-3.742,1.124,9.623,9.623,0,0,1-6.148-2.4c-.221-.2-.443-.393-.657-.577a5.671,5.671,0,0,1-.752-.794c-.027,4.844-.059,10.575-.08,16.351-.093,33.223.287,63.127,1.161,91.421,1,32.435,2.63,62.292,4.979,91.278,2.232,27.632,5.143,56.865,9.16,92,1.668,14.605,3.539,29.7,5.56,44.87.975,7.3,2.012,14.711,3.17,22.66.192,1.335.45,2.727.7,4.073l0,.008a53.07,53.07,0,0,1,1.09,8.28,11.968,11.968,0,0,1-1.219,5.638,23.174,23.174,0,0,1-3.281,4.731A5.966,5.966,0,0,1,668.2,718.7a6.966,6.966,0,0,1-1.687-.2,13.558,13.558,0,0,1-2.88,4.181c-4.469,4.375-10.534,4.965-15.877,4.965-1.791,0-3.576-.072-5.3-.142l-.084,0h-.006c-1.762-.072-3.425-.139-5.067-.139-.52,0-1,.007-1.464.021l-24.217.715-.193.006L574.9,729.181l-6.323.187c-69.928,2.072-142.237,4.214-213.408,6.313-35.993,1.071-72.959,2.023-109.87,2.83-11.1.237-22.846.352-35.912.352-5.954,0-12.175-.023-19.017-.072a358.027,358.027,0,0,1-41.31-2.58,10.212,10.212,0,0,1-9.032,5.454ZM439.67,470.542h0a5.943,5.943,0,0,1,5.142,2.841,5.764,5.764,0,0,1,.086,5.768l-.425.815c-.461.882-.934,1.789-1.394,2.685-7.854,15.088-15.733,30.484-23.353,45.372l-.011.021c-3.681,7.192-7.487,14.629-11.267,21.985q-4.718,9.189-9.436,18.371l-.464.9q-4.155,8.087-8.309,16.176c-.016.026-.03.053-.043.079s-.024.048-.038.072c6.579-8.072,13.278-16.5,19.91-25.06,3.434-4.435,7-9.035,10.155-13.093,22.222-28.63,45.2-58.233,66.336-88.518,6.355-9.11,12.485-18.393,18.22-27.121,3.011-4.588,6.089-9.332,9.15-14.1.094-.142.323-.564.612-1.1.539-.994,1.354-2.5,1.988-3.461-.467-.025-.944-.064-1.405-.1-.833-.067-1.69-.136-2.548-.136a11.893,11.893,0,0,0-2.257.2c-3.525.684-7.081,1.667-10.521,2.618-1.63.45-3.312.915-4.969,1.342-8.148,2.081-16.427,4.2-24.434,6.259l-.032.008-3.364.863c-1.243.31-2.5.634-3.718.947l-.242.062a13.8,13.8,0,0,1-3.413.466c-2.274,0-3.942-.737-4.577-2.023-.7-1.42-.147-3.375,1.6-5.653l.073-.095c1.183-1.539,2.406-3.13,3.637-4.7,7.224-9.288,14.311-19.393,21.164-29.166,10.733-15.305,21.83-31.129,34.055-44.754-10.453.792-19.877,1.487-29.35,1.99-.1.005-.2.008-.3.008a6.816,6.816,0,0,1-5.829-3.891,6.063,6.063,0,0,1,.23-6.4c1.074-1.492,2.069-2.849,3.04-4.149,3.472-4.647,7.168-11.682,10.743-18.485,3.849-7.325,7.83-14.9,11.646-19.776l1.224-1.563c7.406-9.458,15.062-19.236,22.9-28.606l-.949-.8c-1.723,2.257-4.708,2.518-6.8,2.518-1.1,0-2.182-.078-3.229-.154h-.006c-.434-.031-.843-.061-1.241-.084-4.352-.238-8.961-.527-13.7-.859-7.947-.552-26.21-.932-45.544-1.334-25.632-.533-52.133-1.084-55.546-2.086q-.346.955-.69,1.907c-1.825,5.053-3.549,9.824-5.72,14.673-2.715,6.079-5.581,12.482-9.02,20.15-5.83,13-12.044,25.984-17.89,38.079q-4.489,9.295-8.978,18.584l-1.051,2.176q-4.345,8.994-8.691,17.989c-.986,2.032-2,4.08-2.987,6.061-2.083,4.191-4.236,8.525-6.163,12.861-.478,1.077-2.029,4.774-1.91,7.129a286.607,286.607,0,0,1,35.495-7.628,300.857,300.857,0,0,1,36.155-3.151c.669-.02,1.347-.032,2-.043h.01l.135,0,.529-.01a481.789,481.789,0,0,0-30.454,48.632,442.62,442.62,0,0,0-24.064,51.692,3.209,3.209,0,0,0,.821,3.772q-.2.4-.395.8l-.011.022c-.156.316-.318.642-.474.966.561-.17,1.143-.341,1.656-.492q.6-.177,1.207-.356a4.871,4.871,0,0,0,.934.091,4.192,4.192,0,0,0,3.1-1.286c23.61-6.92,47.824-12.841,71.97-17.6A6.684,6.684,0,0,1,439.67,470.542ZM665.679,334.931a8.759,8.759,0,0,1-.58.95c.137-.144.282-.286.409-.411l.171-.169Zm-457.59-230.38h0l-.009,0c-.34.156-.725.334-1.111.505,1.084.655,2.258,1.352,3.59,2.13-.37-.359-.734-.744-1.087-1.116l-.005-.006c-.235-.248-.478-.5-.718-.749a6.633,6.633,0,0,1-.66-.77Z" transform="translate(43 -23)"/>
  </g>
</svg>
