<svg xmlns="http://www.w3.org/2000/svg" width="852.367" height="753" viewBox="0 0 852.367 753">
  <g id="body_Sweater" data-name="body/Sweater" transform="translate(0 20)">
    <path id="_Skin" data-name="âœ‹ Skin" d="M298.817,752.115c-60.185-1.295-114.972,2.341-172.927-9.414l-.074-1.952c-12.431-.358-8.316-11.975-5.817-20.1-233.894-10.406-81.335-580.5,80.75-618.827a161.7,161.7,0,0,1,25.312-2.155c11.284-3.446,22.4-4.057,34.2-7.2,1.132-4.13,1.317-6.518,6.321-5.295,17.961-17.152,50.279-32.951,61.184.519,14.351-19.947,22.581-43.269,28.577-66.888l.97.159c2.548-6.28,6.72-14.226,11.8-15.537,7.91-2.619,22.826-2.015,31.426-3.078,18.646-1.293,40.3-4.462,58.178-.185,44.663,10.934,25.307,63.658,61.519,97.982,16.618-6.879,42.665-4.993,58.586,3.2,10.253,8.211,5.112,17.468,3.314,26.148,114.357-10.308,144.784,122.328,168.383,209.765,9.468,29.088,18.865,48.808,34.991,71.266,20.948,26.253,32.711,60.633,11.249,88.329,30.64,61.139-2.623,118.6-37.817,164.757-6.892,7.391-18.071,27.956-28.172,29.362-2.741,2.505-7.119,5.588-10.208,7.827l3.725,4.884c.445,4.51.474,9.357,3.558,13.379,2.967,2.891,6.139,5.855,6.227,10.171-4.728,5.487-10.834-.642-15.321-3.367-1.72,3.38-1.473,11.409-6.984,11.1-136.652,9.372-276.6,15.516-412.945,15.155" transform="translate(37 -20)" fill="#d08b5b"/>
    <path id="_Top" data-name="ðŸ‘• Top" d="M310.279,684.1c-3.809,0-7.666-.005-11.462-.015-14.59-.314-28.994-.338-42.925-.362h-.006c-22.38-.038-43.518-.074-65.028-1.214-11.552-.612-22.123-1.488-32.318-2.677-11.4-1.329-22.081-3.018-32.65-5.161l-.074-1.951a12.42,12.42,0,0,1-4.539-.872,6.269,6.269,0,0,1-2.672-2.093c-2.733-3.824-.611-10.667,1.094-16.165l.041-.132q.132-.425.259-.839c-35.764-1.591-64.174-16.37-84.441-43.924a140.2,140.2,0,0,1-12.839-21.364A182.8,182.8,0,0,1,12.9,562.661c-5.434-17-9.2-36.356-11.194-57.53a445.334,445.334,0,0,1-.679-69.344A630.282,630.282,0,0,1,10.4,361.439,757.823,757.823,0,0,1,53.829,213.7a612.3,612.3,0,0,1,31.289-65.411,411.011,411.011,0,0,1,35.835-54.45c12.816-16.216,25.938-29.5,39-39.5a131.771,131.771,0,0,1,20.259-12.894,92.933,92.933,0,0,1,20.534-7.659,160.759,160.759,0,0,1,25.311-2.155A144.412,144.412,0,0,1,244.242,27.7c5.193-.891,10.561-1.813,16.019-3.267.091-.331.178-.662.249-.927a12.083,12.083,0,0,1,1.23-3.42,2.811,2.811,0,0,1,2.6-1.269,9.594,9.594,0,0,1,2.242.32,88.766,88.766,0,0,1,8.461-7.12,79.147,79.147,0,0,1,9.591-6.12,56.079,56.079,0,0,1,10.1-4.284A34.5,34.5,0,0,1,304.714,0a21.139,21.139,0,0,1,13.425,4.44c4.168,3.282,7.407,8.4,9.628,15.217A142.065,142.065,0,0,0,337.927,3.2L332.4,20.662l1.03.806a205.1,205.1,0,0,0,23.32,15.781,164.234,164.234,0,0,0,23.592,11.272,140.348,140.348,0,0,0,23.863,6.764,131.053,131.053,0,0,0,24.135,2.254c3.2,0,6.456-.12,9.666-.357,34.851-2.56,64.643-5.643,88.547-9.164l2.2-.328v-18.2A74.259,74.259,0,0,1,544.508,27.9a88.973,88.973,0,0,1,18.283,1.913,65.506,65.506,0,0,1,16.026,5.5c8.467,6.78,6.43,14.3,4.459,21.567-.409,1.509-.832,3.069-1.145,4.58,4.176-.376,8.328-.567,12.338-.567a119.891,119.891,0,0,1,17.918,1.318,107.223,107.223,0,0,1,16.392,3.81A103.55,103.55,0,0,1,643.734,72.1a107.854,107.854,0,0,1,13.6,8.146,119.9,119.9,0,0,1,12.344,9.991,139.942,139.942,0,0,1,11.172,11.62,185.948,185.948,0,0,1,19.179,27.263c10.244,17.528,19.462,38.651,28.182,64.575,7.6,22.608,13.836,45.908,19.333,66.465,1.024,3.831,1.991,7.446,2.966,11.058a291.406,291.406,0,0,0,15,38.119,224.363,224.363,0,0,0,19.992,33.147c11.414,14.306,18.859,29.39,21.528,43.623A58.45,58.45,0,0,1,807,409.022a53.4,53.4,0,0,1-10.242,21.794,116.223,116.223,0,0,1,8.615,22.74,107.331,107.331,0,0,1,3.351,22.306,114.107,114.107,0,0,1-1.188,21.782,135.725,135.725,0,0,1-5,21.169,173.525,173.525,0,0,1-8.086,20.467c-2.975,6.365-6.489,12.984-10.445,19.675a378.89,378.89,0,0,1-25.065,36.617,105.524,105.524,0,0,0-6.979,9.009,141.267,141.267,0,0,1-10.288,13.079c-4.153,4.451-7.72,6.831-10.906,7.274a111.206,111.206,0,0,1-9,6.957l-1.2.869,3.725,4.884c.055.559.1,1.134.153,1.69v.013c.347,4.01.705,8.157,3.4,11.677l.251.244c2.9,2.818,5.891,5.732,5.977,9.927a5.634,5.634,0,0,1-4.4,2.209c-2.812,0-5.788-2.072-8.414-3.9-.882-.614-1.715-1.194-2.506-1.674a18.682,18.682,0,0,0-1.17,3.72c-.854,3.462-1.821,7.386-5.507,7.386-.1,0-.2,0-.307-.009-70.035,4.8-137.588,8.5-200.783,11-34.246,1.353-68.113,2.389-100.658,3.08C376.26,683.729,342.6,684.1,310.279,684.1ZM194.08,520.719h0a53.056,53.056,0,0,0,4.606,9.7,31.07,31.07,0,0,0,5.706,6.928A21.937,21.937,0,0,0,211.2,541.5a22.358,22.358,0,0,0,7.906,1.385c2.806,0,6.354-1.609,10.547-4.782a106.753,106.753,0,0,0,14.731-14.345c5.581-6.346,11.946-14.391,18.915-23.909s14.741-20.782,23.1-33.474l49.341-16.073c-9.293-7.8-18.406-14.961-27.087-21.285s-17.163-11.984-25.231-16.833a60.973,60.973,0,0,0-15.3-6.574,63.374,63.374,0,0,0-16.724-2.191,85.184,85.184,0,0,0-24.509,3.892l-16.53,1.945a312.306,312.306,0,0,0-38,17.567c-10.4,5.832-18.709,11.755-24.7,17.6-3.882,3.79-7.736,9.307-11.455,16.4a149.239,149.239,0,0,0-8.788,20.781c-4.666,13.7-7.1,26.681-5.667,30.206.248.609.608.917,1.07.917,1.853,0,5.818-1.749,11.784-5.2s14.1-8.7,24.173-15.6l3.977-2.74-1.493,19.212a162.627,162.627,0,0,0-4,22.555c-.445,5.542,0,9.194,1.313,10.855a2.675,2.675,0,0,0,2.183,1.07c2.41,0,6.258-1.714,11.438-5.095a208.937,208.937,0,0,0,19.79-15.285l2.091-1.789ZM606.962,411.153l15.044,68.215,37.168-1.862L648.921,435.1l-36.11-23.081-5.849-.863Z" transform="translate(37 48.034)" fill="#ec7495"/>
    <path id="_Ink" data-name="ðŸ– Ink" d="M128.363,731.159a10.473,10.473,0,0,1-8.421-4.114,12.521,12.521,0,0,1-2.369-6.124,23.275,23.275,0,0,1,.878-9.017,140.423,140.423,0,0,1-21.084-4.356A121.084,121.084,0,0,1,78.6,700.382a112,112,0,0,1-30.9-22.019,123.394,123.394,0,0,1-12.3-14.483,142.048,142.048,0,0,1-10.319-16.551,186.715,186.715,0,0,1-15.024-38.566c-5.1-18.625-8.3-39.727-9.505-62.72A480.564,480.564,0,0,1,2.41,475.719a675.3,675.3,0,0,1,11.437-74.051c5.125-24.452,11.6-49.317,19.254-73.906,7.463-23.986,15.975-47.5,25.3-69.887a646.614,646.614,0,0,1,29.576-61.993,405.73,405.73,0,0,1,32.081-50.226c11.122-14.623,22.163-26.259,32.817-34.585a129.538,129.538,0,0,1,19.558-15.6,92.716,92.716,0,0,1,18.292-9.1c12.036-4.4,23.848-5.958,37.524-7.76,9.875-1.3,21.066-2.776,33.542-5.6a9.374,9.374,0,0,1,3.01-4.644,7.988,7.988,0,0,1,5.085-1.966,6.9,6.9,0,0,1,.914.061,77.4,77.4,0,0,1,18.835-12.99c7.837-3.836,15.524-5.864,22.23-5.864a26.352,26.352,0,0,1,12.844,3.07,25.638,25.638,0,0,1,10.018,10.364,139.5,139.5,0,0,0,10.923-20.924,178.174,178.174,0,0,0,7.644-22.347c.393-1.439.732-2.953,1.059-4.416,1.063-4.753,2.163-9.667,5.322-13.359,2.528,3.292,3.668,8.4,3.388,15.173a92.418,92.418,0,0,1-3.751,20.713,194.939,194.939,0,0,1-7.316,20.873c-2.4,5.822-5.066,11.528-7.307,15.656A350.41,350.41,0,0,0,404.9,91.521a295.016,295.016,0,0,0,62.605,6.946,260.788,260.788,0,0,0,27.369-1.429,245.224,245.224,0,0,0,27.193-4.431c-3.773-3.608-7.716-9.207-11.4-16.188A122.634,122.634,0,0,1,501.6,53.974a85.813,85.813,0,0,1-3.783-22.787,39.315,39.315,0,0,1,1.01-9.673,20.333,20.333,0,0,1,3.436-7.54l.583,2.989c1.993,10.149,4.45,21.884,8.393,32.712,4.3,11.805,9.872,21.238,17.039,28.839a101.045,101.045,0,0,1,24.63-2.853,86.035,86.035,0,0,1,23.206,2.882c7.805,2.238,13.551,5.669,17.079,10.2,4.065,5.219,5.118,11.859,3.129,19.736a156.481,156.481,0,0,1,18.255,1.083,132.529,132.529,0,0,1,16.618,3.065,118.288,118.288,0,0,1,15.088,4.906,112.275,112.275,0,0,1,13.664,6.606,113.678,113.678,0,0,1,12.347,8.166,122.15,122.15,0,0,1,11.136,9.584,149.356,149.356,0,0,1,19.065,22.86c22.853,33.385,36.2,77.417,49.117,120,4.532,14.948,9.218,30.4,14.165,44.774a340.635,340.635,0,0,0,16.355,40.357c3.244,5.228,6.819,10.583,10.276,15.762,10.217,15.3,20.78,31.124,25.637,47.567a68.012,68.012,0,0,1,2.495,12.475A55.379,55.379,0,0,1,817,471.6a69.819,69.819,0,0,1-7.132,13.527A149.366,149.366,0,0,1,820.9,527.59a105.454,105.454,0,0,1,.192,17.447,114.439,114.439,0,0,1-2.51,16.845,149.281,149.281,0,0,1-11.44,32.027c-9.917,20.659-23.553,39.839-36.74,58.388l-.333.469a118.549,118.549,0,0,0-8.189,10.564l0,0a116.42,116.42,0,0,1-9.95,12.587c-4.067,4.245-8.082,6.966-12.273,8.319-1.323,1.137-2.766,2.274-4.289,3.379,1.271,1.852,1.447,4.25,1.617,6.57.193,2.633.376,5.119,2.011,6.9l1.22,1.183c2.064,2.024,4.872,5.021,5.429,7.659l.266,2.307a3.872,3.872,0,0,0,.1.642,5.283,5.283,0,0,0-.029-.791l-.038-.317a.7.7,0,0,1,0-.3.01.01,0,0,1,.008,0c.029,0,.089.137.179.406l.072.227a6.973,6.973,0,0,1-.55,5.6,8.293,8.293,0,0,1-5.059,4.122,10.6,10.6,0,0,1-5.041,1.309c-4.149,0-8.422-2.589-11.722-7.1a25.667,25.667,0,0,1-4.277-9.393,18.986,18.986,0,0,1,.2-9.912,98.375,98.375,0,0,1-22.815,6.453,163.224,163.224,0,0,1-26.462,1.995,260.653,260.653,0,0,1-28.032-1.633c-9.295-1.014-19.285-2.522-29.694-4.482-18.473-3.48-39-8.524-61-14.995-17.956-5.279-36.777-11.443-57.54-18.842-17.254-6.149-32.949-12.121-47.34-17.659-5.669-2.276-11.3-4.9-16.744-7.428-6.882-3.2-14-6.511-21.243-9.153l-.967-.471c-2.54-1.25-5.126-2.622-7.628-3.948l-.006,0c-10.035-5.321-20.412-10.824-31.708-10.824a34.478,34.478,0,0,0-8.149.979c-24.061,10.3-48.01,23.072-71.171,35.419-24.089,12.843-49,26.121-74.339,36.824a357.089,357.089,0,0,1-38.7,13.963c-6.717,1.968-13.433,3.675-19.962,5.071-6.852,1.466-13.735,2.641-20.459,3.494a21.423,21.423,0,0,1,2.664,8.727,10.85,10.85,0,0,1-1.443,6.274,9.476,9.476,0,0,1-3.738,3.484A10.678,10.678,0,0,1,128.363,731.159ZM263.418,81.469c-8.683,2.4-17.886,3.57-26.785,4.7a220.58,220.58,0,0,0-23.5,3.852,85.632,85.632,0,0,0-11.3,3.491,64.3,64.3,0,0,0-10.767,5.369,189.163,189.163,0,0,0-19.036,13.729,207,207,0,0,0-17.081,15.717c-5.235,5.381-10.384,11.237-15.3,17.408-4.673,5.862-9.284,12.187-13.7,18.8C111.02,186.866,97.564,213.293,83.6,247.7l-.7,1.728c-13.14,32.35-23.745,61.729-32.423,89.816-4.917,15.915-9.26,31.615-12.907,46.663-3.909,16.129-7.155,32.062-9.646,47.358-2.645,16.242-4.526,32.29-5.59,47.7a436.029,436.029,0,0,0-.739,47.681,375,375,0,0,0,4.9,47.308,337.21,337.21,0,0,0,11.344,46.579,119.787,119.787,0,0,0,14.6,28.634,94.44,94.44,0,0,0,20.12,21.059,84.773,84.773,0,0,0,24.684,12.995,90.083,90.083,0,0,0,28.293,4.441A114.132,114.132,0,0,0,162.917,683c13.974-4.526,28.016-9.763,42.929-16.008,13.286-5.564,26.962-11.807,41.812-19.086,27.583-13.521,55.113-28.653,81.737-43.287,18.828-10.349,38.3-21.05,57.612-31.086,21.657-11.253,40.83-20.461,58.614-28.151a536.812,536.812,0,0,1,60.655-22.3c10.552-3.131,21.122-5.839,31.417-8.047,10.8-2.316,21.674-4.164,32.317-5.492a79.966,79.966,0,0,0-1.31-25.665,158.244,158.244,0,0,0-7.463-24.82,544.326,544.326,0,0,0-56.126,5.365c-17.49,2.543-35.6,5.905-55.361,10.281-36.7,8.125-73.56,18.578-109.207,28.687l-.07.02c-15.233,4.319-30.985,8.786-46.465,13-1.987,8.7-7.19,18.687-15.906,30.515-7.5,10.185-16.248,19.919-23.962,28.508l-.02.022c-2.153,2.4-4.186,4.661-6.074,6.8a38.948,38.948,0,0,1-13.6,11.228,40.28,40.28,0,0,1-8.208,3.107,33.67,33.67,0,0,1-8.327,1.093,22.283,22.283,0,0,1-14.26-4.633,19.86,19.86,0,0,1-5.006-6.149,27.82,27.82,0,0,1-2.833-9.02l-.673.762a101.459,101.459,0,0,1-14.21,13.259C174.6,596.611,169.07,599,164.489,599c-6.195,0-10.561-4.4-12.978-13.089a35.1,35.1,0,0,1,1.561-14.513,110.5,110.5,0,0,1,5.585-13.75c1.719-3.744,3.5-7.616,4.835-11.477l-.478.352c-.859.642-2.006,1.538-3.334,2.576-4.27,3.336-10.724,8.377-17.287,12.572a74.235,74.235,0,0,1-9.681,5.35,21.716,21.716,0,0,1-8.336,2.2,6.259,6.259,0,0,1-4.428-1.528,8.124,8.124,0,0,1-2.2-5.108,91.828,91.828,0,0,1,16.6-51.756,185.663,185.663,0,0,1,38-37.433c.481-2.8,1.227-5.593,1.948-8.292V465.1c.406-1.519.826-3.091,1.195-4.649a64.421,64.421,0,0,1,.491-15.075c.687-4.959,1.785-9.955,2.847-14.786v-.006a162.394,162.394,0,0,0,3.2-17.662c1.113-4.286,1.979-9.66,2.9-15.351a198.2,198.2,0,0,1,4.3-21.6c2.187-7.792,4.926-13.209,8.374-16.559,2.683,2.858,3.886,8.525,3.677,17.324a222.914,222.914,0,0,1-2.422,23.889c-.8,5.8-1.489,10.818-1.605,14.354a178.893,178.893,0,0,0-2.151,17.909v.005c-.415,4.827-.844,9.819-1.6,14.683a73.439,73.439,0,0,1-3.624,14.44,113.857,113.857,0,0,1,24.937-10.005,119.687,119.687,0,0,1,26.008-3.982,25.384,25.384,0,0,1,3.266-11.784,20.61,20.61,0,0,1,7.526-7.3,33.723,33.723,0,0,1,10.607-3.722,67.839,67.839,0,0,1,12.508-1.041c10.053,0,20.929,1.609,29.668,2.9l.016,0c3.342.494,6.5.961,9.234,1.285a74.157,74.157,0,0,1,11.451-2.835c4.494-.8,9.746-1.493,15.61-2.05,11.46-1.089,25.269-1.664,39.934-1.664,13.827,0,27.853.49,41.69,1.455,14.594,1.018,28.172,2.514,40.359,4.448a214.209,214.209,0,0,1,33.155,7.566c9.634,3.2,16.39,6.837,20.079,10.809,12.507-1.453,23.737-2.5,35.342-3.3,4.692-2.984,12.435-4.7,21.242-4.7a69.146,69.146,0,0,1,11.987,1.044,55.474,55.474,0,0,1,11.241,3.156c7.545,3.073,12.484,7.493,14.283,12.785,16.245,4.81,30.207,13.182,42.875,21.513a426.5,426.5,0,0,0-.356-51.931c-1.057-17.272-2.845-34.8-4.576-51.747-1.752-17.165-3.564-34.914-4.617-52.411-.567-9.419-.874-18.015-.941-26.277-.074-9.277.155-17.9.7-26.36a31.036,31.036,0,0,1,1.079-5.067,23.465,23.465,0,0,0,1.132-6.661.334.334,0,0,1,.35-.361.39.39,0,0,1,.4.361c4.623,14.006,6.715,28.906,8.737,43.316.928,6.615,1.889,13.455,3.082,20.124,1.958,14.5,4.539,29.159,7.035,43.34,3.871,21.994,7.874,44.737,9.643,67.351.336,8.29.223,16.9.114,25.218-.152,11.595-.309,23.585.72,35.2a133.492,133.492,0,0,0,2.579,17.224,96.1,96.1,0,0,0,5.243,16.677,9.925,9.925,0,0,1-.423,7.352,10.267,10.267,0,0,1-4.822,5.541,90.069,90.069,0,0,1-35.072,6.777,125.612,125.612,0,0,1-36.309-5.718,170.267,170.267,0,0,1-33.739-14.518c-36.107,11.559-68.278,23.165-98.35,35.482-16.5,6.756-32.582,13.834-47.812,21.037-16.059,7.595-31.74,15.6-46.61,23.794,9.275,2.442,17.9,7.28,26.235,11.959,2.235,1.254,4.545,2.551,6.823,3.774,8.238,2.852,16.576,5.836,24.639,8.722l.083.03c6.789,2.43,13.809,4.942,20.731,7.362,11.918,3.6,24.164,7.478,36.007,11.226l.017.005C553.359,666.014,614.1,685.234,675.3,685.234c5.5,0,11-.158,16.349-.47a79.469,79.469,0,0,0,16.044-4.332,57.717,57.717,0,0,0,12.6-6.871c7.654-5.5,14.013-12.808,21.207-22.081l2.39-3.1c1.632-2.111,3.311-4.271,4.934-6.36l.107-.137c12.261-15.775,24.94-32.087,35.051-49.52a168.764,168.764,0,0,0,12.875-27.073,128.589,128.589,0,0,0,4.3-14.317,114.555,114.555,0,0,0,2.51-14.914c.807-11.507.05-23.158-.682-34.426-.164-2.532-.335-5.148-.484-7.722-2.345,2.4-4.847,4.732-7.267,6.988-1.175,1.1-2.39,2.228-3.58,3.362a5.728,5.728,0,0,1-3.94,1.736,5.509,5.509,0,0,1-4.542-2.613,6.334,6.334,0,0,1-.5-6.053c1.823-5.52,4.161-11.025,6.422-16.35l0,0c2.176-5.125,4.426-10.424,6.221-15.742a72.582,72.582,0,0,0,3.7-16.355c.123-7.2-1.9-14.632-6.19-22.734-3.662-6.92-8.416-13.335-13.374-19.843a151.358,151.358,0,0,1-9.444-13.025c-2.853-4.4-5.634-9.151-8.266-14.133A261.2,261.2,0,0,1,748.086,348.2c-8.063-21.61-14.424-45.259-20.576-68.13l0-.01c-5.192-19.3-10.561-39.264-16.912-57.817-3.418-9.987-6.842-18.788-10.467-26.906A201.41,201.41,0,0,0,687.239,170.8a143.563,143.563,0,0,0-16.123-21.384,116.264,116.264,0,0,0-20.167-17.459A114.969,114.969,0,0,0,625.927,119.2a141.021,141.021,0,0,0-30.69-7.279,135.931,135.931,0,0,1-10.718,18.641,123.294,123.294,0,0,1-44.046,39.264,145.584,145.584,0,0,1-36.764,13.423,185.28,185.28,0,0,1-40.343,4.274c-37.736,0-78.555-10.308-114.938-29.027a253.94,253.94,0,0,1-25.5-15.037,225.269,225.269,0,0,1-22.826-17.53c-14.57-12.8-26.307-26.691-34.884-41.3l-1.8-3.166ZM167.252,583.152l-.164.607a3,3,0,0,0-.191,1.231.031.031,0,0,0,.025.013c.1,0,.335-.443.5-.86.138-.342.263-.742.2-.839a.044.044,0,0,0-.039-.021.227.227,0,0,0-.122.066c-.056-.06-.116-.114-.174-.165l0,0Zm51.671-67.171a8.8,8.8,0,0,1,7.007,3.306,7.384,7.384,0,0,1,.961,6.833c-1.475,4.9-3.011,9.869-4.5,14.678-2.662,8.617-5.415,17.528-7.922,26.342l-1.053,3.749c-.806,2.911-1.492,5.925-.274,7.973a5.578,5.578,0,0,0,3.81,2.38c.257.017.52.025.783.025,14.563,0,32.849-25.518,44.95-42.4,2.881-4.02,5.369-7.492,7.4-10.061a56.071,56.071,0,0,0,4.058-6.061,52.315,52.315,0,0,1,5.985-8.486c2.561-2.72,5.172-4.043,7.982-4.043a9.716,9.716,0,0,1,1.935.2c8.822-5.767,19.057-7.95,28.956-10.061l.008,0c4.029-.859,8.195-1.748,12.176-2.864a105.41,105.41,0,0,0-18.556-16.609,115,115,0,0,0-21.757-11.972,124.452,124.452,0,0,0-23.885-7.247,129.056,129.056,0,0,0-24.94-2.435,126.1,126.1,0,0,0-27.915,3.1,116.615,116.615,0,0,0-26.379,9.4c-4.608,1.35-8.868,4.356-12.987,7.263-1.986,1.4-4.039,2.85-6.067,4.06,1.5-.541,3.08-1.024,4.708-1.438a149.354,149.354,0,0,0-14.6,14.216,125.71,125.71,0,0,0-12.4,16.336c-7.82,12.348-12.536,25.085-14.014,37.857a178.312,178.312,0,0,0,26.125-19.577,155.409,155.409,0,0,0,21.83-24.471,7.04,7.04,0,0,1,2.745-2.743,7.226,7.226,0,0,1,3.454-.853,8.608,8.608,0,0,1,3.774.893,8.064,8.064,0,0,1,2.957,2.44,6.555,6.555,0,0,1,1.19,2.771,6.983,6.983,0,0,1-.265,3.332c-3.108,8.542-6.889,17.118-10.547,25.411-6.223,14.113-12.659,28.706-16.04,43.7a116.228,116.228,0,0,0,26.044-26.342,132.892,132.892,0,0,0,17.224-32.867,8.382,8.382,0,0,1,3.3-4.359A8.566,8.566,0,0,1,218.923,515.981Zm395.7-55.839h0a64.97,64.97,0,0,1,7.442,11.115A81.324,81.324,0,0,1,627.3,483.52a128.3,128.3,0,0,1,5.529,26.174c.112.826.24,1.65.376,2.523a42.321,42.321,0,0,1,.743,8.323,84.939,84.939,0,0,0,12.415.974,57.978,57.978,0,0,0,11.372-1.066,124.761,124.761,0,0,1-3.808-21.076A163.111,163.111,0,0,0,636.676,477.3a87.268,87.268,0,0,0-22.052-17.16Zm-30.9,44.077c.034,1.874-.027,3.807-.182,5.746,9.863,1.158,19.715,3.617,29.243,6l1.112.277-.065-3.045c-.018-.843-.044-1.952-.081-3.056a31.109,31.109,0,0,1-8.089,1.023,38.35,38.35,0,0,1-21.939-6.941Zm-3.681-30.389c-1.3,0-2.628.042-3.943.125a90.973,90.973,0,0,1,4.619,12,71.1,71.1,0,0,1,2.61,12.445,48.27,48.27,0,0,0,12.8,1.641c.915,0,1.832-.023,2.724-.07a33.377,33.377,0,0,0,7.015-1.378,29.673,29.673,0,0,1,7.092-1.339,118.532,118.532,0,0,0-2.63-16.543,106.514,106.514,0,0,0-14.977-4.987A64.279,64.279,0,0,0,580.043,473.83ZM358.036,458.018a7.067,7.067,0,0,1-2.478,3.467,13.177,13.177,0,0,1-4.244,2.078,61.8,61.8,0,0,1-11.5,1.845c-5.5.55-11.187,1.118-15,3.211l.836.481a66.015,66.015,0,0,1,13.087,9.584,31.681,31.681,0,0,1,4.884,6,19.563,19.563,0,0,1,2.659,6.782c11.833-4.619,24.057-9.106,36.333-13.336a104.907,104.907,0,0,0-24.584-20.112Zm13.023-27.36c-15.062,0-30.311.421-43.241.832l1.5.451c15.593,4.731,27.489,9.548,37.439,15.16a90.724,90.724,0,0,1,16.359,11.586,60.293,60.293,0,0,1,12.268,15.157c37.43-12.207,71.046-20.476,102.767-25.279a265.179,265.179,0,0,0-30.932-8.942c-9.98-2.255-20.638-4.1-31.678-5.473-10.186-1.27-20.7-2.167-32.146-2.742C393.357,430.9,382.78,430.658,371.059,430.658Zm195.655,12.863c-1.138,0-2.291.04-3.426.12l-2.506.41a15.285,15.285,0,0,1,4.822,2.684,5.969,5.969,0,0,1,1.964,4.3,6.812,6.812,0,0,1-1.705,5.05,138.851,138.851,0,0,1,8.108,13.544,33.245,33.245,0,0,1,10.47-4.824,44.2,44.2,0,0,1,11.4-1.4,65.7,65.7,0,0,1,7.959.516,38.544,38.544,0,0,0-6.987-8.978,39.611,39.611,0,0,0-8.922-6.371A45.716,45.716,0,0,0,566.715,443.521Zm-261.733-3.712a109.584,109.584,0,0,1-9.86,6.865l-.005,0c-3.154,2.028-6.416,4.125-9.41,6.5A160.353,160.353,0,0,1,315.129,463.6a61.128,61.128,0,0,1,12.519-8.2,88.889,88.889,0,0,1,14.087-5.487,165.315,165.315,0,0,0-36.753-10.1h0Zm-58.468,8.1a148.693,148.693,0,0,1,30.844,3.335,48.117,48.117,0,0,1,7.4-13.78l-2.711-.143-.384-.021c-3.051-.17-6.5-.363-9.977-.363-6.307,0-11.308.662-15.29,2.025a20.966,20.966,0,0,0-6.3,3.34,16.239,16.239,0,0,0-4.509,5.611l.09,0h.839Zm209.8-326.357c-.883,5.73-1.583,11.588-2.26,17.253-1,8.385-2.037,17.055-3.685,25.47-.632,2.87-1.506,5.714-2.351,8.465q-.192.625-.383,1.25c5.985.442,11.88.666,17.519.667a194.415,194.415,0,0,0,21.654-1.171,159.63,159.63,0,0,0,21.336-3.847c-5.1-12.77-8.241-26.291-11.283-39.367-1.333-5.73-2.711-11.655-4.236-17.447-7.588.644-15.319.97-22.977.97-2.948,0-5.942-.048-8.9-.144a6.639,6.639,0,0,1-.185,6.139,3.844,3.844,0,0,1-3.4,1.83,5.668,5.668,0,0,1-.847-.066Zm-49.2-14.783a9.939,9.939,0,0,1-1.212,4.192c-3.7,6.413-7.279,13.047-10.739,19.462l0,0c-5.1,9.45-10.366,19.222-16.131,28.469a252.291,252.291,0,0,0,64.979,14.776c-2.118-12.784-1.7-25.946-1.294-38.675v-.009c.235-7.379.478-15.008.223-22.481a289.466,289.466,0,0,1-35.824-5.739h0Zm134.12-2.341h0a268.9,268.9,0,0,1-32.237,6.521,4.143,4.143,0,0,1-2.459,3.938c.792,5.9,1.858,11.871,2.888,17.643,2.067,11.578,4.2,23.549,4.25,35.607a79.988,79.988,0,0,0,16.117-5.886,96.388,96.388,0,0,0,14.5-8.843,148.024,148.024,0,0,0,24.772-23.6l-3.375-2.46c-4.389-3.212-9.03-6.7-13.24-10.463a68.809,68.809,0,0,1-11.214-12.456ZM316.162,59.9h0a37.443,37.443,0,0,0-13.833,2.713,35.843,35.843,0,0,0-11.73,7.608c-1.718,1.532-3.383,3.292-4.995,5-2.834,3-5.764,6.092-9.177,8.192a7.4,7.4,0,0,1-2.044.868c3.539,6.69,8.833,13.076,13.5,18.709l.618.746c27.345,23.877,56.323,41.877,86.127,53.5A127.586,127.586,0,0,1,380,129.179a246.319,246.319,0,0,1,10.029-26.89c-7.015-2.114-13.98-4.568-20.7-7.294-.632,3.345-3.074,6.107-5.435,8.778l0,0c-.871.986-1.694,1.917-2.42,2.867a104.192,104.192,0,0,0-8.652,12.4,117.547,117.547,0,0,1-7.45,10.932,7.5,7.5,0,0,1-5.5,2.463,8.285,8.285,0,0,1-4.292-1.25,9.146,9.146,0,0,1-3.169-3.229,7.719,7.719,0,0,1,.043-7.95A106.586,106.586,0,0,1,361.1,91.491a164.274,164.274,0,0,1-21.5-11.717c-.277.288-.571.574-.9.874-.224-1.381-1.3-2.081-3.2-2.081a15.4,15.4,0,0,0-3.262.45,1.965,1.965,0,0,0-1.324-.476,6.542,6.542,0,0,0-2.372.68,10.326,10.326,0,0,1-1.455.534,7.046,7.046,0,0,1-.59-1.393A98.684,98.684,0,0,0,318.1,88.376c-5.061,6.589-10.292,13.4-17.419,16.657a5.91,5.91,0,0,1-1.574.211,7.183,7.183,0,0,1-5.688-3.011,5.587,5.587,0,0,1-.762-5.223c1.59-4.034,9.174-10.248,15.258-14.75a178.553,178.553,0,0,1,18.907-12.328c-.714-1.039-.922-1.91-.6-2.518a2.24,2.24,0,0,1,2.11-.872,6.912,6.912,0,0,1,.907.064,1.384,1.384,0,0,1,1.079-.564,1.579,1.579,0,0,1,.874.291c.421-.566.854-1.2,1.363-1.983A31.263,31.263,0,0,0,316.163,59.9Zm238.85,28.755a7.82,7.82,0,0,1,1.482,6.759c6.634,10.129,10.25,21.445,13.666,33.117l.937-1.163c5.312-6.639,8.778-11.781,10.908-16.182,2.633-5.442,3.187-9.712,1.7-13.054a9.594,9.594,0,0,0-2.488-3.3,15.965,15.965,0,0,0-4.381-2.621c-3.7-1.543-8.847-2.51-15.3-2.872-2.156-.305-4.348-.535-6.515-.683ZM275.631,719.26a6.232,6.232,0,0,1-3.265-.971,10.059,10.059,0,0,1-3.578-4.886,8.042,8.042,0,0,1,.167-5.072,14.192,14.192,0,0,1,5.651-6.826,16.2,16.2,0,0,1,8.855-2.88,10.537,10.537,0,0,1,5.375,1.382c.479.586.658,1.027.548,1.349-.17.5-1,.693-2.055.938a8.429,8.429,0,0,0-3.642,1.495c-1.217,1.044-1.638,2.629-1.284,4.845a8.41,8.41,0,0,1-1.277,7.475A6.864,6.864,0,0,1,275.631,719.26Zm246.984-7.834a7.561,7.561,0,0,1-3.945-1.12,11.058,11.058,0,0,1-3.6-3.71c-3.482-6.555-4.525-12.191-2.791-15.077a3.828,3.828,0,0,1,3.474-1.859c2.916,0,6.82,2.242,10.993,6.314a10.337,10.337,0,0,1,3.75,4.829,7.466,7.466,0,0,1,.01,4.823A8.6,8.6,0,0,1,522.615,711.426Zm-119.577-5.141a16.469,16.469,0,0,1-5.814-1.176,14.7,14.7,0,0,1-4.537-3.967,23.509,23.509,0,0,1-3.2-5.612c-1.669-4.122-2.2-8.418-1.431-11.491a6.212,6.212,0,0,1,1.7-3.118,4.587,4.587,0,0,1,3.23-1.186c2.325,0,5.254,1.271,8.707,3.777a16.876,16.876,0,0,1,8.835,6.67,12.052,12.052,0,0,1,1.828,8.462,9.139,9.139,0,0,1-2.949,5.414A9.49,9.49,0,0,1,403.038,706.285ZM121.155,646.36a14.862,14.862,0,0,1-8.04-2.8,15.588,15.588,0,0,1-5.707-6.719,49.719,49.719,0,0,1-2.991-6.28,27.624,27.624,0,0,1-1.71-6.707,7.868,7.868,0,0,1,1.526-4.949,4.5,4.5,0,0,1,3.574-1.487c2.372,0,5.508,1.258,8.83,3.541a38.583,38.583,0,0,1,8.428,7.98c2.968,3.873,4.241,7.348,3.585,9.785a9.171,9.171,0,0,1-2.6,5.873A7.073,7.073,0,0,1,121.155,646.36ZM667.264,627.58a5.794,5.794,0,0,1-3.676-1.343,11.51,11.51,0,0,1-2.7-3.344,40.78,40.78,0,0,1-3.28-8.582c-.214-.56-.464-1.128-.73-1.73l0-.007c-.977-2.216-1.987-4.507-1.378-6.768a2.976,2.976,0,0,1,2.829-1.528c2.41,0,5.95,1.8,9.238,4.7a27.673,27.673,0,0,1,4.224,4.657,15.983,15.983,0,0,1,2.525,5.107,7.122,7.122,0,0,1-.081,4.335,6.638,6.638,0,0,1-3.163,3.429A8.256,8.256,0,0,1,667.264,627.58ZM254.486,617.333a22.093,22.093,0,0,1-9-1.9c-3.086-1.831-4.4-3.953-3.8-6.139.505-1.843,2.328-3.621,5.133-5.006a20.592,20.592,0,0,1,8.812-2.089,10.994,10.994,0,0,1,6.09,1.563,6.662,6.662,0,0,1,2.96,5.261,7.158,7.158,0,0,1-1.822,5.514,8.409,8.409,0,0,1-3.669,2.149A15.92,15.92,0,0,1,254.486,617.333Zm271.2-10.264a4.523,4.523,0,0,1-2.561-.81,4.67,4.67,0,0,1-1.735-2.315,21.712,21.712,0,0,1-.483-11.688,72.76,72.76,0,0,1,3.7-11.479l.007-.017c.5-1.291,1.01-2.626,1.473-3.913.893-1.191,1.724-1.794,2.471-1.794,1.126,0,2.074,1.4,2.743,4.042a54.8,54.8,0,0,1,.891,15.259c-.4,5.913-1.461,9.888-2.838,10.632A4.3,4.3,0,0,1,525.683,607.069ZM734.92,569.459a6.178,6.178,0,0,1-3.041-.841,28.733,28.733,0,0,0-7.912-4.321.789.789,0,0,1-.285-.729c.161-.712,1.648-1.261,3.087-1.793a7.393,7.393,0,0,0,2.749-1.377,8.493,8.493,0,0,1,5.464-2.426,5.907,5.907,0,0,1,1.871.308l.267.094a5.854,5.854,0,0,1,3.258,2.457,4.841,4.841,0,0,1,.565,3.319,6.66,6.66,0,0,1-2.032,3.68A5.893,5.893,0,0,1,734.92,569.459ZM356.4,541.153a8.636,8.636,0,0,1-4.446-1.34,15.274,15.274,0,0,1-3.828-3.387,17.9,17.9,0,0,1-4.055-9.109,4.629,4.629,0,0,1,4.887-4.054,14.065,14.065,0,0,1,7.611,2.886,16.092,16.092,0,0,1,5.6,6.5,5.907,5.907,0,0,1-1.113,6.824A7.565,7.565,0,0,1,356.4,541.153Zm-281.292-.572A36.142,36.142,0,0,1,64.5,538.764c-.916-1.385-.647-2.874.822-4.551a26.628,26.628,0,0,1,4.762-3.851l0,0h0c.8-.551,1.491-1.028,2-1.449,3.408-2.219,6.645-3.391,9.361-3.391a6.605,6.605,0,0,1,5.319,2.289,6.162,6.162,0,0,1,1.1,5.241,8.63,8.63,0,0,1-3.746,5.177A16.159,16.159,0,0,1,75.109,540.581Zm431.682-43.24c-4.884,0-10.166-3.605-13.713-6.317a1.579,1.579,0,0,1-.4-1.585c.776-2.421,7.258-4.45,8.82-4.823a8.863,8.863,0,0,1,3.3-.611,11.254,11.254,0,0,1,5.7,1.6A7.8,7.8,0,0,1,514,489.541a4.67,4.67,0,0,1-.007,3.171,7.424,7.424,0,0,1-2.531,3.238A8.147,8.147,0,0,1,506.791,497.341Zm238.23-31.519c-3.288,0-6.53-1.783-9.374-5.156a30.437,30.437,0,0,1-5.749-11.343,26.6,26.6,0,0,1-1.031-8.062,10.942,10.942,0,0,1,1.851-6.139,5.822,5.822,0,0,1,4.892-2.3,14.512,14.512,0,0,1,5.984,1.589l1.707,1.829a72.291,72.291,0,0,1,7.888,9.777,27.1,27.1,0,0,1,2.794,5.53,13.017,13.017,0,0,1,.809,5.474,10.048,10.048,0,0,1-4.393,7.227A10.589,10.589,0,0,1,745.021,465.822ZM65.3,454.352a9.479,9.479,0,0,1-4.543-1.14,9.836,9.836,0,0,1-3.376-3.013,10.007,10.007,0,0,1-1.142-9.29l.089-.237c1.246-3.5,5.309-7.967,10.6-11.664a41.782,41.782,0,0,1,7.975-4.408,20.789,20.789,0,0,1,7.676-1.753,9.512,9.512,0,0,1,3.253.524h.029a.773.773,0,0,1,.551.256.74.74,0,0,1,.215.541l.144,1.023c.5,3.648.749,7.19-1.644,10.424-.586.944-1.149,1.889-1.746,2.89a65.6,65.6,0,0,1-6.172,9.142,19.438,19.438,0,0,1-8.723,6.2A10.566,10.566,0,0,1,65.3,454.352Zm297.233-58.927a4.854,4.854,0,0,1-2.326-.59c-1.97-1.088-2.768-3.059-3.539-4.965-.819-2.023-1.666-4.115-3.915-5.163-.319-.607-.4-1.023-.25-1.271.11-.181.34-.269.706-.269a12.487,12.487,0,0,1,2.967.693l.022.007a12.48,12.48,0,0,0,2.922.687,1.274,1.274,0,0,0,.4-.054c2.843.175,5.718.724,7.488,3.537a4.4,4.4,0,0,1,.185,4.637A5.47,5.47,0,0,1,362.537,395.425Zm231.039-11.155a10.819,10.819,0,0,1-4.778-1.192,9.2,9.2,0,0,1-3.966-4.562,11.317,11.317,0,0,1-.669-5.928,10.548,10.548,0,0,1,2.243-5.145,8.662,8.662,0,0,1,4.877-2.973l.259-.025c.8-.089,2.058-.3,3.656-.574h.009a90.076,90.076,0,0,1,13.373-1.59c2.42,0,4,.351,4.68,1.043a1.369,1.369,0,0,1,.409,1.009l-.345.483c-.873,1.244-1.784,2.67-2.75,4.181l0,0C606.226,375.8,600.815,384.268,593.576,384.269Zm-120.1-1.278a5.847,5.847,0,0,1-4.816-2.745,25.343,25.343,0,0,1-2.761-7.995,21.859,21.859,0,0,1,.174-8.438,2.388,2.388,0,0,1,2.037-1.516c2.692,0,6.245,5.59,8.6,9.288.788,1.24,1.468,2.31,1.912,2.841a6.008,6.008,0,0,1-.3,5.888A5.851,5.851,0,0,1,473.475,382.991Zm-315.31-22.805a21.616,21.616,0,0,1-8.137-1.773,32.853,32.853,0,0,1-7.274-4.177c-.567-.652-.755-1.182-.577-1.62.478-1.174,3.579-1.43,6.578-1.677,2.588-.214,5.031-.415,5.908-1.16a16.584,16.584,0,0,1,7.007-1.466c1.826,0,5.1.306,6.478,2.357.794,1.178.807,2.735.041,4.627a12.031,12.031,0,0,1-4.588,3.766A12.919,12.919,0,0,1,158.165,360.186Zm125.078-15.8a10.332,10.332,0,0,1-4.929-1.206,8.789,8.789,0,0,1-3.661-3.746,82.86,82.86,0,0,1-2.831-13.719c-.362-2.467-.736-5.018-1.248-7.58a6.087,6.087,0,0,1,1.557-4.711,7.949,7.949,0,0,1,5.851-2.3,9.022,9.022,0,0,1,3.567.717,17.1,17.1,0,0,1,5.69,4.238,26.856,26.856,0,0,1,4.333,6.487,26.121,26.121,0,0,1,2.31,7.407,16.028,16.028,0,0,1-.379,7,9.277,9.277,0,0,1-3.888,5.491A11.444,11.444,0,0,1,283.244,344.387Zm424.5-10.535a60.686,60.686,0,0,1-10.229-.784c-3.083-.552-4.9-1.315-5.253-2.207-.166-.419,0-.864.485-1.323a75.728,75.728,0,0,0,9.769-3.055c5.134-1.859,10.443-3.782,15.662-3.782a19.553,19.553,0,0,1,3.522.312,4.623,4.623,0,0,1,2.941,3.16,4.265,4.265,0,0,1-1.081,3.889c-.269,1.213-2.094,2.21-5.28,2.882A53.818,53.818,0,0,1,707.745,333.852ZM422.394,308.446c-.992,0-1.592-.139-1.784-.412a.425.425,0,0,1-.031-.409c3.843-6.975,12.517-14.387,21.023-14.387.342,0,.687.012,1.024.036l.184,0a4.908,4.908,0,0,1,3.3,1.242,5.84,5.84,0,0,1,1.742,2.922,5.778,5.778,0,0,1-.14,3.376,4.934,4.934,0,0,1-2.328,2.664l-.158.066C442.633,304.578,427.579,308.446,422.394,308.446Zm124.93-12.3a5.6,5.6,0,0,1-1.632-.237,9.144,9.144,0,0,1-5.264-2.775,16.983,16.983,0,0,1-3.487-5.565,30.177,30.177,0,0,1-1.829-6.881,31.507,31.507,0,0,1-.291-6.721,14.774,14.774,0,0,1,1.115-5.059c.617-1.313,1.446-2.007,2.4-2.007a3.252,3.252,0,0,1,1.956.823c1.608,4.672,4.715,8.3,7.72,11.815a51.727,51.727,0,0,1,6.016,8.038,5.413,5.413,0,0,1-.605,5.209A7.673,7.673,0,0,1,547.324,296.145Zm-408.252-5.167c-3.569,0-5.432-.349-5.7-1.067-.121-.328.106-.739.674-1.221a3,3,0,0,0,.453.031c2.15,0,6.59-1.769,11.29-3.642l.067-.027,1.4-.556c5.389-2.138,10.936-4.226,14.344-4.226a3.3,3.3,0,0,1,2.884,1.095c.637.92.556,2.459-.24,4.575a11.387,11.387,0,0,1-5.643,3.566,32.313,32.313,0,0,1-6.658.93l-.089.006-.753.055-.139-.013c-.093-.006-.214-.009-.359-.009-.731,0-2.048.081-3.574.174h-.006l-1.27.077C143.659,290.851,141.226,290.978,139.072,290.978Zm206.722-30.355a8.436,8.436,0,0,1-4.835-1.547c-1.159-.134-2.983-1.967-5.275-5.3a101.263,101.263,0,0,1-6.765-11.806,119.948,119.948,0,0,1-5.741-13.451c-1.567-4.516-2.328-8.056-2.2-10.238.1-1.761.771-2.653,1.989-2.653a3.45,3.45,0,0,1,.886.13l1.625,1.065a126.539,126.539,0,0,1,17.487,13.456,62.544,62.544,0,0,1,7.326,8.221,42.251,42.251,0,0,1,5.261,9.362,10.579,10.579,0,0,1-9.754,12.762Zm114.621-6.3a5.408,5.408,0,0,1-4.027-1.969,7.19,7.19,0,0,1-1.794-4.285,5,5,0,0,1,1.224-3.688,7.015,7.015,0,0,1,4.646-2.052c.9.064,1.826.1,2.766.1,2.653,0,7.7-.268,11.655-2.062a.813.813,0,0,1,.338-.076.83.83,0,0,1,.78.622.644.644,0,0,1-.361.75,25.07,25.07,0,0,0-5.534,4.234,34.635,34.635,0,0,0-4.5,5.392C464.016,253.271,462.221,254.321,460.415,254.321Zm-276.778-39.2c-2.283,0-3.637-.376-4.025-1.118,1.246-2.026,3.7-4.6,7.286-7.665a137.2,137.2,0,0,1,11.649-8.767c8.854-6.016,17.639-10.835,22.382-12.278a11.092,11.092,0,0,1,2.759-.364,8.769,8.769,0,0,1,5.608,1.961,9.745,9.745,0,0,1,3.13,4.74,10.386,10.386,0,0,1,0,6.105,10,10,0,0,1-4.02,5.294c-1.771,1.518-9.835,4.5-19.612,7.244C197.992,213.312,188.588,215.125,183.637,215.125Zm454.7-7.917a9.349,9.349,0,0,1-6.541-2.832,11.8,11.8,0,0,1-3.317-6.43,9.051,9.051,0,0,1,1.114-6.162,10.577,10.577,0,0,1,6.1-4.447c6.059-.5,10.867-1.1,14.729-1.591a74.2,74.2,0,0,1,7.633-.757c1.334,0,2.023.209,2.234.678.537,1.2-2.188,4.256-7.616,10.351l-.01.011c-1.964,2.205-4.409,4.95-7.17,8.139A10.843,10.843,0,0,1,638.341,207.208ZM173.812,146.377a16.2,16.2,0,0,1-6.592-1.462,14.285,14.285,0,0,1-5.764-4.707,1.239,1.239,0,0,1-.208-1.333,1.1,1.1,0,0,1,1.029-.667h.094a44.046,44.046,0,0,0,4.828-.372l.031,0a44.68,44.68,0,0,1,4.97-.375,11.5,11.5,0,0,1,6.471,1.632c1.505,1.723,1.987,3.324,1.394,4.631C179.32,145.359,176.924,146.377,173.812,146.377Zm73.952-27.143c-3.223,0-6.669-1.275-10.537-3.9-5.428-3.965-7.961-7.091-7.325-9.041.437-1.339,2.39-2.077,5.5-2.077a34.128,34.128,0,0,1,11.719,2.428c4.268,1.7,7.01,3.849,7.719,6.049.639,1.981-.357,3.937-2.962,5.812A12.024,12.024,0,0,1,247.764,119.234Z" transform="translate(31 1)"/>
  </g>
</svg>
