<svg xmlns="http://www.w3.org/2000/svg" width="828.998" height="765" viewBox="0 0 828.998 765">
  <g id="body_Tee_Selena" data-name="body/Tee Selena" transform="translate(10.998 32)">
    <path id="_Skin" data-name="âœ‹ Skin" d="M519.847,749.808c-81.151.228-129.756-.723-221.548-2.05-106.241-2.811-134.873,2.244-194.391-9.442a74.354,74.354,0,0,1-23.045-8.945c-2.517,2.844-6.784,7.075-10.836,4.274-7.464-4.932-4.042-22.164-5.893-31.894-3.064-85.684-7.965-173.925,8.789-258.572C62.766,439.877,3.25,415.394,0,407.192,53.821,266.461,171.887,101.776,327.226,107.978c3.124,3.852,5.9,9.553,9.37,13.475,21.12-7.908,50.437-15.834,51.884-46.283,3.657-20.321,6.292-39.294,8.053-57.97.319-2.136,2.881-2.87,4.455-3.78.669-4.829,2.2-9.765,5.539-13.076C433.751-2.1,495.9,9.125,512.2,13.751c22.248,3.807,19.934,27.683,24.078,45.783,6.57,22.375,11.143,45.6,20.907,67.457,2.209.3,8.4,1.381,10.678,1.78.119-2.477-1.043-9.829,1.228-11.329,4.209-4.23,5.18,3.816,6.115,6.44,91.932-17.36,152.049,60.651,172.194,147.791,14.589,43.823,33.922,88.173,59.159,135.737,15.826,29.532-29.642,35.019-48.7,46.8,19.668,76.526,22.036,154.46,25.264,231.59.852,11.864,2.01,28-2.193,33.9-1.994,1.55-3.38,1.507-5.4,1.62-3.9,4.21-10.593,3.93-16.226,5.132a338.405,338.405,0,0,1-53.2,5.729c-48.124,29.784-122.316,13.129-186.255,17.621" transform="translate(-4 -32)" fill="#d08b5b"/>
    <rect id="_Top" data-name="ðŸ‘• Top" width="438" height="288" transform="translate(234 197)" fill="#fff"/>
    <path id="_Ink" data-name="ðŸ– Ink" d="M526.038,747.677c-30.949,0-62.383-.1-92.781-.188l-11.037-.033c-11.67-.264-24.14-.387-39.244-.387-10.588,0-21.36.061-31.778.12h-.06c-10.437.059-21.229.12-31.85.12-22.994,0-40.682-.289-57.352-.937-20.83-.809-39.511-2.188-57.111-4.216-2.423,1.82-4.646,2.743-6.607,2.744a6.2,6.2,0,0,1-4.9-2.5,14.892,14.892,0,0,1-2.46-4.718,31.242,31.242,0,0,1-1.323-5.985,38.7,38.7,0,0,1,.179-11.531l.718-19.519c.459-12.376.977-25.671,1.652-39.029l1.64-31.709c2.767-53.222,5.634-105.384,10.277-158.4a626.752,626.752,0,0,1-62.2-11.79c-20.166-4.878-40.608-10.858-60.76-17.775,1.176,32.774,1.065,66.231.959,98.587-.1,29.031-.2,59.046.634,88.506.446,15.861,1.118,30.295,2.054,44.126,1.05,15.529,2.4,29.91,4.137,43.962a9.679,9.679,0,0,1,1.972,4.8,7.76,7.76,0,0,1-.831,4.308c-1.825,3.613-6.276,6.136-10.824,6.136a10.89,10.89,0,0,1-6.454-2.036c-7.475-5.7-7.534-15.209-7.591-24.406a68.925,68.925,0,0,0-.707-11.681l-.276-7.64c-.149-4.077-.3-8.117-.466-12.6-1.44-38.687-2.928-78.692-2.212-118.056.386-21.209,1.363-40.464,2.989-58.866,1.827-20.682,4.417-39.742,7.918-58.267l-6.606-2.563c-15.221-5.942-28.087-11.481-38.24-16.463C10.924,411.659,1.747,405.122.226,400.367A3.782,3.782,0,0,1,.609,397C7.346,379.347,15,361.592,23.359,344.228c8.749-18.174,18.315-36.01,28.433-53.014,10.654-17.9,22.03-35.066,33.814-51.013A514.343,514.343,0,0,1,124.5,193.433c29.145-30.955,60.034-55.122,91.811-71.83a262.949,262.949,0,0,1,25.655-11.8,239,239,0,0,1,26.66-8.775,223.847,223.847,0,0,1,27.627-5.471,218.041,218.041,0,0,1,28.557-1.886c3.64,0,7.336.093,10.984.276,2.668,1.851,4.493,4.882,6.258,7.814a48.566,48.566,0,0,0,2.881,4.419l4.765-1.73c4.46-1.632,9.22-3.44,13.81-5.6a63.563,63.563,0,0,0,12.428-7.434c8.372-6.6,12.561-14.781,12.806-25,3.69-20.445,6.339-39.506,8.1-58.273a9.63,9.63,0,0,1,3.932-6.169A11.651,11.651,0,0,1,407.481,0,12.829,12.829,0,0,1,416.8,3.8a9.53,9.53,0,0,1,2.508,7.382c-1.933,8.709-3.311,17.863-4.644,26.717-1.463,9.718-2.844,18.894-4.9,27.631A113.328,113.328,0,0,1,406.1,78.081a67.67,67.67,0,0,1-5.123,11.172,47.2,47.2,0,0,1-7.088,9.39,40.913,40.913,0,0,1-9.55,7.205,48.162,48.162,0,0,1-12.509,4.619,73.013,73.013,0,0,1-15.966,1.629c-2.345,0-4.812-.089-7.332-.266a140.769,140.769,0,0,0,24.019,30.758A171.458,171.458,0,0,0,404.744,167.3a167.05,167.05,0,0,0,36.926,16.451,131.872,131.872,0,0,0,38.22,5.976,100.038,100.038,0,0,0,25.3-3.133,84.036,84.036,0,0,0,23.152-9.881c15.272-9.5,27.174-23.933,35.375-42.908a14.076,14.076,0,0,1-6.4-2.492,22.427,22.427,0,0,1-5.265-5.357c-2.885-4-5.455-9.594-7.639-16.636-3.979-12.831-5.979-28.122-7.3-38.24l0-.027c-.308-2.354-.574-4.388-.829-6.131l-.1-1.539a59.889,59.889,0,0,1,.271-12.793,27.469,27.469,0,0,1,4.68-11.832,19.731,19.731,0,0,1,5.938,7.9,65.057,65.057,0,0,1,3.3,9.841l1.317,5.258c4.451,17.716,9.023,35,15.992,51.687l.248.04a11.344,11.344,0,0,1,3.112-8.347,9.5,9.5,0,0,1,6.708-3,7.406,7.406,0,0,1,4.7,1.652,10.457,10.457,0,0,1,3.3,5.323,155.9,155.9,0,0,1,21.184-1.491,132.834,132.834,0,0,1,30.194,3.4,123.728,123.728,0,0,1,26.789,9.632,132.15,132.15,0,0,1,23.5,15.017,155.855,155.855,0,0,1,20.316,19.555c11.956,13.726,22.566,30.324,31.537,49.333a311.93,311.93,0,0,1,20.157,57.314c7.448,22.355,16.381,45.41,26.549,68.525,9.4,21.357,20.21,43.589,32.143,66.078a35.636,35.636,0,0,1,3.923,11.951,20.736,20.736,0,0,1-1.073,9.689,23.489,23.489,0,0,1-5.424,8.239,43.856,43.856,0,0,1-8.608,6.606c-6.521,3.963-14.269,7.122-21.761,10.178-5.1,2.079-9.908,4.041-14.077,6.148,4.117,16.493,7.542,33.458,10.474,51.864,2.615,16.417,4.769,33.588,6.586,52.492,3.451,35.907,5.123,72.973,6.6,105.677-.334,4.768.125,11.163.61,17.933,1.053,14.675,2.247,31.306-3.941,38.654-2.688,2.1-5.268,3.17-7.666,3.171a7.749,7.749,0,0,1-3.687-.928,10.261,10.261,0,0,1-3-2.51,20.666,20.666,0,0,1-3.951-8.755,26.532,26.532,0,0,1-.287-10.025c.547-23.164.292-48.47-.779-77.363-.955-25.775-2.456-51.947-3.907-77.258v-.017c-1.687-29.422-3.431-59.845-4.328-89.8-16.266,6.871-33.435,13.507-51.027,19.722.513,44.776,3.894,90.258,7.165,134.242,2.313,31.112,4.7,63.283,6.05,94.84a12.528,12.528,0,0,1,4.445,6.475,8.988,8.988,0,0,1-1.472,7.76,62.583,62.583,0,0,1-8,9.134,64.864,64.864,0,0,1-9.238,7.2,74.382,74.382,0,0,1-10.244,5.488,91.525,91.525,0,0,1-11.017,4.006,132.454,132.454,0,0,1-23.417,4.478c-7.043.76-14.574,1.168-23.7,1.282C608.517,747.474,571.24,747.677,526.038,747.677ZM650.623,350.65c-13.287,0-37.034,4.464-70.58,13.268-26.785,7.03-51.848,14.733-62.55,18.023l-.055.017c-1.966.6-3.386,1.041-4.141,1.264l-4.26,1.553c-5.448,1.98-11.011,3.985-16.392,5.924-32.275,11.632-65.649,23.659-97.138,38.52a422.683,422.683,0,0,0-45.645,24.792c-7.451,4.7-14.613,9.63-21.287,14.642-7.014,5.267-13.729,10.807-19.958,16.468a1.427,1.427,0,0,0-.3,1.586,1.523,1.523,0,0,0,1.392.909,1.645,1.645,0,0,0,.709-.166l.194-.114c.655-.364,1.933-.911,3.286-1.49,2.048-.876,4.164-1.78,4.106-2.062-.012-.06-.119-.089-.327-.089a13.479,13.479,0,0,0-2.063.288c36.6-23.08,78.571-43.119,128.311-61.263,20.685-7.545,42.9-14.848,67.918-22.325,19.727-5.9,40.865-11.819,68.536-19.2,13.23-3.2,26.662-6.169,39.922-8.829,4.018-.976,8.269-1.672,12.38-2.344a144.573,144.573,0,0,0,14.653-2.918,45.6,45.6,0,0,0,13.474-5.853c2.122-2.968,2.75-5.344,1.866-7.062-.619-1.2-1.994-2.111-4.087-2.7a30.637,30.637,0,0,0-7.953-.837ZM305.276,416.924c-6.155,0-9.837,1-11.587,3.163-1.109,1.368-1.423,3.24-.933,5.565a16.278,16.278,0,0,0,4.473,5.211,20.512,20.512,0,0,0,5.915,3.04,48,48,0,0,0,13.6,1.939c1.3.089,2.625.134,3.952.134a60.665,60.665,0,0,0,10.895-.988,53.671,53.671,0,0,0,10.363-2.958c6.948-2.8,12.253-6.873,15.342-11.784a20.786,20.786,0,0,0,3.217-10.905,30.85,30.85,0,0,0-3.4-13.729,18.716,18.716,0,0,0,12.351,4.8c7.594,0,14.375-4.6,18.726-8.453a54.278,54.278,0,0,0,7.519-8.242,51.293,51.293,0,0,0,5.333-8.852,19.526,19.526,0,0,0,7.9,8.445,21.272,21.272,0,0,0,10.46,2.521,35.013,35.013,0,0,0,12.681-2.607A42.858,42.858,0,0,0,443.3,376.66a25.036,25.036,0,0,0,15.771,5.664,28.785,28.785,0,0,0,10.577-2.116,39.63,39.63,0,0,0,9.734-5.648,48.5,48.5,0,0,0,8.174-8.129,46.387,46.387,0,0,0,5.9-9.559c.153,3.413.33,7.385.521,11.334A7.129,7.129,0,0,0,496.6,373.4a8.352,8.352,0,0,0,5.242,1.9,6.151,6.151,0,0,0,6.283-5.176c1.392-6.52,3.027-12.843,4.86-18.794a180.9,180.9,0,0,1,6.675-18.225,66.53,66.53,0,0,1,6.631-13.776c1.928-2.783,3.735-4.194,5.369-4.194,2.158,0,3.989,2.5,5.3,7.224a76.1,76.1,0,0,1,2.084,18.072c.8,5.075,2.429,9.191,4.839,12.235a15.075,15.075,0,0,0,11.37,5.807c.092.006.186.009.279.009a7.336,7.336,0,0,0,4.229-1.583,6.07,6.07,0,0,0,2.458-3.729l.585-3.913c1.221-8.1,2.672-16.651,5.767-24.35a24.6,24.6,0,0,0,2.6,8.687,19.938,19.938,0,0,0,4.984,6.129,20.716,20.716,0,0,0,6.638,3.633,23.9,23.9,0,0,0,7.566,1.2,26.4,26.4,0,0,0,7.12-.987,26.671,26.671,0,0,0,6.73-2.929,25.44,25.44,0,0,0,10.059-11.5,26.3,26.3,0,0,0,13.671,3.924c14.743,0,28.169-12.7,34.935-25.282l.269-.508a5.845,5.845,0,0,0-.186-5.912,6.46,6.46,0,0,0-5.326-3.3A5.07,5.07,0,0,0,653.72,300l-1.587,1.654a85.122,85.122,0,0,1-11.054,9.972,32.748,32.748,0,0,1-6.368,3.666,17.131,17.131,0,0,1-6.57,1.446,12.62,12.62,0,0,1-4.923-.988,15.568,15.568,0,0,1-4.771-3.251,106.54,106.54,0,0,0-.081-14.939,9.041,9.041,0,0,0-8.406-7.956,5.986,5.986,0,0,0-4.588,2.151,15.893,15.893,0,0,0-10.542-3.924,21.923,21.923,0,0,0-10.671,3.055,38.031,38.031,0,0,0-11.885,5.779,45.76,45.76,0,0,0-9.389,9.165,57.3,57.3,0,0,0-6.823,11.41,64.447,64.447,0,0,0-4.186,12.513,56.892,56.892,0,0,0-1.156-10.123,34,34,0,0,0-3.263-9.19c-3.356-6.144-8.487-9.553-15.25-10.132h-.171c-13.622,0-19.665,13.792-24.521,24.874l-.007.016c-.525,1.2-1.021,2.331-1.519,3.429-.36-6.139-.63-11.024-.851-15.376a6.921,6.921,0,0,0-2.2-4.968,6.7,6.7,0,0,0-4.477-1.645,6.927,6.927,0,0,0-7,6.352l-.028.261c-.94,8.93-3.654,22.443-8.451,33.584-2.736,6.355-5.884,11.359-9.357,14.873-4.06,4.108-8.59,6.192-13.463,6.194a20.053,20.053,0,0,1-6.365-1.1,70.312,70.312,0,0,0,6.767-9.061,101.682,101.682,0,0,0,6.733-12.3,72.649,72.649,0,0,0,4.776-13.516,34.637,34.637,0,0,0,.9-12.707c-.764-5.276-3.262-9.235-7.427-11.767a24.626,24.626,0,0,0-6-.768c-8.905,0-16.9,5.366-22.507,15.111a53.551,53.551,0,0,0-6.709,22.861,46.66,46.66,0,0,0,.631,11.58,31.384,31.384,0,0,0,3.571,10.005l-.632.443c-3.059,2.111-8.956,5.651-14.079,5.651-3.971,0-6.746-2.108-8.247-6.266l-.439-.992a32.649,32.649,0,0,1-2.379-7.04,12.561,12.561,0,0,1,.587-7.23,294.481,294.481,0,0,0,4.738-30.454,148.959,148.959,0,0,0,.934-19.8c-.228-6.435-1.2-10.795-2.9-12.959a3.816,3.816,0,0,0-3.08-1.621c-1.761,0-3.929,1.174-6.443,3.489a67.133,67.133,0,0,0-6.362,16.875,121.18,121.18,0,0,0-2.771,17.874c-1.174,5.77-.622,11.8-.088,17.637a85.508,85.508,0,0,1,.535,12.323,27.223,27.223,0,0,1-3.075,11.7,41.52,41.52,0,0,1-3.9,7.714,45.878,45.878,0,0,1-5.428,6.95,29.413,29.413,0,0,1-6.13,5.023,12.047,12.047,0,0,1-6.008,1.933c-3.773,0-8.411-2.85-9.077-16.43a33.2,33.2,0,0,0,11.093-2.137,21.611,21.611,0,0,0,7.489-4.846A18.94,18.94,0,0,0,384.32,350.3a19.256,19.256,0,0,0-1.059-6.016,16.674,16.674,0,0,0-2.823-5.11,13.435,13.435,0,0,0-4.379-3.548,12.666,12.666,0,0,0-5.725-1.328,18.856,18.856,0,0,0-9.345,2.8,34.881,34.881,0,0,0-8.311,10.645,43.585,43.585,0,0,0-4.2,13.041,50.576,50.576,0,0,0-.281,13.888,48,48,0,0,0,3.434,13.188,36.68,36.68,0,0,0-11.051-8,111.417,111.417,0,0,0-12.762-5.018c-6.444-2.233-13.1-4.542-18.7-8.51-6.061-6.551-8.329-13.632-6.742-21.046a32.642,32.642,0,0,1,6.329-12.8,67.866,67.866,0,0,1,11.386-11.36,111.022,111.022,0,0,1,13.585-9.273,117.491,117.491,0,0,1,12.926-6.539c.45-.5,3.119-1.635,6.21-2.954,4.456-1.9,9.5-4.057,9.413-4.938-.016-.152-.19-.263-.518-.328a108.3,108.3,0,0,0-25.052,3.043,83.285,83.285,0,0,0-23.317,9.584,47.966,47.966,0,0,0-11.53,7.921,50.963,50.963,0,0,0-8.721,10.6,50.049,50.049,0,0,0-5.489,12.246,44.147,44.147,0,0,0-1.836,12.87,37.683,37.683,0,0,0,1.334,9.661,33.984,33.984,0,0,0,3.926,8.961,37.231,37.231,0,0,0,16.393,13.964,114.389,114.389,0,0,0,11.112,4.424,106.089,106.089,0,0,1,11.9,4.812c4.205,2.18,7.3,4.55,9.2,7.046,1.74,2.283,2.4,4.618,1.9,6.753-.549,2.346-2.436,4.366-5.458,5.841a29.754,29.754,0,0,1-12.257,2.486,17.371,17.371,0,0,1-3.574.286c-1.94,0-4.225-.149-6.645-.306l-.45-.029c-2.719-.177-5.366-.336-7.868-.336Zm54.938-49.5h0l.02-.635a46.145,46.145,0,0,1,2.037-11.653,24.748,24.748,0,0,1,2.508-5.574,11.307,11.307,0,0,1,3.733-3.836,3.823,3.823,0,0,1,1.91-.586,3.279,3.279,0,0,1,2.7,1.681c1.759,2.582,2.2,7.494,1.335,9.7a14.837,14.837,0,0,1-5.7,6.755,36.57,36.57,0,0,1-8.546,4.145Zm85.139-11.658v0a31.78,31.78,0,0,1,.6-20.774,29.64,29.64,0,0,1,5.28-9.083,23.776,23.776,0,0,1,8.247-6.258,6.3,6.3,0,0,1-.038,1.618v.01c-.028.265-.055.515-.063.743a56.186,56.186,0,0,1-4.5,17.887,69.767,69.767,0,0,1-9.52,15.857Zm145.278-25.8a6.805,6.805,0,0,1-4.148-1.45,9.619,9.619,0,0,1-2.926-3.9,15.054,15.054,0,0,1-.563-9.286,21.073,21.073,0,0,1,2.178-5.468,28.066,28.066,0,0,1,4.228-5.609,17.93,17.93,0,0,1,4.568-.572,24.074,24.074,0,0,1,6.257.884,24.457,24.457,0,0,0,2.415,11.975c-1.511,4.538-3.425,8.017-5.689,10.342A8.976,8.976,0,0,1,590.631,329.97Z" transform="translate(-11 -23)"/>
  </g>
</svg>
