<svg xmlns="http://www.w3.org/2000/svg" width="841.1" height="773.761" viewBox="0 0 841.1 773.761">
  <g id="body_Tee_Arms_Crossed" data-name="body/Tee Arms Crossed" transform="translate(0 40)">
    <path id="_Skin" data-name="âœ‹ Skin" d="M569.933,257.977c-8.684-3.1-17.054-6.672-24.68-11.932-21.983-16.363-36.317-40.988-49.861-64.319-19.078-33.933-32.669-70.091-42.064-107.811-4.037-16.206-5.408-35-14.58-49.364C417.956-5.534,356.987-1.636,324.612,3.645c-21.68,3.836-26.161,28.1-31.085,46.051a377.75,377.75,0,0,0-9.037,45.291,113.193,113.193,0,0,1-17.179,8.879c-62.859,19.275-73.907,55.009-97.916,110.207C128.844,294.3,18.809,325.715,2.188,420.664c-10.709,62.685,19.744,121.658,51.141,173.77,29.24,56.921,70.061,84.241,135.07,70.793,60.975-13.678,119.575-36.559,179.477-54.24,29.013-7.133,57.98-25.687,88.5-19.218A776.453,776.453,0,0,0,648.317,610.7c90.484,3.659,90.47-83.186,81.183-150.439C722.995,355.6,670.2,288.395,569.933,257.977Z" transform="translate(90 -40)" fill="#d08b5b"/>
    <path id="_Ink" data-name="ðŸ– Ink" d="M390.8,735.762c-56.219,0-108.588-1.712-155.652-5.084-52.911-3.791-97.937-9.626-133.828-17.342a16.484,16.484,0,0,1-12.588,5.629,15.975,15.975,0,0,1-7.322-1.729,13.952,13.952,0,0,1-5.663-5.354,23.37,23.37,0,0,1-2.711-8.8,92.522,92.522,0,0,1-.629-9.754v-.013c-.04-1.394-.077-2.711-.143-3.95-.232-4.365-1.053-24.293-1.924-45.39l0-.06c-.905-21.949-1.841-44.645-2.278-53.892-.139-2.949-.293-6.057-.416-8.555-.737-14.949-1.5-30.406-1.363-45.625.088-9.9.531-18.733,1.355-27.019.069-.689.126-1.448.186-2.252.255-3.389.571-7.6,2.084-10.6a272.509,272.509,0,0,0-18.786-42.314,172.33,172.33,0,0,1-35.3-13.362c-.487-.249-.98-.5-1.456-.735a42.484,42.484,0,0,1-6.6-3.82A13.731,13.731,0,0,1,3.1,429.865a36.6,36.6,0,0,1-3.075-15.5c.471-11.089,2.166-22.4,3.806-33.345.395-2.634.8-5.357,1.185-8.022,2.028-14.14,4.411-28.334,7.081-42.189,7.825-40.593,17.413-83.651,34.444-123.515,17.486-40.923,43.3-72.635,76.714-94.257,19.09-12.352,41.027-22.687,65.2-30.718a387.631,387.631,0,0,1,70.387-15.989c.935-.126,1.876-.273,2.785-.416a47.018,47.018,0,0,1,7.173-.752,16.813,16.813,0,0,1,5.686.908c.3.107.619.226.924.341a11.135,11.135,0,0,0,3.776.953h.047a26.8,26.8,0,0,0,4.618-.613c.986-.188,2.005-.383,2.97-.5,5.2-.607,10.5-.955,15.624-1.291l.066,0c1.454-.1,2.958-.194,4.436-.3.819-.057,1.665-.107,2.484-.156h.019c4.723-.28,9.607-.57,13.966-2.3,9-3.582,14.531-29.664,17.188-42.2.578-2.727,1.034-4.88,1.353-5.975.154-.526.309-1.088.46-1.631,1.162-4.186,2.608-9.4,6.151-11.6A5.816,5.816,0,0,1,351.6,0a5.612,5.612,0,0,1,4.24,1.741c1.394,1.613,2.068,3.878,2.06,6.922a48.184,48.184,0,0,1-.992,8.121c-.253,1.4-.491,2.721-.633,3.91-.048.4-.1.962-.168,1.611-.266,2.674-.761,7.65-1.887,13.492a91.992,91.992,0,0,1-5.713,19.126c-3.182,7.332-7.247,13.221-12.081,17.5A34.158,34.158,0,0,1,327.2,78.3a35.99,35.99,0,0,1-11.768,2.75c-11.5.773-19.714,1.653-25.112,2.691-4.423.85-6.952,1.8-7.958,2.983a2.866,2.866,0,0,0-.518,2.393c.024.252.049.511.049.763,3.986,7.1,10.805,17.969,16.9,25.252a207.286,207.286,0,0,0,25.048,25.241,165.5,165.5,0,0,0,23.378,16.479,168.371,168.371,0,0,0,25.885,12.261,165.086,165.086,0,0,0,27.583,7.647,157,157,0,0,0,28.473,2.637c.809,0,1.629-.007,2.438-.02,11.259-.181,20.777-1.748,29.1-4.792a58.876,58.876,0,0,0,12.827-6.519,56.448,56.448,0,0,0,11.21-10.065c5.376-6.294,10.22-15.132,14.81-27.018,3.95-10.23,7.007-20.848,9.7-30.217q.449-1.559.882-3.057c-12.945-16.135-18.4-37.637-13.569-53.5,1.4-4.6,3.443-6.932,6.072-6.932a6.682,6.682,0,0,1,3.408,1.116c3.168,1.924,3.886,8.922,4.463,14.546a45.563,45.563,0,0,0,.758,5.516c2.167,8.67,6.724,13.793,12.493,20.279.528.593,1.126,1.266,1.726,1.946.4-.032.8-.048,1.19-.048a15.421,15.421,0,0,1,11.12,4.921c18.058,4.422,31.49,8.62,43.552,13.611A150.456,150.456,0,0,1,620.5,122.238a199.677,199.677,0,0,1,25.985,26.321c6.827,8.2,13.862,17.635,22.137,29.7,11.875,17.317,23.542,35.212,34.824,52.518l.036.055c4.164,6.388,8.471,12.993,12.725,19.473q4.686,7.138,9.371,14.277l.463.706c14.255,21.721,28.994,44.181,43.612,66.279,4.422,6.686,8.85,13.365,13.163,19.85,2.041,3.069,4.2,6.312,6.6,9.912.5.746,1.034,1.486,1.6,2.27l.009.013c1.681,2.319,3.419,4.718,4.183,7.341.735,2.526.194,5.247-.241,7.434-.1.5-.2,1.024-.28,1.494a29.893,29.893,0,0,1-2.553,8.914,35.318,35.318,0,0,1-7.57,10.131,142.647,142.647,0,0,1,6.069,16.168,169.282,169.282,0,0,1,4.224,16.756,225.807,225.807,0,0,1,3.986,34.331c.841,21.925-.417,40.987-3.847,58.273a98.886,98.886,0,0,1-6.7,21.455,71.627,71.627,0,0,1-12.2,18.8,68.8,68.8,0,0,1-14.391,11.919,84.839,84.839,0,0,1-16.888,8.052c-12.314,4.329-26.206,6.433-42.472,6.433-7.03,0-14.556-.389-23.007-1.19.339,1.449.639,2.9.929,4.3l.013.062c.119.575.242,1.17.363,1.742.541,2.545,1.1,13.5,1.752,26.175v.009c.963,18.77,2.161,42.13,3.863,49.83.284,1.285.53,2.656.79,4.108.832,4.636,1.774,9.89,4.267,13.412a23.016,23.016,0,0,1,3.455,6.952,16.279,16.279,0,0,1,.313,7.726,25.851,25.851,0,0,1-6.3,12.036c-.663.658-1.078,1.138-1.38,1.487-.835.965-.835.965-2.88,1.09-1.607.1-4.591.281-10.33,1.1-15.468,2.21-33.792,4.291-54.461,6.187-20.967,1.923-43.885,3.611-68.117,5.017-51.766,3.005-107.375,4.594-160.817,4.594h0ZM192.572,393.567a286.2,286.2,0,0,0-41.647,3.129c-12.845,1.9-26.223,4.592-40.9,8.24-11.883,2.954-24.654,6.538-40.19,11.279.465,1.713,1.018,3.736,1.6,5.744,1.254,4.363,2.585,8.726,3.956,12.968,2.975,9.195,6.3,18.321,9.885,27.125a351.358,351.358,0,0,0,25.8,50.906A347.872,347.872,0,0,0,139.316,553.1a231.8,231.8,0,0,0,16.673,18.2,177.781,177.781,0,0,0,18.541,15.844,67.06,67.06,0,0,0,18.755,9.774,66.092,66.092,0,0,0,20.761,3.285h.007c.982,0,1.987-.021,2.987-.063,15.259-.638,30.352-4.66,44.949-8.549l.02-.005c2.161-.576,4.4-1.171,6.586-1.744,35.285-9.219,70.547-20.167,104.807-32.539,14.9-5.38,30.564-11.425,50.79-19.6,9.148-3.7,17.478-7.182,25.468-10.652,2.45-1.064,4.935-2.245,7.339-3.387,1.543-.733,3.139-1.492,4.738-2.224-7.729-4.647-15.464-9.553-22.945-14.3l-.026-.017c-7.245-4.595-14.736-9.345-22.212-13.855-9.222-5.563-17.473-10.1-25.225-13.868a190.042,190.042,0,0,0-26.685-10.728,228.493,228.493,0,0,0-30.031-7.154,239.778,239.778,0,0,0-30.713-3.117c-4.161-.155-8.4-.166-12.505-.177-5.837-.016-11.871-.031-17.766-.46a38.562,38.562,0,0,1-11.976-2.583,25.069,25.069,0,0,1-5.257-2.915,22.579,22.579,0,0,1-4.468-4.323c-4.4-5.624-6.481-12.851-8.491-19.84-.434-1.508-.882-3.067-1.341-4.557-2.722-8.835-5.359-17.8-7.8-26.177-.784-.138-1.575-.3-2.34-.457l-.013,0c-.858-.176-1.746-.358-2.6-.5-3.851-.643-7.825-1.178-11.811-1.592-7.152-.742-14.589-1.159-22.106-1.24C194.486,393.573,193.528,393.567,192.572,393.567Zm105.713,40.279h0a253.373,253.373,0,0,1,59.963,7.308A228.474,228.474,0,0,1,389.614,451.3a253.328,253.328,0,0,1,29.676,14.366c10.647,6.024,21.113,12.737,31.234,19.228l.013.009.006,0c7.773,4.985,15.81,10.14,23.876,14.949a445.141,445.141,0,0,0,122.444,49.992c10.717,2.62,22.051,5.031,33.689,7.168,10.844,1.991,22.29,3.8,34.023,5.391a266.513,266.513,0,0,0,35.935,2.782c4.515,0,8.926-.17,13.111-.507a92.475,92.475,0,0,0,21.182-3.988,51.43,51.43,0,0,0,18.7-10.4c6.421-5.8,10.974-13.461,13.92-23.428,2.69-9.1,3.661-18.945,4.257-27.377a297.457,297.457,0,0,0,.493-32.614,177.649,177.649,0,0,0-4.236-32.3A133.014,133.014,0,0,0,757.4,405.624c-.74-1.5-1.647-3.1-2.607-4.795l-.006-.01c-2.406-4.241-5.133-9.047-5.9-13.706-2.07-.109-4.179-.165-6.269-.165a126.171,126.171,0,0,0-24.547,2.469,150.852,150.852,0,0,0-23.673,6.847l.439.027.133.008c1.946.119,3.958.241,5.936.372,6.148.407,11.21.88,15.929,1.488.831.107,1.692.192,2.6.282l.027,0c3.579.354,7.635.756,10.579,2.629a9.689,9.689,0,0,1,4.446,7.344,11.841,11.841,0,0,1-.616,5.116,11.6,11.6,0,0,1-2.8,4.433,12.131,12.131,0,0,1-5.429,2.928,25.932,25.932,0,0,1-6.748.763,85.03,85.03,0,0,1-9.707-.746c-1.372-.16-2.668-.311-3.843-.411-46.121-3.935-81.332-7.644-114.17-12.026-39.324-5.249-78.835-12.049-115.673-18.616-18.5-3.3-38.33-6.714-58-9.367a577.47,577.47,0,0,0-58.5-5.178c-4.424-.144-8.817-.217-13.056-.217-7.717,0-15.289.243-22.506.721-7.665.508-15.2,1.3-22.387,2.354-14.674,2.152-28.908,6.308-42.673,10.328l-.033.01c-2.96.864-6.022,1.758-9.05,2.622,1.352,3.225,2.7,6.492,4.01,9.652,3.095,7.484,6.295,15.222,9.648,22.743.3.668.6,1.432.91,2.242,1.287,3.308,2.887,7.424,6.028,8.654a12.934,12.934,0,0,0,4.719.735,50.487,50.487,0,0,0,6.149-.515c1.346-.168,2.615-.326,3.755-.393C289.055,433.981,293.686,433.846,298.285,433.846Zm315.933-65.317a31.2,31.2,0,0,0-12.24,2.956,114,114,0,0,0-11.508,6.045c-.981.565-1.906,1.1-2.824,1.615-2.527,1.444-5.213,3.082-8.454,5.153,20.956,2.872,42.426,5.458,63.815,7.682-5.872-9.176-12.272-16.094-19.025-20.559a17.293,17.293,0,0,0-4.794-2.219A18.123,18.123,0,0,0,614.217,368.529Z" transform="translate(42 -2)"/>
  </g>
</svg>
